<svg width="52" height="48" viewBox="0 0 52 48" fill="none" xmlns="http://www.w3.org/2000/svg">
<circle opacity="0.4" cx="35.4668" cy="25.9434" r="16" fill="#CDE298"/>
<path d="M26.5912 33.2928C26.2912 33.5178 25.9764 33.7578 25.7064 33.9978H28.0011C28.265 34.0017 28.5168 34.1095 28.702 34.2975C28.8872 34.4856 28.9913 34.7389 28.9913 35.0028C28.9874 35.2642 28.8817 35.5138 28.6969 35.6986C28.5121 35.8835 28.2624 35.989 28.0011 35.9929H23.9962C23.7322 35.9929 23.4789 35.889 23.2909 35.7038C23.1028 35.5185 22.9953 35.2668 22.9913 35.0028C22.9913 33.5028 24.2665 32.5429 25.3915 31.7029C26.1415 31.1329 26.9962 30.5029 26.9962 29.9929C26.9962 29.8616 26.97 29.7317 26.9193 29.6106C26.8686 29.4895 26.7946 29.3795 26.701 29.2874C26.6075 29.1952 26.4962 29.1227 26.3744 29.0739C26.2525 29.025 26.1226 29.0008 25.9913 29.0028C25.8607 29.0008 25.7307 29.025 25.6097 29.0741C25.4887 29.1231 25.3791 29.196 25.2867 29.2883C25.1944 29.3806 25.1212 29.4906 25.0721 29.6117C25.0231 29.7327 24.9991 29.8623 25.0011 29.9929C25.0011 30.1249 24.9754 30.2555 24.9249 30.3774C24.8744 30.4993 24.8 30.6102 24.7066 30.7035C24.6133 30.7968 24.5027 30.8709 24.3807 30.9214C24.2588 30.9719 24.1282 30.9978 23.9962 30.9978C23.8642 30.9978 23.7336 30.9719 23.6117 30.9214C23.4897 30.8709 23.3791 30.7968 23.2857 30.7035C23.1924 30.6102 23.118 30.4993 23.0675 30.3774C23.017 30.2555 22.9913 30.1249 22.9913 29.9929C22.9913 29.1972 23.3069 28.434 23.8695 27.8714C24.4321 27.3088 25.1957 26.9929 25.9913 26.9929C26.787 26.9929 27.5498 27.3088 28.1124 27.8714C28.675 28.434 28.9913 29.1972 28.9913 29.9929C28.9913 31.4929 27.7162 32.4528 26.5912 33.2928ZM34.9913 26.9929C34.86 26.9929 34.7301 27.0189 34.609 27.0696C34.4879 27.1203 34.3781 27.1945 34.286 27.288C34.1939 27.3816 34.121 27.4925 34.0721 27.6143C34.0233 27.7362 33.9991 27.8665 34.0011 27.9978V30.9978H32.9962C32.8642 30.9978 32.7336 30.9719 32.6117 30.9214C32.4897 30.8709 32.3791 30.7968 32.2857 30.7035C32.1924 30.6102 32.118 30.4993 32.0675 30.3774C32.017 30.2555 31.9913 30.1249 31.9913 29.9929V27.9978C31.9913 27.7338 31.8872 27.4805 31.702 27.2924C31.5168 27.1044 31.265 26.9968 31.0011 26.9929C30.7345 26.9929 30.4791 27.0987 30.2906 27.2871C30.1022 27.4756 29.9962 27.7312 29.9962 27.9978V29.9929C29.9962 30.7885 30.3125 31.5515 30.8751 32.1142C31.4377 32.6768 32.2005 32.9929 32.9962 32.9929H34.0011V35.0028C34.0011 35.1328 34.0268 35.2616 34.0765 35.3817C34.1263 35.5018 34.1992 35.6109 34.2911 35.7028C34.383 35.7948 34.4925 35.8677 34.6127 35.9174C34.7328 35.9672 34.8613 35.9929 34.9913 35.9929C35.2553 35.9929 35.5086 35.889 35.6966 35.7038C35.8847 35.5185 35.9923 35.2668 35.9962 35.0028V27.9978C35.9962 27.7312 35.8902 27.4756 35.7018 27.2871C35.5133 27.0987 35.2579 26.9929 34.9913 26.9929ZM25.0011 23.9929V18.9978C25.0011 18.7312 24.8951 18.4756 24.7066 18.2871C24.5182 18.0987 24.2627 17.9929 23.9962 17.9929C23.7297 17.9929 23.4742 18.0987 23.2857 18.2871C23.0973 18.4756 22.9913 18.7312 22.9913 18.9978V23.0028H19.9913C19.8607 23.0008 19.7307 23.025 19.6097 23.0741C19.4887 23.1231 19.3791 23.196 19.2867 23.2883C19.1944 23.3806 19.1212 23.4906 19.0721 23.6117C19.0231 23.7327 18.9991 23.8623 19.0011 23.9929C18.9991 24.1241 19.0233 24.2545 19.0721 24.3763C19.121 24.4981 19.1939 24.6091 19.286 24.7026C19.3781 24.7961 19.4879 24.8704 19.609 24.921C19.7301 24.9717 19.86 24.9978 19.9913 24.9978H23.9962C24.1282 24.9978 24.2588 24.9719 24.3807 24.9214C24.5027 24.8709 24.6133 24.7968 24.7066 24.7035C24.8 24.6102 24.8744 24.4993 24.9249 24.3774C24.9754 24.2555 25.0011 24.1249 25.0011 23.9929ZM34.9913 14.0028C34.8607 14.0008 34.7307 14.025 34.6097 14.0741C34.4887 14.1231 34.3791 14.196 34.2867 14.2883C34.1944 14.3806 34.1212 14.4906 34.0721 14.6117C34.0231 14.7327 33.9991 14.8623 34.0011 14.9929V17.3628C33.1295 16.0499 32.0078 14.9216 30.7001 14.0422C29.3923 13.1628 27.9242 12.5495 26.3795 12.2375C24.8348 11.9255 23.2436 11.9209 21.6971 12.2238C20.1506 12.5267 18.6792 13.1311 17.3663 14.0028C14.7165 15.7606 12.8729 18.4983 12.2401 21.6145C11.6073 24.7307 12.237 27.9706 13.9913 30.6228C15.3652 32.6658 17.3338 34.2369 19.631 35.1228C19.75 35.1444 19.8723 35.1444 19.9913 35.1228C20.2553 35.1228 20.5086 35.0191 20.6966 34.8338C20.8847 34.6486 20.9923 34.3968 20.9962 34.1329C20.9967 33.9307 20.937 33.7328 20.8248 33.5645C20.7126 33.3963 20.5532 33.2652 20.3663 33.1879C19.1402 32.7163 18.0193 32.0074 17.0675 31.1019C16.1157 30.1965 15.3512 29.1124 14.819 27.9113C14.2867 26.7103 13.9971 25.416 13.9657 24.1027C13.9343 22.7895 14.1617 21.483 14.6358 20.2579C15.5945 17.7869 17.4946 15.7972 19.9188 14.7257C22.343 13.6542 25.0934 13.5885 27.566 14.5428C29.7034 15.3632 31.4934 16.8938 32.6358 18.8778H29.9962C29.7297 18.8778 29.4742 18.9838 29.2857 19.1723C29.0973 19.3607 28.9913 19.6163 28.9913 19.8829C28.9953 20.1468 29.1028 20.3986 29.2909 20.5838C29.4789 20.7691 29.7322 20.8728 29.9962 20.8728H32.9962C33.7918 20.8728 34.5547 20.5568 35.1173 19.9942C35.6799 19.4316 35.9962 18.6684 35.9962 17.8728V14.8728C35.9962 14.7415 35.97 14.6115 35.9193 14.4904C35.8686 14.3693 35.7946 14.2596 35.701 14.1674C35.6075 14.0753 35.4962 14.0026 35.3744 13.9538C35.2525 13.9049 35.1226 13.8809 34.9913 13.8829V14.0028Z" fill="#3C635D"/>
</svg>
