<svg width="52" height="48" viewBox="0 0 52 48" fill="none" xmlns="http://www.w3.org/2000/svg">
<circle opacity="0.4" cx="35.4668" cy="25.9434" r="16" fill="#CDE298"/>
<path d="M16.0049 25.0049H19.0049V27H16.0049V25.0049ZM21 27H24V25.0049H21V27ZM16.0049 31.0049H19.0049V29.0099H16.0049V31.0049ZM21 31.0049H24V29.0099H21V31.0049ZM16.0049 19.0049H19.0049V17.0099H16.0049V19.0049ZM21 19.0049H24V17.0099H21V19.0049ZM16.0049 23.0099H19.0049V21H16.0049V23.0099ZM21 23.0099H24V21H21V23.0099ZM36 20.0099V36H12V15C12 14.2044 12.3159 13.4411 12.8785 12.8785C13.4411 12.3159 14.2044 12 15 12H25.0049C25.8005 12 26.5634 12.3159 27.126 12.8785C27.6886 13.4411 28.0049 14.2044 28.0049 15V17.0099H33C33.7956 17.0099 34.5585 17.3261 35.1211 17.8887C35.6837 18.4513 36 19.2143 36 20.0099ZM26.0098 15C26.0098 14.8687 25.9839 14.7388 25.9332 14.6177C25.8825 14.4966 25.8081 14.3866 25.7146 14.2945C25.6211 14.2024 25.5102 14.1299 25.3883 14.081C25.2665 14.0321 25.1361 14.008 25.0049 14.0099H15C14.87 14.0099 14.7411 14.0356 14.621 14.0854C14.5009 14.1351 14.3917 14.2081 14.2998 14.3C14.2079 14.3919 14.135 14.501 14.0852 14.6212C14.0355 14.7413 14.0098 14.87 14.0098 15V34.0049H26.0098V15ZM34.0049 20.0099C34.0049 19.7434 33.8989 19.4878 33.7104 19.2993C33.522 19.1108 33.2665 19.0049 33 19.0049H28.0049V34.0049H34.0049V20.0099ZM30 27H32.0098V25.0049H30V27ZM30 31.0049H32.0098V29.0099H30V31.0049ZM30 23.0099H32.0098V21H30V23.0099Z" fill="#3C635D"/>
</svg>
