<svg width="174" height="173" viewBox="0 0 174 173" fill="none" xmlns="http://www.w3.org/2000/svg">
<rect width="174" height="173" rx="20" fill="#FCFCED"/>
<path d="M145.982 65.7683C146.765 88.9722 121.368 116 89.793 116C59.6633 116 41.2404 97.6968 36.718 66.5688C31.2307 28.8259 58.2019 -12.2322 83.3283 14.626C117.99 51.7002 144.889 33.3154 145.982 65.7683Z" fill="#FCFCED"/>
<g clip-path="url(#clip0_496_10727)">
<path d="M34.0759 84.6846H141.054C142.18 84.6846 143.089 85.5895 143.089 86.7099V94.7969C143.089 95.9173 142.18 96.8222 141.054 96.8222H34.0759C32.9499 96.8222 32.0405 95.9173 32.0405 94.7969V86.7099C32.0405 85.5895 32.9499 84.6846 34.0759 84.6846Z" fill="#435D76"/>
<path fill-rule="evenodd" clip-rule="evenodd" d="M36.8041 83.4639H138.196C142.209 83.4639 145.5 86.7389 145.5 90.7321C145.5 94.7253 142.209 98.0003 138.196 98.0003H36.8041C32.7912 98.0003 29.5 94.7253 29.5 90.7321C29.5 86.7389 32.7912 83.4639 36.8041 83.4639ZM36.8041 85.9919C34.1914 85.9919 32.0406 88.1178 32.0406 90.7321C32.0406 93.332 34.177 95.4722 36.8041 95.4722H138.196C140.809 95.4722 142.959 93.3463 142.959 90.7321C142.959 88.1322 140.823 85.9919 138.196 85.9919H36.8041Z" fill="#20354A"/>
<path d="M69.4275 54.5488H37.0063V83.478H69.4275V54.5488Z" fill="#FFA146"/>
<path d="M71.2894 54.5488H69.4272V83.478H71.2894V54.5488Z" fill="#DD3E13"/>
<path d="M103.711 43H71.2896V83.521H103.711V43Z" fill="#FFA146"/>
<path d="M105.573 54.5488H103.71V83.478H105.573V54.5488Z" fill="#DD3E13"/>
<path d="M137.994 54.5488H105.573V83.478H137.994V54.5488Z" fill="#FFA146"/>
<path d="M79.2146 50.0391H78.5073V55.0521H79.2146V50.0391Z" fill="#435D76"/>
<path fill-rule="evenodd" clip-rule="evenodd" d="M81.6251 46.2178V49.4784C81.6251 50.9866 80.3837 52.2363 78.8536 52.2363C77.3234 52.2363 76.082 51.001 76.082 49.4784V46.2178H81.6251Z" fill="#435D76"/>
<path fill-rule="evenodd" clip-rule="evenodd" d="M77.2803 55.0664H80.4415C80.8746 55.0664 81.221 55.3106 81.221 55.6122H76.4863C76.4863 55.3106 76.8328 55.0664 77.2658 55.0664H77.2803Z" fill="#435D76"/>
<path fill-rule="evenodd" clip-rule="evenodd" d="M42.9248 61.6304V66.428H41.1637V61.6304H39.9512L40.9905 59.72L42.0443 57.8096L43.0836 59.72L44.1373 61.6304H42.9248Z" fill="#435D76"/>
<path fill-rule="evenodd" clip-rule="evenodd" d="M47.6597 61.6304V66.428H45.913V61.6304H44.686L45.7398 59.72L46.7936 57.8096L47.8329 59.72L48.8866 61.6304H47.6597Z" fill="#435D76"/>
<path fill-rule="evenodd" clip-rule="evenodd" d="M40.4565 66.4277H48.3669V67.1028H40.4565V66.4277Z" fill="#435D76"/>
<path fill-rule="evenodd" clip-rule="evenodd" d="M116.37 60.7253C115.952 59.0304 114.393 57.752 112.559 57.752C110.726 57.752 109.182 59.016 108.749 60.7253H116.356H116.37Z" fill="#435D76"/>
<path fill-rule="evenodd" clip-rule="evenodd" d="M112.935 65.7238C112.906 66.5138 112.242 67.1458 111.448 67.1458C110.654 67.1458 109.99 66.5138 109.961 65.7238H110.697C110.726 66.1116 111.058 66.4276 111.462 66.4276C111.866 66.4276 112.184 66.126 112.227 65.7238V60.4521H112.963V65.7238H112.935Z" fill="#435D76"/>
<path fill-rule="evenodd" clip-rule="evenodd" d="M42.0583 86.0059C41.6685 86.0059 41.3654 86.3219 41.3654 86.6953H39.46C39.46 86.3219 39.1424 86.0059 38.7671 86.0059H42.0727H42.0583Z" fill="#1A2A3A"/>
<path fill-rule="evenodd" clip-rule="evenodd" d="M45.3063 86.0059C44.9166 86.0059 44.6134 86.3219 44.6134 86.6953H42.708C42.708 86.3219 42.3904 86.0059 42.0151 86.0059H45.3208H45.3063Z" fill="#1A2A3A"/>
<path fill-rule="evenodd" clip-rule="evenodd" d="M48.5539 86.0059C48.1641 86.0059 47.861 86.3219 47.861 86.6953H45.9556C45.9556 86.3219 45.638 86.0059 45.2627 86.0059H48.5683H48.5539Z" fill="#1A2A3A"/>
<path fill-rule="evenodd" clip-rule="evenodd" d="M51.8019 86.0059C51.4266 86.0059 51.1091 86.3219 51.1091 86.6953H49.2036C49.2036 86.3219 48.8861 86.0059 48.5107 86.0059H51.8164H51.8019Z" fill="#1A2A3A"/>
<path fill-rule="evenodd" clip-rule="evenodd" d="M55.05 86.0059C54.6602 86.0059 54.3571 86.3219 54.3571 86.6953H52.4517C52.4517 86.3219 52.1341 86.0059 51.7588 86.0059H55.0644H55.05Z" fill="#1A2A3A"/>
<path fill-rule="evenodd" clip-rule="evenodd" d="M58.2975 86.0059C57.9078 86.0059 57.6047 86.3219 57.6047 86.6953H55.6992C55.6992 86.3219 55.3817 86.0059 55.0063 86.0059H58.312H58.2975Z" fill="#1A2A3A"/>
<path fill-rule="evenodd" clip-rule="evenodd" d="M61.5456 86.0059C61.1703 86.0059 60.8527 86.3219 60.8527 86.6953H58.9473C58.9473 86.3219 58.6297 86.0059 58.2544 86.0059H61.56H61.5456Z" fill="#1A2A3A"/>
<path fill-rule="evenodd" clip-rule="evenodd" d="M64.7936 86.0059C64.4183 86.0059 64.1007 86.3219 64.1007 86.6953H62.1953C62.1953 86.3219 61.8778 86.0059 61.5024 86.0059H64.8081H64.7936Z" fill="#1A2A3A"/>
<path fill-rule="evenodd" clip-rule="evenodd" d="M68.0412 86.0059C67.6514 86.0059 67.3483 86.3219 67.3483 86.6953H65.4429C65.4429 86.3219 65.1253 86.0059 64.75 86.0059H68.0556H68.0412Z" fill="#1A2A3A"/>
<path fill-rule="evenodd" clip-rule="evenodd" d="M71.2892 86.0059C70.8995 86.0059 70.5964 86.3219 70.5964 86.6953H68.6909C68.6909 86.3219 68.3734 86.0059 67.998 86.0059H71.3037H71.2892Z" fill="#1A2A3A"/>
<path fill-rule="evenodd" clip-rule="evenodd" d="M74.5373 86.0059C74.1475 86.0059 73.8444 86.3219 73.8444 86.6953H71.939C71.939 86.3219 71.6214 86.0059 71.2461 86.0059H74.5517H74.5373Z" fill="#1A2A3A"/>
<path fill-rule="evenodd" clip-rule="evenodd" d="M77.7848 86.0059C77.3951 86.0059 77.092 86.3219 77.092 86.6953H75.1865C75.1865 86.3219 74.869 86.0059 74.4937 86.0059H77.7993H77.7848Z" fill="#1A2A3A"/>
<path fill-rule="evenodd" clip-rule="evenodd" d="M81.0329 86.0059C80.6431 86.0059 80.34 86.3219 80.34 86.6953H78.4346C78.4346 86.3219 78.117 86.0059 77.7417 86.0059H81.0473H81.0329Z" fill="#1A2A3A"/>
<path fill-rule="evenodd" clip-rule="evenodd" d="M84.2809 86.0059C83.8912 86.0059 83.5881 86.3219 83.5881 86.6953H81.6826C81.6826 86.3219 81.3651 86.0059 80.9897 86.0059H84.2954H84.2809Z" fill="#1A2A3A"/>
<path fill-rule="evenodd" clip-rule="evenodd" d="M87.5285 86.0059C87.1388 86.0059 86.8356 86.3219 86.8356 86.6953H84.9302C84.9302 86.3219 84.6126 86.0059 84.2373 86.0059H87.5429H87.5285Z" fill="#1A2A3A"/>
<path fill-rule="evenodd" clip-rule="evenodd" d="M90.7765 86.0059C90.4012 86.0059 90.0837 86.3219 90.0837 86.6953H88.1782C88.1782 86.3219 87.8607 86.0059 87.4854 86.0059H90.791H90.7765Z" fill="#1A2A3A"/>
<path fill-rule="evenodd" clip-rule="evenodd" d="M94.0246 86.0059C93.6493 86.0059 93.3317 86.3219 93.3317 86.6953H91.4263C91.4263 86.3219 91.1087 86.0059 90.7334 86.0059H94.039H94.0246Z" fill="#1A2A3A"/>
<path fill-rule="evenodd" clip-rule="evenodd" d="M97.2722 86.0059C96.8968 86.0059 96.5793 86.3219 96.5793 86.6953H94.6738C94.6738 86.3219 94.3563 86.0059 93.981 86.0059H97.2866H97.2722Z" fill="#1A2A3A"/>
<path fill-rule="evenodd" clip-rule="evenodd" d="M100.52 86.0059C100.13 86.0059 99.8273 86.3219 99.8273 86.6953H97.9219C97.9219 86.3219 97.6043 86.0059 97.229 86.0059H100.535H100.52Z" fill="#1A2A3A"/>
<path fill-rule="evenodd" clip-rule="evenodd" d="M103.768 86.0059C103.378 86.0059 103.075 86.3219 103.075 86.6953H101.17C101.17 86.3219 100.852 86.0059 100.477 86.0059H103.783H103.768Z" fill="#1A2A3A"/>
<path fill-rule="evenodd" clip-rule="evenodd" d="M107.016 86.0059C106.626 86.0059 106.323 86.3219 106.323 86.6953H104.417C104.417 86.3219 104.1 86.0059 103.725 86.0059H107.03H107.016Z" fill="#1A2A3A"/>
<path fill-rule="evenodd" clip-rule="evenodd" d="M110.264 86.0059C109.874 86.0059 109.571 86.3219 109.571 86.6953H107.666C107.666 86.3219 107.348 86.0059 106.973 86.0059H110.278H110.264Z" fill="#1A2A3A"/>
<path fill-rule="evenodd" clip-rule="evenodd" d="M113.512 86.0059C113.122 86.0059 112.819 86.3219 112.819 86.6953H110.914C110.914 86.3219 110.596 86.0059 110.221 86.0059H113.526H113.512Z" fill="#1A2A3A"/>
<path fill-rule="evenodd" clip-rule="evenodd" d="M116.759 86.0059C116.37 86.0059 116.067 86.3219 116.067 86.6953H114.161C114.161 86.3219 113.844 86.0059 113.468 86.0059H116.774H116.759Z" fill="#1A2A3A"/>
<path fill-rule="evenodd" clip-rule="evenodd" d="M120.008 86.0059C119.618 86.0059 119.315 86.3219 119.315 86.6953H117.409C117.409 86.3219 117.092 86.0059 116.716 86.0059H120.022H120.008Z" fill="#1A2A3A"/>
<path fill-rule="evenodd" clip-rule="evenodd" d="M123.256 86.0059C122.866 86.0059 122.563 86.3219 122.563 86.6953H120.657C120.657 86.3219 120.34 86.0059 119.964 86.0059H123.27H123.256Z" fill="#1A2A3A"/>
<path fill-rule="evenodd" clip-rule="evenodd" d="M126.503 86.0059C126.113 86.0059 125.81 86.3219 125.81 86.6953H123.905C123.905 86.3219 123.587 86.0059 123.212 86.0059H126.518H126.503Z" fill="#1A2A3A"/>
<path fill-rule="evenodd" clip-rule="evenodd" d="M129.751 86.0059C129.361 86.0059 129.058 86.3219 129.058 86.6953H127.153C127.153 86.3219 126.835 86.0059 126.46 86.0059H129.766H129.751Z" fill="#1A2A3A"/>
<path fill-rule="evenodd" clip-rule="evenodd" d="M132.999 86.0059C132.609 86.0059 132.306 86.3219 132.306 86.6953H130.401C130.401 86.3219 130.083 86.0059 129.708 86.0059H133.014H132.999Z" fill="#1A2A3A"/>
<path fill-rule="evenodd" clip-rule="evenodd" d="M136.233 86.0059C135.857 86.0059 135.54 86.3219 135.54 86.6953H133.634C133.634 86.3219 133.317 86.0059 132.941 86.0059H136.247H136.233Z" fill="#1A2A3A"/>
<path fill-rule="evenodd" clip-rule="evenodd" d="M39.4456 94.7822H41.351C41.351 95.1701 41.6686 95.4717 42.0439 95.4717H38.7383C39.128 95.4717 39.4312 95.1557 39.4312 94.7822H39.4456Z" fill="#1A2A3A"/>
<path fill-rule="evenodd" clip-rule="evenodd" d="M42.6936 94.7822H44.5991C44.5991 95.1701 44.9166 95.4717 45.292 95.4717H41.9863C42.3761 95.4717 42.6792 95.1557 42.6792 94.7822H42.6936Z" fill="#1A2A3A"/>
<path fill-rule="evenodd" clip-rule="evenodd" d="M45.9412 94.7822H47.8466C47.8466 95.1701 48.1642 95.4717 48.5395 95.4717H45.2339C45.6092 95.4717 45.9268 95.1557 45.9268 94.7822H45.9412Z" fill="#1A2A3A"/>
<path fill-rule="evenodd" clip-rule="evenodd" d="M49.1893 94.7822H51.0947C51.0947 95.1701 51.4122 95.4717 51.7876 95.4717H48.4819C48.8572 95.4717 49.1748 95.1557 49.1748 94.7822H49.1893Z" fill="#1A2A3A"/>
<path fill-rule="evenodd" clip-rule="evenodd" d="M52.4373 94.7822H54.3427C54.3427 95.1701 54.6603 95.4717 55.0356 95.4717H51.73C52.1053 95.4717 52.4229 95.1557 52.4229 94.7822H52.4373Z" fill="#1A2A3A"/>
<path fill-rule="evenodd" clip-rule="evenodd" d="M55.6849 94.7822H57.5903C57.5903 95.1701 57.9079 95.4717 58.2832 95.4717H54.9775C55.3673 95.4717 55.6704 95.1557 55.6704 94.7822H55.6849Z" fill="#1A2A3A"/>
<path fill-rule="evenodd" clip-rule="evenodd" d="M58.9329 94.7822H60.8383C60.8383 95.1701 61.1559 95.4717 61.5312 95.4717H58.2256C58.6153 95.4717 58.9185 95.1557 58.9185 94.7822H58.9329Z" fill="#1A2A3A"/>
<path fill-rule="evenodd" clip-rule="evenodd" d="M62.1809 94.7822H64.0864C64.0864 95.1701 64.4039 95.4717 64.7793 95.4717H61.4736C61.8634 95.4717 62.1665 95.1557 62.1665 94.7822H62.1809Z" fill="#1A2A3A"/>
<path fill-rule="evenodd" clip-rule="evenodd" d="M65.4285 94.7822H67.3339C67.3339 95.1701 67.6515 95.4717 68.0268 95.4717H64.7212C65.1109 95.4717 65.4141 95.1557 65.4141 94.7822H65.4285Z" fill="#1A2A3A"/>
<path fill-rule="evenodd" clip-rule="evenodd" d="M68.6766 94.7822H70.582C70.582 95.1701 70.8996 95.4717 71.2749 95.4717H67.9692C68.359 95.4717 68.6621 95.1557 68.6621 94.7822H68.6766Z" fill="#1A2A3A"/>
<path fill-rule="evenodd" clip-rule="evenodd" d="M71.9246 94.7822H73.83C73.83 95.1701 74.1476 95.4717 74.5229 95.4717H71.2173C71.607 95.4717 71.9102 95.1557 71.9102 94.7822H71.9246Z" fill="#1A2A3A"/>
<path fill-rule="evenodd" clip-rule="evenodd" d="M75.1722 94.7822H77.0776C77.0776 95.1701 77.3952 95.4717 77.7705 95.4717H74.4648C74.8402 95.4717 75.1577 95.1557 75.1577 94.7822H75.1722Z" fill="#1A2A3A"/>
<path fill-rule="evenodd" clip-rule="evenodd" d="M78.4202 94.7822H80.3256C80.3256 95.1701 80.6432 95.4717 81.0185 95.4717H77.7129C78.0882 95.4717 78.4058 95.1557 78.4058 94.7822H78.4202Z" fill="#1A2A3A"/>
<path fill-rule="evenodd" clip-rule="evenodd" d="M81.6683 94.7822H83.5737C83.5737 95.1701 83.8912 95.4717 84.2666 95.4717H80.9609C81.3362 95.4717 81.6538 95.1557 81.6538 94.7822H81.6683Z" fill="#1A2A3A"/>
<path fill-rule="evenodd" clip-rule="evenodd" d="M84.9158 94.7822H86.8212C86.8212 95.1701 87.1388 95.4717 87.5141 95.4717H84.2085C84.5982 95.4717 84.9014 95.1557 84.9014 94.7822H84.9158Z" fill="#1A2A3A"/>
<path fill-rule="evenodd" clip-rule="evenodd" d="M88.1639 94.7822H90.0693C90.0693 95.1701 90.3869 95.4717 90.7622 95.4717H87.4565C87.8463 95.4717 88.1494 95.1557 88.1494 94.7822H88.1639Z" fill="#1A2A3A"/>
<path fill-rule="evenodd" clip-rule="evenodd" d="M91.4119 94.7822H93.3173C93.3173 95.1701 93.6349 95.4717 94.0102 95.4717H90.7046C91.0943 95.4717 91.3975 95.1557 91.3975 94.7822H91.4119Z" fill="#1A2A3A"/>
<path fill-rule="evenodd" clip-rule="evenodd" d="M94.6595 94.7822H96.5649C96.5649 95.1701 96.8825 95.4717 97.2578 95.4717H93.9521C94.3419 95.4717 94.645 95.1557 94.645 94.7822H94.6595Z" fill="#1A2A3A"/>
<path fill-rule="evenodd" clip-rule="evenodd" d="M97.9075 94.7822H99.8129C99.8129 95.1701 100.131 95.4717 100.506 95.4717H97.2002C97.5899 95.4717 97.8931 95.1557 97.8931 94.7822H97.9075Z" fill="#1A2A3A"/>
<path fill-rule="evenodd" clip-rule="evenodd" d="M101.156 94.7822H103.061C103.061 95.1701 103.379 95.4717 103.754 95.4717H100.448C100.838 95.4717 101.141 95.1557 101.141 94.7822H101.156Z" fill="#1A2A3A"/>
<path fill-rule="evenodd" clip-rule="evenodd" d="M104.403 94.7822H106.309C106.309 95.1701 106.626 95.4717 107.001 95.4717H103.696C104.086 95.4717 104.389 95.1557 104.389 94.7822H104.403Z" fill="#1A2A3A"/>
<path fill-rule="evenodd" clip-rule="evenodd" d="M107.651 94.7822H109.557C109.557 95.1701 109.874 95.4717 110.249 95.4717H106.944C107.334 95.4717 107.637 95.1557 107.637 94.7822H107.651Z" fill="#1A2A3A"/>
<path fill-rule="evenodd" clip-rule="evenodd" d="M110.899 94.7822H112.805C112.805 95.1701 113.122 95.4717 113.498 95.4717H110.192C110.567 95.4717 110.885 95.1557 110.885 94.7822H110.899Z" fill="#1A2A3A"/>
<path fill-rule="evenodd" clip-rule="evenodd" d="M114.147 94.7822H116.052C116.052 95.1701 116.37 95.4717 116.745 95.4717H113.439C113.829 95.4717 114.132 95.1557 114.132 94.7822H114.147Z" fill="#1A2A3A"/>
<path fill-rule="evenodd" clip-rule="evenodd" d="M117.395 94.7822H119.3C119.3 95.1701 119.618 95.4717 119.993 95.4717H116.688C117.077 95.4717 117.38 95.1557 117.38 94.7822H117.395Z" fill="#1A2A3A"/>
<path fill-rule="evenodd" clip-rule="evenodd" d="M120.643 94.7822H122.548C122.548 95.1701 122.866 95.4717 123.241 95.4717H119.936C120.325 95.4717 120.628 95.1557 120.628 94.7822H120.643Z" fill="#1A2A3A"/>
<path fill-rule="evenodd" clip-rule="evenodd" d="M123.89 94.7822H125.796C125.796 95.1701 126.113 95.4717 126.489 95.4717H123.183C123.558 95.4717 123.876 95.1557 123.876 94.7822H123.89Z" fill="#1A2A3A"/>
<path fill-rule="evenodd" clip-rule="evenodd" d="M127.138 94.7822H129.044C129.044 95.1701 129.361 95.4717 129.737 95.4717H126.431C126.806 95.4717 127.124 95.1557 127.124 94.7822H127.138Z" fill="#1A2A3A"/>
<path fill-rule="evenodd" clip-rule="evenodd" d="M130.387 94.7822H132.292C132.292 95.1701 132.61 95.4717 132.985 95.4717H129.679C130.069 95.4717 130.372 95.1557 130.372 94.7822H130.387Z" fill="#1A2A3A"/>
<path fill-rule="evenodd" clip-rule="evenodd" d="M133.634 94.7822H135.539C135.539 95.1701 135.857 95.4717 136.232 95.4717H132.927C133.317 95.4717 133.62 95.1557 133.62 94.7822H133.634Z" fill="#1A2A3A"/>
<path fill-rule="evenodd" clip-rule="evenodd" d="M40.2399 87.3127C42.1453 89.2087 42.1453 92.2683 40.2399 94.1643C38.3345 96.0604 35.2598 96.0604 33.3544 94.1643C31.4489 92.2683 31.4489 89.1944 33.3544 87.3127C35.2598 85.4166 38.3489 85.4166 40.2399 87.3127Z" fill="#9EB134"/>
<path fill-rule="evenodd" clip-rule="evenodd" d="M35.1873 92.3258C34.3067 91.4495 34.3067 90.0275 35.1873 89.1513C36.0678 88.2751 37.4969 88.2751 38.3774 89.1513L35.1873 92.3258Z" fill="#344453"/>
<path fill-rule="evenodd" clip-rule="evenodd" d="M40.2395 87.3135C42.1449 89.2095 42.1449 92.2691 40.2395 94.1651C38.3341 96.0612 35.2594 96.0612 33.354 94.1651L40.2395 87.3135Z" fill="#85972D"/>
<path fill-rule="evenodd" clip-rule="evenodd" d="M38.3918 89.1514C39.2723 90.0276 39.2723 91.4496 38.3918 92.3258C37.5113 93.202 36.0822 93.202 35.2017 92.3258L38.3918 89.1514Z" fill="#1A2A3A"/>
<path fill-rule="evenodd" clip-rule="evenodd" d="M141.631 87.3127C143.537 89.2087 143.537 92.2683 141.631 94.1643C139.726 96.0604 136.637 96.0604 134.746 94.1643C132.841 92.2683 132.841 89.1944 134.746 87.3127C136.651 85.4166 139.74 85.4166 141.631 87.3127Z" fill="#9EB134"/>
<path fill-rule="evenodd" clip-rule="evenodd" d="M136.594 92.3258C135.713 91.4495 135.713 90.0275 136.594 89.1513C137.474 88.2751 138.903 88.2751 139.784 89.1513L136.594 92.3258Z" fill="#20354A"/>
<path fill-rule="evenodd" clip-rule="evenodd" d="M141.632 87.3135C143.537 89.2095 143.537 92.2691 141.632 94.1651C139.726 96.0612 136.637 96.0612 134.746 94.1651L141.632 87.3135Z" fill="#85972D"/>
<path fill-rule="evenodd" clip-rule="evenodd" d="M139.784 89.1514C140.664 90.0276 140.664 91.4496 139.784 92.3258C138.903 93.202 137.474 93.202 136.594 92.3258L139.784 89.1514Z" fill="#1A2A3A"/>
<path d="M69.4273 54.5488H53.2168V83.478H69.4273V54.5488Z" fill="#ED7425"/>
<path d="M103.711 43H87.5V83.521H103.711V43Z" fill="#ED7425"/>
<path d="M137.994 54.5488H121.783V83.478H137.994V54.5488Z" fill="#ED7425"/>
</g>
<path d="M58.9282 136.161C58.0649 136.161 57.3019 136.033 56.6392 135.776C55.9765 135.515 55.4189 135.153 54.9662 134.691C54.5135 134.224 54.1705 133.678 53.9372 133.053C53.7039 132.423 53.5872 131.737 53.5872 130.995C53.5872 129.987 53.7949 129.096 54.2102 128.321C54.6255 127.542 55.2135 126.933 55.9742 126.494C56.7395 126.051 57.6449 125.829 58.6902 125.829C59.0402 125.829 59.3809 125.852 59.7122 125.899C60.0435 125.946 60.3562 126.009 60.6502 126.088C60.9442 126.163 61.2149 126.247 61.4622 126.34C61.7142 126.433 61.9312 126.527 62.1132 126.62L61.9802 128.174C61.5929 127.955 61.2149 127.777 60.8462 127.642C60.4822 127.507 60.1299 127.409 59.7892 127.348C59.4485 127.283 59.1219 127.25 58.8092 127.25C58.2959 127.25 57.8245 127.334 57.3952 127.502C56.9705 127.67 56.5995 127.915 56.2822 128.237C55.9649 128.559 55.7199 128.953 55.5472 129.42C55.3745 129.882 55.2882 130.409 55.2882 131.002C55.2882 131.529 55.3629 132.024 55.5122 132.486C55.6615 132.943 55.8902 133.347 56.1982 133.697C56.5062 134.047 56.8982 134.32 57.3742 134.516C57.8502 134.712 58.4125 134.81 59.0612 134.81C59.3319 134.81 59.5979 134.796 59.8592 134.768C60.1205 134.74 60.3749 134.698 60.6222 134.642C60.8742 134.581 61.1215 134.507 61.3642 134.418C61.6115 134.325 61.8519 134.213 62.0852 134.082L62.2812 135.587C62.1225 135.657 61.9219 135.727 61.6792 135.797C61.4365 135.862 61.1659 135.923 60.8672 135.979C60.5732 136.035 60.2605 136.079 59.9292 136.112C59.6025 136.145 59.2689 136.161 58.9282 136.161ZM60.7272 135.615C60.7272 135.111 60.7272 134.67 60.7272 134.292C60.7272 133.914 60.7272 133.536 60.7272 133.158C60.7272 132.715 60.7272 132.323 60.7272 131.982C60.7272 131.637 60.7272 131.287 60.7272 130.932H62.2812C62.2812 131.287 62.2812 131.637 62.2812 131.982C62.2812 132.323 62.2812 132.715 62.2812 133.158C62.2812 133.536 62.2812 133.914 62.2812 134.292C62.2812 134.665 62.2812 135.097 62.2812 135.587L60.7272 135.615ZM67.5374 136.161C66.6834 136.161 65.9811 136.002 65.4304 135.685C64.8798 135.368 64.4714 134.934 64.2054 134.383C63.9441 133.832 63.8134 133.2 63.8134 132.486C63.8134 131.781 63.9394 131.156 64.1914 130.61C64.4481 130.064 64.8214 129.639 65.3114 129.336C65.8014 129.028 66.3941 128.874 67.0894 128.874C67.6914 128.874 68.2094 128.988 68.6434 129.217C69.0774 129.441 69.4111 129.777 69.6444 130.225C69.8778 130.673 69.9944 131.228 69.9944 131.891C69.9944 132.068 69.9898 132.229 69.9804 132.374C69.9758 132.514 69.9618 132.654 69.9384 132.794L68.6294 132.22C68.6388 132.15 68.6458 132.082 68.6504 132.017C68.6551 131.947 68.6574 131.882 68.6574 131.821C68.6574 131.247 68.5128 130.804 68.2234 130.491C67.9388 130.174 67.5654 130.015 67.1034 130.015C66.7441 130.015 66.4314 130.113 66.1654 130.309C65.8994 130.505 65.6918 130.773 65.5424 131.114C65.3978 131.455 65.3254 131.847 65.3254 132.29V132.514C65.3254 133.009 65.4094 133.433 65.5774 133.788C65.7501 134.143 66.0114 134.416 66.3614 134.607C66.7161 134.798 67.1618 134.894 67.6984 134.894C67.9038 134.894 68.1278 134.878 68.3704 134.845C68.6178 134.808 68.8651 134.752 69.1124 134.677C69.3598 134.602 69.5931 134.507 69.8124 134.39L69.8684 135.692C69.6911 135.785 69.4834 135.867 69.2454 135.937C69.0074 136.007 68.7438 136.061 68.4544 136.098C68.1698 136.14 67.8641 136.161 67.5374 136.161ZM64.4154 132.794V131.772L69.0424 131.716L69.9384 132.087V132.794H64.4154ZM71.6512 136C71.6512 135.491 71.6512 134.999 71.6512 134.523C71.6512 134.047 71.6512 133.522 71.6512 132.948V132.248C71.6512 131.73 71.6512 131.203 71.6512 130.666C71.6512 130.125 71.6512 129.583 71.6512 129.042L72.9322 128.958L72.9882 130.218H73.1352C73.2846 130.003 73.4736 129.793 73.7022 129.588C73.9356 129.378 74.2062 129.205 74.5142 129.07C74.8222 128.935 75.1746 128.867 75.5712 128.867C76.2946 128.867 76.8289 129.077 77.1742 129.497C77.5242 129.917 77.6992 130.533 77.6992 131.345C77.6992 131.648 77.6992 131.924 77.6992 132.171C77.6992 132.414 77.6992 132.673 77.6992 132.948C77.6992 133.508 77.6992 134.031 77.6992 134.516C77.6992 134.997 77.6992 135.491 77.6992 136H76.2012C76.2012 135.491 76.2012 134.999 76.2012 134.523C76.2012 134.042 76.2012 133.543 76.2012 133.025V131.779C76.2012 131.275 76.1149 130.895 75.9422 130.638C75.7696 130.381 75.4522 130.253 74.9902 130.253C74.7196 130.253 74.4722 130.309 74.2482 130.421C74.0242 130.528 73.8212 130.675 73.6392 130.862C73.4572 131.044 73.2939 131.247 73.1492 131.471V133.025C73.1492 133.562 73.1492 134.066 73.1492 134.537C73.1492 135.004 73.1492 135.491 73.1492 136H71.6512ZM82.973 136.161C82.119 136.161 81.4166 136.002 80.866 135.685C80.3153 135.368 79.907 134.934 79.641 134.383C79.3796 133.832 79.249 133.2 79.249 132.486C79.249 131.781 79.375 131.156 79.627 130.61C79.8836 130.064 80.257 129.639 80.747 129.336C81.237 129.028 81.8296 128.874 82.525 128.874C83.127 128.874 83.645 128.988 84.079 129.217C84.513 129.441 84.8466 129.777 85.08 130.225C85.3133 130.673 85.43 131.228 85.43 131.891C85.43 132.068 85.4253 132.229 85.416 132.374C85.4113 132.514 85.3973 132.654 85.374 132.794L84.065 132.22C84.0743 132.15 84.0813 132.082 84.086 132.017C84.0906 131.947 84.093 131.882 84.093 131.821C84.093 131.247 83.9483 130.804 83.659 130.491C83.3743 130.174 83.001 130.015 82.539 130.015C82.1796 130.015 81.867 130.113 81.601 130.309C81.335 130.505 81.1273 130.773 80.978 131.114C80.8333 131.455 80.761 131.847 80.761 132.29V132.514C80.761 133.009 80.845 133.433 81.013 133.788C81.1856 134.143 81.447 134.416 81.797 134.607C82.1516 134.798 82.5973 134.894 83.134 134.894C83.3393 134.894 83.5633 134.878 83.806 134.845C84.0533 134.808 84.3006 134.752 84.548 134.677C84.7953 134.602 85.0286 134.507 85.248 134.39L85.304 135.692C85.1266 135.785 84.919 135.867 84.681 135.937C84.443 136.007 84.1793 136.061 83.89 136.098C83.6053 136.14 83.2996 136.161 82.973 136.161ZM79.851 132.794V131.772L84.478 131.716L85.374 132.087V132.794H79.851ZM87.0868 136C87.0868 135.491 87.0868 134.999 87.0868 134.523C87.0868 134.047 87.0868 133.522 87.0868 132.948V132.248C87.0868 131.73 87.0868 131.203 87.0868 130.666C87.0868 130.125 87.0868 129.583 87.0868 129.042L88.3678 128.958L88.4238 130.33H88.5638C88.7505 129.919 88.9628 129.609 89.2008 129.399C89.4388 129.189 89.6815 129.049 89.9288 128.979C90.1761 128.904 90.4071 128.867 90.6218 128.867C90.7431 128.867 90.8691 128.876 90.9998 128.895C91.1305 128.914 91.2541 128.944 91.3708 128.986L91.2378 130.47C91.0745 130.442 90.9275 130.421 90.7968 130.407C90.6661 130.393 90.5168 130.386 90.3488 130.386C90.2181 130.386 90.0735 130.405 89.9148 130.442C89.7561 130.475 89.5951 130.545 89.4318 130.652C89.2731 130.759 89.1191 130.92 88.9698 131.135C88.8251 131.345 88.6968 131.623 88.5848 131.968V133.025C88.5848 133.562 88.5848 134.066 88.5848 134.537C88.5848 135.004 88.5848 135.491 88.5848 136H87.0868ZM94.2622 136.147C93.8656 136.147 93.5109 136.068 93.1982 135.909C92.8856 135.746 92.6382 135.512 92.4562 135.209C92.2789 134.901 92.1902 134.528 92.1902 134.089C92.1902 133.702 92.2556 133.377 92.3862 133.116C92.5216 132.85 92.6989 132.633 92.9182 132.465C93.1376 132.297 93.3826 132.166 93.6532 132.073C93.9239 131.98 94.1969 131.912 94.4722 131.87L96.5372 131.548C96.5559 131.161 96.4976 130.864 96.3622 130.659C96.2316 130.454 96.0449 130.314 95.8022 130.239C95.5642 130.164 95.2936 130.127 94.9902 130.127C94.8316 130.127 94.6589 130.139 94.4722 130.162C94.2902 130.185 94.0966 130.225 93.8912 130.281C93.6906 130.332 93.4782 130.398 93.2542 130.477C93.0349 130.552 92.8086 130.643 92.5752 130.75L92.4912 129.42C92.6639 129.35 92.8576 129.282 93.0722 129.217C93.2869 129.152 93.5179 129.093 93.7652 129.042C94.0172 128.986 94.2762 128.944 94.5422 128.916C94.8082 128.888 95.0789 128.874 95.3542 128.874C95.9049 128.874 96.3762 128.956 96.7682 129.119C97.1602 129.282 97.4612 129.544 97.6712 129.903C97.8812 130.258 97.9862 130.72 97.9862 131.289C97.9862 131.513 97.9862 131.791 97.9862 132.122C97.9862 132.453 97.9862 132.761 97.9862 133.046V133.886C97.9862 134.217 97.9862 134.553 97.9862 134.894C97.9862 135.235 97.9862 135.603 97.9862 136H96.6352L96.5512 135.076H96.4182C96.2829 135.249 96.1126 135.417 95.9072 135.58C95.7066 135.743 95.4662 135.879 95.1862 135.986C94.9109 136.093 94.6029 136.147 94.2622 136.147ZM94.7522 134.957C94.9762 134.957 95.1956 134.908 95.4102 134.81C95.6296 134.707 95.8326 134.563 96.0192 134.376C96.2059 134.189 96.3669 133.963 96.5022 133.697V132.465C96.4322 132.507 96.3412 132.547 96.2292 132.584C96.1219 132.621 95.9586 132.663 95.7392 132.71C95.5199 132.757 95.2119 132.815 94.8152 132.885C94.5866 132.922 94.3906 132.99 94.2272 133.088C94.0639 133.186 93.9356 133.314 93.8422 133.473C93.7536 133.627 93.7092 133.811 93.7092 134.026C93.7092 134.367 93.8119 134.607 94.0172 134.747C94.2272 134.887 94.4722 134.957 94.7522 134.957ZM102.443 136.168C101.79 136.168 101.246 135.998 100.812 135.657C100.383 135.316 100.061 134.868 99.8464 134.313C99.6364 133.753 99.5314 133.149 99.5314 132.5C99.5314 131.814 99.6434 131.196 99.8674 130.645C100.096 130.094 100.43 129.66 100.868 129.343C101.307 129.026 101.839 128.867 102.464 128.867C102.768 128.867 103.048 128.907 103.304 128.986C103.561 129.065 103.787 129.175 103.983 129.315C104.179 129.455 104.343 129.614 104.473 129.791H104.613V129.091C104.613 128.508 104.613 127.941 104.613 127.39C104.613 126.835 104.613 126.289 104.613 125.752L106.111 125.591C106.111 126.151 106.111 126.718 106.111 127.292C106.111 127.861 106.111 128.461 106.111 129.091V132.948C106.111 133.522 106.111 134.047 106.111 134.523C106.111 134.999 106.111 135.491 106.111 136H104.823L104.739 135.062H104.613C104.436 135.3 104.238 135.501 104.018 135.664C103.804 135.827 103.566 135.951 103.304 136.035C103.043 136.124 102.756 136.168 102.443 136.168ZM102.954 134.859C103.206 134.859 103.435 134.819 103.64 134.74C103.846 134.656 104.028 134.539 104.186 134.39C104.35 134.241 104.492 134.063 104.613 133.858V131.03C104.487 130.843 104.338 130.689 104.165 130.568C103.993 130.442 103.804 130.349 103.598 130.288C103.393 130.223 103.183 130.19 102.968 130.19C102.539 130.19 102.184 130.295 101.904 130.505C101.624 130.715 101.414 130.997 101.274 131.352C101.134 131.702 101.064 132.089 101.064 132.514C101.064 132.92 101.13 133.303 101.26 133.662C101.396 134.017 101.601 134.306 101.876 134.53C102.156 134.749 102.516 134.859 102.954 134.859ZM111.236 136.168C110.639 136.168 110.116 136.068 109.668 135.867C109.22 135.666 108.845 135.396 108.541 135.055C108.243 134.71 108.019 134.318 107.869 133.879C107.72 133.436 107.645 132.971 107.645 132.486C107.645 131.791 107.785 131.172 108.065 130.631C108.345 130.085 108.751 129.656 109.283 129.343C109.815 129.026 110.457 128.867 111.208 128.867C111.782 128.867 112.291 128.958 112.734 129.14C113.178 129.322 113.549 129.579 113.847 129.91C114.151 130.237 114.379 130.619 114.533 131.058C114.687 131.497 114.764 131.973 114.764 132.486C114.764 133.181 114.624 133.807 114.344 134.362C114.064 134.917 113.658 135.358 113.126 135.685C112.599 136.007 111.969 136.168 111.236 136.168ZM111.229 134.908C111.677 134.908 112.051 134.794 112.349 134.565C112.648 134.332 112.87 134.031 113.014 133.662C113.164 133.293 113.238 132.901 113.238 132.486C113.238 132.005 113.154 131.59 112.986 131.24C112.823 130.885 112.59 130.612 112.286 130.421C111.988 130.225 111.633 130.127 111.222 130.127C110.779 130.127 110.403 130.232 110.095 130.442C109.792 130.647 109.561 130.93 109.402 131.289C109.248 131.644 109.171 132.043 109.171 132.486C109.171 132.901 109.246 133.293 109.395 133.662C109.549 134.031 109.778 134.332 110.081 134.565C110.389 134.794 110.772 134.908 111.229 134.908ZM116.468 136C116.468 135.491 116.468 134.999 116.468 134.523C116.468 134.047 116.468 133.522 116.468 132.948V132.248C116.468 131.73 116.468 131.203 116.468 130.666C116.468 130.125 116.468 129.583 116.468 129.042L117.749 128.958L117.805 130.33H117.945C118.131 129.919 118.344 129.609 118.582 129.399C118.82 129.189 119.062 129.049 119.31 128.979C119.557 128.904 119.788 128.867 120.003 128.867C120.124 128.867 120.25 128.876 120.381 128.895C120.511 128.914 120.635 128.944 120.752 128.986L120.619 130.47C120.455 130.442 120.308 130.421 120.178 130.407C120.047 130.393 119.898 130.386 119.73 130.386C119.599 130.386 119.454 130.405 119.296 130.442C119.137 130.475 118.976 130.545 118.813 130.652C118.654 130.759 118.5 130.92 118.351 131.135C118.206 131.345 118.078 131.623 117.966 131.968V133.025C117.966 133.562 117.966 134.066 117.966 134.537C117.966 135.004 117.966 135.491 117.966 136H116.468ZM64.0391 154.168C63.3857 154.168 62.8421 153.998 62.4081 153.657C61.9787 153.316 61.6567 152.868 61.4421 152.313C61.2321 151.753 61.1271 151.149 61.1271 150.5C61.1271 149.814 61.2391 149.196 61.4631 148.645C61.6917 148.094 62.0254 147.66 62.4641 147.343C62.9027 147.026 63.4347 146.867 64.0601 146.867C64.3634 146.867 64.6434 146.907 64.9001 146.986C65.1567 147.065 65.3831 147.175 65.5791 147.315C65.7751 147.455 65.9384 147.614 66.0691 147.791H66.2091V147.091C66.2091 146.508 66.2091 145.941 66.2091 145.39C66.2091 144.835 66.2091 144.289 66.2091 143.752L67.7071 143.591C67.7071 144.151 67.7071 144.718 67.7071 145.292C67.7071 145.861 67.7071 146.461 67.7071 147.091V150.948C67.7071 151.522 67.7071 152.047 67.7071 152.523C67.7071 152.999 67.7071 153.491 67.7071 154H66.4191L66.3351 153.062H66.2091C66.0317 153.3 65.8334 153.501 65.6141 153.664C65.3994 153.827 65.1614 153.951 64.9001 154.035C64.6387 154.124 64.3517 154.168 64.0391 154.168ZM64.5501 152.859C64.8021 152.859 65.0307 152.819 65.2361 152.74C65.4414 152.656 65.6234 152.539 65.7821 152.39C65.9454 152.241 66.0877 152.063 66.2091 151.858V149.03C66.0831 148.843 65.9337 148.689 65.7611 148.568C65.5884 148.442 65.3994 148.349 65.1941 148.288C64.9887 148.223 64.7787 148.19 64.5641 148.19C64.1347 148.19 63.7801 148.295 63.5001 148.505C63.2201 148.715 63.0101 148.997 62.8701 149.352C62.7301 149.702 62.6601 150.089 62.6601 150.514C62.6601 150.92 62.7254 151.303 62.8561 151.662C62.9914 152.017 63.1967 152.306 63.4721 152.53C63.7521 152.749 64.1114 152.859 64.5501 152.859ZM72.9652 154.161C72.1112 154.161 71.4088 154.002 70.8582 153.685C70.3075 153.368 69.8992 152.934 69.6332 152.383C69.3718 151.832 69.2412 151.2 69.2412 150.486C69.2412 149.781 69.3672 149.156 69.6192 148.61C69.8758 148.064 70.2492 147.639 70.7392 147.336C71.2292 147.028 71.8218 146.874 72.5172 146.874C73.1192 146.874 73.6372 146.988 74.0712 147.217C74.5052 147.441 74.8388 147.777 75.0722 148.225C75.3055 148.673 75.4222 149.228 75.4222 149.891C75.4222 150.068 75.4175 150.229 75.4082 150.374C75.4035 150.514 75.3895 150.654 75.3662 150.794L74.0572 150.22C74.0665 150.15 74.0735 150.082 74.0782 150.017C74.0828 149.947 74.0852 149.882 74.0852 149.821C74.0852 149.247 73.9405 148.804 73.6512 148.491C73.3665 148.174 72.9932 148.015 72.5312 148.015C72.1718 148.015 71.8592 148.113 71.5932 148.309C71.3272 148.505 71.1195 148.773 70.9702 149.114C70.8255 149.455 70.7532 149.847 70.7532 150.29V150.514C70.7532 151.009 70.8372 151.433 71.0052 151.788C71.1778 152.143 71.4392 152.416 71.7892 152.607C72.1438 152.798 72.5895 152.894 73.1262 152.894C73.3315 152.894 73.5555 152.878 73.7982 152.845C74.0455 152.808 74.2928 152.752 74.5402 152.677C74.7875 152.602 75.0208 152.507 75.2402 152.39L75.2962 153.692C75.1188 153.785 74.9112 153.867 74.6732 153.937C74.4352 154.007 74.1715 154.061 73.8822 154.098C73.5975 154.14 73.2918 154.161 72.9652 154.161ZM69.8432 150.794V149.772L74.4702 149.716L75.3662 150.087V150.794H69.8432ZM82.8947 154.14C82.1293 154.14 81.4783 153.984 80.9417 153.671C80.4097 153.354 80.0037 152.922 79.7237 152.376C79.4437 151.83 79.3037 151.212 79.3037 150.521C79.3037 149.826 79.4343 149.203 79.6957 148.652C79.9617 148.101 80.3513 147.667 80.8647 147.35C81.3827 147.033 82.0173 146.874 82.7687 146.874C83.0393 146.874 83.3077 146.897 83.5737 146.944C83.8443 146.986 84.0987 147.047 84.3367 147.126C84.5747 147.201 84.7847 147.289 84.9667 147.392L84.8407 148.722C84.5793 148.573 84.3343 148.458 84.1057 148.379C83.8817 148.3 83.674 148.246 83.4827 148.218C83.2913 148.185 83.1163 148.169 82.9577 148.169C82.3137 148.169 81.798 148.379 81.4107 148.799C81.0233 149.214 80.8297 149.777 80.8297 150.486C80.8297 150.943 80.9183 151.352 81.0957 151.711C81.273 152.07 81.5367 152.355 81.8867 152.565C82.2413 152.775 82.68 152.88 83.2027 152.88C83.394 152.88 83.5853 152.864 83.7767 152.831C83.968 152.794 84.1547 152.74 84.3367 152.67C84.5233 152.595 84.703 152.502 84.8757 152.39L84.9807 153.727C84.822 153.802 84.64 153.872 84.4347 153.937C84.2293 153.998 83.9983 154.047 83.7417 154.084C83.485 154.121 83.2027 154.14 82.8947 154.14ZM88.2876 154.147C87.891 154.147 87.5363 154.068 87.2236 153.909C86.911 153.746 86.6636 153.512 86.4816 153.209C86.3043 152.901 86.2156 152.528 86.2156 152.089C86.2156 151.702 86.281 151.377 86.4116 151.116C86.547 150.85 86.7243 150.633 86.9436 150.465C87.163 150.297 87.408 150.166 87.6786 150.073C87.9493 149.98 88.2223 149.912 88.4976 149.87L90.5626 149.548C90.5813 149.161 90.523 148.864 90.3876 148.659C90.257 148.454 90.0703 148.314 89.8276 148.239C89.5896 148.164 89.319 148.127 89.0156 148.127C88.857 148.127 88.6843 148.139 88.4976 148.162C88.3156 148.185 88.122 148.225 87.9166 148.281C87.716 148.332 87.5036 148.398 87.2796 148.477C87.0603 148.552 86.834 148.643 86.6006 148.75L86.5166 147.42C86.6893 147.35 86.883 147.282 87.0976 147.217C87.3123 147.152 87.5433 147.093 87.7906 147.042C88.0426 146.986 88.3016 146.944 88.5676 146.916C88.8336 146.888 89.1043 146.874 89.3796 146.874C89.9303 146.874 90.4016 146.956 90.7936 147.119C91.1856 147.282 91.4866 147.544 91.6966 147.903C91.9066 148.258 92.0116 148.72 92.0116 149.289C92.0116 149.513 92.0116 149.791 92.0116 150.122C92.0116 150.453 92.0116 150.761 92.0116 151.046V151.886C92.0116 152.217 92.0116 152.553 92.0116 152.894C92.0116 153.235 92.0116 153.603 92.0116 154H90.6606L90.5766 153.076H90.4436C90.3083 153.249 90.138 153.417 89.9326 153.58C89.732 153.743 89.4916 153.879 89.2116 153.986C88.9363 154.093 88.6283 154.147 88.2876 154.147ZM88.7776 152.957C89.0016 152.957 89.221 152.908 89.4356 152.81C89.655 152.707 89.858 152.563 90.0446 152.376C90.2313 152.189 90.3923 151.963 90.5276 151.697V150.465C90.4576 150.507 90.3666 150.547 90.2546 150.584C90.1473 150.621 89.984 150.663 89.7646 150.71C89.5453 150.757 89.2373 150.815 88.8406 150.885C88.612 150.922 88.416 150.99 88.2526 151.088C88.0893 151.186 87.961 151.314 87.8676 151.473C87.779 151.627 87.7346 151.811 87.7346 152.026C87.7346 152.367 87.8373 152.607 88.0426 152.747C88.2526 152.887 88.4976 152.957 88.7776 152.957ZM94.0048 154C94.0048 153.491 94.0048 152.999 94.0048 152.523C94.0048 152.047 94.0048 151.522 94.0048 150.948V150.248C94.0048 149.73 94.0048 149.203 94.0048 148.666C94.0048 148.125 94.0048 147.583 94.0048 147.042L95.2858 146.958L95.3418 148.33H95.4818C95.6684 147.919 95.8808 147.609 96.1188 147.399C96.3568 147.189 96.5994 147.049 96.8468 146.979C97.0941 146.904 97.3251 146.867 97.5398 146.867C97.6611 146.867 97.7871 146.876 97.9178 146.895C98.0484 146.914 98.1721 146.944 98.2888 146.986L98.1558 148.47C97.9924 148.442 97.8454 148.421 97.7148 148.407C97.5841 148.393 97.4348 148.386 97.2668 148.386C97.1361 148.386 96.9914 148.405 96.8328 148.442C96.6741 148.475 96.5131 148.545 96.3498 148.652C96.1911 148.759 96.0371 148.92 95.8878 149.135C95.7431 149.345 95.6148 149.623 95.5028 149.968V151.025C95.5028 151.562 95.5028 152.066 95.5028 152.537C95.5028 153.004 95.5028 153.491 95.5028 154H94.0048ZM101.982 156.849C101.464 156.849 101.03 156.802 100.68 156.709C100.33 156.62 100.05 156.497 99.8399 156.338C99.6346 156.184 99.4876 156.009 99.3989 155.813C99.3149 155.622 99.2729 155.426 99.2729 155.225C99.2729 154.912 99.3476 154.651 99.4969 154.441C99.6462 154.236 99.8212 154.075 100.022 153.958C100.223 153.841 100.395 153.76 100.54 153.713V153.594C100.465 153.571 100.372 153.522 100.26 153.447C100.153 153.368 100.055 153.258 99.9659 153.118C99.8772 152.973 99.8329 152.794 99.8329 152.579C99.8329 152.42 99.8609 152.271 99.9169 152.131C99.9776 151.991 100.069 151.865 100.19 151.753C100.316 151.636 100.477 151.536 100.673 151.452V151.333C100.556 151.286 100.414 151.209 100.246 151.102C100.078 150.995 99.9122 150.855 99.7489 150.682C99.5902 150.509 99.4549 150.297 99.3429 150.045C99.2356 149.793 99.1819 149.497 99.1819 149.156C99.1819 148.713 99.2916 148.318 99.5109 147.973C99.7302 147.628 100.05 147.359 100.47 147.168C100.89 146.972 101.399 146.874 101.996 146.874C102.229 146.874 102.435 146.886 102.612 146.909C102.789 146.932 102.974 146.958 103.165 146.986C103.356 147.009 103.592 147.021 103.872 147.021H105.937V148.099C105.489 148.099 105.053 148.099 104.628 148.099C104.208 148.099 103.779 148.099 103.34 148.099L103.753 147.413C104.122 147.609 104.39 147.863 104.558 148.176C104.726 148.489 104.81 148.846 104.81 149.247C104.81 149.714 104.712 150.108 104.516 150.43C104.325 150.747 104.059 151.004 103.718 151.2C103.377 151.396 102.985 151.543 102.542 151.641C102.089 151.748 101.753 151.844 101.534 151.928C101.319 152.007 101.212 152.126 101.212 152.285C101.212 152.397 101.259 152.483 101.352 152.544C101.445 152.605 101.59 152.649 101.786 152.677C101.982 152.705 102.239 152.719 102.556 152.719H102.85C103.475 152.719 103.996 152.77 104.411 152.873C104.826 152.971 105.137 153.141 105.342 153.384C105.552 153.627 105.657 153.958 105.657 154.378C105.657 154.807 105.547 155.178 105.328 155.491C105.113 155.804 104.824 156.06 104.46 156.261C104.096 156.462 103.699 156.609 103.27 156.702C102.841 156.8 102.411 156.849 101.982 156.849ZM102.136 155.68C102.607 155.68 102.999 155.617 103.312 155.491C103.625 155.37 103.858 155.225 104.012 155.057C104.166 154.894 104.243 154.749 104.243 154.623C104.243 154.474 104.196 154.348 104.103 154.245C104.01 154.142 103.835 154.063 103.578 154.007C103.321 153.956 102.95 153.93 102.465 153.93H102.22C101.973 153.939 101.728 153.984 101.485 154.063C101.242 154.147 101.039 154.257 100.876 154.392C100.717 154.532 100.638 154.691 100.638 154.868C100.638 154.971 100.664 155.071 100.715 155.169C100.771 155.267 100.857 155.353 100.974 155.428C101.095 155.507 101.252 155.568 101.443 155.61C101.634 155.657 101.865 155.68 102.136 155.68ZM101.933 150.598C102.078 150.575 102.236 150.54 102.409 150.493C102.582 150.442 102.745 150.369 102.899 150.276C103.053 150.183 103.179 150.061 103.277 149.912C103.375 149.763 103.424 149.578 103.424 149.359C103.424 149.065 103.349 148.827 103.2 148.645C103.051 148.458 102.864 148.321 102.64 148.232C102.421 148.143 102.199 148.099 101.975 148.099C101.737 148.099 101.511 148.143 101.296 148.232C101.086 148.321 100.911 148.454 100.771 148.631C100.636 148.808 100.568 149.025 100.568 149.282C100.568 149.534 100.633 149.751 100.764 149.933C100.895 150.115 101.063 150.262 101.268 150.374C101.478 150.486 101.7 150.561 101.933 150.598ZM108.864 154.147C108.467 154.147 108.112 154.068 107.8 153.909C107.487 153.746 107.24 153.512 107.058 153.209C106.88 152.901 106.792 152.528 106.792 152.089C106.792 151.702 106.857 151.377 106.988 151.116C107.123 150.85 107.3 150.633 107.52 150.465C107.739 150.297 107.984 150.166 108.255 150.073C108.525 149.98 108.798 149.912 109.074 149.87L111.139 149.548C111.157 149.161 111.099 148.864 110.964 148.659C110.833 148.454 110.646 148.314 110.404 148.239C110.166 148.164 109.895 148.127 109.592 148.127C109.433 148.127 109.26 148.139 109.074 148.162C108.892 148.185 108.698 148.225 108.493 148.281C108.292 148.332 108.08 148.398 107.856 148.477C107.636 148.552 107.41 148.643 107.177 148.75L107.093 147.42C107.265 147.35 107.459 147.282 107.674 147.217C107.888 147.152 108.119 147.093 108.367 147.042C108.619 146.986 108.878 146.944 109.144 146.916C109.41 146.888 109.68 146.874 109.956 146.874C110.506 146.874 110.978 146.956 111.37 147.119C111.762 147.282 112.063 147.544 112.273 147.903C112.483 148.258 112.588 148.72 112.588 149.289C112.588 149.513 112.588 149.791 112.588 150.122C112.588 150.453 112.588 150.761 112.588 151.046V151.886C112.588 152.217 112.588 152.553 112.588 152.894C112.588 153.235 112.588 153.603 112.588 154H111.237L111.153 153.076H111.02C110.884 153.249 110.714 153.417 110.509 153.58C110.308 153.743 110.068 153.879 109.788 153.986C109.512 154.093 109.204 154.147 108.864 154.147ZM109.354 152.957C109.578 152.957 109.797 152.908 110.012 152.81C110.231 152.707 110.434 152.563 110.621 152.376C110.807 152.189 110.968 151.963 111.104 151.697V150.465C111.034 150.507 110.943 150.547 110.831 150.584C110.723 150.621 110.56 150.663 110.341 150.71C110.121 150.757 109.813 150.815 109.417 150.885C109.188 150.922 108.992 150.99 108.829 151.088C108.665 151.186 108.537 151.314 108.444 151.473C108.355 151.627 108.311 151.811 108.311 152.026C108.311 152.367 108.413 152.607 108.619 152.747C108.829 152.887 109.074 152.957 109.354 152.957Z" fill="#3C3C3B"/>
<defs>
<clipPath id="clip0_496_10727">
<rect width="116" height="55" fill="white" transform="translate(29.5 43)"/>
</clipPath>
</defs>
</svg>
