<svg width="120" height="165" viewBox="0 0 120 165" fill="none" xmlns="http://www.w3.org/2000/svg">
<path d="M105.986 64.2713C106.605 82.6235 86.5186 104 61.5454 104C37.7155 104 23.1447 89.5238 19.5679 64.9044C15.2279 35.0532 36.5597 2.57996 56.4324 23.8224C83.8465 53.1447 105.121 38.604 105.986 64.2713Z" fill="#FCFCED"/>
<path d="M17.6129 79H102.387C103.279 79 104 79.7456 104 80.6686V87.3314C104 88.2544 103.279 89 102.387 89H17.6129C16.7207 89 16 88.2544 16 87.3314V80.6686C16 79.7456 16.7207 79 17.6129 79Z" fill="#435D76"/>
<path fill-rule="evenodd" clip-rule="evenodd" d="M19.7929 78H100.207C103.39 78 106 80.7036 106 84C106 87.2964 103.39 90 100.207 90H19.7929C16.6103 90 14 87.2964 14 84C14 80.7036 16.6103 78 19.7929 78ZM19.7929 80.087C17.7208 80.087 16.0149 81.8419 16.0149 84C16.0149 86.1462 17.7093 87.913 19.7929 87.913H100.207C102.279 87.913 103.985 86.1581 103.985 84C103.985 81.8538 102.291 80.087 100.207 80.087H19.7929Z" fill="#20354A"/>
<path d="M45 55H19V78H45V55Z" fill="#FFA146"/>
<path d="M47 55H45V78H47V55Z" fill="#DD3E13"/>
<path d="M72 46H47V78H72V46Z" fill="#FFA146"/>
<path d="M74 55H72V78H74V55Z" fill="#DD3E13"/>
<path d="M100 55H74V78H100V55Z" fill="#FFA146"/>
<path d="M52.9727 51.627H52.4111V55.6073H52.9727V51.627Z" fill="#435D76"/>
<path fill-rule="evenodd" clip-rule="evenodd" d="M54.8865 48.5938V51.1827C54.8865 52.3802 53.9008 53.3724 52.6859 53.3724C51.471 53.3724 50.4854 52.3916 50.4854 51.1827V48.5938H54.8865Z" fill="#435D76"/>
<path fill-rule="evenodd" clip-rule="evenodd" d="M51.437 55.6191H53.947C54.2909 55.6191 54.566 55.813 54.566 56.0525H50.8066C50.8066 55.813 51.0817 55.6191 51.4256 55.6191H51.437Z" fill="#435D76"/>
<path fill-rule="evenodd" clip-rule="evenodd" d="M24.1589 60.8306V64.6398H22.7606V60.8306H21.7979L22.6231 59.3137L23.4597 57.7969L24.285 59.3137L25.1216 60.8306H24.1589Z" fill="#435D76"/>
<path fill-rule="evenodd" clip-rule="evenodd" d="M27.9186 60.8306V64.6398H26.5318V60.8306H25.5576L26.3943 59.3137L27.231 57.7969L28.0562 59.3137L28.8929 60.8306H27.9186Z" fill="#435D76"/>
<path fill-rule="evenodd" clip-rule="evenodd" d="M22.1992 64.6396H28.48V65.1757H22.1992V64.6396Z" fill="#435D76"/>
<path fill-rule="evenodd" clip-rule="evenodd" d="M82.4744 60.1128C82.142 58.767 80.9042 57.752 79.4486 57.752C77.993 57.752 76.7667 58.7556 76.4229 60.1128H82.463H82.4744Z" fill="#435D76"/>
<path fill-rule="evenodd" clip-rule="evenodd" d="M79.7468 64.0821C79.7238 64.7094 79.1966 65.2112 78.5663 65.2112C77.9359 65.2112 77.4087 64.7094 77.3857 64.0821H77.9703C77.9932 64.39 78.2568 64.6409 78.5777 64.6409C78.8986 64.6409 79.1508 64.4014 79.1852 64.0821V59.8965H79.7697V64.0821H79.7468Z" fill="#435D76"/>
<path fill-rule="evenodd" clip-rule="evenodd" d="M23.4716 80.1855C23.1621 80.1855 22.9214 80.4365 22.9214 80.733H21.4085C21.4085 80.4365 21.1564 80.1855 20.8584 80.1855H23.483H23.4716Z" fill="#1A2A3A"/>
<path fill-rule="evenodd" clip-rule="evenodd" d="M26.0507 80.1855C25.7412 80.1855 25.5005 80.4365 25.5005 80.733H23.9876C23.9876 80.4365 23.7355 80.1855 23.4375 80.1855H26.0621H26.0507Z" fill="#1A2A3A"/>
<path fill-rule="evenodd" clip-rule="evenodd" d="M28.6288 80.1855C28.3193 80.1855 28.0787 80.4365 28.0787 80.733H26.5658C26.5658 80.4365 26.3136 80.1855 26.0156 80.1855H28.6403H28.6288Z" fill="#1A2A3A"/>
<path fill-rule="evenodd" clip-rule="evenodd" d="M31.2079 80.1855C30.9099 80.1855 30.6578 80.4365 30.6578 80.733H29.1449C29.1449 80.4365 28.8927 80.1855 28.5947 80.1855H31.2194H31.2079Z" fill="#1A2A3A"/>
<path fill-rule="evenodd" clip-rule="evenodd" d="M33.787 80.1855C33.4776 80.1855 33.2369 80.4365 33.2369 80.733H31.724C31.724 80.4365 31.4718 80.1855 31.1738 80.1855H33.7985H33.787Z" fill="#1A2A3A"/>
<path fill-rule="evenodd" clip-rule="evenodd" d="M36.3651 80.1855C36.0557 80.1855 35.815 80.4365 35.815 80.733H34.3021C34.3021 80.4365 34.0499 80.1855 33.752 80.1855H36.3766H36.3651Z" fill="#1A2A3A"/>
<path fill-rule="evenodd" clip-rule="evenodd" d="M38.9442 80.1855C38.6462 80.1855 38.3941 80.4365 38.3941 80.733H36.8812C36.8812 80.4365 36.629 80.1855 36.3311 80.1855H38.9557H38.9442Z" fill="#1A2A3A"/>
<path fill-rule="evenodd" clip-rule="evenodd" d="M41.5233 80.1855C41.2253 80.1855 40.9732 80.4365 40.9732 80.733H39.4603C39.4603 80.4365 39.2082 80.1855 38.9102 80.1855H41.5348H41.5233Z" fill="#1A2A3A"/>
<path fill-rule="evenodd" clip-rule="evenodd" d="M44.1015 80.1855C43.792 80.1855 43.5513 80.4365 43.5513 80.733H42.0384C42.0384 80.4365 41.7863 80.1855 41.4883 80.1855H44.1129H44.1015Z" fill="#1A2A3A"/>
<path fill-rule="evenodd" clip-rule="evenodd" d="M46.6806 80.1855C46.3711 80.1855 46.1304 80.4365 46.1304 80.733H44.6175C44.6175 80.4365 44.3654 80.1855 44.0674 80.1855H46.692H46.6806Z" fill="#1A2A3A"/>
<path fill-rule="evenodd" clip-rule="evenodd" d="M49.2597 80.1855C48.9502 80.1855 48.7095 80.4365 48.7095 80.733H47.1966C47.1966 80.4365 46.9445 80.1855 46.6465 80.1855H49.2711H49.2597Z" fill="#1A2A3A"/>
<path fill-rule="evenodd" clip-rule="evenodd" d="M51.8388 80.1855C51.5293 80.1855 51.2886 80.4365 51.2886 80.733H49.7757C49.7757 80.4365 49.5236 80.1855 49.2256 80.1855H51.8502H51.8388Z" fill="#1A2A3A"/>
<path fill-rule="evenodd" clip-rule="evenodd" d="M54.4169 80.1855C54.1074 80.1855 53.8667 80.4365 53.8667 80.733H52.3539C52.3539 80.4365 52.1017 80.1855 51.8037 80.1855H54.4283H54.4169Z" fill="#1A2A3A"/>
<path fill-rule="evenodd" clip-rule="evenodd" d="M56.996 80.1855C56.6865 80.1855 56.4458 80.4365 56.4458 80.733H54.933C54.933 80.4365 54.6808 80.1855 54.3828 80.1855H57.0075H56.996Z" fill="#1A2A3A"/>
<path fill-rule="evenodd" clip-rule="evenodd" d="M59.5751 80.1855C59.2656 80.1855 59.025 80.4365 59.025 80.733H57.5121C57.5121 80.4365 57.2599 80.1855 56.9619 80.1855H59.5866H59.5751Z" fill="#1A2A3A"/>
<path fill-rule="evenodd" clip-rule="evenodd" d="M62.1532 80.1855C61.8552 80.1855 61.6031 80.4365 61.6031 80.733H60.0902C60.0902 80.4365 59.838 80.1855 59.54 80.1855H62.1647H62.1532Z" fill="#1A2A3A"/>
<path fill-rule="evenodd" clip-rule="evenodd" d="M64.7323 80.1855C64.4343 80.1855 64.1822 80.4365 64.1822 80.733H62.6693C62.6693 80.4365 62.4171 80.1855 62.1191 80.1855H64.7438H64.7323Z" fill="#1A2A3A"/>
<path fill-rule="evenodd" clip-rule="evenodd" d="M67.3114 80.1855C67.0134 80.1855 66.7613 80.4365 66.7613 80.733H65.2484C65.2484 80.4365 64.9962 80.1855 64.6982 80.1855H67.3229H67.3114Z" fill="#1A2A3A"/>
<path fill-rule="evenodd" clip-rule="evenodd" d="M69.8895 80.1855C69.5801 80.1855 69.3394 80.4365 69.3394 80.733H67.8265C67.8265 80.4365 67.5744 80.1855 67.2764 80.1855H69.901H69.8895Z" fill="#1A2A3A"/>
<path fill-rule="evenodd" clip-rule="evenodd" d="M72.4686 80.1855C72.1592 80.1855 71.9185 80.4365 71.9185 80.733H70.4056C70.4056 80.4365 70.1535 80.1855 69.8555 80.1855H72.4801H72.4686Z" fill="#1A2A3A"/>
<path fill-rule="evenodd" clip-rule="evenodd" d="M75.0477 80.1855C74.7383 80.1855 74.4976 80.4365 74.4976 80.733H72.9847C72.9847 80.4365 72.7326 80.1855 72.4346 80.1855H75.0592H75.0477Z" fill="#1A2A3A"/>
<path fill-rule="evenodd" clip-rule="evenodd" d="M77.6259 80.1855C77.3164 80.1855 77.0757 80.4365 77.0757 80.733H75.5628C75.5628 80.4365 75.3107 80.1855 75.0127 80.1855H77.6373H77.6259Z" fill="#1A2A3A"/>
<path fill-rule="evenodd" clip-rule="evenodd" d="M80.205 80.1855C79.8955 80.1855 79.6548 80.4365 79.6548 80.733H78.1419C78.1419 80.4365 77.8898 80.1855 77.5918 80.1855H80.2164H80.205Z" fill="#1A2A3A"/>
<path fill-rule="evenodd" clip-rule="evenodd" d="M82.7841 80.1855C82.4746 80.1855 82.2339 80.4365 82.2339 80.733H80.721C80.721 80.4365 80.4689 80.1855 80.1709 80.1855H82.7955H82.7841Z" fill="#1A2A3A"/>
<path fill-rule="evenodd" clip-rule="evenodd" d="M85.3622 80.1855C85.0527 80.1855 84.8121 80.4365 84.8121 80.733H83.2992C83.2992 80.4365 83.047 80.1855 82.749 80.1855H85.3737H85.3622Z" fill="#1A2A3A"/>
<path fill-rule="evenodd" clip-rule="evenodd" d="M87.9413 80.1855C87.6318 80.1855 87.3912 80.4365 87.3912 80.733H85.8783C85.8783 80.4365 85.6261 80.1855 85.3281 80.1855H87.9528H87.9413Z" fill="#1A2A3A"/>
<path fill-rule="evenodd" clip-rule="evenodd" d="M90.5204 80.1855C90.2109 80.1855 89.9703 80.4365 89.9703 80.733H88.4574C88.4574 80.4365 88.2052 80.1855 87.9072 80.1855H90.5319H90.5204Z" fill="#1A2A3A"/>
<path fill-rule="evenodd" clip-rule="evenodd" d="M93.0985 80.1855C92.7891 80.1855 92.5484 80.4365 92.5484 80.733H91.0355C91.0355 80.4365 90.7833 80.1855 90.4854 80.1855H93.11H93.0985Z" fill="#1A2A3A"/>
<path fill-rule="evenodd" clip-rule="evenodd" d="M95.6776 80.1855C95.3682 80.1855 95.1275 80.4365 95.1275 80.733H93.6146C93.6146 80.4365 93.3624 80.1855 93.0645 80.1855H95.6891H95.6776Z" fill="#1A2A3A"/>
<path fill-rule="evenodd" clip-rule="evenodd" d="M98.245 80.1855C97.947 80.1855 97.6949 80.4365 97.6949 80.733H96.182C96.182 80.4365 95.9298 80.1855 95.6318 80.1855H98.2565H98.245Z" fill="#1A2A3A"/>
<path fill-rule="evenodd" clip-rule="evenodd" d="M21.3966 87.1533H22.9095C22.9095 87.4613 23.1616 87.7008 23.4596 87.7008H20.835C21.1444 87.7008 21.3851 87.4498 21.3851 87.1533H21.3966Z" fill="#1A2A3A"/>
<path fill-rule="evenodd" clip-rule="evenodd" d="M23.9757 87.1533H25.4886C25.4886 87.4613 25.7407 87.7008 26.0387 87.7008H23.4141C23.7235 87.7008 23.9642 87.4498 23.9642 87.1533H23.9757Z" fill="#1A2A3A"/>
<path fill-rule="evenodd" clip-rule="evenodd" d="M26.5538 87.1533H28.0667C28.0667 87.4613 28.3188 87.7008 28.6168 87.7008H25.9922C26.2902 87.7008 26.5423 87.4498 26.5423 87.1533H26.5538Z" fill="#1A2A3A"/>
<path fill-rule="evenodd" clip-rule="evenodd" d="M29.1329 87.1533H30.6458C30.6458 87.4613 30.8979 87.7008 31.1959 87.7008H28.5713C28.8693 87.7008 29.1214 87.4498 29.1214 87.1533H29.1329Z" fill="#1A2A3A"/>
<path fill-rule="evenodd" clip-rule="evenodd" d="M31.712 87.1533H33.2249C33.2249 87.4613 33.477 87.7008 33.775 87.7008H31.1504C31.4484 87.7008 31.7005 87.4498 31.7005 87.1533H31.712Z" fill="#1A2A3A"/>
<path fill-rule="evenodd" clip-rule="evenodd" d="M34.2901 87.1533H35.803C35.803 87.4613 36.0552 87.7008 36.3532 87.7008H33.7285C34.038 87.7008 34.2787 87.4498 34.2787 87.1533H34.2901Z" fill="#1A2A3A"/>
<path fill-rule="evenodd" clip-rule="evenodd" d="M36.8692 87.1533H38.3821C38.3821 87.4613 38.6343 87.7008 38.9323 87.7008H36.3076C36.6171 87.7008 36.8578 87.4498 36.8578 87.1533H36.8692Z" fill="#1A2A3A"/>
<path fill-rule="evenodd" clip-rule="evenodd" d="M39.4483 87.1533H40.9612C40.9612 87.4613 41.2134 87.7008 41.5114 87.7008H38.8867C39.1962 87.7008 39.4369 87.4498 39.4369 87.1533H39.4483Z" fill="#1A2A3A"/>
<path fill-rule="evenodd" clip-rule="evenodd" d="M42.0264 87.1533H43.5393C43.5393 87.4613 43.7915 87.7008 44.0895 87.7008H41.4648C41.7743 87.7008 42.015 87.4498 42.015 87.1533H42.0264Z" fill="#1A2A3A"/>
<path fill-rule="evenodd" clip-rule="evenodd" d="M44.6055 87.1533H46.1184C46.1184 87.4613 46.3706 87.7008 46.6686 87.7008H44.0439C44.3534 87.7008 44.5941 87.4498 44.5941 87.1533H44.6055Z" fill="#1A2A3A"/>
<path fill-rule="evenodd" clip-rule="evenodd" d="M47.1847 87.1533H48.6975C48.6975 87.4613 48.9497 87.7008 49.2477 87.7008H46.623C46.9325 87.7008 47.1732 87.4498 47.1732 87.1533H47.1847Z" fill="#1A2A3A"/>
<path fill-rule="evenodd" clip-rule="evenodd" d="M49.7638 87.1533H51.2766C51.2766 87.4613 51.5288 87.7008 51.8268 87.7008H49.2021C49.5001 87.7008 49.7523 87.4498 49.7523 87.1533H49.7638Z" fill="#1A2A3A"/>
<path fill-rule="evenodd" clip-rule="evenodd" d="M52.3419 87.1533H53.8548C53.8548 87.4613 54.1069 87.7008 54.4049 87.7008H51.7803C52.0783 87.7008 52.3304 87.4498 52.3304 87.1533H52.3419Z" fill="#1A2A3A"/>
<path fill-rule="evenodd" clip-rule="evenodd" d="M54.921 87.1533H56.4339C56.4339 87.4613 56.686 87.7008 56.984 87.7008H54.3594C54.6574 87.7008 54.9095 87.4498 54.9095 87.1533H54.921Z" fill="#1A2A3A"/>
<path fill-rule="evenodd" clip-rule="evenodd" d="M57.5001 87.1533H59.013C59.013 87.4613 59.2651 87.7008 59.5631 87.7008H56.9385C57.2479 87.7008 57.4886 87.4498 57.4886 87.1533H57.5001Z" fill="#1A2A3A"/>
<path fill-rule="evenodd" clip-rule="evenodd" d="M60.0782 87.1533H61.5911C61.5911 87.4613 61.8432 87.7008 62.1412 87.7008H59.5166C59.8261 87.7008 60.0667 87.4498 60.0667 87.1533H60.0782Z" fill="#1A2A3A"/>
<path fill-rule="evenodd" clip-rule="evenodd" d="M62.6573 87.1533H64.1702C64.1702 87.4613 64.4223 87.7008 64.7203 87.7008H62.0957C62.4052 87.7008 62.6458 87.4498 62.6458 87.1533H62.6573Z" fill="#1A2A3A"/>
<path fill-rule="evenodd" clip-rule="evenodd" d="M65.2364 87.1533H66.7493C66.7493 87.4613 67.0014 87.7008 67.2994 87.7008H64.6748C64.9843 87.7008 65.2249 87.4498 65.2249 87.1533H65.2364Z" fill="#1A2A3A"/>
<path fill-rule="evenodd" clip-rule="evenodd" d="M67.8145 87.1533H69.3274C69.3274 87.4613 69.5796 87.7008 69.8776 87.7008H67.2529C67.5624 87.7008 67.8031 87.4498 67.8031 87.1533H67.8145Z" fill="#1A2A3A"/>
<path fill-rule="evenodd" clip-rule="evenodd" d="M70.3936 87.1533H71.9065C71.9065 87.4613 72.1587 87.7008 72.4567 87.7008H69.832C70.1415 87.7008 70.3822 87.4498 70.3822 87.1533H70.3936Z" fill="#1A2A3A"/>
<path fill-rule="evenodd" clip-rule="evenodd" d="M72.9727 87.1533H74.4856C74.4856 87.4613 74.7378 87.7008 75.0358 87.7008H72.4111C72.7206 87.7008 72.9613 87.4498 72.9613 87.1533H72.9727Z" fill="#1A2A3A"/>
<path fill-rule="evenodd" clip-rule="evenodd" d="M75.5509 87.1533H77.0638C77.0638 87.4613 77.3159 87.7008 77.6139 87.7008H74.9893C75.2987 87.7008 75.5394 87.4498 75.5394 87.1533H75.5509Z" fill="#1A2A3A"/>
<path fill-rule="evenodd" clip-rule="evenodd" d="M78.13 87.1533H79.6429C79.6429 87.4613 79.895 87.7008 80.193 87.7008H77.5684C77.8664 87.7008 78.1185 87.4498 78.1185 87.1533H78.13Z" fill="#1A2A3A"/>
<path fill-rule="evenodd" clip-rule="evenodd" d="M80.7091 87.1533H82.222C82.222 87.4613 82.4741 87.7008 82.7721 87.7008H80.1475C80.4569 87.7008 80.6976 87.4498 80.6976 87.1533H80.7091Z" fill="#1A2A3A"/>
<path fill-rule="evenodd" clip-rule="evenodd" d="M83.2872 87.1533H84.8001C84.8001 87.4613 85.0522 87.7008 85.3502 87.7008H82.7256C83.035 87.7008 83.2757 87.4498 83.2757 87.1533H83.2872Z" fill="#1A2A3A"/>
<path fill-rule="evenodd" clip-rule="evenodd" d="M85.8663 87.1533H87.3792C87.3792 87.4613 87.6313 87.7008 87.9293 87.7008H85.3047C85.6141 87.7008 85.8548 87.4498 85.8548 87.1533H85.8663Z" fill="#1A2A3A"/>
<path fill-rule="evenodd" clip-rule="evenodd" d="M88.4454 87.1533H89.9583C89.9583 87.4613 90.2104 87.7008 90.5084 87.7008H87.8838C88.1818 87.7008 88.4339 87.4498 88.4339 87.1533H88.4454Z" fill="#1A2A3A"/>
<path fill-rule="evenodd" clip-rule="evenodd" d="M91.0235 87.1533H92.5364C92.5364 87.4613 92.7886 87.7008 93.0866 87.7008H90.4619C90.7599 87.7008 91.0121 87.4498 91.0121 87.1533H91.0235Z" fill="#1A2A3A"/>
<path fill-rule="evenodd" clip-rule="evenodd" d="M93.6026 87.1533H95.1155C95.1155 87.4613 95.3677 87.7008 95.6657 87.7008H93.041C93.3505 87.7008 93.5912 87.4498 93.5912 87.1533H93.6026Z" fill="#1A2A3A"/>
<path fill-rule="evenodd" clip-rule="evenodd" d="M96.1817 87.1533H97.6946C97.6946 87.4613 97.9468 87.7008 98.2448 87.7008H95.6201C95.9296 87.7008 96.1703 87.4498 96.1703 87.1533H96.1817Z" fill="#1A2A3A"/>
<path fill-rule="evenodd" clip-rule="evenodd" d="M21.8267 81.1733C23.3911 82.7378 23.3911 85.2622 21.8267 86.8267C20.2622 88.3911 17.7378 88.3911 16.1733 86.8267C14.6089 85.2622 14.6089 82.7259 16.1733 81.1733C17.7378 79.6089 20.2741 79.6089 21.8267 81.1733Z" fill="#9EB134"/>
<path fill-rule="evenodd" clip-rule="evenodd" d="M17.686 85C16.7713 84.314 16.7713 83.2006 17.686 82.5145C18.6007 81.8285 20.0853 81.8285 21 82.5145L17.686 85Z" fill="#344453"/>
<path fill-rule="evenodd" clip-rule="evenodd" d="M21.9688 81C23.3438 82.6042 23.3438 85.1927 21.9688 86.7969C20.5937 88.401 18.375 88.401 17 86.7969L21.9688 81Z" fill="#85972D"/>
<path fill-rule="evenodd" clip-rule="evenodd" d="M20.4855 83C21.1715 83.686 21.1715 84.7994 20.4855 85.4855C19.7994 86.1715 18.686 86.1715 18 85.4855L20.4855 83Z" fill="#1A2A3A"/>
<path fill-rule="evenodd" clip-rule="evenodd" d="M102.827 81.1733C104.391 82.7378 104.391 85.2622 102.827 86.8267C101.262 88.3911 98.7259 88.3911 97.1733 86.8267C95.6089 85.2622 95.6089 82.7259 97.1733 81.1733C98.7378 79.6089 101.274 79.6089 102.827 81.1733Z" fill="#9EB134"/>
<path fill-rule="evenodd" clip-rule="evenodd" d="M98.5145 85C97.8285 84.314 97.8285 83.2006 98.5145 82.5145C99.2006 81.8285 100.314 81.8285 101 82.5145L98.5145 85Z" fill="#20354A"/>
<path fill-rule="evenodd" clip-rule="evenodd" d="M102.797 81C104.401 82.6042 104.401 85.1927 102.797 86.7969C101.193 88.401 98.592 88.401 97 86.7969L102.797 81Z" fill="#85972D"/>
<path fill-rule="evenodd" clip-rule="evenodd" d="M101.485 83C102.172 83.686 102.172 84.7994 101.485 85.4855C100.799 86.1715 99.686 86.1715 99 85.4855L101.485 83Z" fill="#1A2A3A"/>
<path d="M45 55H32V78H45V55Z" fill="#ED7425"/>
<path d="M72 46H60V78H72V46Z" fill="#ED7425"/>
<path d="M100 55H87V78H100V55Z" fill="#ED7425"/>
<path d="M31.9282 128.161C31.0649 128.161 30.3019 128.033 29.6392 127.776C28.9765 127.515 28.4189 127.153 27.9662 126.691C27.5135 126.224 27.1705 125.678 26.9372 125.053C26.7039 124.423 26.5872 123.737 26.5872 122.995C26.5872 121.987 26.7949 121.096 27.2102 120.321C27.6255 119.542 28.2135 118.933 28.9742 118.494C29.7395 118.051 30.6449 117.829 31.6902 117.829C32.0402 117.829 32.3809 117.852 32.7122 117.899C33.0435 117.946 33.3562 118.009 33.6502 118.088C33.9442 118.163 34.2149 118.247 34.4622 118.34C34.7142 118.433 34.9312 118.527 35.1132 118.62L34.9802 120.174C34.5929 119.955 34.2149 119.777 33.8462 119.642C33.4822 119.507 33.1299 119.409 32.7892 119.348C32.4485 119.283 32.1219 119.25 31.8092 119.25C31.2959 119.25 30.8245 119.334 30.3952 119.502C29.9705 119.67 29.5995 119.915 29.2822 120.237C28.9649 120.559 28.7199 120.953 28.5472 121.42C28.3745 121.882 28.2882 122.409 28.2882 123.002C28.2882 123.529 28.3629 124.024 28.5122 124.486C28.6615 124.943 28.8902 125.347 29.1982 125.697C29.5062 126.047 29.8982 126.32 30.3742 126.516C30.8502 126.712 31.4125 126.81 32.0612 126.81C32.3319 126.81 32.5979 126.796 32.8592 126.768C33.1205 126.74 33.3749 126.698 33.6222 126.642C33.8742 126.581 34.1215 126.507 34.3642 126.418C34.6115 126.325 34.8519 126.213 35.0852 126.082L35.2812 127.587C35.1225 127.657 34.9219 127.727 34.6792 127.797C34.4365 127.862 34.1659 127.923 33.8672 127.979C33.5732 128.035 33.2605 128.079 32.9292 128.112C32.6025 128.145 32.2689 128.161 31.9282 128.161ZM33.7272 127.615C33.7272 127.111 33.7272 126.67 33.7272 126.292C33.7272 125.914 33.7272 125.536 33.7272 125.158C33.7272 124.715 33.7272 124.323 33.7272 123.982C33.7272 123.637 33.7272 123.287 33.7272 122.932H35.2812C35.2812 123.287 35.2812 123.637 35.2812 123.982C35.2812 124.323 35.2812 124.715 35.2812 125.158C35.2812 125.536 35.2812 125.914 35.2812 126.292C35.2812 126.665 35.2812 127.097 35.2812 127.587L33.7272 127.615ZM40.5374 128.161C39.6834 128.161 38.9811 128.002 38.4304 127.685C37.8798 127.368 37.4714 126.934 37.2054 126.383C36.9441 125.832 36.8134 125.2 36.8134 124.486C36.8134 123.781 36.9394 123.156 37.1914 122.61C37.4481 122.064 37.8214 121.639 38.3114 121.336C38.8014 121.028 39.3941 120.874 40.0894 120.874C40.6914 120.874 41.2094 120.988 41.6434 121.217C42.0774 121.441 42.4111 121.777 42.6444 122.225C42.8778 122.673 42.9944 123.228 42.9944 123.891C42.9944 124.068 42.9898 124.229 42.9804 124.374C42.9758 124.514 42.9618 124.654 42.9384 124.794L41.6294 124.22C41.6388 124.15 41.6458 124.082 41.6504 124.017C41.6551 123.947 41.6574 123.882 41.6574 123.821C41.6574 123.247 41.5128 122.804 41.2234 122.491C40.9388 122.174 40.5654 122.015 40.1034 122.015C39.7441 122.015 39.4314 122.113 39.1654 122.309C38.8994 122.505 38.6918 122.773 38.5424 123.114C38.3978 123.455 38.3254 123.847 38.3254 124.29V124.514C38.3254 125.009 38.4094 125.433 38.5774 125.788C38.7501 126.143 39.0114 126.416 39.3614 126.607C39.7161 126.798 40.1618 126.894 40.6984 126.894C40.9038 126.894 41.1278 126.878 41.3704 126.845C41.6178 126.808 41.8651 126.752 42.1124 126.677C42.3598 126.602 42.5931 126.507 42.8124 126.39L42.8684 127.692C42.6911 127.785 42.4834 127.867 42.2454 127.937C42.0074 128.007 41.7438 128.061 41.4544 128.098C41.1698 128.14 40.8641 128.161 40.5374 128.161ZM37.4154 124.794V123.772L42.0424 123.716L42.9384 124.087V124.794H37.4154ZM44.6512 128C44.6512 127.491 44.6512 126.999 44.6512 126.523C44.6512 126.047 44.6512 125.522 44.6512 124.948V124.248C44.6512 123.73 44.6512 123.203 44.6512 122.666C44.6512 122.125 44.6512 121.583 44.6512 121.042L45.9322 120.958L45.9882 122.218H46.1352C46.2846 122.003 46.4736 121.793 46.7022 121.588C46.9356 121.378 47.2062 121.205 47.5142 121.07C47.8222 120.935 48.1746 120.867 48.5712 120.867C49.2946 120.867 49.8289 121.077 50.1742 121.497C50.5242 121.917 50.6992 122.533 50.6992 123.345C50.6992 123.648 50.6992 123.924 50.6992 124.171C50.6992 124.414 50.6992 124.673 50.6992 124.948C50.6992 125.508 50.6992 126.031 50.6992 126.516C50.6992 126.997 50.6992 127.491 50.6992 128H49.2012C49.2012 127.491 49.2012 126.999 49.2012 126.523C49.2012 126.042 49.2012 125.543 49.2012 125.025V123.779C49.2012 123.275 49.1149 122.895 48.9422 122.638C48.7696 122.381 48.4522 122.253 47.9902 122.253C47.7196 122.253 47.4722 122.309 47.2482 122.421C47.0242 122.528 46.8212 122.675 46.6392 122.862C46.4572 123.044 46.2939 123.247 46.1492 123.471V125.025C46.1492 125.562 46.1492 126.066 46.1492 126.537C46.1492 127.004 46.1492 127.491 46.1492 128H44.6512ZM55.973 128.161C55.119 128.161 54.4166 128.002 53.866 127.685C53.3153 127.368 52.907 126.934 52.641 126.383C52.3796 125.832 52.249 125.2 52.249 124.486C52.249 123.781 52.375 123.156 52.627 122.61C52.8836 122.064 53.257 121.639 53.747 121.336C54.237 121.028 54.8296 120.874 55.525 120.874C56.127 120.874 56.645 120.988 57.079 121.217C57.513 121.441 57.8466 121.777 58.08 122.225C58.3133 122.673 58.43 123.228 58.43 123.891C58.43 124.068 58.4253 124.229 58.416 124.374C58.4113 124.514 58.3973 124.654 58.374 124.794L57.065 124.22C57.0743 124.15 57.0813 124.082 57.086 124.017C57.0906 123.947 57.093 123.882 57.093 123.821C57.093 123.247 56.9483 122.804 56.659 122.491C56.3743 122.174 56.001 122.015 55.539 122.015C55.1796 122.015 54.867 122.113 54.601 122.309C54.335 122.505 54.1273 122.773 53.978 123.114C53.8333 123.455 53.761 123.847 53.761 124.29V124.514C53.761 125.009 53.845 125.433 54.013 125.788C54.1856 126.143 54.447 126.416 54.797 126.607C55.1516 126.798 55.5973 126.894 56.134 126.894C56.3393 126.894 56.5633 126.878 56.806 126.845C57.0533 126.808 57.3006 126.752 57.548 126.677C57.7953 126.602 58.0286 126.507 58.248 126.39L58.304 127.692C58.1266 127.785 57.919 127.867 57.681 127.937C57.443 128.007 57.1793 128.061 56.89 128.098C56.6053 128.14 56.2996 128.161 55.973 128.161ZM52.851 124.794V123.772L57.478 123.716L58.374 124.087V124.794H52.851ZM60.0868 128C60.0868 127.491 60.0868 126.999 60.0868 126.523C60.0868 126.047 60.0868 125.522 60.0868 124.948V124.248C60.0868 123.73 60.0868 123.203 60.0868 122.666C60.0868 122.125 60.0868 121.583 60.0868 121.042L61.3678 120.958L61.4238 122.33H61.5638C61.7505 121.919 61.9628 121.609 62.2008 121.399C62.4388 121.189 62.6815 121.049 62.9288 120.979C63.1761 120.904 63.4071 120.867 63.6218 120.867C63.7431 120.867 63.8691 120.876 63.9998 120.895C64.1305 120.914 64.2541 120.944 64.3708 120.986L64.2378 122.47C64.0745 122.442 63.9275 122.421 63.7968 122.407C63.6661 122.393 63.5168 122.386 63.3488 122.386C63.2181 122.386 63.0735 122.405 62.9148 122.442C62.7561 122.475 62.5951 122.545 62.4318 122.652C62.2731 122.759 62.1191 122.92 61.9698 123.135C61.8251 123.345 61.6968 123.623 61.5848 123.968V125.025C61.5848 125.562 61.5848 126.066 61.5848 126.537C61.5848 127.004 61.5848 127.491 61.5848 128H60.0868ZM67.2622 128.147C66.8656 128.147 66.5109 128.068 66.1982 127.909C65.8856 127.746 65.6382 127.512 65.4562 127.209C65.2789 126.901 65.1902 126.528 65.1902 126.089C65.1902 125.702 65.2556 125.377 65.3862 125.116C65.5216 124.85 65.6989 124.633 65.9182 124.465C66.1376 124.297 66.3826 124.166 66.6532 124.073C66.9239 123.98 67.1969 123.912 67.4722 123.87L69.5372 123.548C69.5559 123.161 69.4976 122.864 69.3622 122.659C69.2316 122.454 69.0449 122.314 68.8022 122.239C68.5642 122.164 68.2936 122.127 67.9902 122.127C67.8316 122.127 67.6589 122.139 67.4722 122.162C67.2902 122.185 67.0966 122.225 66.8912 122.281C66.6906 122.332 66.4782 122.398 66.2542 122.477C66.0349 122.552 65.8086 122.643 65.5752 122.75L65.4912 121.42C65.6639 121.35 65.8576 121.282 66.0722 121.217C66.2869 121.152 66.5179 121.093 66.7652 121.042C67.0172 120.986 67.2762 120.944 67.5422 120.916C67.8082 120.888 68.0789 120.874 68.3542 120.874C68.9049 120.874 69.3762 120.956 69.7682 121.119C70.1602 121.282 70.4612 121.544 70.6712 121.903C70.8812 122.258 70.9862 122.72 70.9862 123.289C70.9862 123.513 70.9862 123.791 70.9862 124.122C70.9862 124.453 70.9862 124.761 70.9862 125.046V125.886C70.9862 126.217 70.9862 126.553 70.9862 126.894C70.9862 127.235 70.9862 127.603 70.9862 128H69.6352L69.5512 127.076H69.4182C69.2829 127.249 69.1126 127.417 68.9072 127.58C68.7066 127.743 68.4662 127.879 68.1862 127.986C67.9109 128.093 67.6029 128.147 67.2622 128.147ZM67.7522 126.957C67.9762 126.957 68.1956 126.908 68.4102 126.81C68.6296 126.707 68.8326 126.563 69.0192 126.376C69.2059 126.189 69.3669 125.963 69.5022 125.697V124.465C69.4322 124.507 69.3412 124.547 69.2292 124.584C69.1219 124.621 68.9586 124.663 68.7392 124.71C68.5199 124.757 68.2119 124.815 67.8152 124.885C67.5866 124.922 67.3906 124.99 67.2272 125.088C67.0639 125.186 66.9356 125.314 66.8422 125.473C66.7536 125.627 66.7092 125.811 66.7092 126.026C66.7092 126.367 66.8119 126.607 67.0172 126.747C67.2272 126.887 67.4722 126.957 67.7522 126.957ZM75.4434 128.168C74.79 128.168 74.2464 127.998 73.8124 127.657C73.383 127.316 73.061 126.868 72.8464 126.313C72.6364 125.753 72.5314 125.149 72.5314 124.5C72.5314 123.814 72.6434 123.196 72.8674 122.645C73.096 122.094 73.4297 121.66 73.8684 121.343C74.307 121.026 74.839 120.867 75.4644 120.867C75.7677 120.867 76.0477 120.907 76.3044 120.986C76.561 121.065 76.7874 121.175 76.9834 121.315C77.1794 121.455 77.3427 121.614 77.4734 121.791H77.6134V121.091C77.6134 120.508 77.6134 119.941 77.6134 119.39C77.6134 118.835 77.6134 118.289 77.6134 117.752L79.1114 117.591C79.1114 118.151 79.1114 118.718 79.1114 119.292C79.1114 119.861 79.1114 120.461 79.1114 121.091V124.948C79.1114 125.522 79.1114 126.047 79.1114 126.523C79.1114 126.999 79.1114 127.491 79.1114 128H77.8234L77.7394 127.062H77.6134C77.436 127.3 77.2377 127.501 77.0184 127.664C76.8037 127.827 76.5657 127.951 76.3044 128.035C76.043 128.124 75.756 128.168 75.4434 128.168ZM75.9544 126.859C76.2064 126.859 76.435 126.819 76.6404 126.74C76.8457 126.656 77.0277 126.539 77.1864 126.39C77.3497 126.241 77.492 126.063 77.6134 125.858V123.03C77.4874 122.843 77.338 122.689 77.1654 122.568C76.9927 122.442 76.8037 122.349 76.5984 122.288C76.393 122.223 76.183 122.19 75.9684 122.19C75.539 122.19 75.1844 122.295 74.9044 122.505C74.6244 122.715 74.4144 122.997 74.2744 123.352C74.1344 123.702 74.0644 124.089 74.0644 124.514C74.0644 124.92 74.1297 125.303 74.2604 125.662C74.3957 126.017 74.601 126.306 74.8764 126.53C75.1564 126.749 75.5157 126.859 75.9544 126.859ZM84.2365 128.168C83.6391 128.168 83.1165 128.068 82.6685 127.867C82.2205 127.666 81.8448 127.396 81.5415 127.055C81.2428 126.71 81.0188 126.318 80.8695 125.879C80.7201 125.436 80.6455 124.971 80.6455 124.486C80.6455 123.791 80.7855 123.172 81.0655 122.631C81.3455 122.085 81.7515 121.656 82.2835 121.343C82.8155 121.026 83.4571 120.867 84.2085 120.867C84.7825 120.867 85.2911 120.958 85.7345 121.14C86.1778 121.322 86.5488 121.579 86.8475 121.91C87.1508 122.237 87.3795 122.619 87.5335 123.058C87.6875 123.497 87.7645 123.973 87.7645 124.486C87.7645 125.181 87.6245 125.807 87.3445 126.362C87.0645 126.917 86.6585 127.358 86.1265 127.685C85.5991 128.007 84.9691 128.168 84.2365 128.168ZM84.2295 126.908C84.6775 126.908 85.0508 126.794 85.3495 126.565C85.6481 126.332 85.8698 126.031 86.0145 125.662C86.1638 125.293 86.2385 124.901 86.2385 124.486C86.2385 124.005 86.1545 123.59 85.9865 123.24C85.8231 122.885 85.5898 122.612 85.2865 122.421C84.9878 122.225 84.6331 122.127 84.2225 122.127C83.7791 122.127 83.4035 122.232 83.0955 122.442C82.7921 122.647 82.5611 122.93 82.4025 123.289C82.2485 123.644 82.1715 124.043 82.1715 124.486C82.1715 124.901 82.2461 125.293 82.3955 125.662C82.5495 126.031 82.7781 126.332 83.0815 126.565C83.3895 126.794 83.7721 126.908 84.2295 126.908ZM89.4676 128C89.4676 127.491 89.4676 126.999 89.4676 126.523C89.4676 126.047 89.4676 125.522 89.4676 124.948V124.248C89.4676 123.73 89.4676 123.203 89.4676 122.666C89.4676 122.125 89.4676 121.583 89.4676 121.042L90.7486 120.958L90.8046 122.33H90.9446C91.1313 121.919 91.3436 121.609 91.5816 121.399C91.8196 121.189 92.0623 121.049 92.3096 120.979C92.557 120.904 92.788 120.867 93.0026 120.867C93.124 120.867 93.25 120.876 93.3806 120.895C93.5113 120.914 93.635 120.944 93.7516 120.986L93.6186 122.47C93.4553 122.442 93.3083 122.421 93.1776 122.407C93.047 122.393 92.8976 122.386 92.7296 122.386C92.599 122.386 92.4543 122.405 92.2956 122.442C92.137 122.475 91.976 122.545 91.8126 122.652C91.654 122.759 91.5 122.92 91.3506 123.135C91.206 123.345 91.0776 123.623 90.9656 123.968V125.025C90.9656 125.562 90.9656 126.066 90.9656 126.537C90.9656 127.004 90.9656 127.491 90.9656 128H89.4676ZM37.0391 146.168C36.3857 146.168 35.8421 145.998 35.4081 145.657C34.9787 145.316 34.6567 144.868 34.4421 144.313C34.2321 143.753 34.1271 143.149 34.1271 142.5C34.1271 141.814 34.2391 141.196 34.4631 140.645C34.6917 140.094 35.0254 139.66 35.4641 139.343C35.9027 139.026 36.4347 138.867 37.0601 138.867C37.3634 138.867 37.6434 138.907 37.9001 138.986C38.1567 139.065 38.3831 139.175 38.5791 139.315C38.7751 139.455 38.9384 139.614 39.0691 139.791H39.2091V139.091C39.2091 138.508 39.2091 137.941 39.2091 137.39C39.2091 136.835 39.2091 136.289 39.2091 135.752L40.7071 135.591C40.7071 136.151 40.7071 136.718 40.7071 137.292C40.7071 137.861 40.7071 138.461 40.7071 139.091V142.948C40.7071 143.522 40.7071 144.047 40.7071 144.523C40.7071 144.999 40.7071 145.491 40.7071 146H39.4191L39.3351 145.062H39.2091C39.0317 145.3 38.8334 145.501 38.6141 145.664C38.3994 145.827 38.1614 145.951 37.9001 146.035C37.6387 146.124 37.3517 146.168 37.0391 146.168ZM37.5501 144.859C37.8021 144.859 38.0307 144.819 38.2361 144.74C38.4414 144.656 38.6234 144.539 38.7821 144.39C38.9454 144.241 39.0877 144.063 39.2091 143.858V141.03C39.0831 140.843 38.9337 140.689 38.7611 140.568C38.5884 140.442 38.3994 140.349 38.1941 140.288C37.9887 140.223 37.7787 140.19 37.5641 140.19C37.1347 140.19 36.7801 140.295 36.5001 140.505C36.2201 140.715 36.0101 140.997 35.8701 141.352C35.7301 141.702 35.6601 142.089 35.6601 142.514C35.6601 142.92 35.7254 143.303 35.8561 143.662C35.9914 144.017 36.1967 144.306 36.4721 144.53C36.7521 144.749 37.1114 144.859 37.5501 144.859ZM45.9652 146.161C45.1112 146.161 44.4088 146.002 43.8582 145.685C43.3075 145.368 42.8992 144.934 42.6332 144.383C42.3718 143.832 42.2412 143.2 42.2412 142.486C42.2412 141.781 42.3672 141.156 42.6192 140.61C42.8758 140.064 43.2492 139.639 43.7392 139.336C44.2292 139.028 44.8218 138.874 45.5172 138.874C46.1192 138.874 46.6372 138.988 47.0712 139.217C47.5052 139.441 47.8388 139.777 48.0722 140.225C48.3055 140.673 48.4222 141.228 48.4222 141.891C48.4222 142.068 48.4175 142.229 48.4082 142.374C48.4035 142.514 48.3895 142.654 48.3662 142.794L47.0572 142.22C47.0665 142.15 47.0735 142.082 47.0782 142.017C47.0828 141.947 47.0852 141.882 47.0852 141.821C47.0852 141.247 46.9405 140.804 46.6512 140.491C46.3665 140.174 45.9932 140.015 45.5312 140.015C45.1718 140.015 44.8592 140.113 44.5932 140.309C44.3272 140.505 44.1195 140.773 43.9702 141.114C43.8255 141.455 43.7532 141.847 43.7532 142.29V142.514C43.7532 143.009 43.8372 143.433 44.0052 143.788C44.1778 144.143 44.4392 144.416 44.7892 144.607C45.1438 144.798 45.5895 144.894 46.1262 144.894C46.3315 144.894 46.5555 144.878 46.7982 144.845C47.0455 144.808 47.2928 144.752 47.5402 144.677C47.7875 144.602 48.0208 144.507 48.2402 144.39L48.2962 145.692C48.1188 145.785 47.9112 145.867 47.6732 145.937C47.4352 146.007 47.1715 146.061 46.8822 146.098C46.5975 146.14 46.2918 146.161 45.9652 146.161ZM42.8432 142.794V141.772L47.4702 141.716L48.3662 142.087V142.794H42.8432ZM55.8947 146.14C55.1293 146.14 54.4783 145.984 53.9417 145.671C53.4097 145.354 53.0037 144.922 52.7237 144.376C52.4437 143.83 52.3037 143.212 52.3037 142.521C52.3037 141.826 52.4343 141.203 52.6957 140.652C52.9617 140.101 53.3513 139.667 53.8647 139.35C54.3827 139.033 55.0173 138.874 55.7687 138.874C56.0393 138.874 56.3077 138.897 56.5737 138.944C56.8443 138.986 57.0987 139.047 57.3367 139.126C57.5747 139.201 57.7847 139.289 57.9667 139.392L57.8407 140.722C57.5793 140.573 57.3343 140.458 57.1057 140.379C56.8817 140.3 56.674 140.246 56.4827 140.218C56.2913 140.185 56.1163 140.169 55.9577 140.169C55.3137 140.169 54.798 140.379 54.4107 140.799C54.0233 141.214 53.8297 141.777 53.8297 142.486C53.8297 142.943 53.9183 143.352 54.0957 143.711C54.273 144.07 54.5367 144.355 54.8867 144.565C55.2413 144.775 55.68 144.88 56.2027 144.88C56.394 144.88 56.5853 144.864 56.7767 144.831C56.968 144.794 57.1547 144.74 57.3367 144.67C57.5233 144.595 57.703 144.502 57.8757 144.39L57.9807 145.727C57.822 145.802 57.64 145.872 57.4347 145.937C57.2293 145.998 56.9983 146.047 56.7417 146.084C56.485 146.121 56.2027 146.14 55.8947 146.14ZM61.2876 146.147C60.891 146.147 60.5363 146.068 60.2236 145.909C59.911 145.746 59.6636 145.512 59.4816 145.209C59.3043 144.901 59.2156 144.528 59.2156 144.089C59.2156 143.702 59.281 143.377 59.4116 143.116C59.547 142.85 59.7243 142.633 59.9436 142.465C60.163 142.297 60.408 142.166 60.6786 142.073C60.9493 141.98 61.2223 141.912 61.4976 141.87L63.5626 141.548C63.5813 141.161 63.523 140.864 63.3876 140.659C63.257 140.454 63.0703 140.314 62.8276 140.239C62.5896 140.164 62.319 140.127 62.0156 140.127C61.857 140.127 61.6843 140.139 61.4976 140.162C61.3156 140.185 61.122 140.225 60.9166 140.281C60.716 140.332 60.5036 140.398 60.2796 140.477C60.0603 140.552 59.834 140.643 59.6006 140.75L59.5166 139.42C59.6893 139.35 59.883 139.282 60.0976 139.217C60.3123 139.152 60.5433 139.093 60.7906 139.042C61.0426 138.986 61.3016 138.944 61.5676 138.916C61.8336 138.888 62.1043 138.874 62.3796 138.874C62.9303 138.874 63.4016 138.956 63.7936 139.119C64.1856 139.282 64.4866 139.544 64.6966 139.903C64.9066 140.258 65.0116 140.72 65.0116 141.289C65.0116 141.513 65.0116 141.791 65.0116 142.122C65.0116 142.453 65.0116 142.761 65.0116 143.046V143.886C65.0116 144.217 65.0116 144.553 65.0116 144.894C65.0116 145.235 65.0116 145.603 65.0116 146H63.6606L63.5766 145.076H63.4436C63.3083 145.249 63.138 145.417 62.9326 145.58C62.732 145.743 62.4916 145.879 62.2116 145.986C61.9363 146.093 61.6283 146.147 61.2876 146.147ZM61.7776 144.957C62.0016 144.957 62.221 144.908 62.4356 144.81C62.655 144.707 62.858 144.563 63.0446 144.376C63.2313 144.189 63.3923 143.963 63.5276 143.697V142.465C63.4576 142.507 63.3666 142.547 63.2546 142.584C63.1473 142.621 62.984 142.663 62.7646 142.71C62.5453 142.757 62.2373 142.815 61.8406 142.885C61.612 142.922 61.416 142.99 61.2526 143.088C61.0893 143.186 60.961 143.314 60.8676 143.473C60.779 143.627 60.7346 143.811 60.7346 144.026C60.7346 144.367 60.8373 144.607 61.0426 144.747C61.2526 144.887 61.4976 144.957 61.7776 144.957ZM67.0048 146C67.0048 145.491 67.0048 144.999 67.0048 144.523C67.0048 144.047 67.0048 143.522 67.0048 142.948V142.248C67.0048 141.73 67.0048 141.203 67.0048 140.666C67.0048 140.125 67.0048 139.583 67.0048 139.042L68.2858 138.958L68.3418 140.33H68.4818C68.6684 139.919 68.8808 139.609 69.1188 139.399C69.3568 139.189 69.5994 139.049 69.8468 138.979C70.0941 138.904 70.3251 138.867 70.5398 138.867C70.6611 138.867 70.7871 138.876 70.9178 138.895C71.0484 138.914 71.1721 138.944 71.2888 138.986L71.1558 140.47C70.9924 140.442 70.8454 140.421 70.7148 140.407C70.5841 140.393 70.4348 140.386 70.2668 140.386C70.1361 140.386 69.9914 140.405 69.8328 140.442C69.6741 140.475 69.5131 140.545 69.3498 140.652C69.1911 140.759 69.0371 140.92 68.8878 141.135C68.7431 141.345 68.6148 141.623 68.5028 141.968V143.025C68.5028 143.562 68.5028 144.066 68.5028 144.537C68.5028 145.004 68.5028 145.491 68.5028 146H67.0048ZM74.9819 148.849C74.4639 148.849 74.0299 148.802 73.6799 148.709C73.3299 148.62 73.0499 148.497 72.8399 148.338C72.6346 148.184 72.4876 148.009 72.3989 147.813C72.3149 147.622 72.2729 147.426 72.2729 147.225C72.2729 146.912 72.3476 146.651 72.4969 146.441C72.6462 146.236 72.8212 146.075 73.0219 145.958C73.2226 145.841 73.3952 145.76 73.5399 145.713V145.594C73.4652 145.571 73.3719 145.522 73.2599 145.447C73.1526 145.368 73.0546 145.258 72.9659 145.118C72.8772 144.973 72.8329 144.794 72.8329 144.579C72.8329 144.42 72.8609 144.271 72.9169 144.131C72.9776 143.991 73.0686 143.865 73.1899 143.753C73.3159 143.636 73.4769 143.536 73.6729 143.452V143.333C73.5562 143.286 73.4139 143.209 73.2459 143.102C73.0779 142.995 72.9122 142.855 72.7489 142.682C72.5902 142.509 72.4549 142.297 72.3429 142.045C72.2356 141.793 72.1819 141.497 72.1819 141.156C72.1819 140.713 72.2916 140.318 72.5109 139.973C72.7302 139.628 73.0499 139.359 73.4699 139.168C73.8899 138.972 74.3986 138.874 74.9959 138.874C75.2292 138.874 75.4346 138.886 75.6119 138.909C75.7892 138.932 75.9736 138.958 76.1649 138.986C76.3562 139.009 76.5919 139.021 76.8719 139.021H78.9369V140.099C78.4889 140.099 78.0526 140.099 77.6279 140.099C77.2079 140.099 76.7786 140.099 76.3399 140.099L76.7529 139.413C77.1216 139.609 77.3899 139.863 77.5579 140.176C77.7259 140.489 77.8099 140.846 77.8099 141.247C77.8099 141.714 77.7119 142.108 77.5159 142.43C77.3246 142.747 77.0586 143.004 76.7179 143.2C76.3772 143.396 75.9852 143.543 75.5419 143.641C75.0892 143.748 74.7532 143.844 74.5339 143.928C74.3192 144.007 74.2119 144.126 74.2119 144.285C74.2119 144.397 74.2586 144.483 74.3519 144.544C74.4452 144.605 74.5899 144.649 74.7859 144.677C74.9819 144.705 75.2386 144.719 75.5559 144.719H75.8499C76.4752 144.719 76.9956 144.77 77.4109 144.873C77.8262 144.971 78.1366 145.141 78.3419 145.384C78.5519 145.627 78.6569 145.958 78.6569 146.378C78.6569 146.807 78.5472 147.178 78.3279 147.491C78.1132 147.804 77.8239 148.06 77.4599 148.261C77.0959 148.462 76.6992 148.609 76.2699 148.702C75.8406 148.8 75.4112 148.849 74.9819 148.849ZM75.1359 147.68C75.6072 147.68 75.9992 147.617 76.3119 147.491C76.6246 147.37 76.8579 147.225 77.0119 147.057C77.1659 146.894 77.2429 146.749 77.2429 146.623C77.2429 146.474 77.1962 146.348 77.1029 146.245C77.0096 146.142 76.8346 146.063 76.5779 146.007C76.3212 145.956 75.9502 145.93 75.4649 145.93H75.2199C74.9726 145.939 74.7276 145.984 74.4849 146.063C74.2422 146.147 74.0392 146.257 73.8759 146.392C73.7172 146.532 73.6379 146.691 73.6379 146.868C73.6379 146.971 73.6636 147.071 73.7149 147.169C73.7709 147.267 73.8572 147.353 73.9739 147.428C74.0952 147.507 74.2516 147.568 74.4429 147.61C74.6342 147.657 74.8652 147.68 75.1359 147.68ZM74.9329 142.598C75.0776 142.575 75.2362 142.54 75.4089 142.493C75.5816 142.442 75.7449 142.369 75.8989 142.276C76.0529 142.183 76.1789 142.061 76.2769 141.912C76.3749 141.763 76.4239 141.578 76.4239 141.359C76.4239 141.065 76.3492 140.827 76.1999 140.645C76.0506 140.458 75.8639 140.321 75.6399 140.232C75.4206 140.143 75.1989 140.099 74.9749 140.099C74.7369 140.099 74.5106 140.143 74.2959 140.232C74.0859 140.321 73.9109 140.454 73.7709 140.631C73.6356 140.808 73.5679 141.025 73.5679 141.282C73.5679 141.534 73.6332 141.751 73.7639 141.933C73.8946 142.115 74.0626 142.262 74.2679 142.374C74.4779 142.486 74.6996 142.561 74.9329 142.598ZM81.8638 146.147C81.4671 146.147 81.1125 146.068 80.7998 145.909C80.4871 145.746 80.2398 145.512 80.0578 145.209C79.8805 144.901 79.7918 144.528 79.7918 144.089C79.7918 143.702 79.8571 143.377 79.9878 143.116C80.1231 142.85 80.3005 142.633 80.5198 142.465C80.7391 142.297 80.9841 142.166 81.2548 142.073C81.5255 141.98 81.7985 141.912 82.0738 141.87L84.1388 141.548C84.1575 141.161 84.0991 140.864 83.9638 140.659C83.8331 140.454 83.6465 140.314 83.4038 140.239C83.1658 140.164 82.8951 140.127 82.5918 140.127C82.4331 140.127 82.2605 140.139 82.0738 140.162C81.8918 140.185 81.6981 140.225 81.4928 140.281C81.2921 140.332 81.0798 140.398 80.8558 140.477C80.6365 140.552 80.4101 140.643 80.1768 140.75L80.0928 139.42C80.2655 139.35 80.4591 139.282 80.6738 139.217C80.8885 139.152 81.1195 139.093 81.3668 139.042C81.6188 138.986 81.8778 138.944 82.1438 138.916C82.4098 138.888 82.6805 138.874 82.9558 138.874C83.5065 138.874 83.9778 138.956 84.3698 139.119C84.7618 139.282 85.0628 139.544 85.2728 139.903C85.4828 140.258 85.5878 140.72 85.5878 141.289C85.5878 141.513 85.5878 141.791 85.5878 142.122C85.5878 142.453 85.5878 142.761 85.5878 143.046V143.886C85.5878 144.217 85.5878 144.553 85.5878 144.894C85.5878 145.235 85.5878 145.603 85.5878 146H84.2368L84.1528 145.076H84.0198C83.8845 145.249 83.7141 145.417 83.5088 145.58C83.3081 145.743 83.0678 145.879 82.7878 145.986C82.5125 146.093 82.2045 146.147 81.8638 146.147ZM82.3538 144.957C82.5778 144.957 82.7971 144.908 83.0118 144.81C83.2311 144.707 83.4341 144.563 83.6208 144.376C83.8075 144.189 83.9685 143.963 84.1038 143.697V142.465C84.0338 142.507 83.9428 142.547 83.8308 142.584C83.7235 142.621 83.5601 142.663 83.3408 142.71C83.1215 142.757 82.8135 142.815 82.4168 142.885C82.1881 142.922 81.9921 142.99 81.8288 143.088C81.6655 143.186 81.5371 143.314 81.4438 143.473C81.3551 143.627 81.3108 143.811 81.3108 144.026C81.3108 144.367 81.4135 144.607 81.6188 144.747C81.8288 144.887 82.0738 144.957 82.3538 144.957Z" fill="#3C3C3B"/>
</svg>
