<svg width="52" height="48" viewBox="0 0 52 48" fill="none" xmlns="http://www.w3.org/2000/svg">
<circle opacity="0.4" cx="35.4666" cy="25.9434" r="16" fill="#CDE298"/>
<path d="M32.7451 21.8101L28.4399 15.6301C27.9799 14.9709 27.3674 14.4329 26.6543 14.062C25.9412 13.691 25.1488 13.4982 24.345 13.5H20.5056C19.4917 13.5044 18.5024 13.8146 17.6675 14.3899C16.8326 14.9653 16.1906 15.7791 15.8254 16.725L13.7556 22.1851C13.2147 22.5524 12.7717 23.0466 12.4658 23.6245C12.1599 24.2023 11.9997 24.8462 12 25.5V27C12.0052 27.5759 12.2078 28.1326 12.5735 28.5775C12.9392 29.0223 13.4465 29.3285 14.0105 29.445V30C14.0105 30.9269 14.3783 31.8159 15.0337 32.4714C15.6891 33.1268 16.5787 33.4951 17.5056 33.4951C18.4325 33.4951 19.3214 33.1268 19.9768 32.4714C20.6322 31.8159 21 30.9269 21 30V29.4901H27V30C27.004 30.9283 27.3756 31.8173 28.0334 32.4723C28.6913 33.1273 29.5822 33.4951 30.5105 33.4951C31.4374 33.4951 32.3263 33.1268 32.9817 32.4714C33.6371 31.8159 34.0056 30.9269 34.0056 30V29.445C34.5694 29.3307 35.076 29.0246 35.4397 28.5789C35.8034 28.1332 36.0011 27.5753 36 27V26.4901C36.0017 25.4706 35.6907 24.4751 35.1086 23.6382C34.5265 22.8013 33.7015 22.1632 32.7451 21.8101ZM26.7451 16.7851L30.03 21.4951H22.9504V15.4951H24.2849C24.7841 15.4927 25.276 15.6148 25.7161 15.8505C26.1561 16.0863 26.5306 16.4281 26.8052 16.845L26.7451 16.7851ZM17.6404 17.43C17.8564 16.861 18.2402 16.3712 18.7412 16.0256C19.2422 15.68 19.8369 15.495 20.4456 15.4951H20.9399V21.4951H16.095L17.6404 17.43ZM18.9456 30C18.9456 30.3978 18.7874 30.7794 18.5061 31.0607C18.2248 31.342 17.8434 31.5 17.4456 31.5C17.0477 31.5 16.6656 31.342 16.3843 31.0607C16.103 30.7794 15.9456 30.3978 15.9456 30V29.4901H18.9456V30ZM30.4504 31.5C30.0526 31.5 29.6712 31.342 29.3899 31.0607C29.1086 30.7794 28.9504 30.3978 28.9504 30V29.4901H31.9504V30C31.9585 30.197 31.9277 30.3937 31.8596 30.5788C31.7916 30.7639 31.6872 30.9338 31.5535 31.0787C31.4197 31.2236 31.2586 31.3407 31.0796 31.4233C30.9005 31.5059 30.7075 31.5523 30.5105 31.5601L30.4504 31.5ZM33.9456 27C33.9456 27.1313 33.8934 27.2573 33.8005 27.3501C33.7077 27.4429 33.5817 27.4951 33.4504 27.4951H14.4456C14.3143 27.4951 14.1883 27.4429 14.0955 27.3501C14.0026 27.2573 13.9504 27.1313 13.9504 27V25.5C13.9485 25.2368 13.9983 24.9758 14.0977 24.7321C14.197 24.4883 14.3436 24.2665 14.5291 24.0797C14.7145 23.8928 14.935 23.7445 15.178 23.6433C15.421 23.5421 15.6823 23.4901 15.9456 23.4901H30.9456C31.7412 23.4901 32.504 23.8062 33.0667 24.3688C33.6293 24.9314 33.9456 25.6944 33.9456 26.4901V27Z" fill="#3C635D"/>
</svg>
