<svg width="33" height="32" viewBox="0 0 33 32" fill="none" xmlns="http://www.w3.org/2000/svg">
<ellipse opacity="0.4" cx="23" cy="16.5" rx="10" ry="9.5" fill="#CDE298"/>
<path d="M16.9902 10.71C17.5207 10.71 18.0292 10.9208 18.4043 11.2959C18.7794 11.671 18.9902 12.1795 18.9902 12.71C18.9902 12.8877 19.0609 13.0579 19.1865 13.1836C19.3122 13.3092 19.4825 13.3799 19.6602 13.3799C19.8379 13.3799 20.0082 13.3092 20.1338 13.1836C20.2595 13.0579 20.3301 12.8877 20.3301 12.71V12.6299C20.3066 11.7491 19.94 10.9124 19.3086 10.2979C18.6773 9.68331 17.8313 9.33953 16.9502 9.33984H16.3301V8.66992C16.3301 8.49223 16.2595 8.32194 16.1338 8.19629C16.0082 8.07064 15.8379 8 15.6602 8C15.4825 8 15.3122 8.07064 15.1865 8.19629C15.0609 8.32194 14.9902 8.49223 14.9902 8.66992V9.33984H14.3701C13.9267 9.33984 13.4877 9.42767 13.0781 9.59766C12.6686 9.76764 12.2965 10.0171 11.9834 10.3311C11.6703 10.645 11.4227 11.0177 11.2539 11.4277C11.0852 11.8378 10.9987 12.2773 11 12.7207C11.0013 13.4288 11.2252 14.1182 11.6397 14.6924C12.0541 15.2666 12.6379 15.6957 13.3096 15.9199L14.9902 16.4805V21.3398H14.3701C13.8352 21.3268 13.3259 21.1057 12.9522 20.7227C12.5785 20.3396 12.37 19.8252 12.3701 19.29C12.3701 19.1123 12.2995 18.9421 12.1738 18.8164C12.0482 18.6908 11.8779 18.6201 11.7002 18.6201C11.5225 18.6201 11.3522 18.6908 11.2266 18.8164C11.1009 18.9421 11.0303 19.1123 11.0303 19.29V19.3701C11.0537 20.2518 11.4197 21.0899 12.0508 21.7061C12.6819 22.3222 13.5282 22.6676 14.4102 22.6699H15.0303V23.3398C15.0329 23.5158 15.1041 23.6841 15.2295 23.8076C15.3549 23.9311 15.5242 24 15.7002 24C15.8762 24 16.0446 23.9311 16.1699 23.8076C16.2953 23.6841 16.3675 23.5158 16.3701 23.3398V22.6699H16.9902C17.4336 22.6699 17.8727 22.5831 18.2822 22.4131C18.6918 22.2431 19.0629 21.9937 19.376 21.6797C19.6891 21.3657 19.9377 20.993 20.1065 20.583C20.2752 20.173 20.3617 19.7334 20.3604 19.29C20.3613 18.5828 20.1394 17.8937 19.7266 17.3193C19.3138 16.745 18.7303 16.3144 18.0596 16.0898L16.3701 15.5205V10.6699L16.9902 10.71ZM17.6397 17.3906C17.8981 17.4706 18.1377 17.6022 18.3438 17.7773C18.5499 17.9525 18.7183 18.1671 18.8389 18.4092C18.9595 18.6513 19.0303 18.9155 19.0459 19.1855C19.0615 19.4556 19.0216 19.7261 18.9297 19.9805C18.7936 20.3875 18.5336 20.741 18.1856 20.9922C17.8375 21.2434 17.4195 21.379 16.9902 21.3799H16.3701V16.9707L17.6397 17.3906ZM15.0303 15.1201L13.7695 14.7002C13.2554 14.5267 12.8313 14.1578 12.5879 13.6729C12.3445 13.1879 12.3017 12.6263 12.4697 12.1104C12.599 11.6991 12.8575 11.3402 13.207 11.0879C13.5566 10.8356 13.9791 10.7031 14.4102 10.71H15.0303V15.1201Z" fill="#3C635D"/>
</svg>
