<svg width="52" height="48" viewBox="0 0 52 48" fill="none" xmlns="http://www.w3.org/2000/svg">
<circle opacity="0.4" cx="36" cy="24" r="16" fill="#CDE298"/>
<path d="M25.4854 16.0649C26.281 16.0649 27.0439 16.3812 27.6065 16.9438C28.1691 17.5065 28.4854 18.2693 28.4854 19.0649C28.4854 19.3315 28.5913 19.5869 28.7798 19.7754C28.9683 19.9639 29.2237 20.0698 29.4903 20.0698C29.7568 20.0698 30.0122 19.9639 30.2007 19.7754C30.3892 19.5869 30.4951 19.3315 30.4951 19.0649V18.9448C30.46 17.6237 29.9099 16.3686 28.9629 15.4468C28.0159 14.525 26.7469 14.0093 25.4253 14.0098H24.4951V13.0049C24.4951 12.7383 24.3892 12.4829 24.2007 12.2944C24.0122 12.106 23.7568 12 23.4903 12C23.2237 12 22.9683 12.106 22.7798 12.2944C22.5913 12.4829 22.4854 12.7383 22.4854 13.0049V14.0098H21.5552C20.8901 14.0098 20.2315 14.1415 19.6172 14.3965C19.0029 14.6515 18.4447 15.0256 17.9751 15.4966C17.5055 15.9676 17.134 16.5266 16.8809 17.1416C16.6277 17.7566 16.498 18.416 16.5 19.0811C16.502 20.1433 16.8378 21.1773 17.4595 22.0386C18.0812 22.8998 18.9568 23.5436 19.9644 23.8799L22.4854 24.7207V32.0098H21.5552C20.7527 31.9902 19.9888 31.6586 19.4282 31.084C18.8677 30.5094 18.555 29.7378 18.5552 28.9351C18.5552 28.6685 18.4492 28.4131 18.2608 28.2246C18.0723 28.0361 17.8169 27.9302 17.5503 27.9302C17.2838 27.9302 17.0283 28.0361 16.8399 28.2246C16.6514 28.4131 16.5454 28.6685 16.5454 28.9351V29.0552C16.5806 30.3777 17.1296 31.6349 18.0762 32.5591C19.0228 33.4833 20.2923 34.0014 21.6153 34.0049H22.5454V35.0098C22.5494 35.2737 22.6562 35.5262 22.8443 35.7114C23.0323 35.8967 23.2864 36 23.5503 36C23.8143 36 24.0669 35.8967 24.2549 35.7114C24.443 35.5262 24.5513 35.2737 24.5552 35.0098V34.0049H25.4854C26.1505 34.0049 26.8091 33.8746 27.4234 33.6196C28.0376 33.3647 28.5944 32.9905 29.064 32.5195C29.5336 32.0485 29.9065 31.4895 30.1597 30.8745C30.4128 30.2595 30.5425 29.6002 30.5406 28.9351C30.5419 27.8741 30.2091 26.8405 29.5899 25.979C28.9707 25.1175 28.0954 24.4716 27.0894 24.1348L24.5552 23.2808V16.0049L25.4854 16.0649ZM26.4595 26.0859C26.8471 26.2058 27.2065 26.4033 27.5156 26.666C27.8248 26.9287 28.0774 27.2506 28.2583 27.6138C28.4392 27.9769 28.5454 28.3733 28.5689 28.7783C28.5923 29.1834 28.5324 29.5891 28.3946 29.9707C28.1904 30.5813 27.8004 31.1115 27.2783 31.4883C26.7563 31.865 26.1292 32.0685 25.4854 32.0698H24.5552V25.4561L26.4595 26.0859ZM22.5454 22.6802L20.6543 22.0503C19.8831 21.7901 19.247 21.2367 18.8819 20.5093C18.5167 19.7819 18.4525 18.9394 18.7046 18.1655C18.8985 17.5486 19.2862 17.0103 19.8106 16.6318C20.335 16.2534 20.9687 16.0546 21.6153 16.0649H22.5454V22.6802Z" fill="#3C635D"/>
</svg>
