<svg width="174" height="174" viewBox="0 0 174 174" fill="none" xmlns="http://www.w3.org/2000/svg">
<rect width="174" height="174" rx="20" fill="#FCFCED"/>
<g clip-path="url(#clip0_496_10532)">
<path d="M58.9949 80.8038C44.7507 67.3041 40.6737 39.0652 55.6937 24.0451C70.0261 9.71276 89.7319 11.8913 110.492 28.3492C135.666 48.3026 147.382 85.6782 119.373 81.574C80.7209 75.8982 78.9163 99.6847 58.9949 80.8038Z" fill="white"/>
<path d="M88.5722 126.002C117.252 126.002 140.502 124.703 140.502 123.101C140.502 121.499 117.252 120.2 88.5722 120.2C59.8921 120.2 36.6423 121.499 36.6423 123.101C36.6423 124.703 59.8921 126.002 88.5722 126.002Z" fill="#DBDACA"/>
<path d="M103.367 63.6352C103.248 63.6352 103.134 63.5873 103.05 63.502C102.966 63.4167 102.919 63.3011 102.919 63.1805C102.86 62.1256 102.69 60.4523 102.47 60.0749C102.134 59.4247 100.855 59.7475 100.842 59.752C100.785 59.7679 100.725 59.7723 100.667 59.7648C100.608 59.7574 100.552 59.7384 100.501 59.7088C100.449 59.6793 100.404 59.6398 100.368 59.5926C100.332 59.5454 100.305 59.4914 100.29 59.4338C100.274 59.3761 100.27 59.3159 100.277 59.2566C100.284 59.1973 100.303 59.1401 100.332 59.0881C100.362 59.0362 100.401 58.9906 100.447 58.9539C100.494 58.9173 100.547 58.8902 100.604 58.8745C100.685 58.8745 102.582 58.3379 103.264 59.6475C103.636 60.3613 103.775 62.6758 103.802 63.1305C103.806 63.1924 103.797 63.2545 103.776 63.3129C103.755 63.3712 103.723 63.4246 103.681 63.4698C103.639 63.5149 103.588 63.5509 103.532 63.5754C103.476 63.5999 103.415 63.6126 103.354 63.6125L103.367 63.6352Z" fill="#776945"/>
<path d="M100.819 61.2842C100.705 61.2844 100.594 61.2403 100.511 61.1608C100.428 61.0813 100.377 60.9726 100.37 60.8568L100.169 57.7966C100.161 57.6767 100.201 57.5588 100.279 57.4684C100.357 57.3781 100.468 57.3228 100.586 57.3147C100.645 57.3103 100.704 57.3179 100.76 57.3368C100.816 57.3557 100.868 57.3857 100.913 57.425C100.957 57.4643 100.994 57.5121 101.02 57.5658C101.046 57.6194 101.062 57.6778 101.066 57.7375L101.263 60.7977C101.271 60.9176 101.231 61.0356 101.153 61.1259C101.074 61.2162 100.964 61.2715 100.846 61.2797L100.819 61.2842Z" fill="#776945"/>
<path d="M121.01 111.033C126.8 111.033 131.494 106.275 131.494 100.407C131.494 94.5379 126.8 89.7803 121.01 89.7803C115.22 89.7803 110.527 94.5379 110.527 100.407C110.527 106.275 115.22 111.033 121.01 111.033Z" fill="#273F39"/>
<path d="M121.01 104.435C123.206 104.435 124.985 102.632 124.985 100.407C124.985 98.1816 123.206 96.3779 121.01 96.3779C118.815 96.3779 117.036 98.1816 117.036 100.407C117.036 102.632 118.815 104.435 121.01 104.435Z" fill="#596864"/>
<path d="M121.01 102.598C122.205 102.598 123.173 101.617 123.173 100.407C123.173 99.1961 122.205 98.2148 121.01 98.2148C119.816 98.2148 118.848 99.1961 118.848 100.407C118.848 101.617 119.816 102.598 121.01 102.598Z" fill="#273F39"/>
<path d="M118.228 92.8303L116.201 93.7925L118.002 97.6922L120.029 96.73L118.228 92.8303Z" fill="#5F9B54"/>
<path d="M72.6022 123.16C78.3922 123.16 83.086 118.402 83.086 112.534C83.086 106.665 78.3922 101.907 72.6022 101.907C66.8122 101.907 62.1184 106.665 62.1184 112.534C62.1184 118.402 66.8122 123.16 72.6022 123.16Z" fill="#273F39"/>
<path d="M72.602 116.562C74.7971 116.562 76.5766 114.758 76.5766 112.534C76.5766 110.309 74.7971 108.505 72.602 108.505C70.4069 108.505 68.6274 110.309 68.6274 112.534C68.6274 114.758 70.4069 116.562 72.602 116.562Z" fill="#596864"/>
<path d="M72.6022 114.725C73.7964 114.725 74.7644 113.744 74.7644 112.533C74.7644 111.323 73.7964 110.342 72.6022 110.342C71.408 110.342 70.4399 111.323 70.4399 112.533C70.4399 113.744 71.408 114.725 72.6022 114.725Z" fill="#273F39"/>
<path d="M58.875 113.243L71.9382 109.769C72.1892 109.703 72.4555 109.733 72.6858 109.854C72.916 109.975 73.094 110.178 73.1854 110.424C73.6923 111.788 74.89 114.116 76.8728 112.697C79.4164 110.915 87.5406 105.827 88.68 105.113C88.7694 105.058 88.8661 105.017 88.9671 104.99L109.603 99.6021C110.404 99.3938 111.186 99.1154 111.94 98.77L127.228 91.8131C127.706 91.6219 128.126 91.307 128.447 90.8998C128.767 90.4926 128.977 90.0074 129.054 89.4925C129.132 88.9776 129.075 88.4511 128.889 87.9655C128.703 87.4798 128.395 87.0521 127.995 86.725C125.824 84.9516 122.163 83.3102 116.202 83.8513C115.975 83.871 115.749 83.8144 115.557 83.6902C115.366 83.5661 115.22 83.3813 115.143 83.1647C113.434 78.6177 108.095 73.0839 105.211 71.6607C105.066 71.5904 104.938 71.4875 104.838 71.3599C104.738 71.2323 104.667 71.0833 104.632 70.9241C104.61 70.8241 104.592 70.7241 104.578 70.6286C104.548 70.4655 104.557 70.2976 104.603 70.1383C104.648 69.9791 104.731 69.833 104.842 69.7118C104.954 69.5906 105.092 69.4976 105.246 69.4405C105.399 69.3833 105.564 69.3635 105.727 69.3827C106.884 69.5191 108.441 69.6146 108.759 69.1963C109.284 68.5142 108.912 61.7846 107.642 61.4072C106.503 61.0708 104.152 61.5846 103.259 62.4076C103.08 62.5845 102.841 62.6867 102.591 62.6941H101.757C101.614 62.6842 101.47 62.7035 101.335 62.7509C101.199 62.7982 101.074 62.8727 100.968 62.9697C100.861 63.0668 100.775 63.1846 100.714 63.3161C100.653 63.4476 100.618 63.5901 100.613 63.7353L100.487 70.6695C100.483 70.9076 100.559 71.14 100.702 71.3288L102.43 73.6433C102.474 73.7025 102.511 73.7666 102.542 73.8342C103.156 75.1983 109.598 89.5987 108.033 97.2422C107.993 97.444 107.896 97.6296 107.753 97.7759C107.61 97.9222 107.428 98.0228 107.23 98.0652C104.439 98.6745 100.339 99.5021 98.298 99.9113C98.1472 99.9423 97.9916 99.939 97.8422 99.9015C97.6929 99.8639 97.5538 99.7932 97.4348 99.6944C97.3158 99.5955 97.22 99.4711 97.1544 99.3301C97.0888 99.1891 97.0549 99.035 97.0553 98.8791C97.0553 94.3321 96.8983 79.2042 94.911 79.7453C92.5738 80.3865 65.5008 88.612 62.1408 89.9443C60.1311 90.9173 60.0638 93.4591 60.1042 94.3549C60.1136 94.5665 60.0588 94.776 59.9472 94.9551C59.0948 96.3192 55.5733 102.821 57.5696 112.406C57.5956 112.551 57.651 112.689 57.7322 112.811C57.8134 112.933 57.9186 113.036 58.0413 113.115C58.164 113.194 58.3014 113.246 58.4449 113.268C58.5884 113.29 58.7349 113.281 58.875 113.243Z" fill="#5F9B54"/>
<path d="M128.009 86.7476C125.838 84.9743 122.177 83.3328 116.215 83.8739C115.989 83.8936 115.762 83.837 115.571 83.7128C115.379 83.5887 115.234 83.4039 115.156 83.1873C115.125 83.11 115.085 83.0281 115.053 82.9463C114.995 90.0987 112.285 96.4282 107.907 100.07L109.616 99.6156C110.417 99.4073 111.2 99.1289 111.953 98.7835L127.242 91.8266C127.718 91.6347 128.136 91.3199 128.455 90.9135C128.774 90.5071 128.983 90.0232 129.06 89.5098C129.138 88.9964 129.082 88.4714 128.897 87.9868C128.713 87.5023 128.406 87.0751 128.009 86.7476Z" fill="#56894C"/>
<path d="M93.8432 89.5392C93.8432 89.5392 97.432 84.0237 95.2384 81.7593C94.2425 80.7271 89.9673 82.6187 87.2712 82.0549C78.2992 84.7831 64.424 89.0573 62.0868 89.9849C60.1579 90.917 60.0143 93.2814 60.0457 94.2681C63.5493 93.8134 72.5527 92.6767 78.048 91.9582C84.9834 91.0488 93.4574 90.4441 93.8432 89.5392Z" fill="#273F39"/>
<path d="M64.1549 110.583L81.8073 106.322C82.628 106.124 83.3564 105.645 83.8709 104.967C84.3853 104.29 84.6545 103.453 84.6335 102.598C84.5527 99.288 83.2877 94.5682 76.5587 94.9638C67.7617 95.4821 62.6521 100.738 61.2659 107.768C61.1853 108.165 61.2052 108.577 61.3238 108.964C61.4425 109.352 61.656 109.702 61.9445 109.983C62.233 110.264 62.587 110.467 62.9735 110.571C63.3601 110.676 63.7665 110.68 64.1549 110.583Z" fill="#56894C"/>
<path d="M67.3176 105.759C67.2255 105.758 67.1364 105.726 67.0648 105.667C66.9931 105.609 66.9431 105.527 66.9229 105.436C66.9014 105.33 66.9218 105.22 66.9797 105.129C67.0376 105.038 67.1283 104.974 67.2324 104.95L73.9883 103.481C74.0401 103.47 74.0937 103.469 74.1459 103.478C74.1981 103.488 74.2479 103.508 74.2924 103.537C74.337 103.566 74.3755 103.604 74.4057 103.648C74.4358 103.692 74.4571 103.742 74.4683 103.795C74.4794 103.848 74.4802 103.902 74.4704 103.955C74.4606 104.008 74.4405 104.059 74.4113 104.104C74.3821 104.15 74.3444 104.188 74.3003 104.219C74.2562 104.249 74.2065 104.27 74.1543 104.281L67.4029 105.75L67.3176 105.759Z" fill="#5F9B54"/>
<path d="M67.2459 107.209C67.1538 107.208 67.0647 107.176 66.9931 107.117C66.9214 107.059 66.8714 106.977 66.8512 106.886C66.8399 106.834 66.8391 106.779 66.8486 106.726C66.858 106.674 66.8777 106.623 66.9065 106.578C66.9352 106.533 66.9725 106.494 67.0161 106.463C67.0597 106.433 67.1088 106.411 67.1607 106.4L73.9166 104.931C73.9682 104.919 74.0217 104.918 74.0738 104.927C74.1259 104.936 74.1756 104.956 74.22 104.986C74.2643 105.015 74.3024 105.053 74.332 105.097C74.3616 105.142 74.382 105.192 74.3921 105.245C74.4033 105.297 74.4042 105.352 74.3947 105.404C74.3852 105.457 74.3656 105.508 74.3368 105.553C74.3081 105.598 74.2708 105.637 74.2272 105.668C74.1836 105.698 74.1344 105.72 74.0826 105.731L67.3312 107.2L67.2459 107.209Z" fill="#5F9B54"/>
<path d="M67.174 108.714C67.0813 108.713 66.9917 108.68 66.9199 108.621C66.8482 108.561 66.7986 108.479 66.7792 108.387C66.7579 108.282 66.7784 108.172 66.8364 108.082C66.8943 107.991 66.985 107.928 67.0887 107.905L73.8447 106.436C73.8965 106.424 73.9503 106.423 74.0027 106.432C74.0551 106.442 74.1051 106.462 74.1498 106.491C74.1945 106.52 74.233 106.558 74.2631 106.603C74.2931 106.647 74.314 106.697 74.3247 106.75C74.346 106.856 74.3254 106.965 74.2675 107.056C74.2096 107.146 74.1189 107.209 74.0151 107.232L67.2592 108.705L67.174 108.714Z" fill="#5F9B54"/>
<path d="M60.7052 98.6334L48.5347 94.2137L51.3385 93.4862L60.2566 96.6145C60.3271 96.6408 60.4014 96.6547 60.4765 96.6555C60.6162 96.6567 60.7528 96.6135 60.8671 96.5319C60.9813 96.4504 61.0675 96.3346 61.1135 96.2008C61.1425 96.116 61.1547 96.0262 61.1494 95.9367C61.1441 95.8471 61.1214 95.7595 61.0827 95.6788C61.0439 95.5981 60.9898 95.5259 60.9235 95.4665C60.8572 95.407 60.78 95.3614 60.6963 95.3323L53.7026 92.8769L58.4802 91.6356C58.6536 91.5906 58.8025 91.4777 58.8941 91.3218C58.9857 91.1659 59.0127 90.9795 58.9692 90.8035C58.9238 90.6285 58.8121 90.4788 58.6583 90.3868C58.5046 90.2948 58.3213 90.2681 58.1482 90.3124L51.3699 92.0766C51.2003 92.0543 51.0287 92.0982 50.8899 92.1994L46.2738 93.3998L45.6413 93.1679C45.4729 93.108 45.2879 93.1178 45.1267 93.1953C44.9654 93.2727 44.8408 93.4116 44.7799 93.5817C44.7572 93.6506 44.7451 93.7227 44.7441 93.7954L38.8674 95.3187C38.6948 95.3647 38.547 95.4779 38.4563 95.6337C38.3656 95.7895 38.3392 95.9753 38.3829 96.1508C38.419 96.2978 38.5027 96.4283 38.6207 96.5215C38.7386 96.6146 38.8839 96.665 39.0334 96.6646C39.0894 96.6637 39.1451 96.6561 39.1994 96.6418L46.2065 94.823L60.2522 99.9248C60.324 99.9515 60.3999 99.9653 60.4765 99.9657C60.616 99.9662 60.7524 99.9228 60.8665 99.8413C60.9806 99.7598 61.0669 99.6444 61.1135 99.511C61.1447 99.4263 61.1589 99.3361 61.1551 99.2458C61.1514 99.1554 61.1299 99.0667 61.0919 98.985C61.0538 98.9032 61 98.8299 60.9336 98.7696C60.8672 98.7092 60.7896 98.6629 60.7052 98.6334Z" fill="#273F39"/>
<path d="M78.1998 56.2576C79.6713 55.8568 80.3471 53.5817 79.7094 51.1758C79.0716 48.77 77.3617 47.1446 75.8902 47.5453C74.4187 47.9461 73.7428 50.2213 74.3806 52.6271C75.0184 55.033 76.7283 56.6584 78.1998 56.2576Z" fill="#EAAC98"/>
<path opacity="0.37" d="M78.546 49.8484C78.6181 49.7718 78.7047 49.7108 78.8007 49.6691C78.8967 49.6274 79.0001 49.606 79.1045 49.606C79.209 49.606 79.3123 49.6274 79.4083 49.6691C79.5043 49.7108 79.591 49.7718 79.663 49.8484C79.937 50.1295 80.1321 50.4795 80.2283 50.8624C80.2895 51.1011 80.3108 51.3486 80.2911 51.5945C80.277 51.8176 80.1823 52.0277 80.0251 52.1845C79.8678 52.3414 79.6591 52.4341 79.4387 52.4448C78.7344 52.4857 78.0526 52.5448 77.4739 52.6039C77.3462 52.6182 77.2174 52.5923 77.1048 52.5295C76.9923 52.4668 76.9016 52.3704 76.8452 52.2535C76.7888 52.1366 76.7693 52.0049 76.7895 51.8764C76.8097 51.7478 76.8685 51.6287 76.958 51.5354L78.546 49.8484Z" fill="white"/>
<path d="M77.2631 56.9373L74.1677 57.3647L74.1318 54.25H77.2631V56.9373Z" fill="#EAAC98"/>
<path d="M87.6167 64.167L89.4514 65.672C89.936 66.0678 90.543 66.2772 91.1651 66.2632L100.545 66.0313C100.545 66.0313 101.64 65.2265 102.533 65.2265C103.425 65.2265 104.475 65.7312 104.475 66.2859C104.475 66.8406 104.421 67.65 103.677 67.7455C102.932 67.841 101.837 67.6454 101.29 67.7455C100.743 67.8455 92.143 70.8738 90.1513 70.8738C88.5139 70.8738 84.7681 68.2502 84.7681 68.2502L87.6167 64.167Z" fill="#EAAC98"/>
<path d="M93 82.4145C90.8736 83.3966 91.7663 86.8751 92.7757 90.881C93.785 94.8869 96.4631 100.502 96.4631 100.502C96.4631 100.502 97.5802 100.398 97.6385 99.6886C97.8762 96.633 97.1899 87.8982 97.4725 85.7793C97.8493 83.1693 97.4725 79.6954 95.086 80.9776C94.4265 81.3323 93.5742 82.1508 93 82.4145Z" fill="#16231F"/>
<path d="M74.8362 78.5585C74.8362 78.5585 75.6571 87.4433 82.1842 87.4433C88.7114 87.4433 95.3103 81.0775 95.1622 82.8281C95.0142 84.5787 94.5028 86.5339 94.6284 89.2576C94.754 91.9812 96.2434 98.5926 96.2434 98.5926L98.7914 98.0288C98.7914 98.0288 101.268 84.5287 101.268 81.8096C101.268 79.0905 99.8905 76.4396 96.1581 76.4396C93.2916 76.4396 88.9805 77.158 87.1502 77.4899C86.8974 77.5338 86.6374 77.4927 86.4098 77.3729C86.1822 77.253 85.9995 77.061 85.8897 76.8261L85.1943 75.3438L74.8362 78.5585Z" fill="#3C635D"/>
<path d="M96.1086 97.9878L96.629 101.948C96.637 102.083 96.6746 102.215 96.739 102.333C96.8034 102.451 96.8929 102.553 97.0012 102.632C97.1095 102.711 97.2337 102.764 97.3649 102.788C97.496 102.813 97.6308 102.807 97.7595 102.771L103.179 101.548C103.261 101.528 103.335 101.485 103.394 101.424C103.453 101.363 103.494 101.286 103.511 101.202C103.529 101.119 103.523 101.032 103.495 100.951C103.466 100.871 103.415 100.8 103.349 100.748C102.362 99.955 101.12 99.5628 99.8634 99.6475C99.7493 99.6641 99.6331 99.6576 99.5215 99.6283C99.4099 99.5991 99.3051 99.5476 99.2133 99.477C99.1215 99.4063 99.0444 99.3179 98.9866 99.2168C98.9288 99.1157 98.8914 99.004 98.8765 98.8881C98.786 98.3565 98.8043 97.8117 98.9303 97.2876L96.1086 97.9878Z" fill="#273F39"/>
<path d="M85.2437 76.499L75.1233 79.5455C74.9996 79.5835 74.8692 79.594 74.7411 79.5761C74.613 79.5583 74.4902 79.5127 74.3812 79.4423C74.2721 79.3719 74.1793 79.2785 74.1092 79.1683C74.0391 79.0582 73.9933 78.934 73.9749 78.8043C73.6295 76.4853 72.7951 70.7561 72.2523 66.5865C71.5525 61.2438 72.9521 58.1927 73.7865 57.3652C74.0786 57.062 74.4274 56.8209 74.8126 56.6562C75.1977 56.4914 75.6115 56.4063 76.0295 56.4058C76.7057 56.4401 77.3666 56.6216 77.9675 56.9378L88.514 63.8174L85.5757 69.7285L83.1892 68.6691C83.1892 68.6691 85.5084 72.8159 86.0333 75.2213C86.088 75.4962 86.0366 75.7819 85.8897 76.0196C85.7429 76.2573 85.5117 76.4289 85.2437 76.499Z" fill="#CDE298"/>
<path d="M54.1243 70.8101L58.7224 90.044L38.2887 95.2867L33.5964 75.6073C33.4888 75.1548 33.4711 74.6851 33.5442 74.2256C33.6174 73.7662 33.78 73.326 34.0225 72.9308C34.2651 72.5356 34.5827 72.1932 34.957 71.9236C35.3313 71.654 35.7547 71.4625 36.2027 71.3603L50.0017 68.2093C50.888 68.0082 51.8169 68.1681 52.588 68.6546C53.3592 69.1411 53.9109 69.9152 54.1243 70.8101Z" fill="#FCC97E"/>
<path d="M41.4904 70.1941L44.526 69.4939L45.2606 72.766C45.3134 73.0012 45.2719 73.248 45.1452 73.4521C45.0184 73.6562 44.8169 73.801 44.5849 73.8545L43.2726 74.1572C43.0406 74.2107 42.7971 74.1686 42.5957 74.0401C42.3943 73.9117 42.2515 73.7074 42.1987 73.4722L41.4641 70.2002L41.4904 70.1941Z" fill="#D8AB6F"/>
<path d="M77.2228 49.3349C77.5637 49.1803 78.6449 48.8802 78.6449 48.8802C78.8306 48.7763 78.9867 48.6256 79.0982 48.4427C79.2097 48.2598 79.2728 48.0508 79.2813 47.836C79.2899 47.6212 79.2437 47.4077 79.1471 47.2163C79.0506 47.0249 78.9069 46.8619 78.7301 46.7431C77.6717 46.113 76.4258 45.8873 75.2176 46.1065C72.8983 46.4612 71.1084 48.8347 71.1084 51.2992C71.1084 53.5727 73.6968 54.8004 74.6075 54.5776C75.8008 54.2866 76.2942 53.459 75.9847 52.004C75.8646 51.4828 75.9215 50.9358 76.1462 50.4514C76.3709 49.967 76.7502 49.5737 77.2228 49.3349Z" fill="#FAC42D"/>
<path d="M74.2979 53.6863C74.7365 53.6863 75.0919 53.326 75.0919 52.8815C75.0919 52.437 74.7365 52.0767 74.2979 52.0767C73.8594 52.0767 73.5039 52.437 73.5039 52.8815C73.5039 53.326 73.8594 53.6863 74.2979 53.6863Z" fill="#776945"/>
<path d="M102.842 68.4005C103.462 68.4005 103.964 67.8915 103.964 67.2637C103.964 66.6359 103.462 66.127 102.842 66.127C102.223 66.127 101.721 66.6359 101.721 67.2637C101.721 67.8915 102.223 68.4005 102.842 68.4005Z" fill="#776945"/>
<path d="M74.4863 53.1313L77.9136 56.0096C78.06 56.1382 78.2494 56.2052 78.4429 56.1967C78.6365 56.1883 78.8195 56.1051 78.9544 55.9642" stroke="#776945" stroke-miterlimit="10" stroke-linecap="round"/>
</g>
<path d="M57.7426 155C57.7426 154.449 57.7426 153.92 57.7426 153.411C57.7426 152.902 57.7426 152.338 57.7426 151.717V148.357C57.7426 147.722 57.7426 147.146 57.7426 146.628C57.7426 146.11 57.7426 145.573 57.7426 145.018C58.1486 145.018 58.5522 145.018 58.9536 145.018C59.3596 145.018 59.7656 145.018 60.1716 145.018C60.5776 145.018 60.9929 145.018 61.4176 145.018C62.1829 145.018 62.8619 145.13 63.4546 145.354C64.0519 145.573 64.5559 145.898 64.9666 146.327C65.3772 146.752 65.6876 147.27 65.8976 147.881C66.1122 148.492 66.2196 149.19 66.2196 149.974C66.2196 150.679 66.1239 151.337 65.9326 151.948C65.7459 152.555 65.4472 153.087 65.0366 153.544C64.6306 154.001 64.0939 154.358 63.4266 154.615C62.7592 154.872 61.9472 155 60.9906 155C60.5752 155 60.1879 155 59.8286 155C59.4692 155 59.1192 155 58.7786 155C58.4426 155 58.0972 155 57.7426 155ZM59.3876 153.656H60.9976C61.8609 153.656 62.5492 153.495 63.0626 153.173C63.5759 152.851 63.9446 152.41 64.1686 151.85C64.3926 151.29 64.5046 150.655 64.5046 149.946C64.5046 149.405 64.4392 148.915 64.3086 148.476C64.1779 148.033 63.9749 147.655 63.6996 147.342C63.4242 147.025 63.0742 146.782 62.6496 146.614C62.2249 146.446 61.7186 146.362 61.1306 146.362H59.3876C59.3876 146.731 59.3876 147.102 59.3876 147.475C59.3876 147.844 59.3876 148.252 59.3876 148.7V151.36C59.3876 151.799 59.3876 152.202 59.3876 152.571C59.3876 152.935 59.3876 153.297 59.3876 153.656ZM71.0685 155.168C70.4712 155.168 69.9485 155.068 69.5005 154.867C69.0525 154.666 68.6768 154.396 68.3735 154.055C68.0748 153.71 67.8508 153.318 67.7015 152.879C67.5522 152.436 67.4775 151.971 67.4775 151.486C67.4775 150.791 67.6175 150.172 67.8975 149.631C68.1775 149.085 68.5835 148.656 69.1155 148.343C69.6475 148.026 70.2892 147.867 71.0405 147.867C71.6145 147.867 72.1232 147.958 72.5665 148.14C73.0098 148.322 73.3808 148.579 73.6795 148.91C73.9828 149.237 74.2115 149.619 74.3655 150.058C74.5195 150.497 74.5965 150.973 74.5965 151.486C74.5965 152.181 74.4565 152.807 74.1765 153.362C73.8965 153.917 73.4905 154.358 72.9585 154.685C72.4312 155.007 71.8012 155.168 71.0685 155.168ZM71.0615 153.908C71.5095 153.908 71.8828 153.794 72.1815 153.565C72.4802 153.332 72.7018 153.031 72.8465 152.662C72.9958 152.293 73.0705 151.901 73.0705 151.486C73.0705 151.005 72.9865 150.59 72.8185 150.24C72.6552 149.885 72.4218 149.612 72.1185 149.421C71.8198 149.225 71.4652 149.127 71.0545 149.127C70.6112 149.127 70.2355 149.232 69.9275 149.442C69.6242 149.647 69.3932 149.93 69.2345 150.289C69.0805 150.644 69.0035 151.043 69.0035 151.486C69.0035 151.901 69.0782 152.293 69.2275 152.662C69.3815 153.031 69.6102 153.332 69.9135 153.565C70.2215 153.794 70.6042 153.908 71.0615 153.908ZM76.2997 155C76.2997 154.491 76.2997 153.999 76.2997 153.523C76.2997 153.047 76.2997 152.522 76.2997 151.948V151.248C76.2997 150.73 76.2997 150.203 76.2997 149.666C76.2997 149.125 76.2997 148.583 76.2997 148.042L77.5807 147.958L77.6367 149.211H77.7837C77.933 148.996 78.1173 148.786 78.3367 148.581C78.556 148.376 78.8127 148.205 79.1067 148.07C79.4053 147.935 79.7437 147.867 80.1217 147.867C80.6817 147.867 81.111 148.007 81.4097 148.287C81.713 148.562 81.9113 148.959 82.0047 149.477L82.1027 149.512C82.126 149.638 82.1423 149.771 82.1517 149.911C82.1657 150.046 82.1727 150.191 82.1727 150.345C82.1727 150.648 82.1727 150.924 82.1727 151.171C82.1727 151.414 82.1727 151.673 82.1727 151.948C82.1727 152.508 82.1727 153.031 82.1727 153.516C82.1727 153.997 82.1727 154.491 82.1727 155H80.6817C80.6817 154.491 80.6817 153.999 80.6817 153.523C80.6817 153.042 80.6817 152.543 80.6817 152.025V150.779C80.6817 150.275 80.5977 149.895 80.4297 149.638C80.2663 149.381 79.9677 149.253 79.5337 149.253C79.277 149.253 79.0437 149.309 78.8337 149.421C78.6237 149.533 78.4323 149.682 78.2597 149.869C78.087 150.051 77.933 150.252 77.7977 150.471V152.025C77.7977 152.562 77.7977 153.066 77.7977 153.537C77.7977 154.004 77.7977 154.491 77.7977 155H76.2997ZM85.0147 155C85.0147 154.491 85.0147 153.999 85.0147 153.523C85.0147 153.042 85.0147 152.543 85.0147 152.025V150.779C85.0147 150.275 84.9307 149.895 84.7627 149.638C84.5993 149.381 84.303 149.253 83.8737 149.253C83.617 149.253 83.3813 149.309 83.1667 149.421C82.9567 149.528 82.7653 149.675 82.5927 149.862C82.42 150.044 82.2637 150.247 82.1237 150.471L81.9067 149.232H82.0537C82.217 149.013 82.4107 148.798 82.6347 148.588C82.8633 148.378 83.1293 148.205 83.4327 148.07C83.736 147.935 84.079 147.867 84.4617 147.867C85.1757 147.867 85.696 148.082 86.0227 148.511C86.3493 148.94 86.5127 149.552 86.5127 150.345C86.5127 150.648 86.5127 150.924 86.5127 151.171C86.5127 151.414 86.5127 151.673 86.5127 151.948C86.5127 152.508 86.5127 153.031 86.5127 153.516C86.5127 153.997 86.5127 154.491 86.5127 155H85.0147ZM88.5367 155C88.5367 154.491 88.5367 153.999 88.5367 153.523C88.5367 153.047 88.5367 152.522 88.5367 151.948V151.248C88.5367 150.819 88.5367 150.424 88.5367 150.065C88.5367 149.706 88.5367 149.363 88.5367 149.036C88.5367 148.709 88.5367 148.378 88.5367 148.042L90.0347 147.993C90.0347 148.334 90.0347 148.67 90.0347 149.001C90.0347 149.332 90.0347 149.68 90.0347 150.044C90.0347 150.408 90.0347 150.809 90.0347 151.248V151.948C90.0347 152.522 90.0347 153.047 90.0347 153.523C90.0347 153.999 90.0347 154.491 90.0347 155H88.5367ZM89.2647 146.628C88.966 146.628 88.7233 146.551 88.5367 146.397C88.3547 146.238 88.2637 145.991 88.2637 145.655C88.2637 145.342 88.3547 145.104 88.5367 144.941C88.7233 144.778 88.9707 144.696 89.2787 144.696C89.5913 144.696 89.8363 144.78 90.0137 144.948C90.1957 145.116 90.2867 145.352 90.2867 145.655C90.2867 145.991 90.1957 146.238 90.0137 146.397C89.8317 146.551 89.582 146.628 89.2647 146.628ZM95.3497 155.14C94.5844 155.14 93.9334 154.984 93.3967 154.671C92.8647 154.354 92.4587 153.922 92.1787 153.376C91.8987 152.83 91.7587 152.212 91.7587 151.521C91.7587 150.826 91.8894 150.203 92.1507 149.652C92.4167 149.101 92.8064 148.667 93.3197 148.35C93.8377 148.033 94.4724 147.874 95.2237 147.874C95.4944 147.874 95.7627 147.897 96.0287 147.944C96.2994 147.986 96.5537 148.047 96.7917 148.126C97.0297 148.201 97.2397 148.289 97.4217 148.392L97.2957 149.722C97.0344 149.573 96.7894 149.458 96.5607 149.379C96.3367 149.3 96.1291 149.246 95.9377 149.218C95.7464 149.185 95.5714 149.169 95.4127 149.169C94.7687 149.169 94.2531 149.379 93.8657 149.799C93.4784 150.214 93.2847 150.777 93.2847 151.486C93.2847 151.943 93.3734 152.352 93.5507 152.711C93.7281 153.07 93.9917 153.355 94.3417 153.565C94.6964 153.775 95.1351 153.88 95.6577 153.88C95.8491 153.88 96.0404 153.864 96.2317 153.831C96.4231 153.794 96.6097 153.74 96.7917 153.67C96.9784 153.595 97.1581 153.502 97.3307 153.39L97.4357 154.727C97.2771 154.802 97.0951 154.872 96.8897 154.937C96.6844 154.998 96.4534 155.047 96.1967 155.084C95.9401 155.121 95.6577 155.14 95.3497 155.14ZM99.1187 155C99.1187 154.491 99.1187 153.999 99.1187 153.523C99.1187 153.047 99.1187 152.522 99.1187 151.948V151.248C99.1187 150.819 99.1187 150.424 99.1187 150.065C99.1187 149.706 99.1187 149.363 99.1187 149.036C99.1187 148.709 99.1187 148.378 99.1187 148.042L100.617 147.993C100.617 148.334 100.617 148.67 100.617 149.001C100.617 149.332 100.617 149.68 100.617 150.044C100.617 150.408 100.617 150.809 100.617 151.248V151.948C100.617 152.522 100.617 153.047 100.617 153.523C100.617 153.999 100.617 154.491 100.617 155H99.1187ZM99.8467 146.628C99.548 146.628 99.3054 146.551 99.1187 146.397C98.9367 146.238 98.8457 145.991 98.8457 145.655C98.8457 145.342 98.9367 145.104 99.1187 144.941C99.3054 144.778 99.5527 144.696 99.8607 144.696C100.173 144.696 100.418 144.78 100.596 144.948C100.778 145.116 100.869 145.352 100.869 145.655C100.869 145.991 100.778 146.238 100.596 146.397C100.414 146.551 100.164 146.628 99.8467 146.628ZM102.796 155C102.796 154.491 102.796 153.999 102.796 153.523C102.796 153.047 102.796 152.522 102.796 151.948V148.091C102.796 147.508 102.796 146.938 102.796 146.383C102.796 145.828 102.796 145.284 102.796 144.752L104.294 144.591C104.294 145.151 104.294 145.718 104.294 146.292C104.294 146.861 104.294 147.461 104.294 148.091V151.948C104.294 152.522 104.294 153.047 104.294 153.523C104.294 153.999 104.294 154.491 104.294 155H102.796ZM106.474 155C106.474 154.491 106.474 153.999 106.474 153.523C106.474 153.047 106.474 152.522 106.474 151.948V151.248C106.474 150.819 106.474 150.424 106.474 150.065C106.474 149.706 106.474 149.363 106.474 149.036C106.474 148.709 106.474 148.378 106.474 148.042L107.972 147.993C107.972 148.334 107.972 148.67 107.972 149.001C107.972 149.332 107.972 149.68 107.972 150.044C107.972 150.408 107.972 150.809 107.972 151.248V151.948C107.972 152.522 107.972 153.047 107.972 153.523C107.972 153.999 107.972 154.491 107.972 155H106.474ZM107.202 146.628C106.903 146.628 106.661 146.551 106.474 146.397C106.292 146.238 106.201 145.991 106.201 145.655C106.201 145.342 106.292 145.104 106.474 144.941C106.661 144.778 106.908 144.696 107.216 144.696C107.529 144.696 107.774 144.78 107.951 144.948C108.133 145.116 108.224 145.352 108.224 145.655C108.224 145.991 108.133 146.238 107.951 146.397C107.769 146.551 107.519 146.628 107.202 146.628ZM113.287 155.168C112.69 155.168 112.167 155.068 111.719 154.867C111.271 154.666 110.896 154.396 110.592 154.055C110.294 153.71 110.07 153.318 109.92 152.879C109.771 152.436 109.696 151.971 109.696 151.486C109.696 150.791 109.836 150.172 110.116 149.631C110.396 149.085 110.802 148.656 111.334 148.343C111.866 148.026 112.508 147.867 113.259 147.867C113.833 147.867 114.342 147.958 114.785 148.14C115.229 148.322 115.6 148.579 115.898 148.91C116.202 149.237 116.43 149.619 116.584 150.058C116.738 150.497 116.815 150.973 116.815 151.486C116.815 152.181 116.675 152.807 116.395 153.362C116.115 153.917 115.709 154.358 115.177 154.685C114.65 155.007 114.02 155.168 113.287 155.168ZM113.28 153.908C113.728 153.908 114.102 153.794 114.4 153.565C114.699 153.332 114.921 153.031 115.065 152.662C115.215 152.293 115.289 151.901 115.289 151.486C115.289 151.005 115.205 150.59 115.037 150.24C114.874 149.885 114.641 149.612 114.337 149.421C114.039 149.225 113.684 149.127 113.273 149.127C112.83 149.127 112.454 149.232 112.146 149.442C111.843 149.647 111.612 149.93 111.453 150.289C111.299 150.644 111.222 151.043 111.222 151.486C111.222 151.901 111.297 152.293 111.446 152.662C111.6 153.031 111.829 153.332 112.132 153.565C112.44 153.794 112.823 153.908 113.28 153.908Z" fill="#3C3C3B"/>
<defs>
<clipPath id="clip0_496_10532">
<rect width="107" height="108" fill="white" transform="translate(33.5 16)"/>
</clipPath>
</defs>
</svg>
