<svg width="109" height="142" viewBox="0 0 109 142" fill="none" xmlns="http://www.w3.org/2000/svg">
<g clip-path="url(#clip0_505_7528)">
<path d="M13.9405 76.0764C13.349 53.8681 32.5456 27.9999 56.4126 27.9999C79.1868 27.9999 93.1122 45.5178 96.5305 75.3102C100.678 111.434 80.2914 150.73 61.299 125.024C35.0993 89.5409 14.7672 107.137 13.9405 76.0764Z" fill="#F9F9E1"/>
<path d="M56.0725 109.002C84.7526 109.002 108.002 107.703 108.002 106.101C108.002 104.499 84.7526 103.2 56.0725 103.2C27.3924 103.2 4.14258 104.499 4.14258 106.101C4.14258 107.703 27.3924 109.002 56.0725 109.002Z" fill="#DBDACA"/>
<path d="M70.8669 46.6352C70.748 46.6352 70.6339 46.5873 70.5497 46.502C70.4656 46.4167 70.4183 46.3011 70.4183 46.1805C70.36 45.1256 70.1895 43.4523 69.9697 43.0749C69.6333 42.4247 68.3548 42.7475 68.3413 42.752C68.2845 42.7679 68.2251 42.7723 68.1666 42.7648C68.1081 42.7574 68.0516 42.7384 68.0003 42.7088C67.9491 42.6793 67.9041 42.6398 67.8679 42.5926C67.8317 42.5454 67.8051 42.4914 67.7895 42.4338C67.7739 42.3761 67.7696 42.3159 67.7769 42.2566C67.7842 42.1973 67.803 42.1401 67.8322 42.0881C67.8613 42.0362 67.9003 41.9906 67.9469 41.9539C67.9934 41.9173 68.0467 41.8902 68.1036 41.8745C68.1843 41.8745 70.0819 41.3379 70.7638 42.6475C71.1361 43.3613 71.2752 45.6758 71.3021 46.1305C71.3057 46.1924 71.2969 46.2545 71.276 46.3129C71.2551 46.3712 71.2226 46.4246 71.1806 46.4698C71.1386 46.5149 71.0879 46.5509 71.0316 46.5754C70.9753 46.5999 70.9147 46.6126 70.8535 46.6125L70.8669 46.6352Z" fill="#776945"/>
<path d="M68.3193 44.2842C68.2049 44.2844 68.0946 44.2403 68.0113 44.1608C67.9279 44.0813 67.8776 43.9726 67.8707 43.8568L67.6688 40.7966C67.6615 40.6767 67.7012 40.5588 67.7794 40.4684C67.8575 40.3781 67.9678 40.3228 68.086 40.3147C68.145 40.3103 68.2042 40.3179 68.2603 40.3368C68.3163 40.3557 68.3681 40.3857 68.4127 40.425C68.4573 40.4643 68.4939 40.5121 68.5202 40.5658C68.5465 40.6194 68.5621 40.6778 68.566 40.7375L68.7634 43.7977C68.7708 43.9176 68.7311 44.0356 68.6529 44.1259C68.5747 44.2162 68.4645 44.2715 68.3462 44.2797L68.3193 44.2842Z" fill="#776945"/>
<path d="M88.5101 94.033C94.3002 94.033 98.9939 89.2754 98.9939 83.4066C98.9939 77.5379 94.3002 72.7803 88.5101 72.7803C82.7201 72.7803 78.0264 77.5379 78.0264 83.4066C78.0264 89.2754 82.7201 94.033 88.5101 94.033Z" fill="#273F39"/>
<path d="M88.5107 87.4352C90.7058 87.4352 92.4853 85.6315 92.4853 83.4066C92.4853 81.1816 90.7058 79.3779 88.5107 79.3779C86.3156 79.3779 84.5361 81.1816 84.5361 83.4066C84.5361 85.6315 86.3156 87.4352 88.5107 87.4352Z" fill="#596864"/>
<path d="M88.5109 85.5982C89.7051 85.5982 90.6731 84.6169 90.6731 83.4065C90.6731 82.1961 89.7051 81.2148 88.5109 81.2148C87.3167 81.2148 86.3486 82.1961 86.3486 83.4065C86.3486 84.6169 87.3167 85.5982 88.5109 85.5982Z" fill="#273F39"/>
<path d="M85.7285 75.8303L83.7012 76.7925L85.5026 80.6922L87.5299 79.73L85.7285 75.8303Z" fill="#5F9B54"/>
<path d="M40.1019 106.16C45.892 106.16 50.5857 101.402 50.5857 95.5336C50.5857 89.6648 45.892 84.9072 40.1019 84.9072C34.3119 84.9072 29.6182 89.6648 29.6182 95.5336C29.6182 101.402 34.3119 106.16 40.1019 106.16Z" fill="#273F39"/>
<path d="M40.1025 99.5622C42.2976 99.5622 44.0771 97.7585 44.0771 95.5335C44.0771 93.3086 42.2976 91.5049 40.1025 91.5049C37.9074 91.5049 36.1279 93.3086 36.1279 95.5335C36.1279 97.7585 37.9074 99.5622 40.1025 99.5622Z" fill="#596864"/>
<path d="M40.1017 97.7251C41.2959 97.7251 42.264 96.7439 42.264 95.5335C42.264 94.323 41.2959 93.3418 40.1017 93.3418C38.9075 93.3418 37.9395 94.323 37.9395 95.5335C37.9395 96.7439 38.9075 97.7251 40.1017 97.7251Z" fill="#273F39"/>
<path d="M26.375 96.2431L39.4382 92.7692C39.6892 92.7029 39.9555 92.7332 40.1858 92.8541C40.416 92.975 40.594 93.178 40.6854 93.424C41.1923 94.7881 42.39 97.1161 44.3728 95.6975C46.9164 93.915 55.0406 88.8269 56.18 88.1131C56.2694 88.0584 56.3661 88.017 56.4671 87.9903L77.1027 82.6021C77.904 82.3938 78.686 82.1154 79.4399 81.77L94.7282 74.8131C95.2062 74.6219 95.6264 74.307 95.9469 73.8998C96.2673 73.4926 96.4768 73.0074 96.5545 72.4925C96.6321 71.9776 96.5751 71.4511 96.3893 70.9655C96.2034 70.4798 95.8952 70.0521 95.4953 69.725C93.324 67.9516 89.6635 66.3102 83.7016 66.8513C83.4752 66.871 83.2486 66.8144 83.0572 66.6902C82.8657 66.5661 82.7201 66.3813 82.6429 66.1647C80.9337 61.6177 75.5954 56.0839 72.7109 54.6607C72.5657 54.5904 72.4382 54.4875 72.338 54.3599C72.2377 54.2323 72.1674 54.0833 72.1322 53.9241C72.1098 53.8241 72.0918 53.7241 72.0784 53.6286C72.0485 53.4655 72.0568 53.2976 72.1026 53.1383C72.1484 52.9791 72.2305 52.833 72.3423 52.7118C72.454 52.5906 72.5922 52.4976 72.7459 52.4405C72.8995 52.3833 73.0642 52.3635 73.2268 52.3827C74.3842 52.5191 75.9408 52.6146 76.2593 52.1963C76.7842 51.5142 76.4118 44.7846 75.1423 44.4072C74.0029 44.0708 71.6522 44.5846 70.7595 45.4076C70.5799 45.5845 70.3414 45.6867 70.0911 45.6941H69.2567C69.1137 45.6842 68.9701 45.7035 68.8346 45.7509C68.6991 45.7982 68.5743 45.8727 68.4677 45.9697C68.361 46.0668 68.2747 46.1846 68.2137 46.3161C68.1527 46.4476 68.1184 46.5901 68.1127 46.7353L67.9871 53.6695C67.9834 53.9076 68.0593 54.14 68.2025 54.3288L69.9296 56.6433C69.9738 56.7025 70.0114 56.7666 70.0417 56.8342C70.6563 58.1983 77.0982 72.5987 75.5326 80.2422C75.493 80.444 75.3958 80.6296 75.253 80.7759C75.1103 80.9222 74.9283 81.0228 74.7296 81.0652C71.9393 81.6745 67.8391 82.5021 65.798 82.9113C65.6472 82.9423 65.4916 82.939 65.3422 82.9015C65.1929 82.8639 65.0538 82.7932 64.9348 82.6944C64.8158 82.5955 64.72 82.4711 64.6544 82.3301C64.5888 82.1891 64.5549 82.035 64.5553 81.8791C64.5553 77.3321 64.3983 62.2042 62.411 62.7453C60.0738 63.3865 33.0008 71.612 29.6408 72.9443C27.6311 73.9173 27.5638 76.4591 27.6042 77.3549C27.6136 77.5665 27.5588 77.776 27.4472 77.9551C26.5948 79.3192 23.0733 85.8214 25.0696 95.4065C25.0956 95.5512 25.151 95.6889 25.2322 95.8108C25.3134 95.9328 25.4186 96.0363 25.5413 96.1149C25.664 96.1936 25.8014 96.2456 25.9449 96.2676C26.0884 96.2897 26.2349 96.2813 26.375 96.2431Z" fill="#5F9B54"/>
<path d="M95.509 69.7476C93.3378 67.9743 89.6772 66.3328 83.7153 66.8739C83.4889 66.8936 83.2623 66.837 83.0709 66.7128C82.8795 66.5887 82.7338 66.4039 82.6566 66.1873C82.6252 66.11 82.5848 66.0281 82.5534 65.9463C82.4951 73.0987 79.7856 79.4282 75.4072 83.0703L77.1164 82.6156C77.9177 82.4073 78.6997 82.1289 79.4536 81.7835L94.7419 74.8266C95.218 74.6347 95.6363 74.3199 95.9554 73.9135C96.2744 73.5071 96.4831 73.0232 96.5606 72.5098C96.6381 71.9964 96.5819 71.4714 96.3974 70.9868C96.2129 70.5023 95.9067 70.0751 95.509 69.7476Z" fill="#56894C"/>
<path d="M61.343 72.5392C61.343 72.5392 64.9318 67.0237 62.7381 64.7593C61.7422 63.7271 57.4671 65.6187 54.771 65.0549C45.799 67.7831 31.9238 72.0573 29.5866 72.9849C27.6576 73.917 27.5141 76.2814 27.5455 77.2681C31.049 76.8134 40.0524 75.6767 45.5478 74.9582C52.4831 74.0488 60.9572 73.4441 61.343 72.5392Z" fill="#273F39"/>
<path d="M31.6554 93.5827L49.3078 89.3222C50.1285 89.1235 50.8569 88.6452 51.3714 87.9674C51.8858 87.2895 52.155 86.4532 52.134 85.5982C52.0532 82.288 50.7882 77.5682 44.0592 77.9638C35.2621 78.4821 30.1526 83.7385 28.7664 90.7681C28.6857 91.1654 28.7057 91.5769 28.8243 91.9642C28.943 92.3515 29.1565 92.7021 29.445 92.9831C29.7335 93.2642 30.0875 93.4666 30.474 93.5714C30.8606 93.6763 31.267 93.6802 31.6554 93.5827Z" fill="#56894C"/>
<path d="M34.8171 88.759C34.7251 88.7582 34.6359 88.7258 34.5643 88.6672C34.4926 88.6086 34.4426 88.5272 34.4224 88.4361C34.4009 88.3301 34.4214 88.2198 34.4792 88.1289C34.5371 88.0379 34.6278 87.9736 34.7319 87.9496L41.4878 86.4809C41.5397 86.4696 41.5932 86.4687 41.6454 86.4783C41.6976 86.4879 41.7474 86.5078 41.7919 86.537C41.8365 86.5661 41.875 86.6039 41.9052 86.6481C41.9353 86.6923 41.9566 86.7421 41.9678 86.7947C41.979 86.8475 41.9797 86.9021 41.9699 86.9552C41.9601 87.0084 41.9401 87.059 41.9109 87.1043C41.8817 87.1495 41.8439 87.1884 41.7998 87.2188C41.7557 87.2492 41.706 87.2704 41.6538 87.2812L34.9024 88.7499L34.8171 88.759Z" fill="#5F9B54"/>
<path d="M34.7457 90.209C34.6536 90.2082 34.5645 90.1759 34.4928 90.1173C34.4212 90.0587 34.3711 89.9772 34.3509 89.8862C34.3397 89.8336 34.3388 89.7794 34.3483 89.7265C34.3578 89.6736 34.3775 89.6231 34.4062 89.5779C34.435 89.5327 34.4722 89.4937 34.5158 89.4631C34.5595 89.4326 34.6086 89.411 34.6605 89.3996L41.4164 87.931C41.468 87.919 41.5214 87.9177 41.5735 87.9271C41.6256 87.9365 41.6754 87.9564 41.7197 87.9857C41.7641 88.0149 41.8022 88.053 41.8318 88.0975C41.8613 88.142 41.8818 88.192 41.8919 88.2447C41.9031 88.2973 41.904 88.3515 41.8945 88.4044C41.885 88.4573 41.8653 88.5078 41.8366 88.553C41.8078 88.5981 41.7706 88.6372 41.7269 88.6677C41.6833 88.6983 41.6342 88.7199 41.5823 88.7312L34.8309 90.1999L34.7457 90.209Z" fill="#5F9B54"/>
<path d="M34.6745 91.7145C34.5818 91.7134 34.4922 91.6804 34.4204 91.6209C34.3487 91.5614 34.2991 91.479 34.2797 91.3871C34.2584 91.2816 34.2789 91.1719 34.3369 91.0817C34.3948 90.9915 34.4855 90.928 34.5892 90.9051L41.3451 89.4364C41.397 89.4244 41.4507 89.423 41.5032 89.4324C41.5556 89.4417 41.6056 89.4616 41.6503 89.4909C41.695 89.5201 41.7335 89.5581 41.7636 89.6026C41.7936 89.6471 41.8145 89.6973 41.8252 89.7502C41.8465 89.8556 41.8259 89.9653 41.768 90.0555C41.7101 90.1458 41.6194 90.2092 41.5156 90.2321L34.7597 91.7054L34.6745 91.7145Z" fill="#5F9B54"/>
<path d="M28.2052 81.6334L16.0347 77.2137L18.8385 76.4862L27.7566 79.6145C27.8271 79.6408 27.9014 79.6547 27.9765 79.6555C28.1162 79.6567 28.2528 79.6135 28.3671 79.5319C28.4813 79.4504 28.5675 79.3346 28.6135 79.2008C28.6425 79.116 28.6547 79.0262 28.6494 78.9367C28.6441 78.8471 28.6214 78.7595 28.5827 78.6788C28.5439 78.5981 28.4898 78.5259 28.4235 78.4665C28.3572 78.407 28.28 78.3614 28.1963 78.3323L21.2026 75.8769L25.9802 74.6356C26.1536 74.5906 26.3025 74.4777 26.3941 74.3218C26.4857 74.1659 26.5127 73.9795 26.4692 73.8035C26.4238 73.6285 26.3121 73.4788 26.1583 73.3868C26.0046 73.2948 25.8213 73.2681 25.6482 73.3124L18.8699 75.0766C18.7003 75.0543 18.5287 75.0982 18.3899 75.1994L13.7738 76.3998L13.1413 76.1679C12.9729 76.108 12.7879 76.1178 12.6267 76.1953C12.4654 76.2727 12.3408 76.4116 12.2799 76.5817C12.2572 76.6506 12.2451 76.7227 12.2441 76.7954L6.3674 78.3187C6.19477 78.3647 6.04705 78.4779 5.95632 78.6337C5.8656 78.7895 5.83922 78.9753 5.88292 79.1508C5.91904 79.2978 6.00275 79.4283 6.12066 79.5215C6.23858 79.6146 6.38389 79.665 6.53338 79.6646C6.5894 79.6637 6.64513 79.6561 6.69937 79.6418L13.7065 77.823L27.7522 82.9248C27.824 82.9515 27.8999 82.9653 27.9765 82.9657C28.116 82.9662 28.2524 82.9228 28.3665 82.8413C28.4806 82.7598 28.5669 82.6444 28.6135 82.511C28.6447 82.4263 28.6589 82.3361 28.6551 82.2458C28.6514 82.1554 28.6299 82.0667 28.5919 81.985C28.5538 81.9032 28.5 81.8299 28.4336 81.7696C28.3672 81.7092 28.2896 81.6629 28.2052 81.6334Z" fill="#273F39"/>
<path d="M45.6995 39.2576C47.171 38.8568 47.8469 36.5817 47.2091 34.1758C46.5714 31.77 44.8615 30.1446 43.39 30.5453C41.9185 30.9461 41.2426 33.2213 41.8804 35.6271C42.5181 38.033 44.228 39.6584 45.6995 39.2576Z" fill="#EAAC98"/>
<path opacity="0.37" d="M46.0465 32.8484C46.1186 32.7718 46.2052 32.7108 46.3012 32.6691C46.3972 32.6274 46.5006 32.606 46.605 32.606C46.7095 32.606 46.8128 32.6274 46.9088 32.6691C47.0048 32.7108 47.0915 32.7718 47.1635 32.8484C47.4375 33.1295 47.6326 33.4795 47.7288 33.8624C47.79 34.1011 47.8113 34.3486 47.7916 34.5945C47.7775 34.8176 47.6828 35.0277 47.5256 35.1845C47.3683 35.3414 47.1596 35.4341 46.9392 35.4448C46.2349 35.4857 45.5531 35.5448 44.9744 35.6039C44.8467 35.6182 44.7179 35.5923 44.6053 35.5295C44.4928 35.4668 44.4021 35.3704 44.3457 35.2535C44.2892 35.1366 44.2698 35.0049 44.29 34.8764C44.3102 34.7478 44.369 34.6287 44.4585 34.5354L46.0465 32.8484Z" fill="white"/>
<path d="M44.7631 39.9373L41.6677 40.3647L41.6318 37.25H44.7631V39.9373Z" fill="#EAAC98"/>
<path d="M55.1172 47.167L56.9519 48.672C57.4365 49.0678 58.0435 49.2772 58.6656 49.2632L68.0458 49.0313C68.0458 49.0313 69.1404 48.2265 70.0331 48.2265C70.9258 48.2265 71.9755 48.7312 71.9755 49.2859C71.9755 49.8406 71.9217 50.65 71.177 50.7455C70.4324 50.841 69.3378 50.6454 68.7905 50.7455C68.2432 50.8455 59.6435 53.8738 57.6518 53.8738C56.0144 53.8738 52.2686 51.2502 52.2686 51.2502L55.1172 47.167Z" fill="#EAAC98"/>
<path d="M60.5002 65.4145C58.3738 66.3966 59.2666 69.8751 60.2759 73.881C61.2853 77.8869 63.9634 83.5025 63.9634 83.5025C63.9634 83.5025 65.0804 83.3979 65.1387 82.6886C65.3765 79.633 64.6901 70.8982 64.9727 68.7793C65.3496 66.1693 64.9727 62.6954 62.5862 63.9776C61.9268 64.3323 61.0744 65.1508 60.5002 65.4145Z" fill="#16231F"/>
<path d="M42.3359 61.5585C42.3359 61.5585 43.1569 70.4433 49.684 70.4433C56.2111 70.4433 62.81 64.0775 62.662 65.8281C62.5139 67.5787 62.0025 69.5339 62.1282 72.2576C62.2538 74.9812 63.7431 81.5926 63.7431 81.5926L66.2912 81.0288C66.2912 81.0288 68.7674 67.5287 68.7674 64.8096C68.7674 62.0905 67.3902 59.4396 63.6579 59.4396C60.7913 59.4396 56.4803 60.158 54.65 60.4899C54.3972 60.5338 54.1372 60.4927 53.9096 60.3729C53.682 60.253 53.4993 60.061 53.3894 59.8261L52.6941 58.3438L42.3359 61.5585Z" fill="#3C635D"/>
<path d="M63.6084 80.9878L64.1288 84.9483C64.1368 85.0831 64.1743 85.2145 64.2387 85.3328C64.3031 85.4511 64.3927 85.5534 64.501 85.6322C64.6092 85.711 64.7334 85.7644 64.8646 85.7885C64.9958 85.8125 65.1306 85.8067 65.2592 85.7713L70.6783 84.5481C70.7603 84.528 70.835 84.4849 70.8938 84.4237C70.9527 84.3625 70.9934 84.2857 71.0112 84.2022C71.029 84.1186 71.0232 84.0317 70.9945 83.9513C70.9657 83.871 70.9153 83.8005 70.8488 83.7479C69.8621 82.955 68.6196 82.5628 67.3632 82.6475C67.2491 82.6641 67.1329 82.6576 67.0212 82.6283C66.9096 82.5991 66.8049 82.5476 66.7131 82.477C66.6213 82.4063 66.5442 82.3179 66.4864 82.2168C66.4286 82.1157 66.3911 82.004 66.3763 81.8881C66.2857 81.3565 66.304 80.8117 66.4301 80.2876L63.6084 80.9878Z" fill="#273F39"/>
<path d="M52.7437 59.499L42.6233 62.5455C42.4996 62.5835 42.3692 62.594 42.2411 62.5761C42.113 62.5583 41.9902 62.5127 41.8812 62.4423C41.7721 62.3719 41.6793 62.2785 41.6092 62.1683C41.5391 62.0582 41.4933 61.934 41.4749 61.8043C41.1295 59.4853 40.2951 53.7561 39.7523 49.5865C39.0525 44.2438 40.4521 41.1927 41.2865 40.3652C41.5786 40.062 41.9274 39.8209 42.3126 39.6562C42.6977 39.4914 43.1115 39.4063 43.5295 39.4058C44.2057 39.4401 44.8666 39.6216 45.4675 39.9378L56.014 46.8174L53.0757 52.7285L50.6892 51.6691C50.6892 51.6691 53.0084 55.8159 53.5333 58.2213C53.588 58.4962 53.5366 58.7819 53.3897 59.0196C53.2429 59.2573 53.0117 59.4289 52.7437 59.499Z" fill="#CDE298"/>
<path d="M21.6243 53.8101L26.2224 73.044L5.78871 78.2867L1.09636 58.6073C0.988797 58.1548 0.971079 57.6851 1.04424 57.2256C1.11741 56.7662 1.28 56.326 1.52254 55.9308C1.76508 55.5356 2.08272 55.1932 2.45701 54.9236C2.8313 54.654 3.25475 54.4625 3.70272 54.3603L17.5017 51.2093C18.388 51.0082 19.3169 51.1681 20.088 51.6546C20.8592 52.1411 21.4109 52.9152 21.6243 53.8101Z" fill="#FCC97E"/>
<path d="M8.99011 53.1941L12.0258 52.4939L12.7604 55.766C12.8132 56.0012 12.7716 56.248 12.6449 56.4521C12.5182 56.6562 12.3167 56.801 12.0846 56.8545L10.7724 57.1572C10.5404 57.2107 10.2969 57.1686 10.0955 57.0401C9.89407 56.9117 9.75127 56.7074 9.69847 56.4722L8.96387 53.2002L8.99011 53.1941Z" fill="#D8AB6F"/>
<path d="M44.7228 32.3349C45.0637 32.1803 46.1449 31.8802 46.1449 31.8802C46.3306 31.7763 46.4867 31.6256 46.5982 31.4427C46.7097 31.2598 46.7728 31.0508 46.7813 30.836C46.7899 30.6212 46.7437 30.4077 46.6471 30.2163C46.5506 30.0249 46.4069 29.8619 46.2301 29.7431C45.1717 29.113 43.9258 28.8873 42.7176 29.1065C40.3983 29.4612 38.6084 31.8347 38.6084 34.2992C38.6084 36.5727 41.1968 37.8004 42.1075 37.5776C43.3008 37.2866 43.7942 36.459 43.4847 35.004C43.3646 34.4828 43.4215 33.9358 43.6462 33.4514C43.8709 32.967 44.2502 32.5737 44.7228 32.3349Z" fill="#FAC42D"/>
<path d="M41.7979 36.6863C42.2365 36.6863 42.5919 36.326 42.5919 35.8815C42.5919 35.437 42.2365 35.0767 41.7979 35.0767C41.3594 35.0767 41.0039 35.437 41.0039 35.8815C41.0039 36.326 41.3594 36.6863 41.7979 36.6863Z" fill="#776945"/>
<path d="M70.3422 51.4005C70.9616 51.4005 71.4637 50.8915 71.4637 50.2637C71.4637 49.6359 70.9616 49.127 70.3422 49.127C69.7228 49.127 69.2207 49.6359 69.2207 50.2637C69.2207 50.8915 69.7228 51.4005 70.3422 51.4005Z" fill="#776945"/>
<path d="M41.9863 36.1313L45.4136 39.0096C45.56 39.1382 45.7494 39.2052 45.9429 39.1967C46.1365 39.1883 46.3195 39.1051 46.4544 38.9642" stroke="#776945" stroke-miterlimit="10" stroke-linecap="round"/>
</g>
<path d="M29.4222 139C29.4222 138.528 29.4222 138.074 29.4222 137.638C29.4222 137.202 29.4222 136.718 29.4222 136.186V133.306C29.4222 132.762 29.4222 132.268 29.4222 131.824C29.4222 131.38 29.4222 130.92 29.4222 130.444C29.7702 130.444 30.1162 130.444 30.4602 130.444C30.8082 130.444 31.1562 130.444 31.5042 130.444C31.8522 130.444 32.2082 130.444 32.5722 130.444C33.2282 130.444 33.8102 130.54 34.3182 130.732C34.8302 130.92 35.2622 131.198 35.6142 131.566C35.9662 131.93 36.2322 132.374 36.4122 132.898C36.5962 133.422 36.6882 134.02 36.6882 134.692C36.6882 135.296 36.6062 135.86 36.4422 136.384C36.2822 136.904 36.0262 137.36 35.6742 137.752C35.3262 138.144 34.8662 138.45 34.2942 138.67C33.7222 138.89 33.0262 139 32.2062 139C31.8502 139 31.5182 139 31.2102 139C30.9022 139 30.6022 139 30.3102 139C30.0222 139 29.7262 139 29.4222 139ZM30.8322 137.848H32.2122C32.9522 137.848 33.5422 137.71 33.9822 137.434C34.4222 137.158 34.7382 136.78 34.9302 136.3C35.1222 135.82 35.2182 135.276 35.2182 134.668C35.2182 134.204 35.1622 133.784 35.0502 133.408C34.9382 133.028 34.7642 132.704 34.5282 132.436C34.2922 132.164 33.9922 131.956 33.6282 131.812C33.2642 131.668 32.8302 131.596 32.3262 131.596H30.8322C30.8322 131.912 30.8322 132.23 30.8322 132.55C30.8322 132.866 30.8322 133.216 30.8322 133.6V135.88C30.8322 136.256 30.8322 136.602 30.8322 136.918C30.8322 137.23 30.8322 137.54 30.8322 137.848ZM40.8444 139.144C40.3324 139.144 39.8844 139.058 39.5004 138.886C39.1164 138.714 38.7944 138.482 38.5344 138.19C38.2784 137.894 38.0864 137.558 37.9584 137.182C37.8304 136.802 37.7664 136.404 37.7664 135.988C37.7664 135.392 37.8864 134.862 38.1264 134.398C38.3664 133.93 38.7144 133.562 39.1704 133.294C39.6264 133.022 40.1764 132.886 40.8204 132.886C41.3124 132.886 41.7484 132.964 42.1284 133.12C42.5084 133.276 42.8264 133.496 43.0824 133.78C43.3424 134.06 43.5384 134.388 43.6704 134.764C43.8024 135.14 43.8684 135.548 43.8684 135.988C43.8684 136.584 43.7484 137.12 43.5084 137.596C43.2684 138.072 42.9204 138.45 42.4644 138.73C42.0124 139.006 41.4724 139.144 40.8444 139.144ZM40.8384 138.064C41.2224 138.064 41.5424 137.966 41.7984 137.77C42.0544 137.57 42.2444 137.312 42.3684 136.996C42.4964 136.68 42.5604 136.344 42.5604 135.988C42.5604 135.576 42.4884 135.22 42.3444 134.92C42.2044 134.616 42.0044 134.382 41.7444 134.218C41.4884 134.05 41.1844 133.966 40.8324 133.966C40.4524 133.966 40.1304 134.056 39.8664 134.236C39.6064 134.412 39.4084 134.654 39.2724 134.962C39.1404 135.266 39.0744 135.608 39.0744 135.988C39.0744 136.344 39.1384 136.68 39.2664 136.996C39.3984 137.312 39.5944 137.57 39.8544 137.77C40.1184 137.966 40.4464 138.064 40.8384 138.064ZM45.3283 139C45.3283 138.564 45.3283 138.142 45.3283 137.734C45.3283 137.326 45.3283 136.876 45.3283 136.384V135.784C45.3283 135.34 45.3283 134.888 45.3283 134.428C45.3283 133.964 45.3283 133.5 45.3283 133.036L46.4263 132.964L46.4743 134.038H46.6003C46.7283 133.854 46.8863 133.674 47.0743 133.498C47.2623 133.322 47.4823 133.176 47.7343 133.06C47.9903 132.944 48.2803 132.886 48.6043 132.886C49.0843 132.886 49.4523 133.006 49.7083 133.246C49.9683 133.482 50.1383 133.822 50.2183 134.266L50.3023 134.296C50.3223 134.404 50.3363 134.518 50.3443 134.638C50.3563 134.754 50.3623 134.878 50.3623 135.01C50.3623 135.27 50.3623 135.506 50.3623 135.718C50.3623 135.926 50.3623 136.148 50.3623 136.384C50.3623 136.864 50.3623 137.312 50.3623 137.728C50.3623 138.14 50.3623 138.564 50.3623 139H49.0843C49.0843 138.564 49.0843 138.142 49.0843 137.734C49.0843 137.322 49.0843 136.894 49.0843 136.45V135.382C49.0843 134.95 49.0123 134.624 48.8683 134.404C48.7283 134.184 48.4723 134.074 48.1003 134.074C47.8803 134.074 47.6803 134.122 47.5003 134.218C47.3203 134.314 47.1563 134.442 47.0083 134.602C46.8603 134.758 46.7283 134.93 46.6123 135.118V136.45C46.6123 136.91 46.6123 137.342 46.6123 137.746C46.6123 138.146 46.6123 138.564 46.6123 139H45.3283ZM52.7983 139C52.7983 138.564 52.7983 138.142 52.7983 137.734C52.7983 137.322 52.7983 136.894 52.7983 136.45V135.382C52.7983 134.95 52.7263 134.624 52.5823 134.404C52.4423 134.184 52.1883 134.074 51.8203 134.074C51.6003 134.074 51.3983 134.122 51.2143 134.218C51.0343 134.31 50.8703 134.436 50.7223 134.596C50.5743 134.752 50.4403 134.926 50.3203 135.118L50.1343 134.056H50.2603C50.4003 133.868 50.5663 133.684 50.7583 133.504C50.9543 133.324 51.1823 133.176 51.4423 133.06C51.7023 132.944 51.9963 132.886 52.3243 132.886C52.9363 132.886 53.3823 133.07 53.6623 133.438C53.9423 133.806 54.0823 134.33 54.0823 135.01C54.0823 135.27 54.0823 135.506 54.0823 135.718C54.0823 135.926 54.0823 136.148 54.0823 136.384C54.0823 136.864 54.0823 137.312 54.0823 137.728C54.0823 138.14 54.0823 138.564 54.0823 139H52.7983ZM55.8171 139C55.8171 138.564 55.8171 138.142 55.8171 137.734C55.8171 137.326 55.8171 136.876 55.8171 136.384V135.784C55.8171 135.416 55.8171 135.078 55.8171 134.77C55.8171 134.462 55.8171 134.168 55.8171 133.888C55.8171 133.608 55.8171 133.324 55.8171 133.036L57.1011 132.994C57.1011 133.286 57.1011 133.574 57.1011 133.858C57.1011 134.142 57.1011 134.44 57.1011 134.752C57.1011 135.064 57.1011 135.408 57.1011 135.784V136.384C57.1011 136.876 57.1011 137.326 57.1011 137.734C57.1011 138.142 57.1011 138.564 57.1011 139H55.8171ZM56.4411 131.824C56.1851 131.824 55.9771 131.758 55.8171 131.626C55.6611 131.49 55.5831 131.278 55.5831 130.99C55.5831 130.722 55.6611 130.518 55.8171 130.378C55.9771 130.238 56.1891 130.168 56.4531 130.168C56.7211 130.168 56.9311 130.24 57.0831 130.384C57.2391 130.528 57.3171 130.73 57.3171 130.99C57.3171 131.278 57.2391 131.49 57.0831 131.626C56.9271 131.758 56.7131 131.824 56.4411 131.824ZM61.6569 139.12C61.0009 139.12 60.4429 138.986 59.9829 138.718C59.5269 138.446 59.1789 138.076 58.9389 137.608C58.6989 137.14 58.5789 136.61 58.5789 136.018C58.5789 135.422 58.6909 134.888 58.9149 134.416C59.1429 133.944 59.4769 133.572 59.9169 133.3C60.3609 133.028 60.9049 132.892 61.5489 132.892C61.7809 132.892 62.0109 132.912 62.2389 132.952C62.4709 132.988 62.6889 133.04 62.8929 133.108C63.0969 133.172 63.2769 133.248 63.4329 133.336L63.3249 134.476C63.1009 134.348 62.8909 134.25 62.6949 134.182C62.5029 134.114 62.3249 134.068 62.1609 134.044C61.9969 134.016 61.8469 134.002 61.7109 134.002C61.1589 134.002 60.7169 134.182 60.3849 134.542C60.0529 134.898 59.8869 135.38 59.8869 135.988C59.8869 136.38 59.9629 136.73 60.1149 137.038C60.2669 137.346 60.4929 137.59 60.7929 137.77C61.0969 137.95 61.4729 138.04 61.9209 138.04C62.0849 138.04 62.2489 138.026 62.4129 137.998C62.5769 137.966 62.7369 137.92 62.8929 137.86C63.0529 137.796 63.2069 137.716 63.3549 137.62L63.4449 138.766C63.3089 138.83 63.1529 138.89 62.9769 138.946C62.8009 138.998 62.6029 139.04 62.3829 139.072C62.1629 139.104 61.9209 139.12 61.6569 139.12ZM64.8875 139C64.8875 138.564 64.8875 138.142 64.8875 137.734C64.8875 137.326 64.8875 136.876 64.8875 136.384V135.784C64.8875 135.416 64.8875 135.078 64.8875 134.77C64.8875 134.462 64.8875 134.168 64.8875 133.888C64.8875 133.608 64.8875 133.324 64.8875 133.036L66.1715 132.994C66.1715 133.286 66.1715 133.574 66.1715 133.858C66.1715 134.142 66.1715 134.44 66.1715 134.752C66.1715 135.064 66.1715 135.408 66.1715 135.784V136.384C66.1715 136.876 66.1715 137.326 66.1715 137.734C66.1715 138.142 66.1715 138.564 66.1715 139H64.8875ZM65.5115 131.824C65.2555 131.824 65.0475 131.758 64.8875 131.626C64.7315 131.49 64.6535 131.278 64.6535 130.99C64.6535 130.722 64.7315 130.518 64.8875 130.378C65.0475 130.238 65.2595 130.168 65.5235 130.168C65.7915 130.168 66.0015 130.24 66.1535 130.384C66.3095 130.528 66.3875 130.73 66.3875 130.99C66.3875 131.278 66.3095 131.49 66.1535 131.626C65.9975 131.758 65.7835 131.824 65.5115 131.824ZM68.0392 139C68.0392 138.564 68.0392 138.142 68.0392 137.734C68.0392 137.326 68.0392 136.876 68.0392 136.384V133.078C68.0392 132.578 68.0392 132.09 68.0392 131.614C68.0392 131.138 68.0392 130.672 68.0392 130.216L69.3232 130.078C69.3232 130.558 69.3232 131.044 69.3232 131.536C69.3232 132.024 69.3232 132.538 69.3232 133.078V136.384C69.3232 136.876 69.3232 137.326 69.3232 137.734C69.3232 138.142 69.3232 138.564 69.3232 139H68.0392ZM71.1921 139C71.1921 138.564 71.1921 138.142 71.1921 137.734C71.1921 137.326 71.1921 136.876 71.1921 136.384V135.784C71.1921 135.416 71.1921 135.078 71.1921 134.77C71.1921 134.462 71.1921 134.168 71.1921 133.888C71.1921 133.608 71.1921 133.324 71.1921 133.036L72.4761 132.994C72.4761 133.286 72.4761 133.574 72.4761 133.858C72.4761 134.142 72.4761 134.44 72.4761 134.752C72.4761 135.064 72.4761 135.408 72.4761 135.784V136.384C72.4761 136.876 72.4761 137.326 72.4761 137.734C72.4761 138.142 72.4761 138.564 72.4761 139H71.1921ZM71.8161 131.824C71.5601 131.824 71.3521 131.758 71.1921 131.626C71.0361 131.49 70.9581 131.278 70.9581 130.99C70.9581 130.722 71.0361 130.518 71.1921 130.378C71.3521 130.238 71.5641 130.168 71.8281 130.168C72.0961 130.168 72.3061 130.24 72.4581 130.384C72.6141 130.528 72.6921 130.73 72.6921 130.99C72.6921 131.278 72.6141 131.49 72.4581 131.626C72.3021 131.758 72.0881 131.824 71.8161 131.824ZM77.0319 139.144C76.5199 139.144 76.0719 139.058 75.6879 138.886C75.3039 138.714 74.9819 138.482 74.7219 138.19C74.4659 137.894 74.2739 137.558 74.1459 137.182C74.0179 136.802 73.9539 136.404 73.9539 135.988C73.9539 135.392 74.0739 134.862 74.3139 134.398C74.5539 133.93 74.9019 133.562 75.3579 133.294C75.8139 133.022 76.3639 132.886 77.0079 132.886C77.4999 132.886 77.9359 132.964 78.3159 133.12C78.6959 133.276 79.0139 133.496 79.2699 133.78C79.5299 134.06 79.7259 134.388 79.8579 134.764C79.9899 135.14 80.0559 135.548 80.0559 135.988C80.0559 136.584 79.9359 137.12 79.6959 137.596C79.4559 138.072 79.1079 138.45 78.6519 138.73C78.1999 139.006 77.6599 139.144 77.0319 139.144ZM77.0259 138.064C77.4099 138.064 77.7299 137.966 77.9859 137.77C78.2419 137.57 78.4319 137.312 78.5559 136.996C78.6839 136.68 78.7479 136.344 78.7479 135.988C78.7479 135.576 78.6759 135.22 78.5319 134.92C78.3919 134.616 78.1919 134.382 77.9319 134.218C77.6759 134.05 77.3719 133.966 77.0199 133.966C76.6399 133.966 76.3179 134.056 76.0539 134.236C75.7939 134.412 75.5959 134.654 75.4599 134.962C75.3279 135.266 75.2619 135.608 75.2619 135.988C75.2619 136.344 75.3259 136.68 75.4539 136.996C75.5859 137.312 75.7819 137.57 76.0419 137.77C76.3059 137.966 76.6339 138.064 77.0259 138.064Z" fill="#3C3C3B"/>
<defs>
<clipPath id="clip0_505_7528">
<rect width="107" height="82" fill="white" transform="translate(1 28)"/>
</clipPath>
</defs>
</svg>
