<svg width="24" height="24" viewBox="0 0 24 24" fill="none" xmlns="http://www.w3.org/2000/svg">
<g clip-path="url(#clip0_591_1665)">
<path d="M24 11.4692C24 17.1931 19.6059 21.9385 13.8698 22.7995V14.8065H16.6589L17.19 11.4997H13.8698V9.35413C13.8698 8.44869 14.3339 7.56744 15.8198 7.56744H17.3292V4.75211C17.3292 4.75211 15.9591 4.5281 14.6498 4.5281C11.9161 4.5281 10.1302 6.11184 10.1302 8.97825V11.4988H7.09078V14.8056H10.1302V22.7987C4.395 21.9367 0 17.1922 0 11.4692C0 5.13516 5.37281 0 12 0C18.6272 0 24 5.13427 24 11.4692Z" fill="white"/>
</g>
<defs>
<clipPath id="clip0_591_1665">
<rect width="24" height="24" fill="white"/>
</clipPath>
</defs>
</svg>
