<svg width="400" height="476" viewBox="0 0 400 476" fill="none" xmlns="http://www.w3.org/2000/svg">
<path d="M171.519 410.771C215.019 410.771 250.283 404.829 250.283 397.5C250.283 390.171 215.019 384.229 171.519 384.229C128.019 384.229 92.7549 390.171 92.7549 397.5C92.7549 404.829 128.019 410.771 171.519 410.771Z" fill="#DBDACA"/>
<path d="M86.797 325.355C120.46 347.597 202.754 283.551 249.544 309.66C296.335 335.768 344.469 346.564 358.249 293.084C374.831 228.693 297.295 118.632 208.167 80.9238C75.7429 24.9169 -11.9257 134.978 73.1715 158.905C159.727 183.329 11.0655 275.589 86.797 325.355Z" fill="url(#paint0_linear_496_5918)"/>
<path d="M176.814 150.021H170.696V177.434H176.814V150.021Z" fill="#413A5C"/>
<path d="M205.837 146.358H199.719V177.409H205.837V146.358Z" fill="#413A5C"/>
<path d="M183.395 178.203L164.707 189.834C164.03 190.239 163.255 190.455 162.465 190.46C161.675 190.464 160.898 190.256 160.217 189.857C159.536 189.459 158.974 188.884 158.593 188.195C158.211 187.506 158.023 186.727 158.048 185.94C158.035 184.264 158.385 182.605 159.072 181.075C159.76 179.546 160.77 178.182 162.033 177.075L183.395 158.476V178.203Z" fill="#413A5C"/>
<path d="M194.423 180.764L213.111 192.395C213.789 192.801 214.563 193.017 215.353 193.021C216.143 193.025 216.92 192.817 217.601 192.419C218.283 192.02 218.844 191.446 219.225 190.757C219.607 190.067 219.795 189.288 219.77 188.501C219.783 186.825 219.433 185.166 218.746 183.637C218.058 182.107 217.048 180.743 215.785 179.637L194.423 161.038V180.764Z" fill="#413A5C"/>
<path d="M195.246 168.724H181.159V196.623H195.246V168.724Z" fill="#CE9789"/>
<path d="M238.741 292.924H115.351C114.288 292.924 113.268 293.345 112.516 294.094C111.764 294.844 111.341 295.86 111.341 296.92C111.341 297.98 111.764 298.997 112.516 299.746C113.268 300.496 114.288 300.917 115.351 300.917H130.775V395.476C130.775 396.013 130.989 396.528 131.37 396.907C131.751 397.287 132.267 397.5 132.806 397.5C133.344 397.5 133.861 397.287 134.242 396.907C134.623 396.528 134.837 396.013 134.837 395.476V300.917H156.378V395.476C156.378 396.013 156.592 396.528 156.973 396.907C157.354 397.287 157.871 397.5 158.409 397.5C158.948 397.5 159.464 397.287 159.845 396.907C160.226 396.528 160.44 396.013 160.44 395.476V300.917H207.611V395.476C207.611 396.013 207.825 396.528 208.206 396.907C208.587 397.287 209.104 397.5 209.642 397.5C210.181 397.5 210.697 397.287 211.078 396.907C211.459 396.528 211.673 396.013 211.673 395.476V300.917H219.385V395.476C219.385 396.013 219.598 396.528 219.979 396.907C220.36 397.287 220.876 397.5 221.415 397.5C221.953 397.5 222.471 397.287 222.852 396.907C223.233 396.528 223.446 396.013 223.446 395.476V300.917H238.869C239.933 300.917 240.954 300.496 241.706 299.746C242.458 298.997 242.88 297.98 242.88 296.92C242.88 295.86 242.458 294.844 241.706 294.094C240.954 293.345 239.933 292.924 238.869 292.924H238.741Z" fill="#273F39"/>
<path d="M249.923 252.446H115.222C113.007 252.446 111.212 254.236 111.212 256.443C111.212 258.65 113.007 260.439 115.222 260.439H249.923C252.138 260.439 253.933 258.65 253.933 256.443C253.933 254.236 252.138 252.446 249.923 252.446Z" fill="#5F9B54"/>
<path d="M133.346 370.344L132.266 377.108C132.276 377.503 132.2 377.895 132.045 378.259C131.89 378.622 131.658 378.949 131.366 379.216C131.074 379.483 130.728 379.684 130.351 379.807C129.974 379.929 129.575 379.97 129.181 379.926H128.924L124.245 379.003C120.694 378.444 117.057 378.869 113.732 380.233C113.279 380.417 112.898 380.742 112.646 381.159C112.394 381.576 112.285 382.064 112.334 382.548C112.383 383.033 112.589 383.488 112.92 383.847C113.251 384.205 113.689 384.447 114.169 384.537L131.881 387.56C134.631 388.047 136.174 386.202 136.534 383.435L140.955 370.626L133.346 370.344Z" fill="#EAAC98"/>
<path d="M128.461 380.797C128.249 380.327 127.94 379.906 127.554 379.562C127.169 379.217 126.716 378.957 126.224 378.799C122.174 378.382 118.084 378.633 114.116 379.542C113.779 379.521 113.441 379.568 113.121 379.678C112.801 379.788 112.507 379.96 112.254 380.183C112.001 380.407 111.794 380.678 111.646 380.981C111.498 381.284 111.412 381.613 111.391 381.95C111.371 382.286 111.418 382.623 111.528 382.942C111.639 383.26 111.811 383.554 112.035 383.806C112.26 384.059 112.532 384.264 112.836 384.411C113.14 384.559 113.47 384.645 113.808 384.665L132.034 387.919C132.679 387.999 133.332 387.941 133.952 387.75C134.572 387.558 135.145 387.238 135.632 386.809C136.118 386.38 136.508 385.853 136.774 385.262C137.04 384.672 137.177 384.032 137.175 383.384C137.355 381.924 137.869 379.49 136.892 380.387C135.915 381.284 135.118 383.846 131.751 383.231C131.052 383.102 130.393 382.816 129.823 382.394C129.252 381.972 128.786 381.426 128.461 380.797Z" fill="#4E4D61"/>
<path d="M190.233 366.015L192.522 375.724C193.034 377.767 194.231 379.575 195.914 380.848L204.526 387.33C205.379 387.982 206.443 388.298 207.515 388.218C208.587 388.137 209.591 387.666 210.337 386.894C211.124 386.078 211.563 384.99 211.563 383.858C211.563 382.726 211.124 381.639 210.337 380.823L201.544 371.548L195.941 361.301L190.233 366.015Z" fill="#EAAC98"/>
<path d="M210.464 380.925L206.068 376.262L207.174 379.26C207.38 379.811 207.401 380.414 207.237 380.979C207.072 381.544 206.73 382.041 206.26 382.397C205.79 382.753 205.219 382.949 204.628 382.956C204.038 382.963 203.461 382.781 202.983 382.436L195.992 377.466C194.988 376.845 194.115 376.036 193.421 375.084C192.147 372.147 191.107 369.114 190.311 366.015L192.598 375.724C193.11 377.767 194.308 379.575 195.992 380.848L204.603 387.33C205.47 388.07 206.594 388.442 207.733 388.367C208.872 388.293 209.935 387.777 210.697 386.93C211.46 386.083 211.859 384.973 211.811 383.836C211.762 382.7 211.271 381.627 210.439 380.848L210.464 380.925Z" fill="#4E4D61"/>
<path d="M194.809 370.344C186.506 370.703 173.447 343.367 165.633 328.38C157.407 312.574 152.78 297.202 147.407 283.445L178.459 275.503C177.708 286.009 177.992 296.563 179.308 307.014C181.873 326.751 188.042 345.853 197.508 363.376C198.02 364.287 198.239 365.332 198.138 366.372C198.037 367.411 197.621 368.395 196.943 369.191C196.684 369.517 196.361 369.787 195.994 369.986C195.628 370.184 195.225 370.306 194.809 370.344Z" fill="#355650"/>
<path d="M166.943 293.052H193.267C198.665 293.045 203.839 290.905 207.655 287.102C211.472 283.298 213.62 278.141 213.626 272.762V260.439H160.44C153.317 260.425 146.475 263.213 141.402 268.197C136.328 273.181 133.434 279.958 133.346 287.057L132.291 370.805C132.285 371.341 132.385 371.873 132.586 372.37C132.787 372.867 133.085 373.319 133.462 373.701C133.84 374.082 134.291 374.385 134.787 374.591C135.283 374.798 135.815 374.904 136.353 374.904C137.165 374.906 137.96 374.663 138.63 374.205C139.3 373.748 139.815 373.098 140.106 372.343C149.326 349.493 155.38 325.498 158.101 301.019C158.334 298.84 159.365 296.824 160.996 295.354C162.627 293.884 164.744 293.065 166.943 293.052Z" fill="#3C635D"/>
<path d="M180.156 293.052C175.509 293.905 170.813 294.461 166.095 294.717C164.125 295.198 162.37 296.317 161.105 297.897C159.84 299.478 159.135 301.432 159.103 303.453C156.532 314.598 155.941 314.572 156.301 303.12C156.035 300.347 156.85 297.578 158.578 295.389C160.306 293.199 162.814 291.757 165.581 291.361C170.49 291.33 175.385 291.897 180.156 293.052Z" fill="#273F39"/>
<path d="M155.633 208.945C155.633 208.945 139.593 228.416 139.593 241.2H158.203L166.739 217.553L155.633 208.945Z" fill="#CE9789"/>
<path d="M220.927 210.892C220.927 210.892 237.379 230.004 237.687 242.762L219.077 243.197L208.613 219.782L220.927 210.892Z" fill="#CE9789"/>
<path d="M195.323 178.92C195.178 178.916 195.035 178.941 194.899 178.994C194.764 179.046 194.64 179.124 194.535 179.224C194.43 179.324 194.345 179.444 194.287 179.576C194.228 179.708 194.196 179.851 194.193 179.996C194.195 181.354 193.697 182.667 192.792 183.682C191.886 184.698 190.636 185.346 189.282 185.504H188.203H187.123C185.769 185.346 184.521 184.698 183.615 183.682C182.71 182.667 182.21 181.354 182.213 179.996C182.213 179.852 182.185 179.71 182.129 179.578C182.073 179.446 181.991 179.326 181.888 179.226C181.785 179.125 181.663 179.047 181.529 178.994C181.395 178.942 181.252 178.916 181.108 178.92C158.667 180.175 144.889 218.655 144.889 218.655L162.548 226.955V252.574H213.961V226.878L231.621 218.578C231.621 218.578 217.739 180.175 195.323 178.92Z" fill="#CDE298"/>
<path d="M186.789 211.789C188.948 209.611 192.804 210.892 194.5 212.711C207.354 224.573 216.376 228.082 232.597 235.947C233.599 236.362 234.508 236.973 235.267 237.746C236.025 238.519 236.619 239.437 237.013 240.444C237.406 241.452 237.592 242.528 237.557 243.609C237.523 244.69 237.27 245.752 236.813 246.733C235.656 248.649 233.799 250.042 231.632 250.62C229.464 251.198 227.156 250.916 225.194 249.833C209.024 240.841 198.768 233.693 186.634 219.859C185.699 218.713 185.201 217.273 185.23 215.796C185.258 214.318 185.81 212.899 186.789 211.789Z" fill="#EAAC98"/>
<path d="M188.202 146.23H188.023C171.134 146.23 173.036 157.067 175.015 163.01C176.995 168.954 181.853 175.205 188.048 175.333H188.177C194.372 175.333 199.23 168.903 201.21 163.01C203.189 157.118 205.091 146.332 188.202 146.23Z" fill="#EAAC98"/>
<path d="M191.955 138.365C192.855 143.489 192.753 150.432 189.514 152.763C181.494 158.527 170.696 159.706 170.696 150.355C170.696 141.004 178.949 131.038 184.682 131.038C188.769 131.038 191.004 133.036 191.955 138.365Z" fill="#413A5C"/>
<path d="M189.617 135.854C188.976 137.397 188.669 139.058 188.718 140.727C188.767 142.396 189.169 144.035 189.899 145.538C191.043 148.168 192.996 150.366 195.477 151.815C200.233 154.377 205.297 154.659 205.76 148.613C206.479 138.211 201.287 134.42 196.583 133.011C193.164 132.088 191.056 132.729 189.617 135.854Z" fill="#413A5C"/>
<path d="M174.784 161.114C174.784 161.114 172.213 158.22 171.647 160.346C171.481 161.215 171.503 162.11 171.713 162.97C171.922 163.83 172.314 164.636 172.862 165.332C173.41 166.029 174.101 166.601 174.89 167.009C175.678 167.417 176.544 167.652 177.431 167.699" fill="#EAAC98"/>
<path d="M201.442 161.114C201.442 161.114 204.013 158.22 204.604 160.346C204.762 161.216 204.732 162.11 204.518 162.969C204.303 163.827 203.908 164.63 203.359 165.325C202.81 166.02 202.119 166.591 201.332 167C200.545 167.409 199.68 167.647 198.794 167.699" fill="#EAAC98"/>
<path d="M193.524 196.802H183.858C181.573 196.802 179.72 198.648 179.72 200.926V226.853C179.72 229.131 181.573 230.977 183.858 230.977H193.524C195.81 230.977 197.663 229.131 197.663 226.853V200.926C197.663 198.648 195.81 196.802 193.524 196.802Z" fill="#413A5C"/>
<path d="M196.557 207.177C194.526 204.872 190.593 205.948 188.845 207.638C175.666 218.258 160.927 226.795 145.144 232.95C144.122 233.309 143.182 233.869 142.382 234.598C141.581 235.327 140.936 236.209 140.485 237.192C140.034 238.174 139.786 239.238 139.756 240.318C139.726 241.398 139.915 242.473 140.312 243.479C141.361 245.459 143.137 246.957 145.27 247.659C147.403 248.361 149.726 248.213 151.752 247.245C168.312 239.232 183.343 228.404 196.172 215.247C197.184 214.165 197.778 212.76 197.849 211.283C197.919 209.805 197.461 208.35 196.557 207.177Z" fill="#EAAC98"/>
<defs>
<linearGradient id="paint0_linear_496_5918" x1="199.992" y1="331.366" x2="199.992" y2="65.3429" gradientUnits="userSpaceOnUse">
<stop stop-color="white"/>
<stop offset="1" stop-color="white"/>
</linearGradient>
</defs>
</svg>
