<svg width="350" height="219" viewBox="0 0 350 219" fill="none" xmlns="http://www.w3.org/2000/svg">
<path d="M176.943 63.0787C211.109 1.76499 88.7435 10.175 44.1377 67.7058C7.35208 115.157 6.50429 164.754 46.2383 206.226C48.5371 208.626 50.9224 210.89 53.3942 213.018H180.208C194.26 213.018 201.777 196.388 192.489 185.808C175.114 166.049 131.167 145.116 176.943 63.0787Z" fill="url(#paint0_linear_496_5712)"/>
<path d="M214.861 5.45928C248.597 -9.25981 303.219 12.4412 321.593 59.0548C339.125 103.536 322.858 141.435 279.657 166.322C227.243 196.477 143.726 152.301 181.005 107.408C245.782 29.3818 167.687 26.0432 214.861 5.45928Z" fill="url(#paint1_linear_496_5712)"/>
<path d="M58.247 218.102C90.416 218.102 116.494 215.823 116.494 213.012C116.494 210.2 90.416 207.921 58.247 207.921C26.0781 207.921 0 210.2 0 213.012C0 215.823 26.0781 218.102 58.247 218.102Z" fill="#DBDACA"/>
<path d="M159.448 218.102C178.653 218.102 194.222 215.823 194.222 213.012C194.222 210.2 178.653 207.921 159.448 207.921C140.243 207.921 124.675 210.2 124.675 213.012C124.675 215.823 140.243 218.102 159.448 218.102Z" fill="#DBDACA"/>
<path d="M284.269 218.102C320.512 218.102 349.893 215.823 349.893 213.012C349.893 210.2 320.512 207.921 284.269 207.921C248.026 207.921 218.645 210.2 218.645 213.012C218.645 215.823 248.026 218.102 284.269 218.102Z" fill="#DBDACA"/>
<path d="M152.818 132.403C152.818 132.403 176.228 135.926 184.802 133.952C184.7 137.627 183.207 154.402 182.334 163.961C181.924 168.448 182.004 172.967 182.574 177.436L186.371 207.122H182.005L171.812 178.426C170.755 175.322 169.944 172.138 169.389 168.905L166.82 154.224L158.335 168.049C156.059 171.755 154.374 175.797 153.343 180.026L146.763 207.128H142.41L143.676 176.884C143.778 174.445 144.093 172.019 144.618 169.635L152.818 132.403Z" fill="#3C635D"/>
<path d="M185.048 132.092C185.048 132.092 183.473 138.553 168.117 139.499C152.761 140.445 150.173 138.179 153.805 130.213C156.273 124.811 185.048 132.092 185.048 132.092Z" fill="#273F39"/>
<path d="M146.928 99.0041C146.928 99.0041 133.407 99.0041 132.306 96.4652C131.243 94.0343 132.717 87.1476 137.368 82.3936C139.576 82.3936 142.67 85.802 142.67 85.802C142.67 85.802 140.772 89.9213 141.689 89.9213C143.056 89.9213 147.523 89.7626 147.523 89.7626L146.928 99.0041Z" fill="#EAAC98"/>
<path d="M145.308 89.8257L140.05 98.6736C143.568 98.9846 146.94 98.9846 146.94 98.9846L147.516 89.7495L145.308 89.8257Z" fill="#CE978A"/>
<path d="M250.046 62.7792L233.066 65.5503L237.041 90.0582L254.021 87.2871L250.046 62.7792Z" fill="#5F9B54"/>
<path d="M234.696 66.6903L237.373 83.212L245.87 64.8623L234.696 66.6903Z" fill="#E5E9F2"/>
<path d="M245.87 64.8623L237.373 83.212L238.24 88.5563L252.375 86.2459L248.831 64.3799L245.87 64.8623Z" fill="#F2F3F7"/>
<path d="M243.238 62.9774L242.548 62.6093C242.231 62.4394 241.866 62.3792 241.511 62.4379L241.024 62.5141C240.669 62.5759 240.343 62.7493 240.094 63.0092L239.556 63.5804C239.417 63.7274 239.235 63.8254 239.037 63.8597C238.892 63.8832 238.761 63.9628 238.674 64.0814C238.586 64.2 238.549 64.3482 238.569 64.4944L238.74 65.5353C238.763 65.6853 238.817 65.829 238.896 65.9582C238.976 66.0874 239.08 66.1995 239.203 66.2881C239.326 66.3766 239.465 66.4398 239.612 66.474C239.76 66.5082 239.913 66.5128 240.062 66.4874L243.681 65.8971C243.982 65.8488 244.252 65.6826 244.431 65.4351C244.61 65.1877 244.684 64.879 244.636 64.5769L244.466 63.5296C244.441 63.3851 244.361 63.256 244.243 63.1695C244.125 63.0831 243.978 63.046 243.833 63.0663C243.63 63.1072 243.42 63.0757 243.238 62.9774Z" fill="#3F4C3D"/>
<path d="M241.536 65.015C242.025 65.015 242.422 64.6172 242.422 64.1264C242.422 63.6356 242.025 63.2378 241.536 63.2378C241.047 63.2378 240.65 63.6356 240.65 64.1264C240.65 64.6172 241.047 65.015 241.536 65.015Z" fill="white"/>
<path d="M199.423 107.058C199.423 107.058 213.659 110.562 216.816 108.963C222.232 106.265 237.063 81.2763 237.063 81.2763L236.696 78.8199C236.696 78.8199 236.512 76.5667 239.796 77.0046C240.979 77.1633 238.417 75.2782 236.348 76.6492C234.677 77.7536 212.235 99.2705 212.235 99.2705C212.235 99.2705 206.345 96.5793 203.377 96.3698L199.423 107.058Z" fill="#EAAC98"/>
<path d="M203.352 96.4014L199.461 107.058C199.461 107.058 202.359 107.769 205.826 108.41L206.395 97.0678C205.394 96.7902 204.378 96.5677 203.352 96.4014Z" fill="#CE978A"/>
<path d="M142.435 207.122H146.788V211.895C146.788 212.193 146.67 212.478 146.46 212.689C146.25 212.9 145.965 213.018 145.668 213.018H136.298C136.178 213.021 136.061 212.984 135.965 212.912C135.869 212.84 135.801 212.738 135.77 212.622C135.739 212.506 135.748 212.383 135.796 212.273C135.844 212.163 135.927 212.072 136.032 212.015C137.65 211.066 139.475 210.53 141.347 210.454C141.492 210.452 141.635 210.422 141.767 210.365C141.9 210.308 142.021 210.225 142.122 210.121C142.223 210.018 142.303 209.895 142.356 209.76C142.41 209.626 142.437 209.482 142.435 209.337V207.122Z" fill="#0E1614"/>
<path d="M182.005 207.122H186.358V211.895C186.358 212.193 186.24 212.478 186.03 212.689C185.82 212.9 185.535 213.018 185.238 213.018H175.867C175.748 213.021 175.63 212.984 175.535 212.912C175.439 212.84 175.37 212.738 175.339 212.622C175.308 212.506 175.318 212.383 175.365 212.273C175.413 212.163 175.496 212.072 175.602 212.015C177.219 211.066 179.044 210.53 180.916 210.454C181.208 210.449 181.486 210.329 181.689 210.12C181.893 209.91 182.006 209.629 182.005 209.337V207.122Z" fill="#0E1614"/>
<path d="M166.282 51.9966L140.404 52.9804L130.724 78.1342L157.898 83.066L166.313 52.0156L166.282 51.9966Z" fill="#F9C980"/>
<path d="M166.313 52.0161L157.898 83.0665L175.684 86.2972L184.206 62.654L166.313 52.0161Z" fill="#F29E38"/>
<path d="M144.257 68.4548L150.451 68.2073L155.57 52.3774L149.591 52.6059L144.257 68.4548Z" fill="#F3F5F7"/>
<path d="M130.724 78.1346L161.315 97.7601L175.684 86.2971L159.759 76.3066L130.724 78.1346Z" fill="#E08F36"/>
<path d="M182.061 79.499H173.994V91.6666H182.061V79.499Z" fill="#CE978A"/>
<path d="M172.356 68.0298C172.217 68.1186 171.312 70.3465 171.768 71.4763C172.104 72.4516 172.777 73.2736 173.666 73.793C174.387 74.1104 175.722 70.283 175.488 69.5214C175.254 68.7597 172.356 68.0298 172.356 68.0298Z" fill="#382B32"/>
<path d="M186.984 71.2987C187.073 71.4383 186.984 73.8375 186.086 74.669C185.37 75.4173 184.407 75.8796 183.378 75.9702C182.587 75.9702 182.973 71.9207 183.498 71.3304C184.023 70.7401 186.984 71.2987 186.984 71.2987Z" fill="#382B32"/>
<path d="M186.687 73.5262C186.098 73.3866 185.263 74.0404 184.902 74.3577C184.902 71.0699 184.58 65.7065 178.911 65.7065C174.191 65.7065 173.216 69.4133 172.976 72.5488C172.721 72.2375 172.36 72.0317 171.963 71.9712C171.173 71.9712 170.065 74.9226 173.963 79.2514C175.032 81.7903 176.829 84.0562 178.911 84.0562C180.853 84.0562 182.549 82.0505 183.631 79.7402C187.806 76.5856 187.421 73.704 186.687 73.5262Z" fill="#EAAC98"/>
<path d="M179.474 61.2065C181.923 61.4985 187.067 62.476 187.067 67.8203V71.5461L171.939 68.1186C171.939 68.1186 171.445 60.2862 179.474 61.2065Z" fill="#FAC42D"/>
<path d="M187.01 71.5459C184.461 72.2424 181.813 72.5042 179.177 72.3203C175.096 71.9712 171.882 68.1184 171.882 68.1184C171.882 68.1184 173.685 65.2876 178.709 65.2876C183.732 65.2876 187.067 70.7715 187.01 71.5459Z" fill="#F9DE7A"/>
<path d="M166.845 154.211L164.669 142.253L158.354 168.036L166.845 154.211Z" fill="#273F39"/>
<path d="M155.539 138.293C156.756 137.528 157.705 136.401 158.253 135.069C158.265 135.029 158.27 134.987 158.266 134.946C158.263 134.904 158.251 134.864 158.231 134.828C158.212 134.791 158.185 134.759 158.153 134.732C158.121 134.706 158.084 134.687 158.044 134.675C158.005 134.662 157.964 134.657 157.923 134.661C157.882 134.664 157.842 134.675 157.806 134.694C157.769 134.713 157.737 134.739 157.71 134.771C157.684 134.802 157.664 134.839 157.652 134.878C157.135 136.073 156.27 137.084 155.172 137.779C154.645 138.159 154.042 138.419 153.405 138.539C152.767 138.66 152.111 138.639 151.483 138.477L151.344 139.112C151.745 139.211 152.158 139.26 152.571 139.258C153.636 139.254 154.674 138.917 155.539 138.293Z" fill="#65A599"/>
<path d="M174.88 138.629C174.715 138.543 174.572 138.42 174.462 138.269C174.353 138.118 174.279 137.944 174.248 137.76C174.271 137.149 174.514 136.568 174.931 136.122C174.975 136.06 174.995 135.984 174.988 135.907C174.98 135.831 174.946 135.76 174.89 135.708C174.835 135.655 174.762 135.624 174.686 135.621C174.61 135.618 174.535 135.643 174.475 135.691C173.923 136.267 173.617 137.037 173.621 137.836C173.661 138.112 173.765 138.376 173.923 138.606C174.081 138.836 174.289 139.026 174.532 139.163C175.949 140.077 178.961 140.495 181.808 140.495C182.688 140.495 183.555 140.451 184.339 140.369C184.339 140.159 184.339 139.943 184.39 139.734C181.112 140.064 176.614 139.747 174.88 138.629Z" fill="#65A599"/>
<path d="M187.99 106.049C192.343 107.173 200.929 108.201 200.929 108.201L205.826 95.7352C205.826 95.7352 198.082 89.1151 182.967 87.0459C182.544 86.9881 182.115 87.085 181.758 87.3189C179.113 89.1152 176.064 89.6928 174.014 86.6842C173.839 86.4346 173.583 86.2541 173.289 86.1741C172.996 86.0942 172.683 86.1197 172.407 86.2462L154.394 90.6893L146.504 89.2992L145.238 100.242C145.238 100.242 154.387 101.511 158.702 101.403C158.108 105.002 152.306 119.283 152.337 132.181C152.342 132.76 152.555 133.319 152.935 133.754C153.316 134.19 153.84 134.474 154.413 134.555C165.08 136.129 174.28 138.001 185.883 135.304L187.99 106.049Z" fill="#CDE298"/>
<path d="M158.886 131.197C151.616 125.611 160.512 102.781 161.796 99.9878C162.151 99.2261 161.239 98.4137 160.588 98.9405C159.042 100.162 157.218 100.978 155.279 101.314C156.545 101.397 157.753 101.441 158.715 101.416C158.082 105.129 151.958 120.184 152.388 133.38C152.399 133.634 152.498 133.875 152.668 134.063C152.837 134.251 153.068 134.373 153.318 134.409C161.632 135.602 172.299 137.614 181.48 136.148C165.555 134.332 160.784 132.644 158.886 131.197Z" fill="#B0BF82"/>
<path d="M101.347 107.884H65.3076V151.172H101.347V107.884Z" fill="#F9C980"/>
<path d="M101.36 107.89V151.165L89.4014 151.064L97.5 107.903L101.36 107.89Z" fill="#FCB666"/>
<path d="M86.6111 107.884H80.1006V111.591H86.6111V107.884Z" fill="white"/>
<path d="M101.353 107.884H65.3076V108.664H101.353V107.884Z" fill="#DBB17B"/>
<path d="M45.6685 172.745H12.1982V213.012H45.6685V172.745Z" fill="#F9C980"/>
<path d="M45.6688 172.745H38.7217V213.012H45.6688V172.745Z" fill="#FCB666"/>
<path d="M31.7304 172.745H26.1436V176.617H31.7304V172.745Z" fill="white"/>
<path d="M45.6685 172.745H12.1982V173.526H45.6685V172.745Z" fill="#DBB17B"/>
<path d="M60.3287 133.634H21.3477V172.746H60.3287V133.634Z" fill="#F9C980"/>
<path d="M43.7705 133.634H36.1211V138.56H43.7705V133.634Z" fill="white"/>
<path d="M60.3288 150.264H42.8408V172.752H60.3288V150.264Z" fill="#FCB666"/>
<path d="M60.3414 133.634H21.3477V134.415H60.3414V133.634Z" fill="#DBB17B"/>
<path d="M107.946 151.171H45.6689V213.012H107.946V151.171Z" fill="#F9C980"/>
<path d="M107.978 151.171V213.018H86.0234L96.9629 151.171H107.978Z" fill="#FCB666"/>
<path d="M83.3341 151.171H73.9004V158.35H83.3341V151.171Z" fill="white"/>
<path d="M107.952 151.171H45.6621V151.952H107.952V151.171Z" fill="#DBB17B"/>
<path d="M90.6921 91.6409C90.2857 91.5811 89.8754 91.5514 89.4646 91.5521C90.8009 88.8814 91.1742 85.8291 90.5213 82.9136C86.725 84.183 84.2575 87.547 82.7643 90.5619C81.4546 87.547 79.4046 85.3699 78.2087 84.7796C76.5194 86.798 76.7535 89.8574 77.1142 91.7235C76.1757 91.3265 75.1652 91.1297 74.1468 91.1458C72.8509 91.1853 71.5771 91.4933 70.4055 92.0504C69.2339 92.6075 68.1898 93.4016 67.3389 94.3829C69.8842 93.7704 72.5378 93.7704 75.0832 94.3829C77.652 94.878 79.6134 99.3083 79.6134 99.3083V99.2385L82.0303 99.2766V99.3083H86.7124C86.7124 99.3083 87.2059 96.5282 89.1546 96.3061C91.5589 96.0395 93.9948 101.346 94.9945 103.034C96.1903 99.0798 94.7984 92.1995 90.6921 91.6409Z" fill="#87C796"/>
<path d="M80.7715 96.1791C81.1891 90.5619 84.6057 84.0434 90.5404 82.9136C85.4788 85.7254 82.948 91.0633 80.7715 96.1791Z" fill="#78AF7E"/>
<path d="M79.6075 99.2386C78.2831 97.0345 77.2574 94.663 76.5579 92.1869C76.039 89.7115 76.1339 86.5189 78.2092 84.7798C75.9188 89.5719 79.0318 94.4275 79.6075 99.2386Z" fill="#78AF7E"/>
<path d="M82.0367 99.3088C81.9988 96.0463 83.802 92.1492 87.2692 91.2415C89.547 90.6068 92.4195 90.8607 93.8557 92.8981C94.8124 94.3105 95.4252 95.9284 95.645 97.6217C95.8648 99.315 95.6854 101.036 95.1211 102.647C95.3932 99.4738 94.8743 96.1288 92.9383 93.6598C91.6728 92.0032 89.4141 91.9778 87.5982 92.3904C84.4347 93.133 82.8276 96.2621 82.0494 99.3024L82.0367 99.3088Z" fill="#78AF7E"/>
<path d="M86.5735 98.896H79.7656C79.5772 98.8953 79.3907 98.934 79.2181 99.0096C79.0454 99.0853 78.8905 99.1963 78.763 99.3355C78.6356 99.4747 78.5385 99.639 78.478 99.818C78.4175 99.997 78.3949 100.187 78.4116 100.375L78.9304 106.43C78.9553 106.752 79.0945 107.053 79.3227 107.281L79.5315 107.49C79.7877 107.744 80.1329 107.888 80.4932 107.89H81.0689L86.9088 98.9404C86.7992 98.9124 86.6867 98.8975 86.5735 98.896Z" fill="#A7ACB7"/>
<path d="M86.9082 98.9404L81.0684 107.89H85.8327C86.193 107.888 86.5382 107.744 86.7944 107.49L87.0032 107.281C87.2313 107.053 87.3705 106.752 87.3954 106.43L87.9143 100.375C87.9414 100.055 87.8554 99.7364 87.6714 99.474C87.4874 99.2117 87.2172 99.0228 86.9082 98.9404Z" fill="#DDE4F6"/>
<path d="M279.707 149.312H229.989V213.012H279.707V149.312Z" fill="#F9C980"/>
<path d="M279.707 149.318V213.018H257.752L268.685 149.318H279.707Z" fill="#FCB666"/>
<path d="M259.562 149.312H250.128V156.49H259.562V149.312Z" fill="white"/>
<path d="M279.714 148.531H229.989V149.311H279.714V148.531Z" fill="#DBB17B"/>
<path d="M279.707 121.416H243.301V148.531H279.707V121.416Z" fill="#F9C980"/>
<path d="M279.714 148.531H273.665L279.714 126.976V148.531Z" fill="#FCB666"/>
<path d="M263.864 121.416H259.15V125.497H263.864V121.416Z" fill="white"/>
<path d="M279.707 121.416H243.301V122.197H279.707V121.416Z" fill="#DBB17B"/>
<path d="M344.547 176.382H279.714V213.018H344.547V176.382Z" fill="#F9C980"/>
<path d="M316.848 176.382H307.414V183.561H316.848V176.382Z" fill="white"/>
<path d="M344.547 176.382H279.714V177.163H344.547V176.382Z" fill="#DBB17B"/>
<path d="M316.113 135.068H279.707V176.427H316.113V135.068Z" fill="#F9C980"/>
<path d="M300.263 135.068H295.55V139.15H300.263V135.068Z" fill="white"/>
<path d="M316.113 135.068H279.707V135.849H316.113V135.068Z" fill="#DBB17B"/>
<defs>
<linearGradient id="paint0_linear_496_5712" x1="106.51" y1="213.018" x2="106.51" y2="20.6923" gradientUnits="userSpaceOnUse">
<stop stop-color="#FCFCED"/>
<stop offset="1" stop-color="#DBE2CB"/>
</linearGradient>
<linearGradient id="paint1_linear_496_5712" x1="250.128" y1="176.217" x2="250.128" y2="0.895661" gradientUnits="userSpaceOnUse">
<stop stop-color="#FCFCED"/>
<stop offset="1" stop-color="#DBE2CB"/>
</linearGradient>
</defs>
</svg>
