<svg width="106" height="54" viewBox="0 0 106 54" fill="none" xmlns="http://www.w3.org/2000/svg">
<path d="M101.251 41.5347L101.723 21.1424L89.5897 15.5516L76.6482 0.0361328H56.1367V41.5583L101.251 41.5347Z" fill="#3C635D"/>
<path d="M73.5077 2.53906H59.2134C59.0033 2.53906 58.833 2.70841 58.833 2.9173V15.1571C58.833 15.366 59.0033 15.5353 59.2134 15.5353H73.5077C73.7178 15.5353 73.8881 15.366 73.8881 15.1571V2.9173C73.8881 2.70841 73.7178 2.53906 73.5077 2.53906Z" fill="white"/>
<path d="M76.0708 3.67956L84.7011 14.9273C84.8921 15.1763 84.7138 15.534 84.3992 15.534H75.7681C75.5581 15.534 75.3877 15.3646 75.3877 15.1558V3.90807C75.3877 3.54639 75.8489 3.39116 76.07 3.67877L76.0708 3.67956Z" fill="white"/>
<mask id="mask0_505_7042" style="mask-type:alpha" maskUnits="userSpaceOnUse" x="59" y="2" width="27" height="14">
<path d="M74.4862 2.55273H60.1919C59.9818 2.55273 59.8115 2.72208 59.8115 2.93097V15.1708C59.8115 15.3797 59.9818 15.549 60.1919 15.549H74.4862C74.6963 15.549 74.8666 15.3797 74.8666 15.1708V2.93097C74.8666 2.72208 74.6963 2.55273 74.4862 2.55273Z" fill="white"/>
<path d="M77.0493 3.69421L85.6797 14.9419C85.8707 15.1909 85.6923 15.5487 85.3777 15.5487H76.7466C76.5366 15.5487 76.3662 15.3793 76.3662 15.1704V3.92272C76.3662 3.56103 76.8274 3.40581 77.0486 3.69342L77.0493 3.69421Z" fill="white"/>
</mask>
<g mask="url(#mask0_505_7042)">
<path d="M65.6868 11.2878C65.6868 11.2878 66.4698 10.2334 66.7186 9.72203C66.7186 9.72203 68.6658 9.69997 68.8275 9.50297C68.9891 9.30598 69.616 7.62205 69.2832 6.83485C68.9503 6.04765 68.1332 4.47168 68.1332 4.47168C68.1332 4.47168 65.7256 5.02642 64.0986 6.76393C64.0986 6.76393 65.09 8.00658 64.2365 10.079L65.6892 11.2886L65.6868 11.2878Z" fill="#F9AD8C"/>
<path d="M68.7906 6.28742L66.8363 7.3977L64.5459 7.95164L64.5689 8.1455L66.8149 7.75622C66.8149 7.75622 66.9694 8.32121 66.8347 8.81213L64.5499 8.92638L64.5293 9.06822L66.879 9.08714C66.879 9.08714 67.0193 9.76007 67.5154 9.93028C67.5154 9.93028 68.6107 10.0233 69.0204 9.58357C69.3984 9.17776 69.9967 7.56002 69.2914 6.4064C69.1884 6.23777 68.9633 6.18971 68.7914 6.28742H68.7906Z" fill="#C0F9FA"/>
<path d="M66.3578 6.32708C66.3578 6.32708 70.7609 4.27595 70.6341 3.91663C70.5351 3.63611 69.271 4.02301 68.7211 4.20661C68.5721 4.25626 68.4104 4.21213 68.3058 4.09629C67.8937 3.64084 66.7255 2.61566 65.1081 3.41941C62.8629 4.5352 63.5175 6.35151 63.9035 7.08198C64.0009 7.26637 64.2284 7.33807 64.4178 7.24903L66.3594 6.32787L66.3578 6.32708Z" fill="#FF6663"/>
<path d="M65.6953 14.7217L67.2351 17.3536L71.9957 17.7539C71.9957 17.7539 72.0741 17.5372 72.285 17.4056C72.4958 17.274 73.247 16.9753 73.6948 17.0518C73.9262 17.0912 74.3819 18.2203 74.225 18.3496C74.0681 18.4788 73.8121 17.8949 73.8121 17.8949C73.8121 17.8949 74.0594 18.4071 73.7186 18.5663C73.3778 18.7254 72.9348 18.8547 72.6226 18.7601C72.6226 18.7601 68.3597 20.117 66.6273 19.4654C64.8949 18.8137 63.9336 15.7555 63.9336 15.7555L65.6953 14.7217Z" fill="#E69478"/>
<path d="M66.0809 22.0692C66.0809 22.0692 62.3807 22.9975 58.6338 22.7201C58.6338 22.7201 60.0706 14.7157 60.6261 13.5077C61.1817 12.2997 63.0987 10.0965 64.5086 10.0343C65.9184 9.97204 66.7934 11.3353 66.9511 11.9909C67.1088 12.6465 66.0809 22.0692 66.0809 22.0692Z" fill="#CDE298"/>
<path d="M67.5627 13.9775L69.1025 16.6094L73.8639 17.0097C73.8639 17.0097 73.9423 16.793 74.1531 16.6614C74.3639 16.5298 75.1152 16.2312 75.563 16.3076C75.7944 16.347 76.2501 17.4762 76.0932 17.6054C75.9362 17.7347 75.6803 17.1508 75.6803 17.1508C75.6803 17.1508 75.9275 17.6629 75.5867 17.8221C75.246 17.9813 74.803 18.1105 74.4907 18.016C74.4907 18.016 70.2279 19.3729 68.4955 18.7212C66.7631 18.0695 65.8018 15.0114 65.8018 15.0114L67.5635 13.9775H67.5627Z" fill="#F9AD8C"/>
<path d="M66.4844 11.0732C66.4844 11.0732 67.4085 12.3167 68.0187 14.5774C68.0187 14.5774 67.0534 15.5025 65.8512 15.8091L64.0879 12.4349L66.4836 11.074L66.4844 11.0732Z" fill="#CDE298"/>
</g>
<path d="M101.688 22.6748H100.435C99.9038 22.6748 99.4727 23.1035 99.4727 23.6314V29.4279C99.4727 29.9558 99.9038 30.3845 100.435 30.3845H101.509L101.688 22.6748H101.688Z" fill="white"/>
<path d="M59.0953 19.3921H64.8354C65.0105 19.3921 65.1524 19.2511 65.1524 19.0769C65.1524 18.9028 65.0105 18.7617 64.8354 18.7617H59.0953C58.9202 18.7617 58.7783 18.9028 58.7783 19.0769C58.7783 19.2511 58.9202 19.3921 59.0953 19.3921Z" fill="white"/>
<path d="M56.1367 41.5596L2.35614 41.5596L2.35614 2.61727C2.35614 1.19338 3.51873 0.0374031 4.95078 0.0374031L56.1367 0.0374031L56.1367 41.5596Z" fill="#273F39"/>
<path d="M5.80723 6.58449H15.1001C15.2752 6.58449 15.4171 6.44344 15.4171 6.2693C15.4171 6.09515 15.2752 5.9541 15.1001 5.9541H5.80723C5.63209 5.9541 5.49023 6.09515 5.49023 6.2693C5.49023 6.44344 5.63209 6.58449 5.80723 6.58449Z" fill="#CDE298"/>
<path d="M5.80723 10.6275H15.1001C15.2752 10.6275 15.4171 10.4864 15.4171 10.3123C15.4171 10.1381 15.2752 9.99707 15.1001 9.99707H5.80723C5.63209 9.99707 5.49023 10.1381 5.49023 10.3123C5.49023 10.4864 5.63209 10.6275 5.80723 10.6275Z" fill="#CDE298"/>
<path d="M5.80723 14.6704H15.1001C15.2752 14.6704 15.4171 14.5294 15.4171 14.3552C15.4171 14.1811 15.2752 14.04 15.1001 14.04H5.80723C5.63209 14.04 5.49023 14.1811 5.49023 14.3552C5.49023 14.5294 5.63209 14.6704 5.80723 14.6704Z" fill="#CDE298"/>
<path d="M5.80723 18.7134H15.1001C15.2752 18.7134 15.4171 18.5723 15.4171 18.3982C15.4171 18.2241 15.2752 18.083 15.1001 18.083H5.80723C5.63209 18.083 5.49023 18.2241 5.49023 18.3982C5.49023 18.5723 5.63209 18.7134 5.80723 18.7134Z" fill="#CDE298"/>
<path d="M5.80723 22.7573H15.1001C15.2752 22.7573 15.4171 22.6163 15.4171 22.4421C15.4171 22.268 15.2752 22.127 15.1001 22.127H5.80723C5.63209 22.127 5.49023 22.268 5.49023 22.4421C5.49023 22.6163 5.63209 22.7573 5.80723 22.7573Z" fill="#CDE298"/>
<path d="M5.80723 26.8013H15.1001C15.2752 26.8013 15.4171 26.6602 15.4171 26.4861C15.4171 26.3119 15.2752 26.1709 15.1001 26.1709H5.80723C5.63209 26.1709 5.49023 26.3119 5.49023 26.4861C5.49023 26.6602 5.63209 26.8013 5.80723 26.8013Z" fill="#CDE298"/>
<path d="M104.612 41.5586H94.3851V37.6131H104.612C105.378 37.6131 106 38.2317 106 38.9929V40.1788C106 40.94 105.378 41.5586 104.612 41.5586Z" fill="#0D2128"/>
<path d="M1.38767 37.6123H11.6149V41.5578H1.38767C0.622113 41.5578 0 40.9392 0 40.178V38.9921C0 38.2309 0.622113 37.6123 1.38767 37.6123Z" fill="#0D2128"/>
<path d="M68.6543 41.5583H69.9207C69.9207 35.925 74.5299 31.3412 80.1963 31.3412C85.8626 31.3412 90.4718 35.9242 90.4718 41.5583H91.7382C91.7382 35.2299 86.56 30.082 80.1963 30.082C73.8325 30.082 68.6543 35.2299 68.6543 41.5583Z" fill="white"/>
<path d="M13.625 41.5583H14.8914C14.8914 35.925 19.5006 31.3412 25.167 31.3412C30.8333 31.3412 35.4425 35.9242 35.4425 41.5583H36.7089C36.7089 35.2299 31.5307 30.082 25.167 30.082C18.8032 30.082 13.625 35.2299 13.625 41.5583Z" fill="white"/>
<path d="M82.3743 50.0726C87.0948 48.8727 89.9433 44.0951 88.7365 39.4015C87.5298 34.7078 82.7248 31.8756 78.0043 33.0755C73.2838 34.2754 70.4353 39.053 71.6421 43.7466C72.8488 48.4402 77.6538 51.2725 82.3743 50.0726Z" fill="#0D2128"/>
<path d="M80.1963 45.5924C82.4372 45.5924 84.2539 43.7861 84.2539 41.5579C84.2539 39.3297 82.4372 37.5234 80.1963 37.5234C77.9553 37.5234 76.1387 39.3297 76.1387 41.5579C76.1387 43.7861 77.9553 45.5924 80.1963 45.5924Z" fill="white"/>
<path d="M31.4059 47.7612C34.8512 44.3356 34.8512 38.7816 31.4059 35.3559C27.9607 31.9303 22.3748 31.9303 18.9296 35.3559C15.4843 38.7816 15.4843 44.3356 18.9296 47.7612C22.3748 51.1869 27.9607 51.1869 31.4059 47.7612Z" fill="#0D2128"/>
<path d="M25.1679 45.5924C27.4089 45.5924 29.2255 43.7861 29.2255 41.5579C29.2255 39.3297 27.4089 37.5234 25.1679 37.5234C22.927 37.5234 21.1104 39.3297 21.1104 41.5579C21.1104 43.7861 22.927 45.5924 25.1679 45.5924Z" fill="white"/>
</svg>
