<svg width="132" height="142" viewBox="0 0 132 142" fill="none" xmlns="http://www.w3.org/2000/svg">
<path d="M54.2958 142C72.1722 142 86.6638 139.558 86.6638 136.546C86.6638 133.534 72.1722 131.093 54.2958 131.093C36.4194 131.093 21.9277 133.534 21.9277 136.546C21.9277 139.558 36.4194 142 54.2958 142Z" fill="#DBDACA"/>
<path d="M19.4796 106.899C33.3133 116.039 67.1323 89.7192 86.3606 100.448C105.589 111.178 125.37 115.614 131.033 93.6365C137.847 67.1752 105.984 21.9456 69.3567 6.44955C14.937 -16.5664 -21.0904 28.6632 13.8802 38.4957C49.4503 48.5327 -11.6422 86.4469 19.4796 106.899Z" fill="url(#paint0_linear_505_8116)"/>
<path d="M56.4722 34.8452H53.958V46.1103H56.4722V34.8452Z" fill="#413A5C"/>
<path d="M68.399 33.3398H65.8848V46.0999H68.399V33.3398Z" fill="#413A5C"/>
<path d="M59.1771 46.426L51.4971 51.2057C51.2188 51.3724 50.9005 51.4612 50.5758 51.4629C50.2512 51.4646 49.932 51.3791 49.652 51.2153C49.372 51.0516 49.1414 50.8156 48.9845 50.5323C48.8277 50.249 48.7504 49.9289 48.7607 49.6055C48.7555 48.9168 48.8991 48.235 49.1816 47.6065C49.4641 46.9779 49.8793 46.4173 50.3984 45.9627L59.1771 38.3193V46.426Z" fill="#413A5C"/>
<path d="M63.708 47.4792L71.388 52.2589C71.6663 52.4256 71.9846 52.5144 72.3093 52.5161C72.6339 52.5178 72.9531 52.4323 73.2331 52.2685C73.5131 52.1048 73.7438 51.8688 73.9006 51.5855C74.0574 51.3022 74.1348 50.9821 74.1245 50.6587C74.1297 49.97 73.9861 49.2882 73.7036 48.6597C73.421 48.0311 73.0059 47.4705 72.4867 47.0159L63.708 39.3726V47.4792Z" fill="#413A5C"/>
<path d="M64.0469 42.5308H58.2578V53.9958H64.0469V42.5308Z" fill="#CE9789"/>
<path d="M81.9206 93.5708H31.2135C30.7764 93.5708 30.3573 93.7438 30.0482 94.0518C29.7392 94.3598 29.5654 94.7776 29.5654 95.2132C29.5654 95.6488 29.7392 96.0665 30.0482 96.3745C30.3573 96.6825 30.7764 96.8556 31.2135 96.8556H37.5519V135.715C37.5519 135.935 37.6399 136.147 37.7964 136.303C37.9529 136.459 38.1651 136.546 38.3865 136.546C38.6078 136.546 38.82 136.459 38.9766 136.303C39.1331 136.147 39.2211 135.935 39.2211 135.715V96.8556H48.0735V135.715C48.0735 135.935 48.1615 136.147 48.318 136.303C48.4746 136.459 48.6868 136.546 48.9081 136.546C49.1295 136.546 49.3417 136.459 49.4982 136.303C49.6547 136.147 49.7427 135.935 49.7427 135.715V96.8556H69.1277V135.715C69.1277 135.935 69.2157 136.147 69.3722 136.303C69.5288 136.459 69.741 136.546 69.9623 136.546C70.1837 136.546 70.3959 136.459 70.5524 136.303C70.709 136.147 70.7969 135.935 70.7969 135.715V96.8556H73.9661V135.715C73.9661 135.935 74.0536 136.147 74.2101 136.303C74.3666 136.459 74.5789 136.546 74.8002 136.546C75.0215 136.546 75.2343 136.459 75.3908 136.303C75.5473 136.147 75.6348 135.935 75.6348 135.715V96.8556H81.9732C82.4103 96.8556 82.8299 96.6825 83.139 96.3745C83.448 96.0665 83.6212 95.6488 83.6212 95.2132C83.6212 94.7776 83.448 94.3598 83.139 94.0518C82.8299 93.7438 82.4103 93.5708 81.9732 93.5708H81.9206Z" fill="#273F39"/>
<path d="M86.5159 76.9365H31.1607C30.2505 76.9365 29.5127 77.6718 29.5127 78.5789C29.5127 79.486 30.2505 80.2213 31.1607 80.2213H86.5159C87.4261 80.2213 88.1639 79.486 88.1639 78.5789C88.1639 77.6718 87.4261 76.9365 86.5159 76.9365Z" fill="#5F9B54"/>
<path d="M38.6093 125.387L38.1657 128.166C38.1697 128.328 38.1386 128.49 38.0749 128.639C38.0111 128.789 37.9159 128.923 37.7958 129.032C37.6757 129.142 37.5334 129.225 37.3785 129.275C37.2236 129.326 37.0597 129.342 36.8978 129.324H36.792L34.8696 128.945C33.4101 128.715 31.9155 128.89 30.5491 129.451C30.3631 129.526 30.2064 129.66 30.1029 129.831C29.9994 130.003 29.9542 130.203 29.9744 130.402C29.9947 130.601 30.0794 130.788 30.2153 130.936C30.3512 131.083 30.5312 131.182 30.7286 131.219L38.0073 132.462C39.1376 132.662 39.7715 131.904 39.9194 130.767L41.7362 125.503L38.6093 125.387Z" fill="#EAAC98"/>
<path d="M36.6015 129.682C36.5144 129.489 36.3874 129.316 36.2291 129.175C36.0708 129.033 35.8846 128.926 35.6823 128.861C34.0182 128.69 32.3371 128.793 30.7067 129.166C30.568 129.158 30.429 129.177 30.2977 129.222C30.1663 129.268 30.0452 129.338 29.9412 129.43C29.8372 129.522 29.7523 129.633 29.6916 129.758C29.6308 129.883 29.5952 130.018 29.5869 130.156C29.5785 130.294 29.5977 130.433 29.6431 130.564C29.6885 130.695 29.7593 130.815 29.8515 130.919C29.9437 131.023 30.0556 131.107 30.1806 131.168C30.3055 131.228 30.4411 131.264 30.5798 131.272L38.07 132.609C38.3349 132.642 38.6033 132.618 38.8582 132.54C39.1131 132.461 39.3485 132.329 39.5484 132.153C39.7482 131.977 39.9084 131.76 40.0178 131.517C40.1271 131.275 40.1834 131.012 40.1828 130.746C40.2568 130.146 40.4677 129.145 40.0662 129.514C39.6648 129.882 39.3373 130.935 37.9534 130.683C37.6664 130.63 37.3955 130.512 37.1611 130.339C36.9268 130.165 36.7353 129.941 36.6015 129.682Z" fill="#4E4D61"/>
<path d="M61.9863 123.608L62.9267 127.598C63.1374 128.437 63.6291 129.18 64.3209 129.703L67.86 132.367C68.2104 132.635 68.6477 132.765 69.0881 132.732C69.5286 132.699 69.9415 132.505 70.2477 132.188C70.5711 131.853 70.7516 131.406 70.7516 130.94C70.7516 130.475 70.5711 130.028 70.2477 129.693L66.6344 125.882L64.3318 121.67L61.9863 123.608Z" fill="#EAAC98"/>
<path d="M70.3006 129.735L68.4942 127.819L68.9486 129.05C69.0332 129.277 69.0419 129.525 68.9744 129.757C68.9068 129.989 68.7661 130.193 68.5731 130.34C68.38 130.486 68.145 130.567 67.9025 130.57C67.66 130.573 67.4228 130.498 67.2263 130.356L64.3532 128.314C63.9408 128.058 63.582 127.726 63.2968 127.334C62.7731 126.127 62.3457 124.881 62.0186 123.607L62.9584 127.598C63.1691 128.437 63.6613 129.18 64.3532 129.703L67.8922 132.367C68.2485 132.671 68.71 132.824 69.1781 132.793C69.6462 132.763 70.0832 132.551 70.3965 132.203C70.7098 131.855 70.874 131.398 70.854 130.931C70.8341 130.464 70.632 130.023 70.2902 129.703L70.3006 129.735Z" fill="#4E4D61"/>
<path d="M63.8676 125.387C60.4555 125.534 55.0888 114.3 51.8774 108.142C48.4969 101.646 46.5956 95.3289 44.3877 89.6754L57.1486 86.4116C56.8398 90.7291 56.9566 95.0664 57.4972 99.3612C58.5515 107.472 61.0864 115.322 64.9766 122.523C65.1869 122.897 65.2771 123.327 65.2356 123.754C65.194 124.181 65.023 124.585 64.7445 124.913C64.6381 125.047 64.5053 125.158 64.3545 125.239C64.2038 125.321 64.0383 125.371 63.8676 125.387Z" fill="#355650"/>
<path d="M52.4161 93.6235H63.2339C65.452 93.6207 67.5783 92.7413 69.1467 91.1782C70.7152 89.6151 71.5977 87.4958 71.6005 85.2852V80.2212H49.7437C46.8162 80.2154 44.0045 81.3611 41.9197 83.4093C39.8349 85.4574 38.6454 88.2426 38.6092 91.1599L38.1759 125.576C38.1731 125.796 38.2145 126.015 38.2971 126.219C38.3798 126.423 38.5019 126.609 38.6572 126.766C38.8124 126.923 38.9975 127.047 39.2014 127.132C39.4053 127.217 39.6241 127.261 39.8451 127.261C40.1789 127.262 40.5054 127.161 40.7808 126.973C41.0562 126.785 41.2676 126.518 41.3874 126.208C45.1764 116.818 47.6642 106.957 48.7822 96.8977C48.8783 96.0022 49.3019 95.1734 49.9722 94.5694C50.6425 93.9655 51.5125 93.6287 52.4161 93.6235Z" fill="#3C635D"/>
<path d="M57.8456 93.6236C55.936 93.9742 54.0062 94.2028 52.0674 94.3079C51.2576 94.5056 50.5363 94.9652 50.0165 95.6147C49.4966 96.2643 49.2071 97.0672 49.1937 97.898C48.1373 102.478 47.8945 102.467 48.0424 97.7611C47.933 96.6216 48.268 95.4837 48.9781 94.5839C49.6882 93.6841 50.7188 93.0913 51.8559 92.9287C53.8734 92.9158 55.8849 93.1492 57.8456 93.6236Z" fill="#273F39"/>
<path d="M47.7674 59.0601C47.7674 59.0601 41.1758 67.0614 41.1758 72.3149H48.8238L52.3314 62.5975L47.7674 59.0601Z" fill="#CE9789"/>
<path d="M74.6002 59.8599C74.6002 59.8599 81.3612 67.7138 81.488 72.9568L73.8399 73.1357L69.54 63.5131L74.6002 59.8599Z" fill="#CE9789"/>
<path d="M64.0787 46.7208C64.019 46.7194 63.96 46.7298 63.9043 46.7512C63.8487 46.7727 63.7979 46.8049 63.7547 46.8459C63.7116 46.887 63.6767 46.9361 63.6526 46.9905C63.6285 47.0449 63.6153 47.1035 63.6139 47.163C63.6151 47.7214 63.4104 48.2606 63.0383 48.6781C62.6662 49.0955 62.1525 49.3619 61.596 49.4265H61.1524H60.7088C60.1523 49.3619 59.6392 49.0955 59.2671 48.6781C58.895 48.2606 58.6898 47.7214 58.6909 47.163C58.691 47.104 58.6793 47.0456 58.6564 46.9913C58.6334 46.9369 58.5997 46.8877 58.5573 46.8465C58.515 46.8053 58.4649 46.773 58.4098 46.7514C58.3548 46.7298 58.2962 46.7194 58.237 46.7208C49.0147 47.2367 43.3525 63.0498 43.3525 63.0498L50.6096 66.461V76.989H71.7376V66.4293L78.9951 63.0183C78.9951 63.0183 73.2905 47.2367 64.0787 46.7208Z" fill="#CDE298"/>
<path d="M60.5708 60.2283C61.4582 59.3334 63.0428 59.8598 63.74 60.6072C69.022 65.4817 72.7298 66.9241 79.3956 70.1562C79.8075 70.3264 80.1809 70.5779 80.4928 70.8954C80.8046 71.213 81.0484 71.5901 81.2103 72.0042C81.3721 72.4182 81.4483 72.8606 81.4342 73.3047C81.42 73.7489 81.3161 74.1856 81.1283 74.5886C80.6528 75.3758 79.8896 75.9484 78.999 76.186C78.1084 76.4236 77.1598 76.3076 76.3533 75.8625C69.7086 72.1671 65.4936 69.2298 60.5074 63.5446C60.1229 63.0735 59.9186 62.482 59.9302 61.8749C59.9418 61.2678 60.1687 60.6844 60.5708 60.2283Z" fill="#EAAC98"/>
<path d="M61.1522 33.2871H61.0784C54.1379 33.2871 54.9196 37.7405 55.733 40.183C56.5464 42.6255 58.5428 45.1943 61.0888 45.247H61.1419C63.6878 45.247 65.6842 42.6044 66.4976 40.183C67.3111 37.7615 68.0927 33.3292 61.1522 33.2871Z" fill="#EAAC98"/>
<path d="M62.6944 30.055C63.0642 32.1606 63.0222 35.0137 61.6912 35.9717C58.3952 38.3405 53.958 38.8248 53.958 34.9821C53.958 31.1393 57.3495 27.0439 59.7053 27.0439C61.3849 27.0439 62.3036 27.8651 62.6944 30.055Z" fill="#413A5C"/>
<path d="M61.7337 29.023C61.4703 29.657 61.3443 30.3394 61.3644 31.0252C61.3844 31.7111 61.5498 32.385 61.8498 33.0027C62.3198 34.0831 63.1226 34.9865 64.1421 35.5821C66.0964 36.6349 68.1775 36.7507 68.3676 34.266C68.6634 29.9917 66.5297 28.4335 64.5965 27.8544C63.1915 27.4754 62.3253 27.7386 61.7337 29.023Z" fill="#413A5C"/>
<path d="M55.6381 39.404C55.6381 39.404 54.5814 38.2143 54.349 39.0881C54.2806 39.4454 54.2897 39.8131 54.3758 40.1666C54.462 40.52 54.6232 40.8511 54.8483 41.1373C55.0735 41.4236 55.3575 41.6585 55.6814 41.8262C56.0052 41.9939 56.3614 42.0906 56.7259 42.1097" fill="#EAAC98"/>
<path d="M66.5933 39.404C66.5933 39.404 67.6496 38.2143 67.8926 39.0881C67.9575 39.4459 67.9452 39.8132 67.857 40.1659C67.7689 40.5187 67.6066 40.8488 67.3809 41.1344C67.1553 41.42 66.8713 41.6546 66.5479 41.8227C66.2245 41.9908 65.869 42.0887 65.5049 42.1097" fill="#EAAC98"/>
<path d="M63.3389 54.0693H59.3668C58.4275 54.0693 57.666 54.8282 57.666 55.7644V66.4188C57.666 67.3549 58.4275 68.1138 59.3668 68.1138H63.3389C64.2782 68.1138 65.0397 67.3549 65.0397 66.4188V55.7644C65.0397 54.8282 64.2782 54.0693 63.3389 54.0693Z" fill="#413A5C"/>
<path d="M64.5858 58.3335C63.7512 57.386 62.135 57.8282 61.4166 58.523C56.0007 62.8872 49.9437 66.3954 43.4578 68.9248C43.0375 69.0722 42.6516 69.3026 42.3225 69.602C41.9935 69.9015 41.7285 70.264 41.5431 70.6679C41.3578 71.0718 41.2556 71.5087 41.2434 71.9527C41.2312 72.3966 41.309 72.8384 41.4719 73.2518C41.9029 74.0653 42.633 74.6809 43.5094 74.9694C44.3859 75.258 45.3408 75.1971 46.1731 74.7994C52.9783 71.5065 59.1554 67.0567 64.4274 61.6499C64.8433 61.2052 65.0876 60.6278 65.1166 60.0206C65.1456 59.4134 64.9574 58.8156 64.5858 58.3335Z" fill="#EAAC98"/>
<defs>
<linearGradient id="paint0_linear_505_8116" x1="65.997" y1="109.369" x2="65.997" y2="0.0466031" gradientUnits="userSpaceOnUse">
<stop stop-color="white"/>
<stop offset="1" stop-color="#F9F9E1"/>
</linearGradient>
</defs>
</svg>
