<svg width="32" height="32" viewBox="0 0 32 32" fill="none" xmlns="http://www.w3.org/2000/svg">
<path d="M8.7002 11.6699H23.3604C23.538 11.6699 23.7083 11.5993 23.834 11.4736C23.9596 11.348 24.0303 11.1777 24.0303 11C24.0276 10.824 23.9554 10.6557 23.8301 10.5322C23.7047 10.4087 23.5363 10.3398 23.3604 10.3398H8.7002C8.52422 10.3398 8.35486 10.4087 8.22949 10.5322C8.10413 10.6557 8.0329 10.824 8.03027 11C8.03027 11.1777 8.10091 11.348 8.22656 11.4736C8.35221 11.5993 8.5225 11.6699 8.7002 11.6699Z" fill="#FF6600"/>
<path d="M23.3604 13.6699H8.7002C8.5225 13.6699 8.35221 13.7406 8.22656 13.8662C8.10091 13.9919 8.03027 14.1621 8.03027 14.3398C8.03026 14.4274 8.04726 14.514 8.08105 14.5947C8.11485 14.6755 8.16421 14.7482 8.22656 14.8096C8.28891 14.871 8.3631 14.9196 8.44434 14.9521C8.52557 14.9847 8.61269 15.0013 8.7002 15H23.3604C23.4479 15.0013 23.534 14.9847 23.6152 14.9521C23.6965 14.9196 23.7707 14.871 23.833 14.8096C23.8954 14.7482 23.9447 14.6755 23.9785 14.5947C24.0123 14.514 24.0303 14.4274 24.0303 14.3398C24.0303 14.1621 23.9596 13.9919 23.834 13.8662C23.7083 13.7406 23.538 13.6699 23.3604 13.6699Z" fill="#FF6600"/>
<path d="M23.3604 20.3398H8.7002C8.52422 20.3398 8.35486 20.4087 8.22949 20.5322C8.10413 20.6557 8.0329 20.824 8.03027 21C8.03027 21.1777 8.10091 21.348 8.22656 21.4736C8.35221 21.5993 8.5225 21.6699 8.7002 21.6699H23.3604C23.538 21.6699 23.7083 21.5993 23.834 21.4736C23.9596 21.348 24.0303 21.1777 24.0303 21C24.0276 20.824 23.9554 20.6557 23.8301 20.5322C23.7047 20.4087 23.5363 20.3398 23.3604 20.3398Z" fill="#FF6600"/>
<path d="M23.3604 17H8.7002C8.5225 17 8.35221 17.0706 8.22656 17.1963C8.10091 17.3219 8.03027 17.4922 8.03027 17.6699C8.03027 17.8476 8.10091 18.0179 8.22656 18.1436C8.35221 18.2692 8.5225 18.3398 8.7002 18.3398H23.3604C23.538 18.3398 23.7083 18.2692 23.834 18.1436C23.9596 18.0179 24.0303 17.8476 24.0303 17.6699C24.0303 17.4922 23.9596 17.3219 23.834 17.1963C23.7083 17.0706 23.538 17 23.3604 17Z" fill="#FF6600"/>
</svg>
