<svg width="48" height="48" viewBox="0 0 48 48" fill="none" xmlns="http://www.w3.org/2000/svg">
<path d="M30.9902 17.5051H28.9951V16.5C28.9951 15.7044 28.6788 14.9413 28.1162 14.3787C27.5536 13.8161 26.7908 13.5 25.9951 13.5H15C14.2044 13.5 13.4415 13.8161 12.8789 14.3787C12.3163 14.9413 12 15.7044 12 16.5V31.5H14.0405C14.0257 31.6647 14.0257 31.8305 14.0405 31.9951C14.0386 32.4553 14.1272 32.9113 14.302 33.3371C14.4768 33.7629 14.7339 34.1501 15.0586 34.4762C15.3833 34.8023 15.7696 35.061 16.1946 35.2375C16.6196 35.4141 17.0747 35.5051 17.5349 35.5051C17.9959 35.5051 18.4523 35.4143 18.8782 35.2379C19.304 35.0615 19.6912 34.8029 20.0171 34.4769C20.343 34.151 20.6017 33.764 20.7781 33.3382C20.9545 32.9123 21.0454 32.4561 21.0454 31.9951C21.0602 31.8305 21.0602 31.6647 21.0454 31.5H27.0454C27.0454 31.665 27.0454 31.8301 27.0454 31.9951C27.0434 32.4553 27.1321 32.9113 27.3069 33.3371C27.4816 33.7629 27.7387 34.1501 28.0635 34.4762C28.3882 34.8023 28.7744 35.061 29.1995 35.2375C29.6245 35.4141 30.0803 35.5051 30.5405 35.5051C31.0008 35.5051 31.4558 35.4141 31.8809 35.2375C32.3059 35.061 32.6921 34.8023 33.0168 34.4762C33.3416 34.1501 33.5987 33.7629 33.7734 33.3371C33.9482 32.9113 34.0369 32.4553 34.0349 31.9951C34.0349 31.8301 34.0349 31.665 34.0349 31.5H36.0754V22.5C36.0735 21.837 35.9395 21.1809 35.6821 20.5699C35.4248 19.9588 35.0492 19.4051 34.5762 18.9404C34.1032 18.4758 33.5423 18.1096 32.9268 17.8632C32.3112 17.6168 31.6532 17.4951 30.9902 17.5051ZM30.9902 19.5C31.7859 19.5 32.5487 19.8161 33.1113 20.3787C33.6739 20.9413 33.9902 21.7044 33.9902 22.5V23.5051H28.9951V19.5H30.9902ZM18.9902 31.9951C18.9902 32.3929 18.8321 32.7744 18.5508 33.0557C18.2695 33.337 17.8881 33.4951 17.4902 33.4951C17.0924 33.4951 16.711 33.337 16.4297 33.0557C16.1484 32.7744 15.9902 32.3929 15.9902 31.9951C15.9922 31.8262 16.0227 31.6588 16.0803 31.5H18.9001C18.9578 31.6588 18.9883 31.8262 18.9902 31.9951ZM27 29.5051H13.9951V16.5C13.9951 16.2335 14.1011 15.9778 14.2896 15.7894C14.478 15.6009 14.7335 15.4951 15 15.4951H25.9951C26.2617 15.4951 26.5171 15.6009 26.7056 15.7894C26.894 15.9778 27 16.2335 27 16.5V29.5051ZM31.9951 31.9951C31.9951 32.3929 31.837 32.7744 31.5557 33.0557C31.2744 33.337 30.8929 33.4951 30.4951 33.4951C30.0973 33.4951 29.7159 33.337 29.4346 33.0557C29.1533 32.7744 28.9951 32.3929 28.9951 31.9951C28.997 31.8262 29.0275 31.6588 29.0852 31.5H31.905C31.9627 31.6588 31.9932 31.8262 31.9951 31.9951ZM28.9951 29.5051V25.5H33.9902V29.5051H28.9951Z" fill="#3C635D"/>
</svg>
