<svg width="32" height="32" viewBox="0 0 32 32" fill="none" xmlns="http://www.w3.org/2000/svg">
<path d="M21.3003 18.6699V11.34C21.3003 10.8095 21.5112 10.3009 21.8863 9.92578C22.2613 9.55071 22.7699 9.33997 23.3003 9.33997C23.478 9.33997 23.6486 9.26933 23.7742 9.14368C23.8998 9.01803 23.9705 8.84762 23.9705 8.66992C23.9705 8.49223 23.8998 8.32182 23.7742 8.19617C23.6486 8.07052 23.478 8 23.3003 8C22.4162 8.00265 21.5693 8.35573 20.9451 8.98181C20.3209 9.6079 19.9705 10.4559 19.9705 11.34V18.86L18.1504 19.46C18.1489 19.2355 18.1117 19.0127 18.0403 18.7999L17.0403 15.4C16.9608 15.1488 16.8325 14.9158 16.6626 14.7144C16.4928 14.5129 16.2847 14.347 16.0506 14.2262C15.8164 14.1054 15.5607 14.032 15.2981 14.0104C15.0355 13.9887 14.7713 14.0192 14.5205 14.1L10.0603 15.52C9.56033 15.679 9.14278 16.0279 8.89773 16.4918C8.65269 16.9557 8.59995 17.4974 8.75052 18L9.84036 21.58C9.9098 21.7835 10.0148 21.9731 10.1504 22.14L8.45047 22.7C8.28512 22.7611 8.14942 22.8833 8.07132 23.0414C7.99321 23.1995 7.9787 23.3814 8.03055 23.5499C8.08967 23.7168 8.21142 23.8541 8.37015 23.9325C8.52888 24.0109 8.71192 24.0244 8.8804 23.97L18.7305 20.6799C18.6474 21.0241 18.6333 21.3813 18.689 21.731C18.7447 22.0806 18.869 22.4157 19.055 22.7169C19.2409 23.0182 19.4847 23.2796 19.7722 23.4861C20.0598 23.6926 20.3856 23.84 20.7305 23.9199C20.9324 23.9753 21.141 24.0023 21.3504 24C22.0289 23.9525 22.6637 23.6478 23.1253 23.1482C23.5868 22.6486 23.8404 21.9916 23.834 21.3114C23.8276 20.6312 23.5619 19.9792 23.0911 19.4883C22.6203 18.9974 21.9796 18.7047 21.3003 18.6699ZM11.0804 21.1699L10.0005 17.62C9.97432 17.5366 9.96494 17.4488 9.97293 17.3618C9.98092 17.2748 10.006 17.1903 10.0469 17.113C10.0878 17.0358 10.1437 16.9674 10.2112 16.912C10.2788 16.8565 10.3568 16.815 10.4405 16.7899L14.9004 15.37C15.0676 15.3185 15.2481 15.3334 15.4046 15.4116C15.561 15.4898 15.6814 15.6253 15.7405 15.7899L16.7405 19.2C16.7909 19.3533 16.7842 19.5196 16.7217 19.6685C16.6592 19.8173 16.5451 19.9386 16.4004 20.01L11.8103 21.5499C11.6638 21.5751 11.5132 21.5515 11.3814 21.4829C11.2495 21.4143 11.1438 21.3043 11.0804 21.1699ZM21.2805 22.6699C20.9286 22.6673 20.5917 22.5263 20.3428 22.2775C20.0939 22.0286 19.9531 21.6919 19.9505 21.34C19.9505 20.9863 20.0902 20.647 20.3394 20.396C20.5885 20.145 20.9269 20.0026 21.2805 20C21.6359 20 21.9768 20.1412 22.2281 20.3925C22.4794 20.6438 22.6204 20.9846 22.6204 21.34C22.6178 21.6936 22.4754 22.0319 22.2244 22.281C21.9734 22.5301 21.6342 22.6699 21.2805 22.6699ZM14.6704 17.34C14.6968 17.4227 14.7066 17.5098 14.6992 17.5963C14.6919 17.6828 14.6677 17.7671 14.6277 17.8442C14.5878 17.9213 14.533 17.9898 14.4666 18.0457C14.4001 18.1016 14.3233 18.1438 14.2405 18.1699L12.5904 18.7C12.507 18.7261 12.4193 18.7355 12.3323 18.7275C12.2453 18.7196 12.1607 18.6944 12.0835 18.6534C12.0063 18.6125 11.9381 18.5567 11.8826 18.4891C11.8271 18.4216 11.7856 18.3437 11.7605 18.26C11.7327 18.1773 11.7219 18.0899 11.7285 18.0029C11.7352 17.916 11.7592 17.8312 11.7993 17.7538C11.8395 17.6763 11.8948 17.6078 11.9619 17.5521C12.0291 17.4965 12.1069 17.4549 12.1905 17.4299L13.8304 16.9C13.9144 16.8737 14.0029 16.8641 14.0906 16.8719C14.1783 16.8798 14.2636 16.9049 14.3416 16.9458C14.4196 16.9867 14.4888 17.0425 14.5452 17.1101C14.6016 17.1777 14.6442 17.2559 14.6704 17.34Z" fill="#6D6D6C"/>
</svg>
