<svg width="32" height="32" viewBox="0 0 32 32" fill="none" xmlns="http://www.w3.org/2000/svg">
<path d="M20.6954 15.7754C20.5513 15.7646 20.4066 15.7646 20.2625 15.7754L19.8184 14.4559C20.1765 14.392 20.538 14.3487 20.9011 14.3261C21.2475 15.0616 22.7958 15.4077 22.8607 14.3261V12.8769C22.7958 11.7953 21.2045 12.1306 20.8797 12.8769C20.3895 12.9115 19.9015 12.9729 19.418 13.0607H19.4072L19.0281 11.9792C18.8367 11.4021 18.4678 10.9001 17.974 10.5447C17.4802 10.1894 16.887 9.99874 16.2784 10H14.9573C14.765 10 14.5806 10.0763 14.4446 10.2122C14.3085 10.3481 14.232 10.5324 14.232 10.7246C14.232 10.8193 14.251 10.913 14.2875 11.0003C14.3241 11.0876 14.3776 11.1668 14.4451 11.2332C14.5126 11.2997 14.5926 11.352 14.6806 11.3872C14.7685 11.4225 14.8626 11.4399 14.9573 11.4384H16.2784C16.5836 11.4374 16.8811 11.5331 17.1282 11.712C17.3753 11.8908 17.5591 12.1435 17.6531 12.4335L18.0538 13.634C17.7277 13.8275 17.429 14.0639 17.166 14.3369H13.3767C13.229 13.9148 12.9541 13.5488 12.5896 13.2893C12.2251 13.0298 11.7891 12.8895 11.3414 12.8877H9.17614C9.08139 12.8877 8.9876 12.9065 8.90019 12.943C8.81279 12.9796 8.73356 13.0331 8.66706 13.1006C8.60057 13.168 8.54797 13.248 8.5127 13.3358C8.47743 13.4237 8.45999 13.5177 8.46142 13.6123C8.45999 13.707 8.47743 13.8009 8.5127 13.8888C8.54797 13.9767 8.60057 14.0566 8.66706 14.1241C8.73356 14.1915 8.81279 14.245 8.90019 14.2816C8.9876 14.3181 9.08139 14.337 9.17614 14.3369H11.3414C11.4765 14.3355 11.6092 14.3723 11.7242 14.4431C11.8392 14.514 11.9315 14.6159 11.9909 14.7371C12.0325 14.8257 12.0582 14.9209 12.0667 15.0183C12.0493 15.1822 11.9978 15.3406 11.9153 15.4834L11.6013 15.916C11.1413 15.7879 10.6606 15.7518 10.1866 15.8098C9.71269 15.8677 9.25483 16.0186 8.8394 16.2537C8.42397 16.4889 8.0591 16.8036 7.76573 17.18C7.47237 17.5563 7.2562 17.9868 7.12978 18.4468C7.04339 18.753 6.99981 19.0696 7 19.3877C7.00674 20.2951 7.35493 21.1667 7.9756 21.8292C8.59627 22.4917 9.44384 22.8966 10.3497 22.9634C11.2556 23.0302 12.1534 22.754 12.8647 22.1896C13.576 21.6253 14.0487 20.8142 14.1887 19.9176C14.6936 19.7231 15.1331 19.3893 15.4556 18.9551L17.9563 15.6348C18.1365 15.4295 18.3281 15.2346 18.5301 15.0508L18.9308 16.2621C18.1044 16.7529 17.5061 17.5506 17.2667 18.4809C17.0273 19.4111 17.1661 20.3981 17.6531 21.2263C17.9714 21.762 18.4226 22.2066 18.9631 22.5173C19.5036 22.828 20.1152 22.9943 20.7388 23C21.6978 22.9943 22.6154 22.6082 23.2895 21.9267C23.9636 21.2452 24.339 20.3241 24.3333 19.3661C24.3275 18.408 23.941 17.4915 23.2588 16.8181C22.5766 16.1447 21.6545 15.7696 20.6954 15.7754ZM10.5728 21.5616C9.99853 21.5616 9.44768 21.3337 9.0416 20.928C8.63553 20.5224 8.4075 19.9722 8.4075 19.3985C8.4075 18.8248 8.63553 18.2747 9.0416 17.869C9.44768 17.4633 9.99853 17.2354 10.5728 17.2354L10.1396 17.8087C9.911 18.116 9.81362 18.5012 9.86839 18.8801C9.92316 19.2591 10.1257 19.6009 10.4319 19.8311C10.6797 20.0228 10.9848 20.1256 11.2981 20.1231H12.6189C12.4688 20.545 12.1914 20.9099 11.8249 21.1675C11.4584 21.4251 11.021 21.5628 10.5728 21.5616ZM14.2646 18.0899C14.1278 18.2671 13.9525 18.4109 13.7518 18.5102C13.551 18.6096 13.3301 18.6619 13.106 18.6631H11.2981L13.0304 16.3594C13.1602 16.1793 13.2655 15.9829 13.3442 15.7754H15.9969L14.2646 18.0899ZM20.6954 21.5616C20.1212 21.5616 19.5706 21.3337 19.1645 20.928C18.7584 20.5224 18.5301 19.9722 18.5301 19.3985C18.532 19.0763 18.6059 18.7586 18.7464 18.4686C18.8868 18.1785 19.0903 17.9235 19.3421 17.7221L19.9918 19.6581C20.0514 19.8397 20.1802 19.9906 20.3505 20.0777C20.5208 20.1648 20.7187 20.1811 20.9011 20.1231C21.0838 20.0614 21.2351 19.9304 21.3221 19.7585C21.4092 19.5866 21.4252 19.3874 21.3668 19.2038L20.7171 17.2679C21.2914 17.2679 21.8422 17.4958 22.2483 17.9014C22.6544 18.3071 22.8824 18.8573 22.8824 19.431C22.8824 20.0046 22.6544 20.5548 22.2483 20.9605C21.8422 21.3661 21.2914 21.594 20.7171 21.594L20.6954 21.5616Z" fill="#3C3C3B"/>
</svg>
