<svg width="32" height="32" viewBox="0 0 32 32" fill="none" xmlns="http://www.w3.org/2000/svg">
<path d="M20.6602 11.67H19.3301V11C19.3301 10.4696 19.1192 9.96089 18.7441 9.58582C18.3691 9.21074 17.8605 9 17.3301 9H10C9.46957 9 8.96101 9.21074 8.58594 9.58582C8.21086 9.96089 8 10.4696 8 11V21H9.36035C9.35047 21.1098 9.35047 21.2203 9.36035 21.3301C9.35903 21.6369 9.41816 21.9409 9.53467 22.2247C9.65117 22.5086 9.82257 22.7667 10.0391 22.9841C10.2556 23.2016 10.513 23.374 10.7964 23.4917C11.0797 23.6094 11.3831 23.67 11.6899 23.67C11.9972 23.67 12.3015 23.6095 12.5854 23.4919C12.8694 23.3743 13.1274 23.2019 13.3447 22.9846C13.562 22.7673 13.7345 22.5094 13.8521 22.2255C13.9696 21.9416 14.0303 21.6374 14.0303 21.3301C14.0402 21.2203 14.0402 21.1098 14.0303 21H18.0303C18.0303 21.11 18.0303 21.2201 18.0303 21.3301C18.029 21.6369 18.0881 21.9409 18.2046 22.2247C18.3211 22.5086 18.4925 22.7667 18.709 22.9841C18.9255 23.2016 19.183 23.374 19.4663 23.4917C19.7497 23.6094 20.0535 23.67 20.3604 23.67C20.6672 23.67 20.9706 23.6094 21.2539 23.4917C21.5372 23.374 21.7947 23.2016 22.0112 22.9841C22.2277 22.7667 22.3991 22.5086 22.5156 22.2247C22.6321 21.9409 22.6913 21.6369 22.6899 21.3301C22.6899 21.2201 22.6899 21.11 22.6899 21H24.0503V15C24.049 14.558 23.9596 14.1206 23.7881 13.7133C23.6165 13.3059 23.3661 12.9367 23.0508 12.627C22.7355 12.3172 22.3615 12.0731 21.9512 11.9088C21.5408 11.7446 21.1021 11.6634 20.6602 11.67ZM20.6602 13C21.1906 13 21.6991 13.2107 22.0742 13.5858C22.4493 13.9609 22.6602 14.4696 22.6602 15V15.67H19.3301V13H20.6602ZM12.6602 21.3301C12.6602 21.5953 12.5547 21.8496 12.3672 22.0371C12.1797 22.2246 11.9254 22.3301 11.6602 22.3301C11.3949 22.3301 11.1407 22.2246 10.9531 22.0371C10.7656 21.8496 10.6602 21.5953 10.6602 21.3301C10.6614 21.2175 10.6818 21.1058 10.7202 21H12.6001C12.6385 21.1058 12.6589 21.2175 12.6602 21.3301ZM18 19.67H9.33008V11C9.33008 10.8223 9.40072 10.6519 9.52637 10.5262C9.65202 10.4006 9.8223 10.3301 10 10.3301H17.3301C17.5078 10.3301 17.6781 10.4006 17.8037 10.5262C17.9294 10.6519 18 10.8223 18 11V19.67ZM21.3301 21.3301C21.3301 21.5953 21.2246 21.8496 21.0371 22.0371C20.8496 22.2246 20.5953 22.3301 20.3301 22.3301C20.0649 22.3301 19.8106 22.2246 19.623 22.0371C19.4355 21.8496 19.3301 21.5953 19.3301 21.3301C19.3314 21.2175 19.3517 21.1058 19.3901 21H21.27C21.3085 21.1058 21.3288 21.2175 21.3301 21.3301ZM19.3301 19.67V17H22.6602V19.67H19.3301Z" fill="#3C635D"/>
</svg>
