<svg width="32" height="32" viewBox="0 0 32 32" fill="none" xmlns="http://www.w3.org/2000/svg">
<path d="M11.6699 19.3408C12.2222 19.3408 12.6699 18.8931 12.6699 18.3408C12.6699 17.7885 12.2222 17.3408 11.6699 17.3408C11.1176 17.3408 10.6699 17.7885 10.6699 18.3408C10.6699 18.8931 11.1176 19.3408 11.6699 19.3408Z" fill="#3C635D"/>
<path d="M20.6699 10H11.3398C10.4556 10.0052 9.60961 10.3591 8.98438 10.9844C8.35914 11.6096 8.00525 12.4566 8 13.3408V18.6699C8.00265 19.554 8.35634 20.4012 8.98242 21.0254C9.60851 21.6496 10.4558 22 11.3398 22H20.6699C21.5531 22 22.3999 21.6499 23.0244 21.0254C23.6489 20.4009 24 19.5531 24 18.6699V13.3408C24 12.4567 23.6496 11.6085 23.0254 10.9824C22.4012 10.3563 21.554 10.0026 20.6699 10ZM11.3398 11.3408H20.6699C21.2004 11.3408 21.7089 11.5507 22.084 11.9258C22.4591 12.3009 22.6699 12.8104 22.6699 13.3408H9.33984C9.33984 12.8104 9.55071 12.3009 9.92578 11.9258C10.3009 11.5507 10.8094 11.3408 11.3398 11.3408ZM20.6699 20.6699H11.3398C10.8094 20.6699 10.3009 20.46 9.92578 20.085C9.55071 19.7099 9.33984 19.2004 9.33984 18.6699V14.6699H22.6699V18.6699C22.6699 19.2004 22.4591 19.7099 22.084 20.085C21.7089 20.46 21.2004 20.6699 20.6699 20.6699Z" fill="#3C635D"/>
</svg>
