<svg width="32" height="33" viewBox="0 0 32 33" fill="none" xmlns="http://www.w3.org/2000/svg">
<path d="M20.6602 12.17H19.3301V11.5C19.3301 10.9696 19.1192 10.4609 18.7441 10.0858C18.3691 9.71074 17.8605 9.5 17.3301 9.5H10C9.46957 9.5 8.96101 9.71074 8.58594 10.0858C8.21086 10.4609 8 10.9696 8 11.5V21.5H9.36035C9.35047 21.6098 9.35047 21.7203 9.36035 21.8301C9.35903 22.1369 9.41816 22.4409 9.53467 22.7247C9.65117 23.0086 9.82257 23.2667 10.0391 23.4841C10.2556 23.7016 10.513 23.874 10.7964 23.9917C11.0797 24.1094 11.3831 24.17 11.6899 24.17C11.9972 24.17 12.3015 24.1095 12.5854 23.9919C12.8694 23.8743 13.1274 23.7019 13.3447 23.4846C13.562 23.2673 13.7345 23.0094 13.8521 22.7255C13.9696 22.4416 14.0303 22.1374 14.0303 21.8301C14.0402 21.7203 14.0402 21.6098 14.0303 21.5H18.0303C18.0303 21.61 18.0303 21.7201 18.0303 21.8301C18.029 22.1369 18.0881 22.4409 18.2046 22.7247C18.3211 23.0086 18.4925 23.2667 18.709 23.4841C18.9255 23.7016 19.183 23.874 19.4663 23.9917C19.7497 24.1094 20.0535 24.17 20.3604 24.17C20.6672 24.17 20.9706 24.1094 21.2539 23.9917C21.5372 23.874 21.7947 23.7016 22.0112 23.4841C22.2277 23.2667 22.3991 23.0086 22.5156 22.7247C22.6321 22.4409 22.6913 22.1369 22.6899 21.8301C22.6899 21.7201 22.6899 21.61 22.6899 21.5H24.0503V15.5C24.049 15.058 23.9596 14.6206 23.7881 14.2133C23.6165 13.8059 23.3661 13.4367 23.0508 13.127C22.7355 12.8172 22.3615 12.5731 21.9512 12.4088C21.5408 12.2446 21.1021 12.1634 20.6602 12.17ZM20.6602 13.5C21.1906 13.5 21.6991 13.7107 22.0742 14.0858C22.4493 14.4609 22.6602 14.9696 22.6602 15.5V16.17H19.3301V13.5H20.6602ZM12.6602 21.8301C12.6602 22.0953 12.5547 22.3496 12.3672 22.5371C12.1797 22.7246 11.9254 22.8301 11.6602 22.8301C11.3949 22.8301 11.1407 22.7246 10.9531 22.5371C10.7656 22.3496 10.6602 22.0953 10.6602 21.8301C10.6614 21.7175 10.6818 21.6058 10.7202 21.5H12.6001C12.6385 21.6058 12.6589 21.7175 12.6602 21.8301ZM18 20.17H9.33008V11.5C9.33008 11.3223 9.40072 11.1519 9.52637 11.0262C9.65202 10.9006 9.8223 10.8301 10 10.8301H17.3301C17.5078 10.8301 17.6781 10.9006 17.8037 11.0262C17.9294 11.1519 18 11.3223 18 11.5V20.17ZM21.3301 21.8301C21.3301 22.0953 21.2246 22.3496 21.0371 22.5371C20.8496 22.7246 20.5953 22.8301 20.3301 22.8301C20.0649 22.8301 19.8106 22.7246 19.623 22.5371C19.4355 22.3496 19.3301 22.0953 19.3301 21.8301C19.3314 21.7175 19.3517 21.6058 19.3901 21.5H21.27C21.3085 21.6058 21.3288 21.7175 21.3301 21.8301ZM19.3301 20.17V17.5H22.6602V20.17H19.3301Z" fill="#3C3C3B"/>
</svg>
