<svg width="48" height="48" viewBox="0 0 48 48" fill="none" xmlns="http://www.w3.org/2000/svg">
<path d="M15.615 18.2401L12.45 26.25L11.16 19.44C11.1097 19.1061 10.9413 18.8013 10.6853 18.5811C10.4293 18.3609 10.1027 18.2399 9.76501 18.2401H4.57503L4.5 18.57C5.53561 18.7875 6.54239 19.1247 7.5 19.575C7.69682 19.6737 7.86584 19.8202 7.99159 20.001C8.11735 20.1817 8.19586 20.3911 8.22002 20.61L10.65 30.015H13.86L18.795 18.2401H15.615ZM20.115 18.2401L17.595 30.015H20.595L23.115 18.2401H20.115ZM37.575 21.42L38.505 25.83H35.985L37.575 21.42ZM37.14 18.2401C36.8621 18.2363 36.5893 18.3157 36.3568 18.468C36.1243 18.6204 35.9426 18.8387 35.835 19.0951L31.335 30.015H34.53L35.16 28.245H39.075L39.435 30.015H42.255L39.72 18.2401H37.14ZM24 21.87C24 23.565 25.5 24.51 26.655 25.065C27.81 25.62 28.245 26.025 28.245 26.565C28.245 27.36 27.3 27.7051 26.415 27.7201C25.3283 27.7382 24.2547 27.4801 23.295 26.9701L22.74 29.55C23.8198 29.9733 24.9703 30.1871 26.13 30.18C29.325 30.18 31.41 28.59 31.425 26.145C31.425 23.04 27.135 22.875 27.165 21.48C27.165 21.06 27.57 20.6101 28.455 20.4901C29.485 20.4046 30.5194 20.5908 31.455 21.03L31.995 18.5251C31.0842 18.1805 30.1188 18.0026 29.145 18C26.145 18 24.015 19.6051 24 21.9001" fill="white"/>
</svg>
