<svg width="48" height="48" viewBox="0 0 48 48" fill="none" xmlns="http://www.w3.org/2000/svg">
<path d="M28.0909 31.5823H19.9609V16.9873H28.0909V31.5823Z" fill="#FF5F00"/>
<path d="M20.4859 24.2775C20.4832 22.8732 20.8006 21.4869 21.414 20.2237C22.0274 18.9605 22.9206 17.8537 24.0259 16.9875C22.6563 15.9101 21.0112 15.2398 19.2787 15.0533C17.5462 14.8668 15.7961 15.1716 14.2287 15.9329C12.6612 16.6941 11.3396 17.8811 10.415 19.3581C9.49035 20.835 9 22.5424 9 24.285C9 26.0275 9.49035 27.7349 10.415 29.2119C11.3396 30.6889 12.6612 31.8758 14.2287 32.637C15.7961 33.3983 17.5462 33.7032 19.2787 33.5167C21.0112 33.3302 22.6563 32.6599 24.0259 31.5825C22.922 30.7116 22.0299 29.6019 21.4168 28.3366C20.8036 27.0714 20.4854 25.6835 20.4859 24.2775Z" fill="#EB001B"/>
<path d="M39.041 24.2774C39.0386 26.0161 38.5481 27.7191 37.6253 29.1927C36.7025 30.6662 35.3845 31.8511 33.8214 32.6124C32.2582 33.3736 30.5127 33.6807 28.7836 33.4986C27.0545 33.3165 25.4113 32.6526 24.041 31.5824C25.1455 30.7135 26.0383 29.6053 26.6522 28.3412C27.2662 27.0772 27.5851 25.6902 27.5851 24.2849C27.5851 22.8796 27.2662 21.4927 26.6522 20.2286C26.0383 18.9645 25.1455 17.8563 24.041 16.9874C25.4086 15.912 27.0513 15.2432 28.7812 15.0574C30.511 14.8716 32.2582 15.1764 33.823 15.9369C35.3878 16.6973 36.707 17.8829 37.6298 19.3578C38.5525 20.8328 39.0416 22.5376 39.041 24.2774Z" fill="#F79E1B"/>
</svg>
