<svg width="32" height="32" viewBox="0 0 32 32" fill="none" xmlns="http://www.w3.org/2000/svg">
<path d="M20.6699 9H11.3301C10.446 9.00265 9.59882 9.35536 8.97461 9.98145C8.3504 10.6075 8 11.4558 8 12.3398V20.3398C8 21.223 8.35011 22.0698 8.97461 22.6943C9.59911 23.3188 10.4469 23.6699 11.3301 23.6699H20.6699C21.5531 23.6699 22.3999 23.3188 23.0244 22.6943C23.6489 22.0698 24 21.223 24 20.3398V12.3398C24 11.4558 23.6496 10.6075 23.0254 9.98145C22.4012 9.35536 21.554 9.00265 20.6699 9ZM11.3301 10.3398H20.6699C21.0676 10.3406 21.4556 10.46 21.7852 10.6826C22.1147 10.9053 22.3704 11.2212 22.5195 11.5898L17.4102 16.7002C17.2244 16.8861 17.0035 17.0331 16.7607 17.1338C16.5179 17.2344 16.2579 17.2861 15.9951 17.2861C15.7323 17.2861 15.4713 17.2344 15.2285 17.1338C14.9857 17.0331 14.7658 16.8861 14.5801 16.7002L9.47949 11.5898C9.62863 11.2212 9.88434 10.9053 10.2139 10.6826C10.5434 10.46 10.9324 10.3406 11.3301 10.3398ZM20.6699 22.3398H11.3301C10.7996 22.3398 10.2901 22.129 9.91504 21.7539C9.53997 21.3788 9.33008 20.8703 9.33008 20.3398V13.3398L13.6396 17.6396C14.2659 18.265 15.115 18.6162 16 18.6162C16.885 18.6162 17.7331 18.265 18.3594 17.6396L22.6699 13.3398V20.3398C22.6699 20.8703 22.4591 21.3788 22.084 21.7539C21.7089 22.129 21.2004 22.3398 20.6699 22.3398Z" fill="#3C3C3B"/>
</svg>
