<svg width="32" height="32" viewBox="0 0 32 32" fill="none" xmlns="http://www.w3.org/2000/svg">
<path d="M15.9801 15.9709C16.3308 15.9709 16.6782 15.9018 17.0021 15.7676C17.3261 15.6335 17.6204 15.4368 17.8683 15.1889C18.1163 14.941 18.3128 14.6466 18.4469 14.3227C18.5811 13.9988 18.6503 13.6516 18.6503 13.301C18.6477 12.5946 18.3651 11.9179 17.8647 11.4194C17.3642 10.9208 16.6865 10.6409 15.9801 10.6409C15.2738 10.6409 14.5963 10.9208 14.0959 11.4194C13.5954 11.9179 13.3129 12.5946 13.3102 13.301C13.3102 13.6516 13.3794 13.9988 13.5136 14.3227C13.6478 14.6466 13.8443 14.941 14.0922 15.1889C14.3401 15.4368 14.6345 15.6335 14.9584 15.7676C15.2824 15.9018 15.6295 15.9709 15.9801 15.9709ZM15.9801 11.9709C16.3321 11.9735 16.669 12.1145 16.9179 12.3633C17.1668 12.6122 17.3076 12.949 17.3102 13.301C17.3102 13.6546 17.1705 13.9939 16.9213 14.2449C16.6722 14.496 16.3338 14.6383 15.9801 14.6409C15.8046 14.6409 15.6309 14.6062 15.4689 14.5388C15.3069 14.4713 15.1599 14.3724 15.0363 14.2479C14.9127 14.1233 14.815 13.9755 14.7487 13.8129C14.6825 13.6504 14.649 13.4765 14.6503 13.301C14.6503 12.9482 14.7903 12.61 15.0397 12.3605C15.2891 12.1111 15.6274 11.9709 15.9801 11.9709ZM21.7502 14.081L21.2702 13.921C21.3524 13.2254 21.2966 12.5204 21.1056 11.8465C20.9147 11.1726 20.5925 10.5431 20.1576 9.99396C19.7228 9.44486 19.1839 8.98697 18.5717 8.64667C17.9595 8.30638 17.2862 8.09035 16.5903 8.01093C16.3872 7.99636 16.1832 7.99636 15.9801 8.01093C14.5665 8.01093 13.2109 8.57252 12.2114 9.57209C11.2118 10.5717 10.6503 11.9273 10.6503 13.3409C10.6517 13.585 10.6685 13.8289 10.7004 14.071C10.0611 14.1894 9.47009 14.4917 9.00017 14.941C8.67965 15.2525 8.42573 15.6257 8.25383 16.0383C8.08193 16.4508 7.99565 16.894 8.00017 17.3409V20.061C8.00125 20.7819 8.23556 21.4832 8.66814 22.06C9.10072 22.6368 9.70849 23.058 10.4003 23.2609L12.3102 23.8609C12.6341 23.9612 12.9712 24.0118 13.3102 24.0109C13.6175 24.0111 13.9234 23.9707 14.2201 23.8909L18.0702 22.7509C18.4131 22.6512 18.7774 22.6512 19.1203 22.7509L20.7104 23.281C21.0532 23.3625 21.4087 23.3753 21.7565 23.3188C22.1043 23.2622 22.4374 23.1374 22.7367 22.9515C23.0361 22.7656 23.2956 22.5223 23.5004 22.2355C23.7053 21.9488 23.8515 21.6244 23.9303 21.281C23.9815 21.0748 24.0082 20.8634 24.0102 20.6509V17.2209C24.0072 16.5303 23.7918 15.8574 23.3927 15.2938C22.9937 14.7301 22.4306 14.3032 21.7802 14.071L21.7502 14.081ZM13.1503 10.4809C13.9002 9.73285 14.9161 9.31281 15.9753 9.31281C17.0345 9.31281 18.0504 9.73285 18.8002 10.4809C19.1736 10.8526 19.4699 11.2944 19.672 11.781C19.8742 12.2675 19.9784 12.7891 19.9784 13.316C19.9784 13.8428 19.8742 14.3645 19.672 14.851C19.4699 15.3375 19.1736 15.7793 18.8002 16.1509L16.4404 18.451C16.3155 18.5714 16.1487 18.6386 15.9753 18.6386C15.8018 18.6386 15.635 18.5714 15.5102 18.451L13.1403 16.161C12.766 15.7884 12.4692 15.3455 12.267 14.8577C12.0648 14.3699 11.9612 13.847 11.9621 13.3189C11.963 12.7909 12.0685 12.2682 12.2724 11.7811C12.4763 11.294 12.7747 10.8521 13.1503 10.4809ZM22.6503 20.6509C22.6427 20.8446 22.5931 21.0343 22.5051 21.207C22.417 21.3796 22.2926 21.5311 22.1403 21.6509C21.9882 21.7704 21.8119 21.8555 21.6237 21.9003C21.4355 21.9452 21.2399 21.9489 21.0502 21.911L19.4902 21.3909C18.8988 21.2212 18.2717 21.2212 17.6803 21.3909L13.8202 22.531C13.4509 22.6358 13.0597 22.6358 12.6904 22.531L10.7602 21.931C10.3412 21.8112 9.97308 21.5578 9.71135 21.2094C9.44962 20.861 9.30868 20.4367 9.31023 20.0009V17.281C9.31126 17.0115 9.36677 16.7451 9.47331 16.4976C9.57985 16.2502 9.73534 16.0268 9.93034 15.8409C10.2342 15.5484 10.6225 15.3594 11.0402 15.301C11.307 15.9667 11.705 16.5721 12.2104 17.081L14.5903 19.3909C14.9637 19.7544 15.4642 19.9578 15.9853 19.9578C16.5064 19.9578 17.0069 19.7544 17.3803 19.3909L19.7502 17.081C20.2775 16.5434 20.6895 15.9036 20.9604 15.201L21.3202 15.321C21.7086 15.4591 22.0448 15.7138 22.2829 16.0504C22.521 16.3869 22.6494 16.7888 22.6503 17.201V20.6509Z" fill="white"/>
</svg>
