<svg width="24" height="24" viewBox="0 0 24 24" fill="none" xmlns="http://www.w3.org/2000/svg">
<path d="M13.365 12L18.0898 7.28247C18.2295 7.14195 18.3081 6.9518 18.3081 6.75366C18.3081 6.55552 18.2295 6.36538 18.0898 6.22485C18.0201 6.15456 17.9373 6.09887 17.8459 6.06079C17.7546 6.02271 17.6564 6.00293 17.5574 6.00293C17.4584 6.00293 17.3602 6.02271 17.2688 6.06079C17.1774 6.09887 17.0946 6.15456 17.0249 6.22485L12.3074 10.9424L7.58984 6.22485C7.52012 6.15456 7.43734 6.09887 7.34595 6.06079C7.25455 6.02271 7.15638 6.00293 7.05737 6.00293C6.95836 6.00293 6.86019 6.02271 6.7688 6.06079C6.6774 6.09887 6.59462 6.15456 6.5249 6.22485C6.38521 6.36538 6.30664 6.55552 6.30664 6.75366C6.30664 6.9518 6.38521 7.14195 6.5249 7.28247L11.2498 12L6.5249 16.7249C6.38521 16.8654 6.30664 17.0555 6.30664 17.2537C6.30664 17.4518 6.38521 17.6419 6.5249 17.7825C6.59462 17.8528 6.6774 17.9085 6.7688 17.9465C6.86019 17.9846 6.95836 18.0037 7.05737 18.0037C7.15638 18.0037 7.25455 17.9846 7.34595 17.9465C7.43734 17.9085 7.52012 17.8528 7.58984 17.7825L12.3074 13.0649L17.0249 17.7825C17.0946 17.8528 17.1774 17.9085 17.2688 17.9465C17.3602 17.9846 17.4584 18.0037 17.5574 18.0037C17.6564 18.0037 17.7546 17.9846 17.8459 17.9465C17.9373 17.9085 18.0201 17.8528 18.0898 17.7825C18.2295 17.6419 18.3081 17.4518 18.3081 17.2537C18.3081 17.0555 18.2295 16.8654 18.0898 16.7249L13.365 12Z" fill="white"/>
</svg>
