<svg width="52" height="48" viewBox="0 0 52 48" fill="none" xmlns="http://www.w3.org/2000/svg">
<circle opacity="0.4" cx="35.4668" cy="25.9434" r="16" fill="#CDE298"/>
<path d="M29.5094 13.5C28.3823 13.5156 27.2785 13.8286 26.3116 14.4082C25.3448 14.9878 24.5495 15.8136 24.0045 16.8003C23.4595 15.8136 22.6627 14.9878 21.6959 14.4082C20.7291 13.8286 19.6267 13.5156 18.4996 13.5C16.7064 13.5819 15.0167 14.3682 13.8004 15.6885C12.5841 17.0087 11.9394 18.7563 12.0045 20.5503C12.0045 27.3153 22.9697 35.1453 23.4347 35.5503L24.0045 35.9707L24.589 35.5503C25.054 35.2203 36.0045 27.3903 36.0045 20.5503C36.0736 18.7553 35.4287 17.0052 34.2115 15.6841C32.9944 14.363 31.304 13.578 29.5094 13.5ZM24.0045 33.4204C20.7495 30.9904 13.9996 25.0203 13.9996 20.5503C13.9339 19.2852 14.3687 18.0454 15.211 17.0991C16.0534 16.1529 17.2354 15.5763 18.4996 15.4951C19.7653 15.5725 20.948 16.1476 21.7911 17.0947C22.6343 18.0419 23.0693 19.2842 22.9996 20.5503H25.0094C24.9397 19.2842 25.3733 18.0419 26.2164 17.0947C27.0595 16.1476 28.2437 15.5725 29.5094 15.4951C30.7736 15.5763 31.9541 16.1529 32.7965 17.0991C33.6388 18.0454 34.0751 19.2852 34.0094 20.5503C34.0094 24.9753 27.3345 30.9304 24.0045 33.3604V33.4204Z" fill="#3C635D"/>
</svg>
