<svg width="52" height="49" viewBox="0 0 52 49" fill="none" xmlns="http://www.w3.org/2000/svg">
<circle opacity="0.4" cx="35.4668" cy="26.4434" r="16" fill="#CDE298"/>
<path d="M24 17.495C23.6022 17.495 23.2208 17.337 22.9395 17.0557C22.6581 16.7744 22.5 16.3928 22.5 15.995V14C22.5 13.6022 22.6581 13.2206 22.9395 12.9393C23.2208 12.658 23.6022 12.5 24 12.5C24.3978 12.5 24.7796 12.658 25.0609 12.9393C25.3422 13.2206 25.5 13.6022 25.5 14V15.995C25.5 16.3928 25.3422 16.7744 25.0609 17.0557C24.7796 17.337 24.3978 17.495 24 17.495ZM25.5 35V32.99C25.5 32.5922 25.3422 32.2106 25.0609 31.9293C24.7796 31.648 24.3978 31.49 24 31.49C23.6022 31.49 23.2208 31.648 22.9395 31.9293C22.6581 32.2106 22.5 32.5922 22.5 32.99V35C22.5 35.3978 22.6581 35.7794 22.9395 36.0607C23.2208 36.342 23.6022 36.5 24 36.5C24.3978 36.5 24.7796 36.342 25.0609 36.0607C25.3422 35.7794 25.5 35.3978 25.5 35ZM16.9951 24.5C16.9951 24.1022 16.837 23.7206 16.5557 23.4393C16.2744 23.158 15.8929 23 15.4951 23H13.5C13.1022 23 12.7208 23.158 12.4395 23.4393C12.1581 23.7206 12 24.1022 12 24.5C12 24.8978 12.1581 25.2794 12.4395 25.5607C12.7208 25.842 13.1022 26 13.5 26H15.4951C15.6921 26 15.887 25.9612 16.069 25.8858C16.251 25.8105 16.4164 25.6999 16.5557 25.5607C16.695 25.4214 16.8055 25.256 16.8809 25.074C16.9562 24.892 16.9951 24.697 16.9951 24.5ZM36 24.5C36 24.1022 35.8422 23.7206 35.5609 23.4393C35.2796 23.158 34.8978 23 34.5 23H32.4902C32.0924 23 31.7106 23.158 31.4293 23.4393C31.148 23.7206 30.9902 24.1022 30.9902 24.5C30.9902 24.8978 31.148 25.2794 31.4293 25.5607C31.7106 25.842 32.0924 26 32.4902 26H34.5C34.8978 26 35.2796 25.842 35.5609 25.5607C35.8422 25.2794 36 24.8978 36 24.5ZM29.4752 17.825L30.4501 16.085C30.5451 15.9118 30.605 15.7215 30.6262 15.525C30.6475 15.3286 30.6296 15.1299 30.5739 14.9403C30.5181 14.7508 30.4256 14.5741 30.3014 14.4204C30.1772 14.2668 30.0239 14.1392 29.8502 14.045C29.5068 13.86 29.1049 13.8161 28.7296 13.9225C28.3544 14.0289 28.0353 14.2773 27.8401 14.615L26.8502 16.355C26.6559 16.7013 26.6068 17.1104 26.7136 17.4928C26.8205 17.8752 27.0744 18.1996 27.42 18.395C27.6413 18.5291 27.8964 18.5968 28.155 18.59C28.4208 18.5895 28.682 18.5185 28.9113 18.384C29.1406 18.2496 29.33 18.0567 29.4602 17.825H29.4752ZM20.1453 34.325L21.1351 32.585C21.3295 32.2388 21.3786 31.8296 21.2717 31.4472C21.1649 31.0648 20.9106 30.7404 20.5649 30.545C20.2187 30.3507 19.8095 30.3016 19.4271 30.4084C19.0447 30.5152 18.7205 30.7694 18.5251 31.115L17.5353 32.855C17.3481 33.2035 17.3061 33.6117 17.4185 33.991C17.5308 34.3703 17.7883 34.6898 18.1351 34.88C18.4696 35.0715 18.865 35.127 19.2393 35.0348C19.6135 34.9426 19.938 34.7099 20.1453 34.385V34.325ZM17.8953 21.005C18.0896 20.6588 18.1387 20.2496 18.0319 19.8672C17.925 19.4848 17.6707 19.1604 17.3251 18.965L15.5852 17.975C15.4111 17.8806 15.2198 17.8215 15.0227 17.8013C14.8256 17.7811 14.6264 17.8002 14.4368 17.8574C14.2471 17.9145 14.0709 18.0087 13.9178 18.1345C13.7648 18.2602 13.638 18.415 13.545 18.59C13.3601 18.9334 13.3163 19.3353 13.4227 19.7106C13.5291 20.0858 13.7775 20.4048 14.1152 20.6L15.8551 21.575C16.2013 21.7693 16.6105 21.8184 16.9929 21.7116C17.3753 21.6048 17.6999 21.3507 17.8953 21.005ZM34.3953 30.32C34.5896 29.9738 34.6387 29.5646 34.5319 29.1822C34.425 28.7998 34.1707 28.4754 33.8251 28.28L32.0852 27.305C31.9131 27.2064 31.7232 27.143 31.5264 27.1183C31.3296 27.0936 31.1297 27.1082 30.9386 27.1612C30.7475 27.2142 30.5687 27.3046 30.4127 27.4271C30.2568 27.5496 30.1268 27.7019 30.03 27.875C29.8357 28.2212 29.7866 28.6304 29.8934 29.0128C30.0003 29.3952 30.2546 29.7196 30.6002 29.915L32.3551 30.89C32.5254 30.9982 32.7156 31.0709 32.9147 31.1039C33.1137 31.1368 33.3174 31.1292 33.5134 31.0816C33.7095 31.034 33.894 30.9473 34.0558 30.8268C34.2176 30.7062 34.3533 30.5543 34.455 30.38L34.3953 30.32ZM20.5052 18.32C20.8509 18.1246 21.1048 17.8002 21.2117 17.4178C21.3185 17.0354 21.2694 16.6262 21.0751 16.28L20.0852 14.54C19.8848 14.1995 19.5582 13.9517 19.1763 13.8506C18.7943 13.7495 18.3877 13.8032 18.045 14C17.7074 14.1952 17.4589 14.5142 17.3525 14.8895C17.2461 15.2647 17.2903 15.6666 17.4752 16.01L18.4651 17.75C18.5953 17.9817 18.7847 18.1746 19.014 18.309C19.2433 18.4435 19.5045 18.5146 19.7703 18.515C20.0412 18.5481 20.3158 18.5066 20.5649 18.395L20.5052 18.32ZM29.8202 34.82C30.1658 34.6246 30.4198 34.3002 30.5266 33.9178C30.6335 33.5354 30.5843 33.1262 30.39 32.78L29.4152 31.04C29.2198 30.6943 28.8952 30.4402 28.5128 30.3334C28.1304 30.2266 27.7212 30.2757 27.375 30.47C27.2026 30.5655 27.0506 30.694 26.9279 30.8482C26.8051 31.0024 26.7141 31.1793 26.6598 31.3688C26.6055 31.5582 26.5891 31.7565 26.6115 31.9523C26.6338 32.1482 26.6945 32.3377 26.7902 32.51L27.78 34.25C27.9754 34.5957 28.3 34.8498 28.6824 34.9566C29.0648 35.0634 29.4739 35.0143 29.8202 34.82ZM32.0852 21.5L33.8251 20.525C33.9957 20.4258 34.145 20.2938 34.2645 20.1367C34.3841 19.9796 34.4714 19.8005 34.5216 19.6096C34.5718 19.4187 34.584 19.2198 34.5571 19.0242C34.5303 18.8287 34.465 18.6403 34.3652 18.47C34.1701 18.1323 33.8509 17.8839 33.4757 17.7775C33.1005 17.6711 32.6985 17.7151 32.3551 17.9L30.6002 18.89C30.2546 19.0854 30.0003 19.4098 29.8934 19.7922C29.7866 20.1746 29.8357 20.5838 30.03 20.93C30.1141 21.1227 30.2378 21.2955 30.3929 21.4374C30.5481 21.5792 30.7311 21.6869 30.9305 21.7533C31.13 21.8198 31.3413 21.8436 31.5505 21.8232C31.7598 21.8028 31.9624 21.7387 32.1453 21.635L32.0852 21.5ZM15.5852 30.815L17.3251 29.84C17.6707 29.6446 17.925 29.3202 18.0319 28.9378C18.1387 28.5554 18.0896 28.1462 17.8953 27.8C17.6999 27.4543 17.3753 27.2003 16.9929 27.0934C16.6105 26.9866 16.2013 27.0357 15.8551 27.23L14.1152 28.205C13.7696 28.4004 13.5153 28.7248 13.4084 29.1072C13.3016 29.4896 13.3507 29.8988 13.545 30.245C13.6753 30.4767 13.8647 30.6696 14.094 30.804C14.3233 30.9385 14.5844 31.0095 14.8502 31.01C15.1079 31.0092 15.361 30.9421 15.5852 30.815Z" fill="#3C635D"/>
</svg>
