<svg width="52" height="48" viewBox="0 0 52 48" fill="none" xmlns="http://www.w3.org/2000/svg">
<circle opacity="0.4" cx="35.4668" cy="25.9434" r="16" fill="#CDE298"/>
<path d="M32.0259 12.0004H15.9902C14.9306 12.0044 13.9153 12.429 13.1675 13.1796C12.4196 13.9303 12 14.9457 12 16.0053V28.0053C12 29.0649 12.4196 30.0818 13.1675 30.8325C13.9153 31.5831 14.9306 32.0077 15.9902 32.0117H18.9009L23.4009 35.7763C23.5841 35.9288 23.8143 36.0122 24.0527 36.0122C24.2911 36.0122 24.5214 35.9288 24.7046 35.7763L29.2046 32.0117H32.1006C33.1616 32.0077 34.1775 31.5842 34.9277 30.8339C35.678 30.0837 36.1015 29.0663 36.1055 28.0053V16.0053C36.1035 15.4736 35.9957 14.9484 35.7891 14.4585C35.5824 13.9685 35.2808 13.5243 34.9014 13.1518C34.5219 12.7793 34.0723 12.4851 33.5786 12.2876C33.0849 12.09 32.5576 11.9925 32.0259 12.0004ZM34.0195 28.0053C34.0215 28.2679 33.9726 28.5285 33.873 28.7714C33.7735 29.0144 33.6266 29.2362 33.4409 29.4218C33.2553 29.6075 33.0335 29.7544 32.7905 29.854C32.5476 29.9535 32.2884 30.0024 32.0259 30.0005H29.1299C28.6568 30.0036 28.2009 30.1741 27.8408 30.4809L24.0308 33.6904L20.2207 30.4809C19.8626 30.1706 19.404 29.9997 18.9302 30.0005H16.0195C15.4904 30.0005 14.983 29.7916 14.6089 29.4174C14.2348 29.0433 14.0259 28.5344 14.0259 28.0053V16.0053C14.0259 15.4762 14.2348 14.9688 14.6089 14.5947C14.983 14.2206 15.4904 14.0117 16.0195 14.0117H32.0259C32.2884 14.0097 32.5476 14.0586 32.7905 14.1582C33.0335 14.2577 33.2553 14.4046 33.4409 14.5903C33.6266 14.7759 33.7735 14.9977 33.873 15.2407C33.9726 15.4836 34.0215 15.7428 34.0195 16.0053V28.0053Z" fill="#3C635D"/>
<path d="M18.9903 19.0049H24.0001C24.264 19.0009 24.5165 18.8941 24.7018 18.7061C24.887 18.518 24.9904 18.264 24.9903 18C24.9865 17.7386 24.8807 17.489 24.6959 17.3042C24.5111 17.1194 24.2615 17.0151 24.0001 17.0112H18.9903C18.7278 17.0112 18.4758 17.1156 18.2901 17.3013C18.1045 17.4869 18.0001 17.7374 18.0001 18C17.9981 18.1313 18.023 18.2619 18.0719 18.3838C18.1207 18.5056 18.1922 18.6169 18.2843 18.7104C18.3764 18.804 18.4869 18.878 18.608 18.9287C18.7291 18.9794 18.8591 19.0049 18.9903 19.0049Z" fill="#3C635D"/>
<path d="M29.0265 21H19.0201C18.8889 21 18.7589 21.0269 18.6378 21.0776C18.5167 21.1283 18.4077 21.2024 18.3155 21.2959C18.2234 21.3894 18.1505 21.5007 18.1017 21.6226C18.0528 21.7444 18.0294 21.8736 18.0314 22.0049C18.0294 22.1361 18.0528 22.2668 18.1017 22.3887C18.1505 22.5105 18.2234 22.6218 18.3155 22.7153C18.4077 22.8089 18.5167 22.8829 18.6378 22.9336C18.7589 22.9843 18.8889 23.0112 19.0201 23.0112H29.0265C29.293 23.0112 29.5485 22.9053 29.7369 22.7168C29.9254 22.5283 30.0314 22.2714 30.0314 22.0049C30.0314 21.7383 29.9254 21.4829 29.7369 21.2944C29.5485 21.106 29.293 21 29.0265 21Z" fill="#3C635D"/>
<path d="M29.0265 25.0049H19.0201C18.8889 25.0049 18.7589 25.0318 18.6378 25.0825C18.5167 25.1332 18.4077 25.2073 18.3155 25.3008C18.2234 25.3943 18.1505 25.5056 18.1017 25.6274C18.0528 25.7493 18.0294 25.88 18.0314 26.0112C18.0314 26.2738 18.1357 26.5243 18.3214 26.71C18.5071 26.8956 18.7576 27 19.0201 27H29.0265C29.2904 27 29.543 26.8967 29.7311 26.7114C29.9191 26.5262 30.0274 26.2752 30.0314 26.0112C30.0314 25.7447 29.9254 25.4878 29.7369 25.2993C29.5485 25.1108 29.293 25.0049 29.0265 25.0049Z" fill="#3C635D"/>
</svg>
