<svg width="52" height="48" viewBox="0 0 52 48" fill="none" xmlns="http://www.w3.org/2000/svg">
<circle opacity="0.4" cx="36" cy="24" r="16" fill="#CDE298"/>
<path d="M28.5 26.0112C28.4961 26.2752 28.3892 26.5262 28.2012 26.7114C28.0131 26.8967 27.7591 27 27.4951 27H19.5C19.236 27 18.9835 26.8967 18.7954 26.7114C18.6074 26.5262 18.4991 26.2752 18.4951 26.0112C18.4951 25.7447 18.6011 25.4878 18.7896 25.2993C18.978 25.1109 19.2335 25.0049 19.5 25.0049H27.4951C27.7617 25.0049 28.0171 25.1109 28.2056 25.2993C28.394 25.4878 28.5 25.7447 28.5 26.0112ZM24.4951 29.0112H19.5C19.236 29.0112 18.9835 29.1146 18.7954 29.2998C18.6074 29.4851 18.4991 29.7361 18.4951 30C18.4951 30.2666 18.6011 30.5235 18.7896 30.7119C18.978 30.9004 19.2335 31.0049 19.5 31.0049H24.4951C24.7617 31.0049 25.0171 30.9004 25.2056 30.7119C25.394 30.5235 25.5 30.2666 25.5 30C25.4961 29.7361 25.3892 29.4851 25.2012 29.2998C25.0131 29.1146 24.7591 29.0112 24.4951 29.0112ZM33.4951 22.4854V31.0049C33.4951 32.3296 32.9699 33.6014 32.0332 34.5381C31.0965 35.4748 29.8248 36 28.5 36H18.4951C17.1704 36 15.9001 35.4748 14.9634 34.5381C14.0266 33.6014 13.5 32.3296 13.5 31.0049V17.0112C13.5 15.6851 14.0271 14.4128 14.9634 13.4736C15.8997 12.5345 17.169 12.004 18.4951 12H22.9951C23.9151 11.9984 24.8261 12.1805 25.6758 12.5332C26.5254 12.8859 27.298 13.4025 27.9463 14.0552L31.4399 17.5357C32.094 18.183 32.6135 18.9534 32.9663 19.8032C33.3191 20.6531 33.4984 21.5652 33.4951 22.4854ZM26.5503 15.4658C26.2368 15.16 25.8834 14.8969 25.5 14.6851V19.0049C25.5 19.2714 25.606 19.5283 25.7944 19.7168C25.9829 19.9053 26.2398 20.0112 26.5063 20.0112H30.8262C30.609 19.6275 30.3412 19.2741 30.0308 18.9609L26.5503 15.4658ZM31.5 22.4854C31.5 22.3204 31.5 22.1699 31.5 22.0049H26.5503C25.7546 22.0049 24.9918 21.6901 24.4292 21.1275C23.8666 20.5648 23.5503 19.8005 23.5503 19.0049V14.0552C23.3853 14.0552 23.2202 14.0552 23.0552 14.0552H18.5552C17.7595 14.0552 16.9967 14.3715 16.4341 14.9341C15.8715 15.4967 15.5552 16.2595 15.5552 17.0552V31.0503C15.5552 31.846 15.8715 32.6088 16.4341 33.1714C16.9967 33.734 17.7595 34.0503 18.5552 34.0503H28.5601C29.3557 34.0503 30.12 33.734 30.6826 33.1714C31.2452 32.6088 31.5601 31.846 31.5601 31.0503L31.5 22.4854Z" fill="#3C635D"/>
</svg>
