<svg width="52" height="49" viewBox="0 0 52 49" fill="none" xmlns="http://www.w3.org/2000/svg">
<circle opacity="0.4" cx="36" cy="26.4434" r="16" fill="#CDE298"/>
<path d="M24.5332 36.5C27.7158 36.5 30.7671 35.2363 33.0176 32.9858C35.268 30.7354 36.5332 27.6826 36.5332 24.5C36.5332 21.3174 35.268 18.2646 33.0176 16.0142C30.7671 13.7637 27.7158 12.5 24.5332 12.5C21.3506 12.5 18.2978 13.7637 16.0474 16.0142C13.7969 18.2646 12.5332 21.3174 12.5332 24.5C12.5332 27.6826 13.7969 30.7354 16.0474 32.9858C18.2978 35.2363 21.3506 36.5 24.5332 36.5ZM24.5332 14.4951C27.1867 14.4951 29.7306 15.5485 31.6069 17.4248C33.4832 19.3011 34.5381 21.8465 34.5381 24.5C34.5381 27.1535 33.4832 29.6989 31.6069 31.5752C29.7306 33.4515 27.1867 34.5049 24.5332 34.5049C21.8823 34.5009 19.3413 33.4452 17.4683 31.5693C15.5952 29.6935 14.543 27.1509 14.543 24.5C14.543 21.8491 15.5952 19.3065 17.4683 17.4307C19.3413 15.5548 21.8823 14.4991 24.5332 14.4951Z" fill="#3C635D"/>
<path d="M24.5332 26.4951L25.5381 26.4951C25.802 26.4951 26.0546 26.3918 26.2427 26.2065C26.4307 26.0213 26.539 25.7688 26.543 25.5049C26.543 25.2383 26.437 24.9829 26.2485 24.7944C26.0601 24.606 25.8046 24.5 25.5381 24.5L24.5332 24.5L24.5332 18.5C24.5352 18.3687 24.5103 18.2381 24.4614 18.1162C24.4126 17.9944 24.3397 17.8831 24.2476 17.7896C24.1554 17.696 24.0464 17.622 23.9253 17.5713C23.8042 17.5206 23.6742 17.4951 23.543 17.4951C23.2764 17.4951 23.021 17.6011 22.8325 17.7896C22.644 17.978 22.5381 18.2335 22.5381 18.5L22.5381 24.5C22.542 25.0279 22.7522 25.533 23.1255 25.9062C23.4988 26.2795 24.0053 26.4912 24.5332 26.4951Z" fill="#3C635D"/>
<path d="M24.5322 28.5049C23.7038 28.5049 23.0322 29.1765 23.0322 30.0049C23.0322 30.8333 23.7038 31.5049 24.5322 31.5049C25.3607 31.5049 26.0322 30.8333 26.0322 30.0049C26.0322 29.1765 25.3607 28.5049 24.5322 28.5049Z" fill="#3C635D"/>
</svg>
