<svg width="52" height="48" viewBox="0 0 52 48" fill="none" xmlns="http://www.w3.org/2000/svg">
<circle opacity="0.4" cx="35.4668" cy="25.9434" r="16" fill="#CDE298"/>
<path d="M27.4951 12H21.4951C20.1704 12 18.8998 12.5263 17.963 13.463C17.0263 14.3998 16.5 15.6702 16.5 16.995V30.99C16.5 32.3161 17.026 33.5882 17.9623 34.5273C18.8986 35.4664 20.169 35.996 21.4951 36H27.4951C28.8213 35.996 30.0916 35.4664 31.028 34.5273C31.9643 33.5882 32.4899 32.3161 32.4899 30.99V16.995C32.4899 15.6702 31.9636 14.3998 31.0269 13.463C30.0901 12.5263 28.8199 12 27.4951 12ZM21.4951 13.995H27.4951C28.2908 13.995 29.0536 14.311 29.6162 14.8737C30.1788 15.4363 30.4951 16.1993 30.4951 16.995V27.99H18.4951V16.995C18.4951 16.1993 18.811 15.4363 19.3737 14.8737C19.9363 14.311 20.6995 13.995 21.4951 13.995ZM27.4951 33.99H21.4951C20.6995 33.99 19.9363 33.6739 19.3737 33.1113C18.811 32.5487 18.4951 31.7856 18.4951 30.99V30H30.4951V30.99C30.4951 31.7856 30.1788 32.5487 29.6162 33.1113C29.0536 33.6739 28.2908 33.99 27.4951 33.99Z" fill="#3C635D"/>
<path d="M24.4952 33.0002C25.0503 33.0002 25.5002 32.5503 25.5002 31.9952C25.5002 31.4402 25.0503 30.9902 24.4952 30.9902C23.9402 30.9902 23.4902 31.4402 23.4902 31.9952C23.4902 32.5503 23.9402 33.0002 24.4952 33.0002Z" fill="#6D6D6C"/>
</svg>
