<svg width="52" height="48" viewBox="0 0 52 48" fill="none" xmlns="http://www.w3.org/2000/svg">
<circle opacity="0.4" cx="35.4668" cy="25.9434" r="16" fill="#CDE298"/>
<path d="M24 16.995C23.6022 16.995 23.2208 16.837 22.9395 16.5557C22.6581 16.2744 22.5 15.8928 22.5 15.495V13.5C22.5 13.1022 22.6581 12.7206 22.9395 12.4393C23.2208 12.158 23.6022 12 24 12C24.3978 12 24.7796 12.158 25.0609 12.4393C25.3422 12.7206 25.5 13.1022 25.5 13.5V15.495C25.5 15.8928 25.3422 16.2744 25.0609 16.5557C24.7796 16.837 24.3978 16.995 24 16.995ZM25.5 34.5V32.49C25.5 32.0922 25.3422 31.7106 25.0609 31.4293C24.7796 31.148 24.3978 30.99 24 30.99C23.6022 30.99 23.2208 31.148 22.9395 31.4293C22.6581 31.7106 22.5 32.0922 22.5 32.49V34.5C22.5 34.8978 22.6581 35.2794 22.9395 35.5607C23.2208 35.842 23.6022 36 24 36C24.3978 36 24.7796 35.842 25.0609 35.5607C25.3422 35.2794 25.5 34.8978 25.5 34.5ZM16.9951 24C16.9951 23.6022 16.837 23.2206 16.5557 22.9393C16.2744 22.658 15.8929 22.5 15.4951 22.5H13.5C13.1022 22.5 12.7208 22.658 12.4395 22.9393C12.1581 23.2206 12 23.6022 12 24C12 24.3978 12.1581 24.7794 12.4395 25.0607C12.7208 25.342 13.1022 25.5 13.5 25.5H15.4951C15.6921 25.5 15.887 25.4612 16.069 25.3858C16.251 25.3105 16.4164 25.1999 16.5557 25.0607C16.695 24.9214 16.8055 24.756 16.8809 24.574C16.9562 24.392 16.9951 24.197 16.9951 24ZM36 24C36 23.6022 35.8422 23.2206 35.5609 22.9393C35.2796 22.658 34.8978 22.5 34.5 22.5H32.4902C32.0924 22.5 31.7106 22.658 31.4293 22.9393C31.148 23.2206 30.9902 23.6022 30.9902 24C30.9902 24.3978 31.148 24.7794 31.4293 25.0607C31.7106 25.342 32.0924 25.5 32.4902 25.5H34.5C34.8978 25.5 35.2796 25.342 35.5609 25.0607C35.8422 24.7794 36 24.3978 36 24ZM29.4752 17.325L30.4501 15.585C30.5451 15.4118 30.605 15.2215 30.6262 15.025C30.6475 14.8286 30.6296 14.6299 30.5739 14.4403C30.5181 14.2508 30.4256 14.0741 30.3014 13.9204C30.1772 13.7668 30.0239 13.6392 29.8502 13.545C29.5068 13.36 29.1049 13.3161 28.7296 13.4225C28.3544 13.5289 28.0353 13.7773 27.8401 14.115L26.8502 15.855C26.6559 16.2013 26.6068 16.6104 26.7136 16.9928C26.8205 17.3752 27.0744 17.6996 27.42 17.895C27.6413 18.0291 27.8964 18.0968 28.155 18.09C28.4208 18.0895 28.682 18.0185 28.9113 17.884C29.1406 17.7496 29.33 17.5567 29.4602 17.325H29.4752ZM20.1453 33.825L21.1351 32.085C21.3295 31.7388 21.3786 31.3296 21.2717 30.9472C21.1649 30.5648 20.9106 30.2404 20.5649 30.045C20.2187 29.8507 19.8095 29.8016 19.4271 29.9084C19.0447 30.0152 18.7205 30.2694 18.5251 30.615L17.5353 32.355C17.3481 32.7035 17.3061 33.1117 17.4185 33.491C17.5308 33.8703 17.7883 34.1898 18.1351 34.38C18.4696 34.5715 18.865 34.627 19.2393 34.5348C19.6135 34.4426 19.938 34.2099 20.1453 33.885V33.825ZM17.8953 20.505C18.0896 20.1588 18.1387 19.7496 18.0319 19.3672C17.925 18.9848 17.6707 18.6604 17.3251 18.465L15.5852 17.475C15.4111 17.3806 15.2198 17.3215 15.0227 17.3013C14.8256 17.2811 14.6264 17.3002 14.4368 17.3574C14.2471 17.4145 14.0709 17.5087 13.9178 17.6345C13.7648 17.7602 13.638 17.915 13.545 18.09C13.3601 18.4334 13.3163 18.8353 13.4227 19.2106C13.5291 19.5858 13.7775 19.9048 14.1152 20.1L15.8551 21.075C16.2013 21.2693 16.6105 21.3184 16.9929 21.2116C17.3753 21.1048 17.6999 20.8507 17.8953 20.505ZM34.3953 29.82C34.5896 29.4738 34.6387 29.0646 34.5319 28.6822C34.425 28.2998 34.1707 27.9754 33.8251 27.78L32.0852 26.805C31.9131 26.7064 31.7232 26.643 31.5264 26.6183C31.3296 26.5936 31.1297 26.6082 30.9386 26.6612C30.7475 26.7142 30.5687 26.8046 30.4127 26.9271C30.2568 27.0496 30.1268 27.2019 30.03 27.375C29.8357 27.7212 29.7866 28.1304 29.8934 28.5128C30.0003 28.8952 30.2546 29.2196 30.6002 29.415L32.3551 30.39C32.5254 30.4982 32.7156 30.5709 32.9147 30.6039C33.1137 30.6368 33.3174 30.6292 33.5134 30.5816C33.7095 30.534 33.894 30.4473 34.0558 30.3268C34.2176 30.2062 34.3533 30.0543 34.455 29.88L34.3953 29.82ZM20.5052 17.82C20.8509 17.6246 21.1048 17.3002 21.2117 16.9178C21.3185 16.5354 21.2694 16.1262 21.0751 15.78L20.0852 14.04C19.8848 13.6995 19.5582 13.4517 19.1763 13.3506C18.7943 13.2495 18.3877 13.3032 18.045 13.5C17.7074 13.6952 17.4589 14.0142 17.3525 14.3895C17.2461 14.7647 17.2903 15.1666 17.4752 15.51L18.4651 17.25C18.5953 17.4817 18.7847 17.6746 19.014 17.809C19.2433 17.9435 19.5045 18.0146 19.7703 18.015C20.0412 18.0481 20.3158 18.0066 20.5649 17.895L20.5052 17.82ZM29.8202 34.32C30.1658 34.1246 30.4198 33.8002 30.5266 33.4178C30.6335 33.0354 30.5843 32.6262 30.39 32.28L29.4152 30.54C29.2198 30.1943 28.8952 29.9402 28.5128 29.8334C28.1304 29.7266 27.7212 29.7757 27.375 29.97C27.2026 30.0655 27.0506 30.194 26.9279 30.3482C26.8051 30.5024 26.7141 30.6793 26.6598 30.8688C26.6055 31.0582 26.5891 31.2565 26.6115 31.4523C26.6338 31.6482 26.6945 31.8377 26.7902 32.01L27.78 33.75C27.9754 34.0957 28.3 34.3498 28.6824 34.4566C29.0648 34.5634 29.4739 34.5143 29.8202 34.32ZM32.0852 21L33.8251 20.025C33.9957 19.9258 34.145 19.7938 34.2645 19.6367C34.3841 19.4796 34.4714 19.3005 34.5216 19.1096C34.5718 18.9187 34.584 18.7198 34.5571 18.5242C34.5303 18.3287 34.465 18.1403 34.3652 17.97C34.1701 17.6323 33.8509 17.3839 33.4757 17.2775C33.1005 17.1711 32.6985 17.2151 32.3551 17.4L30.6002 18.39C30.2546 18.5854 30.0003 18.9098 29.8934 19.2922C29.7866 19.6746 29.8357 20.0838 30.03 20.43C30.1141 20.6227 30.2378 20.7955 30.3929 20.9374C30.5481 21.0792 30.7311 21.1869 30.9305 21.2533C31.13 21.3198 31.3413 21.3436 31.5505 21.3232C31.7598 21.3028 31.9624 21.2387 32.1453 21.135L32.0852 21ZM15.5852 30.315L17.3251 29.34C17.6707 29.1446 17.925 28.8202 18.0319 28.4378C18.1387 28.0554 18.0896 27.6462 17.8953 27.3C17.6999 26.9543 17.3753 26.7003 16.9929 26.5934C16.6105 26.4866 16.2013 26.5357 15.8551 26.73L14.1152 27.705C13.7696 27.9004 13.5153 28.2248 13.4084 28.6072C13.3016 28.9896 13.3507 29.3988 13.545 29.745C13.6753 29.9767 13.8647 30.1696 14.094 30.304C14.3233 30.4385 14.5844 30.5095 14.8502 30.51C15.1079 30.5092 15.361 30.4421 15.5852 30.315Z" fill="#3C635D"/>
</svg>
