<svg width="52" height="49" viewBox="0 0 52 49" fill="none" xmlns="http://www.w3.org/2000/svg">
<circle opacity="0.4" cx="36" cy="26.4434" r="16" fill="#CDE298"/>
<path d="M19.5234 12.5H16.5234C15.4638 12.504 14.4485 12.9285 13.7007 13.6792C12.9528 14.4299 12.5332 15.4453 12.5332 16.5049V19.5049C12.5332 20.5645 12.9528 21.5814 13.7007 22.332C14.4485 23.0827 15.4638 23.5073 16.5234 23.5112H19.5234C20.5844 23.5073 21.6004 23.0837 22.3506 22.3335C23.1008 21.5833 23.5244 20.5659 23.5283 19.5049V16.5049C23.5244 15.4439 23.1008 14.428 22.3506 13.6777C21.6004 12.9275 20.5844 12.504 19.5234 12.5ZM21.5332 19.5049C21.5332 19.7681 21.4821 20.0294 21.3809 20.2725C21.2797 20.5155 21.1312 20.7359 20.9443 20.9214C20.7575 21.1068 20.5348 21.2541 20.291 21.3535C20.0472 21.4529 19.7867 21.502 19.5234 21.5H16.5234C15.9943 21.5 15.4869 21.2911 15.1128 20.917C14.7387 20.5429 14.5283 20.034 14.5283 19.5049V16.5049C14.5283 15.9758 14.7387 15.4684 15.1128 15.0942C15.4869 14.7201 15.9943 14.5112 16.5234 14.5112H19.5234C19.7867 14.5093 20.0472 14.5583 20.291 14.6577C20.5348 14.7571 20.7575 14.9044 20.9443 15.0898C21.1312 15.2753 21.2797 15.4957 21.3809 15.7388C21.4821 15.9818 21.5332 16.2416 21.5332 16.5049V19.5049Z" fill="#3C635D"/>
<path d="M32.5283 12.5H29.5283C28.4673 12.504 27.4514 12.9275 26.7012 13.6777C25.9509 14.428 25.5274 15.4439 25.5234 16.5049V19.5049C25.5274 20.5659 25.9509 21.5833 26.7012 22.3335C27.4514 23.0837 28.4673 23.5073 29.5283 23.5112H32.5283C33.5893 23.5073 34.6067 23.0837 35.3569 22.3335C36.1072 21.5833 36.5293 20.5659 36.5332 19.5049V16.5049C36.5293 15.4439 36.1072 14.428 35.3569 13.6777C34.6067 12.9275 33.5893 12.504 32.5283 12.5ZM34.5234 19.5049C34.5234 20.034 34.3131 20.5429 33.939 20.917C33.5648 21.2911 33.0574 21.5 32.5283 21.5H29.5283C29.2658 21.502 29.0052 21.4531 28.7622 21.3535C28.5193 21.254 28.2989 21.107 28.1133 20.9214C27.9276 20.7357 27.7807 20.5139 27.6812 20.271C27.5816 20.028 27.5312 19.7674 27.5332 19.5049V16.5049C27.5312 16.2423 27.5816 15.9832 27.6812 15.7402C27.7807 15.4973 27.9276 15.2755 28.1133 15.0898C28.2989 14.9042 28.5193 14.7573 28.7622 14.6577C29.0052 14.5582 29.2658 14.5092 29.5283 14.5112H32.5283C33.0574 14.5112 33.5648 14.7201 33.939 15.0942C34.3131 15.4684 34.5234 15.9758 34.5234 16.5049V19.5049Z" fill="#3C635D"/>
<path d="M19.5235 25.5049H16.5235C15.9982 25.5049 15.4778 25.6096 14.9927 25.811C14.5076 26.0125 14.067 26.3076 13.6963 26.6797C13.3256 27.0518 13.0332 27.4932 12.8335 27.979C12.6339 28.4648 12.5313 28.986 12.5332 29.5112V32.5112C12.5332 33.5694 12.9539 34.5842 13.7022 35.3325C14.4504 36.0808 15.4653 36.5 16.5235 36.5H19.5235C20.5831 36.5 21.6 36.0804 22.3506 35.3325C23.1013 34.5847 23.5244 33.5708 23.5283 32.5112V29.5112C23.5283 28.449 23.1061 27.4293 22.355 26.6782C21.6039 25.9271 20.5857 25.5049 19.5235 25.5049ZM21.5332 32.5112C21.5293 33.0417 21.3165 33.5482 20.94 33.9219C20.5634 34.2956 20.054 34.5049 19.5235 34.5049H16.5235C15.9956 34.501 15.4905 34.2908 15.1172 33.9175C14.7439 33.5442 14.5323 33.0391 14.5283 32.5112V29.5112C14.5283 28.9807 14.7391 28.4712 15.1128 28.0947C15.4865 27.7182 15.993 27.504 16.5235 27.5H19.5235C20.0566 27.5 20.5674 27.7119 20.9444 28.0889C21.3213 28.4658 21.5332 28.9781 21.5332 29.5112V32.5112Z" fill="#3C635D"/>
<path d="M32.5283 25.5049H29.5283C28.4661 25.5049 27.4479 25.9271 26.6968 26.6782C25.9457 27.4293 25.5234 28.449 25.5234 29.5112V32.5112C25.5274 33.5708 25.952 34.5847 26.7026 35.3325C27.4533 36.0804 28.4687 36.5 29.5283 36.5H32.5283C33.5879 36.5 34.6048 36.0804 35.3555 35.3325C36.1061 34.5847 36.5292 33.5708 36.5332 32.5112V29.5112C36.5332 28.449 36.1124 27.4293 35.3613 26.6782C34.6102 25.9271 33.5905 25.5049 32.5283 25.5049ZM34.5234 32.5112C34.5195 33.0391 34.3079 33.5442 33.9346 33.9175C33.5613 34.2908 33.0562 34.501 32.5283 34.5049H29.5283C28.9992 34.5049 28.4918 34.296 28.1177 33.9219C27.7435 33.5477 27.5332 33.0403 27.5332 32.5112V29.5112C27.5312 29.248 27.5818 28.986 27.6812 28.7422C27.7805 28.4984 27.9278 28.2772 28.1133 28.0903C28.2987 27.9035 28.5192 27.755 28.7622 27.6538C29.0052 27.5526 29.2651 27.5 29.5283 27.5H32.5283C33.0588 27.504 33.5667 27.7182 33.9404 28.0947C34.3141 28.4712 34.5235 28.9807 34.5234 29.5112V32.5112Z" fill="#3C635D"/>
</svg>
