<svg width="247" height="129" viewBox="0 0 247 129" fill="none" xmlns="http://www.w3.org/2000/svg">
<path d="M51.5271 71.5076C50.3233 98.0655 89.3903 129 137.962 129C184.309 129 212.649 108.051 219.606 72.4239C228.047 29.2256 174.635 -25.3286 147.906 12.9732C108.891 66.304 53.2095 34.364 51.5271 71.5076Z" fill="#F9F9E1"/>
<path d="M140.464 128.047C173.219 128.047 199.773 126.625 199.773 124.87C199.773 123.115 173.219 121.692 140.464 121.692C107.708 121.692 81.1543 123.115 81.1543 124.87C81.1543 126.625 107.708 128.047 140.464 128.047Z" fill="#DBDACA"/>
<path d="M62.0224 115.338C95.8348 115.338 123.245 113.773 123.245 111.843C123.245 109.912 95.8348 108.348 62.0224 108.348C28.2101 108.348 0.799805 109.912 0.799805 111.843C0.799805 113.773 28.2101 115.338 62.0224 115.338Z" fill="#DBDACA"/>
<path d="M79.0392 51.1406H47.4668V81.5081H79.0392V51.1406Z" fill="#F9C980"/>
<path d="M54.1259 53.7119H50.1592V78.6808H54.1259V53.7119Z" fill="#FFA146"/>
<path d="M58.0927 53.7119H54.126V78.6808H58.0927V53.7119Z" fill="#FFA146"/>
<path d="M62.0438 53.7119H58.0771V78.6808H62.0438V53.7119Z" fill="#FFA146"/>
<path d="M66.0107 53.7119H62.0439V78.6808H66.0107V53.7119Z" fill="#FFA146"/>
<path d="M69.9774 53.7119H66.0107V78.6808H69.9774V53.7119Z" fill="#FFA146"/>
<path d="M73.9433 53.7119H69.9766V78.6808H73.9433V53.7119Z" fill="#FFA146"/>
<path d="M76.2175 53.7119H73.9277V78.6808H76.2175V53.7119Z" fill="#FFA146"/>
<path d="M52.4494 55.6709H50.8691V78.1814H52.4494V55.6709Z" fill="#FCB666"/>
<path d="M56.4162 55.6709H54.8359V78.1814H56.4162V55.6709Z" fill="#FCB666"/>
<path d="M60.383 55.6709H58.8027V78.1814H60.383V55.6709Z" fill="#FCB666"/>
<path d="M64.3498 55.6709H62.7695V78.1814H64.3498V55.6709Z" fill="#FCB666"/>
<path d="M68.3 55.6709H66.7197V78.1814H68.3V55.6709Z" fill="#FCB666"/>
<path d="M72.2667 55.6709H70.6865V78.1814H72.2667V55.6709Z" fill="#FCB666"/>
<path d="M76.2335 55.6709H74.6533V78.1814H76.2335V55.6709Z" fill="#FCB666"/>
<path d="M54.1262 53.7119H52.4492V78.6808H54.1262V53.7119Z" fill="#FFA146"/>
<path d="M58.093 53.7119H56.416V78.6808H58.093V53.7119Z" fill="#FFA146"/>
<path d="M62.0432 53.7119H60.3662V78.6808H62.0432V53.7119Z" fill="#FFA146"/>
<path d="M66.01 53.7119H64.333V78.6808H66.01V53.7119Z" fill="#FFA146"/>
<path d="M69.9768 53.7119H68.2998V78.6808H69.9768V53.7119Z" fill="#FFA146"/>
<path d="M73.9436 53.7119H72.2666V78.6808H73.9436V53.7119Z" fill="#FFA146"/>
<path fill-rule="evenodd" clip-rule="evenodd" d="M38.6782 49.4215L16.6033 49.1162L4.63867 70.502L5.23529 85.1877H36.6626L38.6782 49.4215Z" fill="#AAD3EF"/>
<path fill-rule="evenodd" clip-rule="evenodd" d="M37.0658 78.1336L36.8562 78.2782L16.7324 49.1318L38.6783 49.421L37.0658 78.1336Z" fill="#85BFE9"/>
<path d="M128.284 87.9023H40.8877V92.1602H128.284V87.9023Z" fill="#435D76"/>
<path d="M31.6484 91.4697H131.042C131.38 91.4697 131.654 91.7429 131.654 92.0803V98.0895C131.654 98.4269 131.38 98.7001 131.042 98.7001H31.6645C31.3259 98.7001 31.0518 98.4269 31.0518 98.0895V92.0803C31.0518 91.7429 31.3259 91.4697 31.6645 91.4697H31.6484Z" fill="#1A2A3A"/>
<path d="M43.8543 58.3223H40.7744V87.9025H43.8543V58.3223Z" fill="#1A2A3A"/>
<path d="M31.5995 81.5078H131.09C131.396 81.5078 131.654 81.7649 131.654 82.0702V87.5974C131.654 87.9027 131.396 88.1597 131.09 88.1597H31.5995C31.2932 88.1597 31.0352 87.9027 31.0352 87.5974V82.0702C31.0352 81.7649 31.2932 81.5078 31.5995 81.5078Z" fill="#1A2A3A"/>
<path fill-rule="evenodd" clip-rule="evenodd" d="M40.7268 48.3772C40.5495 47.1079 39.7271 46.4331 38.2597 46.417H17.9909C15.6044 46.5134 15.4915 47.0758 14.8627 48.1362L2.0918 71.7072V97.9936C2.0918 98.3953 2.39817 98.7005 2.78516 98.7005H2.81742H19.0067H40.9526L40.743 48.3612L40.7268 48.3772ZM12.9116 82.0064L5.76826 82.0546V71.4662L16.7815 51.0605C17.491 49.6626 17.8619 49.5823 18.9261 49.5984H36.1474C36.6311 49.6466 36.7924 50.0482 36.7924 50.707L36.615 75.1135C28.1011 72.9926 18.9584 75.6116 12.8954 82.0064H12.9116Z" fill="#CDE298"/>
<path fill-rule="evenodd" clip-rule="evenodd" d="M2.0752 87.9023V98.0088C2.0752 98.4105 2.38157 98.7157 2.76856 98.7157H2.80081H18.9901H40.936L40.8876 87.9023H2.0752Z" fill="#B0BF82"/>
<path fill-rule="evenodd" clip-rule="evenodd" d="M30.8099 83.5488H30.6648H30.439H30.2778C30.181 83.5488 30.0843 83.5488 29.9875 83.5649H29.9069L29.665 83.581H29.5038L29.3264 83.6131H29.1329L28.9394 83.6613L28.7459 83.6934H28.5847L28.3751 83.7416L28.1977 83.7738H28.0848C27.988 83.8059 27.8913 83.838 27.7784 83.8541H27.7462C24.9888 84.4325 22.3444 85.7501 20.1514 87.8388C17.0393 90.7953 15.4268 94.7318 15.3301 98.7165H30.5519H46.4993C46.322 90.8113 40.1945 84.3522 32.4063 83.6131H32.374C32.2611 83.6131 32.1482 83.597 32.0354 83.581H31.9547L31.6806 83.5649C31.6 83.5649 31.5194 83.5649 31.4388 83.5649H31.2936C31.1163 83.5649 30.955 83.5649 30.7776 83.5649L30.8099 83.5488Z" fill="#B0BF82"/>
<path fill-rule="evenodd" clip-rule="evenodd" d="M39.9848 90.0716C42.3874 92.4657 43.629 95.5828 43.7258 98.7159H18.168C18.2647 95.5828 19.5063 92.4657 21.9089 90.0716C26.9076 85.0907 35.0023 85.0907 40.001 90.0716H39.9848Z" fill="#85972D"/>
<path fill-rule="evenodd" clip-rule="evenodd" d="M39.4045 90.6509C44.0807 95.3105 44.0807 102.846 39.4045 107.506C34.7283 112.165 27.1658 112.165 22.4896 107.506C17.8134 102.846 17.8134 95.3105 22.4896 90.6509C27.1658 85.9914 34.7283 85.9914 39.4045 90.6509Z" fill="#344453"/>
<path fill-rule="evenodd" clip-rule="evenodd" d="M27.0366 102.99C24.8758 100.837 24.8758 97.3342 27.0366 95.1812C29.1973 93.0281 32.7125 93.0281 34.8732 95.1812L27.0366 102.99Z" fill="#1A2A3A"/>
<path fill-rule="evenodd" clip-rule="evenodd" d="M39.4042 90.6504C44.0804 95.31 44.0804 102.846 39.4042 107.505C34.728 112.165 27.1655 112.165 22.4893 107.505L39.4042 90.6504Z" fill="#1A2A3A"/>
<path fill-rule="evenodd" clip-rule="evenodd" d="M34.8728 95.165C37.0335 97.3181 37.0335 100.821 34.8728 102.974C32.7121 105.127 29.1969 105.127 27.0361 102.974L34.8728 95.165Z" fill="#344453"/>
<path fill-rule="evenodd" clip-rule="evenodd" d="M33.4538 96.5957C34.8244 97.9614 34.8244 100.195 33.4538 101.561C32.067 102.942 29.8418 102.942 28.4551 101.561L33.4538 96.5957Z" fill="#AAD3EF"/>
<path fill-rule="evenodd" clip-rule="evenodd" d="M28.4551 101.576C27.0684 100.211 27.0684 97.9773 28.4551 96.6115C29.8257 95.2297 32.0671 95.2297 33.4538 96.6115L28.4551 101.576Z" fill="#E1EFFA"/>
<path fill-rule="evenodd" clip-rule="evenodd" d="M32.4064 97.6396C33.2126 98.443 33.2126 99.7445 32.4064 100.532C31.6001 101.335 30.294 101.335 29.5039 100.532L32.4064 97.6396Z" fill="#1A2A3A"/>
<path fill-rule="evenodd" clip-rule="evenodd" d="M29.5031 100.532C28.6969 99.7284 28.6969 98.4269 29.5031 97.6396C30.3094 96.8363 31.6155 96.8363 32.4056 97.6396L29.5031 100.532Z" fill="#344453"/>
<path fill-rule="evenodd" clip-rule="evenodd" d="M108.854 83.5488H108.999H109.209H109.37C109.467 83.5488 109.563 83.5488 109.66 83.5649H109.741L109.983 83.581H110.144L110.321 83.6131H110.515L110.708 83.6613L110.902 83.6934H111.063L111.273 83.7416L111.45 83.7738H111.563C111.66 83.8059 111.756 83.838 111.869 83.8541H111.902C114.659 84.4325 117.303 85.7501 119.496 87.8388C122.608 90.7953 124.221 94.7318 124.318 98.7165H109.096H93.1484C93.3258 90.8113 99.4532 84.3522 107.242 83.6131H107.274C107.387 83.6131 107.5 83.597 107.612 83.581H107.693L107.967 83.5649C108.048 83.5649 108.128 83.5649 108.209 83.5649H108.354C108.531 83.5649 108.693 83.5649 108.87 83.5649L108.854 83.5488Z" fill="#D0DF6A"/>
<path fill-rule="evenodd" clip-rule="evenodd" d="M117.755 90.0716C120.158 92.4657 121.4 95.5667 121.496 98.7159H95.9385C96.0352 95.5828 97.2768 92.4657 99.6794 90.0716C104.678 85.0907 112.773 85.0907 117.771 90.0716H117.755Z" fill="#85972D"/>
<path fill-rule="evenodd" clip-rule="evenodd" d="M100.259 107.506C104.935 112.165 112.498 112.165 117.174 107.506C121.85 102.846 121.85 95.3105 117.174 90.6509C112.498 85.9914 104.935 85.9914 100.259 90.6509C95.5829 95.3105 95.5829 102.846 100.259 107.506Z" fill="#344453"/>
<path fill-rule="evenodd" clip-rule="evenodd" d="M100.259 107.505C104.935 112.165 112.498 112.165 117.174 107.505C121.85 102.846 121.85 95.31 117.174 90.6504L100.259 107.505Z" fill="#1A2A3A"/>
<path fill-rule="evenodd" clip-rule="evenodd" d="M112.643 95.1656C110.482 93.0125 106.967 93.0125 104.806 95.1656C102.645 97.3186 102.645 100.821 104.806 102.974L112.643 95.1656Z" fill="#1A2A3A"/>
<path fill-rule="evenodd" clip-rule="evenodd" d="M104.807 102.989C106.967 105.142 110.483 105.142 112.643 102.989C114.804 100.836 114.804 97.3337 112.643 95.1807L104.807 102.989Z" fill="#344453"/>
<path fill-rule="evenodd" clip-rule="evenodd" d="M111.208 96.5957C112.579 97.9614 112.579 100.195 111.208 101.561C109.838 102.942 107.596 102.942 106.226 101.561L111.208 96.5957Z" fill="#AAD3EF"/>
<path fill-rule="evenodd" clip-rule="evenodd" d="M106.225 101.576C104.855 100.211 104.855 97.9773 106.225 96.6115C107.596 95.2297 109.837 95.2297 111.208 96.6115L106.225 101.576Z" fill="#E1EFFA"/>
<path fill-rule="evenodd" clip-rule="evenodd" d="M110.176 97.6396C110.982 98.443 110.982 99.7445 110.176 100.532C109.37 101.335 108.064 101.335 107.273 100.532L110.176 97.6396Z" fill="#1A2A3A"/>
<path fill-rule="evenodd" clip-rule="evenodd" d="M107.257 100.532C106.451 99.7284 106.451 98.4269 107.257 97.6396C108.063 96.8363 109.369 96.8363 110.159 97.6396L107.257 100.532Z" fill="#344453"/>
<path d="M111.385 51.1406H79.8125V81.5081H111.385V51.1406Z" fill="#F9C980"/>
<path d="M86.4559 53.7119H82.4893V78.6808H86.4559V53.7119Z" fill="#FFA146"/>
<path d="M90.4228 53.7119H86.4561V78.6808H90.4228V53.7119Z" fill="#FFA146"/>
<path d="M94.3895 53.7119H90.4229V78.6808H94.3895V53.7119Z" fill="#FFA146"/>
<path d="M98.3564 53.7119H94.3896V78.6808H98.3564V53.7119Z" fill="#FFA146"/>
<path d="M102.307 53.7119H98.3398V78.6808H102.307V53.7119Z" fill="#FFA146"/>
<path d="M106.273 53.7119H102.307V78.6808H106.273V53.7119Z" fill="#FFA146"/>
<path d="M108.563 53.7119H106.273V78.6808H108.563V53.7119Z" fill="#FFA146"/>
<path d="M84.7951 55.6709H83.2148V78.1814H84.7951V55.6709Z" fill="#FCB666"/>
<path d="M88.7453 55.6709H87.165V78.1814H88.7453V55.6709Z" fill="#FCB666"/>
<path d="M92.7121 55.6709H91.1318V78.1814H92.7121V55.6709Z" fill="#FCB666"/>
<path d="M96.6789 55.6709H95.0986V78.1814H96.6789V55.6709Z" fill="#FCB666"/>
<path d="M100.646 55.6709H99.0654V78.1814H100.646V55.6709Z" fill="#FCB666"/>
<path d="M104.597 55.6709H103.017V78.1814H104.597V55.6709Z" fill="#FCB666"/>
<path d="M108.564 55.6709H106.983V78.1814H108.564V55.6709Z" fill="#FCB666"/>
<path d="M86.4563 53.7119H84.7793V78.6808H86.4563V53.7119Z" fill="#FFA146"/>
<path d="M90.4231 53.7119H88.7461V78.6808H90.4231V53.7119Z" fill="#FFA146"/>
<path d="M94.3899 53.7119H92.7129V78.6808H94.3899V53.7119Z" fill="#FFA146"/>
<path d="M98.3557 53.7119H96.6787V78.6808H98.3557V53.7119Z" fill="#FFA146"/>
<path d="M102.307 53.7119H100.63V78.6808H102.307V53.7119Z" fill="#FFA146"/>
<path d="M106.274 53.7119H104.597V78.6808H106.274V53.7119Z" fill="#FFA146"/>
<path d="M91.6319 20.0176H60.0596V50.3851H91.6319V20.0176Z" fill="#F9C980"/>
<path d="M66.7187 22.5889H62.752V47.5577H66.7187V22.5889Z" fill="#FFA146"/>
<path d="M70.6698 22.5889H66.7031V47.5577H70.6698V22.5889Z" fill="#FFA146"/>
<path d="M74.6366 22.5889H70.6699V47.5577H74.6366V22.5889Z" fill="#FFA146"/>
<path d="M78.6034 22.5889H74.6367V47.5577H78.6034V22.5889Z" fill="#FFA146"/>
<path d="M82.5702 22.5889H78.6035V47.5577H82.5702V22.5889Z" fill="#FFA146"/>
<path d="M86.5204 22.5889H82.5537V47.5577H86.5204V22.5889Z" fill="#FFA146"/>
<path d="M88.8102 22.5889H86.5205V47.5577H88.8102V22.5889Z" fill="#FFA146"/>
<path d="M65.0421 24.5488H63.4619V47.0594H65.0421V24.5488Z" fill="#FCB666"/>
<path d="M69.009 24.5488H67.4287V47.0594H69.009V24.5488Z" fill="#FCB666"/>
<path d="M72.9591 24.5488H71.3789V47.0594H72.9591V24.5488Z" fill="#FCB666"/>
<path d="M76.9259 24.5488H75.3457V47.0594H76.9259V24.5488Z" fill="#FCB666"/>
<path d="M80.8927 24.5488H79.3125V47.0594H80.8927V24.5488Z" fill="#FCB666"/>
<path d="M84.8595 24.5488H83.2793V47.0594H84.8595V24.5488Z" fill="#FCB666"/>
<path d="M88.8097 24.5488H87.2295V47.0594H88.8097V24.5488Z" fill="#FCB666"/>
<path d="M66.719 22.5889H65.042V47.5577H66.719V22.5889Z" fill="#FFA146"/>
<path d="M70.6858 22.5889H69.0088V47.5577H70.6858V22.5889Z" fill="#FFA146"/>
<path d="M74.636 22.5889H72.959V47.5577H74.636V22.5889Z" fill="#FFA146"/>
<path d="M78.6028 22.5889H76.9258V47.5577H78.6028V22.5889Z" fill="#FFA146"/>
<path d="M82.5695 22.5889H80.8926V47.5577H82.5695V22.5889Z" fill="#FFA146"/>
<path d="M86.5363 22.5889H84.8594V47.5577H86.5363V22.5889Z" fill="#FFA146"/>
<path d="M91.6319 50.3848H60.0596V51.156H91.6319V50.3848Z" fill="#1A2A3A"/>
<path d="M79.813 51.1406H79.0391V81.5081H79.813V51.1406Z" fill="#1A2A3A"/>
<path d="M117.31 59.2178H189.005C189.819 59.2178 190.482 59.8782 190.482 60.6896V106.41C190.482 107.222 189.819 107.882 189.005 107.882H117.31C116.496 107.882 115.833 107.222 115.833 106.41V60.6896C115.833 59.8782 116.496 59.2178 117.31 59.2178Z" fill="#5F9B54"/>
<path fill-rule="evenodd" clip-rule="evenodd" d="M125.661 59.2178H132.478L162.171 93.6922C162.607 94.2017 163.383 94.2583 163.894 93.8243C164.406 93.3903 164.463 92.6167 164.027 92.1072L135.698 59.2178H188.986C189.686 59.2178 190.292 59.7084 190.425 60.3877V106.712H165.485L125.661 59.2178Z" fill="#3C635D"/>
<path fill-rule="evenodd" clip-rule="evenodd" d="M172.454 100.957H172.587H172.776H172.909C172.909 100.957 173.079 100.957 173.155 100.957H173.231H173.439H173.572L173.723 100.976H173.894L174.064 101.014H174.234L174.367 101.051H174.537L174.689 101.108H174.784C174.784 101.108 174.954 101.165 175.049 101.183H175.087C177.492 101.674 179.802 102.844 181.714 104.655C182.377 105.278 182.945 105.957 183.438 106.656H165.486L163.44 104.221C165.523 102.429 168.137 101.259 171.034 100.976H171.072C171.167 100.976 171.261 100.957 171.356 100.957H171.432H171.678C171.754 100.957 171.81 100.957 171.886 100.957H172C172.151 100.957 172.303 100.957 172.454 100.957Z" fill="#DD3E13"/>
<path fill-rule="evenodd" clip-rule="evenodd" d="M180.219 106.637L180.275 106.693H165.505L165.031 106.127C169.406 102.316 176.052 102.486 180.219 106.637Z" fill="#DD3E13"/>
<path fill-rule="evenodd" clip-rule="evenodd" d="M179.215 106.694C175.295 103.241 169.406 103.241 165.467 106.675L179.196 106.694H179.215Z" fill="#DD3E13"/>
<path d="M224.337 96.1465L218.55 114.983L239.645 121.418L245.432 102.581L224.337 96.1465Z" fill="#F9C980"/>
<path d="M224.048 96.0529L223.084 99.1924L244.722 105.793L245.687 102.653L224.048 96.0529Z" fill="#FFA146"/>
<path fill-rule="evenodd" clip-rule="evenodd" d="M239.642 121.431L231.707 119.015L223.375 99.2969L244.452 105.731L239.642 121.431Z" fill="#FCB666"/>
<path fill-rule="evenodd" clip-rule="evenodd" d="M243.619 102.032L241.289 101.334L239.964 105.655L240.532 105.58L240.911 105.938L241.668 105.768L242.274 106.372L243.619 102.032Z" fill="#DD3E13"/>
<path fill-rule="evenodd" clip-rule="evenodd" d="M228.469 97.4091L226.14 96.7109L224.814 101.032L225.383 100.957L225.78 101.315L226.519 101.145L227.125 101.749L228.469 97.4091Z" fill="#DD3E13"/>
<path d="M202.401 89.4541L196.614 108.291L217.709 114.726L223.496 95.8886L202.401 89.4541Z" fill="#F9C980"/>
<path d="M202.135 89.3488L201.171 92.4883L222.809 99.0885L223.774 95.949L202.135 89.3488Z" fill="#FFA146"/>
<path fill-rule="evenodd" clip-rule="evenodd" d="M217.713 114.732L209.797 112.316L201.446 92.5977L222.542 99.0321L217.713 114.732Z" fill="#FCB666"/>
<path fill-rule="evenodd" clip-rule="evenodd" d="M221.69 95.3538L219.38 94.6367L218.035 98.9767L218.622 98.9012L219.001 99.2409L219.739 99.071L220.364 99.6748L221.69 95.3538Z" fill="#DD3E13"/>
<path fill-rule="evenodd" clip-rule="evenodd" d="M206.541 90.7297L204.23 90.0127L202.886 94.3527L203.473 94.2772L203.852 94.6357L204.59 94.447L205.215 95.0697L206.541 90.7297Z" fill="#DD3E13"/>
<path d="M194.118 108.467H192.035V112.75H194.118V108.467Z" fill="#344453"/>
<path d="M191.656 106.693H105.324C104.968 106.693 104.68 106.981 104.68 107.335V113.524C104.68 113.878 104.968 114.166 105.324 114.166H191.656C192.012 114.166 192.3 113.878 192.3 113.524V107.335C192.3 106.981 192.012 106.693 191.656 106.693Z" fill="#20354A"/>
<path fill-rule="evenodd" clip-rule="evenodd" d="M193.531 114.185L228.337 124.733H246.535C246.952 124.619 246.99 123.657 246.535 123.468L195.444 107.939C194.781 107.731 194.061 108.109 193.872 108.769L192.698 112.6C192.49 113.26 192.868 113.977 193.531 114.166V114.185Z" fill="#20354A"/>
<path fill-rule="evenodd" clip-rule="evenodd" d="M111.345 71.2378L92.1242 70.9736L81.709 89.5789L82.2203 102.391H109.584L111.345 71.2378Z" fill="#AAD3EF"/>
<path fill-rule="evenodd" clip-rule="evenodd" d="M109.944 96.2398L109.755 96.3719L92.2383 70.9736L111.345 71.2378L109.944 96.2398Z" fill="#85BFE9"/>
<path fill-rule="evenodd" clip-rule="evenodd" d="M105.324 114.166H191.675C192.016 114.166 192.319 113.883 192.319 113.524V110.43H104.68V113.524C104.68 113.883 104.964 114.166 105.324 114.166Z" fill="#1A2A3A"/>
<path d="M115.852 74.8604H113.163V108.863H115.852V74.8604Z" fill="#1A2A3A"/>
<path fill-rule="evenodd" clip-rule="evenodd" d="M113.125 70.3324C112.974 69.2191 112.254 68.653 110.985 68.6152H93.3363C91.2533 68.6907 91.1586 69.1813 90.6094 70.1059L79.4746 90.6359V113.524V113.524C79.4746 113.883 79.7397 114.147 80.0806 114.147H113.315L113.125 70.3135V70.3324ZM88.9051 99.6177L82.6939 99.6555V90.4472L92.2759 72.6722C92.9008 71.4645 93.2227 71.389 94.1506 71.389H109.149C109.584 71.4268 109.698 71.7853 109.698 72.3514L109.546 93.5983C102.142 91.7491 94.1695 94.0324 88.9051 99.5988V99.6177Z" fill="#CDE298"/>
<path fill-rule="evenodd" clip-rule="evenodd" d="M79.4746 104.75V113.543C79.4746 113.902 79.7397 114.166 80.0806 114.166H80.0995H94.1885H113.296L113.258 104.75H79.4746Z" fill="#B0BF82"/>
<path fill-rule="evenodd" clip-rule="evenodd" d="M104.49 100.957H104.358H104.168H104.036C104.036 100.957 103.865 100.957 103.79 100.957H103.714H103.506H103.373L103.222 100.976H103.051L102.881 101.014H102.71L102.578 101.051H102.407L102.256 101.108H102.161C102.161 101.108 101.991 101.165 101.896 101.183H101.858C99.4532 101.674 97.1429 102.844 95.2303 104.655C92.5224 107.241 91.1211 110.656 91.0264 114.128H104.282H118.163C118.011 107.241 112.671 101.617 105.892 100.976H105.854C105.759 100.976 105.664 100.957 105.57 100.957H105.494H105.248C105.172 100.957 105.115 100.957 105.04 100.957H104.926C104.774 100.957 104.623 100.957 104.471 100.957H104.49Z" fill="#B0BF82"/>
<path fill-rule="evenodd" clip-rule="evenodd" d="M112.482 106.637C114.584 108.731 115.663 111.43 115.739 114.166H93.4883C93.564 111.43 94.6434 108.731 96.7454 106.637C101.101 102.297 108.145 102.297 112.501 106.637H112.482Z" fill="#85972D"/>
<path fill-rule="evenodd" clip-rule="evenodd" d="M111.989 107.146C116.06 111.203 116.06 117.77 111.989 121.827C107.917 125.884 101.327 125.884 97.2557 121.827C93.1843 117.77 93.1843 111.203 97.2557 107.146C101.327 103.089 107.917 103.089 111.989 107.146Z" fill="#344453"/>
<path fill-rule="evenodd" clip-rule="evenodd" d="M101.195 117.882C99.301 115.995 99.301 112.957 101.195 111.07C103.088 109.184 106.137 109.184 108.031 111.07L101.195 117.882Z" fill="#1A2A3A"/>
<path fill-rule="evenodd" clip-rule="evenodd" d="M111.989 107.146C116.06 111.202 116.06 117.769 111.989 121.826C107.917 125.883 101.327 125.883 97.2559 121.826L111.989 107.146Z" fill="#1A2A3A"/>
<path fill-rule="evenodd" clip-rule="evenodd" d="M108.031 111.071C109.925 112.958 109.925 115.996 108.031 117.883C106.138 119.77 103.089 119.77 101.195 117.883L108.031 111.071Z" fill="#344453"/>
<path fill-rule="evenodd" clip-rule="evenodd" d="M106.782 112.316C107.975 113.505 107.975 115.449 106.782 116.656C105.589 117.845 103.638 117.845 102.445 116.656L106.782 112.316Z" fill="#AAD3EF"/>
<path fill-rule="evenodd" clip-rule="evenodd" d="M102.445 116.656C101.252 115.468 101.252 113.524 102.445 112.316C103.638 111.128 105.588 111.128 106.781 112.316L102.445 116.656Z" fill="#E1EFFA"/>
<path fill-rule="evenodd" clip-rule="evenodd" d="M105.891 113.222C106.592 113.92 106.592 115.052 105.891 115.75C105.19 116.448 104.054 116.448 103.354 115.75L105.891 113.222Z" fill="#1A2A3A"/>
<path fill-rule="evenodd" clip-rule="evenodd" d="M103.354 115.75C102.653 115.052 102.653 113.92 103.354 113.222C104.054 112.524 105.19 112.524 105.891 113.222L103.354 115.75Z" fill="#344453"/>
<path fill-rule="evenodd" clip-rule="evenodd" d="M172.455 100.957H172.587H172.776H172.909C172.909 100.957 173.079 100.957 173.155 100.957H173.231H173.439H173.572L173.723 100.976H173.894L174.064 101.014H174.235L174.367 101.051H174.538L174.689 101.108H174.784C174.784 101.108 174.954 101.165 175.049 101.183H175.087C177.492 101.674 179.802 102.844 181.715 104.655C184.423 107.241 185.824 110.656 185.919 114.128H172.663H158.782C158.934 107.241 164.274 101.617 171.053 100.976H171.091C171.186 100.976 171.28 100.957 171.375 100.957H171.451H171.697C171.773 100.957 171.83 100.957 171.905 100.957H172.019C172.171 100.957 172.322 100.957 172.474 100.957H172.455Z" fill="#B0BF82"/>
<path fill-rule="evenodd" clip-rule="evenodd" d="M180.219 106.637C182.302 108.731 183.4 111.43 183.476 114.166H161.206C161.282 111.43 162.38 108.731 164.463 106.637C168.819 102.297 175.863 102.297 180.219 106.637Z" fill="#85972D"/>
<path fill-rule="evenodd" clip-rule="evenodd" d="M164.974 121.827C169.046 125.884 175.636 125.884 179.707 121.827C183.779 117.77 183.779 111.203 179.707 107.146C175.636 103.089 169.046 103.089 164.974 107.146C160.903 111.203 160.903 117.77 164.974 121.827Z" fill="#344453"/>
<path fill-rule="evenodd" clip-rule="evenodd" d="M164.974 121.826C169.045 125.883 175.635 125.883 179.706 121.826C183.778 117.769 183.778 111.202 179.706 107.146L164.974 121.826Z" fill="#1A2A3A"/>
<path fill-rule="evenodd" clip-rule="evenodd" d="M175.75 111.07C173.856 109.184 170.807 109.184 168.913 111.07C167.02 112.957 167.02 115.995 168.913 117.882L175.75 111.07Z" fill="#1A2A3A"/>
<path fill-rule="evenodd" clip-rule="evenodd" d="M168.932 117.883C170.825 119.77 173.874 119.77 175.768 117.883C177.661 115.996 177.661 112.958 175.768 111.071L168.932 117.883Z" fill="#344453"/>
<path fill-rule="evenodd" clip-rule="evenodd" d="M174.519 112.316C175.712 113.505 175.712 115.449 174.519 116.656C173.326 117.845 171.375 117.845 170.163 116.656L174.519 112.316Z" fill="#AAD3EF"/>
<path fill-rule="evenodd" clip-rule="evenodd" d="M170.162 116.656C168.969 115.468 168.969 113.524 170.162 112.316C171.355 111.128 173.306 111.128 174.518 112.316L170.162 116.656Z" fill="#E1EFFA"/>
<path fill-rule="evenodd" clip-rule="evenodd" d="M173.609 113.222C174.309 113.92 174.309 115.052 173.609 115.75C172.908 116.448 171.772 116.448 171.071 115.75L173.609 113.222Z" fill="#1A2A3A"/>
<path fill-rule="evenodd" clip-rule="evenodd" d="M171.072 115.75C170.372 115.052 170.372 113.92 171.072 113.222C171.773 112.524 172.909 112.524 173.61 113.222L171.072 115.75Z" fill="#344453"/>
<path fill-rule="evenodd" clip-rule="evenodd" d="M193.531 114.184L228.337 124.732H237.957L193.304 110.637L192.698 112.618C192.49 113.278 192.868 113.995 193.531 114.184Z" fill="#1A2A3A"/>
</svg>
