<svg width="458" height="336" viewBox="0 0 458 336" fill="none" xmlns="http://www.w3.org/2000/svg">
<path d="M118.798 247.471C72.6594 203.744 59.4533 112.274 108.105 63.6219C154.53 17.1973 218.36 24.254 285.606 77.5633C367.148 142.195 405.096 263.26 314.371 249.966C189.172 231.581 183.327 308.629 118.798 247.471Z" fill="white"/>
<path d="M214.604 295.249C307.503 295.249 382.812 291.042 382.812 285.853C382.812 280.663 307.503 276.456 214.604 276.456C121.705 276.456 46.3955 280.663 46.3955 285.853C46.3955 291.042 121.705 295.249 214.604 295.249Z" fill="#DBDACA"/>
<path d="M262.526 93.2332C262.141 93.2332 261.771 93.078 261.499 92.8017C261.226 92.5255 261.073 92.1509 261.073 91.7603C260.884 88.3433 260.332 82.9233 259.62 81.7008C258.53 79.5946 254.389 80.6403 254.345 80.6551C254.161 80.7065 253.969 80.7206 253.779 80.6966C253.59 80.6726 253.407 80.6109 253.241 80.5152C253.075 80.4194 252.929 80.2914 252.812 80.1385C252.695 79.9856 252.608 79.8109 252.558 79.6241C252.507 79.4375 252.493 79.2425 252.517 79.0504C252.541 78.8583 252.602 78.6728 252.696 78.5046C252.791 78.3363 252.917 78.1886 253.068 78.0699C253.218 77.9511 253.391 77.8636 253.575 77.8125C253.837 77.8125 259.983 76.0746 262.192 80.3163C263.398 82.6287 263.848 90.1255 263.936 91.5983C263.948 91.799 263.919 92.0001 263.851 92.1891C263.783 92.3781 263.678 92.5511 263.542 92.6974C263.406 92.8436 263.242 92.96 263.06 93.0395C262.877 93.119 262.681 93.1599 262.483 93.1595L262.526 93.2332Z" fill="#776945"/>
<path d="M254.272 85.6186C253.901 85.6193 253.544 85.4762 253.274 85.2189C253.004 84.9615 252.841 84.6093 252.819 84.2342L252.165 74.3219C252.141 73.9335 252.27 73.5513 252.523 73.2588C252.776 72.9663 253.133 72.7872 253.516 72.7607C253.707 72.7467 253.899 72.771 254.081 72.8323C254.262 72.8937 254.43 72.9907 254.575 73.118C254.719 73.2453 254.837 73.4003 254.922 73.5741C255.008 73.7478 255.058 73.9368 255.071 74.1304L255.71 84.0427C255.734 84.4311 255.606 84.8133 255.352 85.1058C255.099 85.3983 254.742 85.5774 254.359 85.6039L254.272 85.6186Z" fill="#776945"/>
<path d="M319.676 246.762C338.431 246.762 353.635 231.352 353.635 212.342C353.635 193.332 338.431 177.922 319.676 177.922C300.921 177.922 285.718 193.332 285.718 212.342C285.718 231.352 300.921 246.762 319.676 246.762Z" fill="#273F39"/>
<path d="M319.677 225.391C326.787 225.391 332.551 219.548 332.551 212.341C332.551 205.134 326.787 199.292 319.677 199.292C312.567 199.292 306.803 205.134 306.803 212.341C306.803 219.548 312.567 225.391 319.677 225.391Z" fill="#596864"/>
<path d="M319.676 219.44C323.544 219.44 326.68 216.262 326.68 212.341C326.68 208.421 323.544 205.242 319.676 205.242C315.808 205.242 312.672 208.421 312.672 212.341C312.672 216.262 315.808 219.44 319.676 219.44Z" fill="#273F39"/>
<path d="M310.662 187.801L304.096 190.918L309.931 203.55L316.497 200.433L310.662 187.801Z" fill="#5F9B54"/>
<path d="M162.873 286.042C181.628 286.042 196.832 270.631 196.832 251.621C196.832 232.612 181.628 217.201 162.873 217.201C144.119 217.201 128.915 232.612 128.915 251.621C128.915 270.631 144.119 286.042 162.873 286.042Z" fill="#273F39"/>
<path d="M162.874 264.672C169.985 264.672 175.749 258.83 175.749 251.623C175.749 244.416 169.985 238.573 162.874 238.573C155.764 238.573 150 244.416 150 251.623C150 258.83 155.764 264.672 162.874 264.672Z" fill="#596864"/>
<path d="M162.874 258.721C166.742 258.721 169.878 255.542 169.878 251.622C169.878 247.701 166.742 244.522 162.874 244.522C159.006 244.522 155.87 247.701 155.87 251.622C155.87 255.542 159.006 258.721 162.874 258.721Z" fill="#273F39"/>
<path d="M118.41 253.921L160.723 242.668C161.536 242.454 162.399 242.552 163.145 242.943C163.891 243.335 164.467 243.992 164.763 244.789C166.405 249.208 170.285 256.749 176.707 252.153C184.946 246.38 211.261 229.899 214.952 227.587C215.242 227.409 215.555 227.275 215.882 227.189L282.724 209.736C285.319 209.061 287.852 208.159 290.294 207.04L339.815 184.506C341.364 183.887 342.725 182.867 343.763 181.548C344.801 180.229 345.479 178.657 345.731 176.989C345.982 175.321 345.798 173.616 345.196 172.043C344.594 170.47 343.595 169.085 342.3 168.025C335.267 162.281 323.41 156.964 304.099 158.717C303.365 158.78 302.631 158.597 302.011 158.195C301.391 157.793 300.919 157.194 300.669 156.493C295.133 141.764 277.841 123.84 268.498 119.23C268.028 119.002 267.615 118.669 267.29 118.255C266.965 117.842 266.738 117.359 266.624 116.844C266.551 116.52 266.493 116.196 266.449 115.886C266.352 115.358 266.379 114.814 266.528 114.298C266.676 113.783 266.942 113.309 267.304 112.917C267.666 112.524 268.114 112.223 268.611 112.038C269.109 111.853 269.643 111.789 270.169 111.851C273.918 112.293 278.96 112.602 279.992 111.247C281.692 109.038 280.486 87.2397 276.374 86.0172C272.683 84.9273 265.069 86.5917 262.177 89.2575C261.596 89.8306 260.823 90.1617 260.012 90.1854H257.309C256.846 90.1535 256.381 90.2161 255.942 90.3695C255.503 90.5229 255.099 90.764 254.754 91.0784C254.408 91.3929 254.129 91.7743 253.931 92.2002C253.734 92.6261 253.622 93.0879 253.604 93.5582L253.197 116.019C253.185 116.79 253.431 117.543 253.895 118.155L259.489 125.651C259.632 125.843 259.754 126.051 259.852 126.27C261.843 130.688 282.709 177.333 277.638 202.092C277.51 202.745 277.195 203.347 276.732 203.821C276.27 204.294 275.68 204.62 275.037 204.758C265.999 206.731 252.718 209.412 246.106 210.737C245.618 210.838 245.114 210.827 244.63 210.705C244.146 210.584 243.696 210.355 243.31 210.035C242.925 209.715 242.615 209.312 242.402 208.855C242.189 208.398 242.08 207.899 242.081 207.394C242.081 192.666 241.573 143.664 235.135 145.417C227.565 147.494 139.872 174.137 128.988 178.453C122.478 181.605 122.26 189.838 122.391 192.739C122.422 193.425 122.244 194.103 121.883 194.683C119.122 199.102 107.715 220.163 114.181 251.211C114.266 251.68 114.445 252.126 114.708 252.521C114.971 252.916 115.312 253.251 115.709 253.506C116.107 253.76 116.552 253.929 117.017 254C117.481 254.072 117.956 254.045 118.41 253.921Z" fill="#5F9B54"/>
<path d="M342.344 168.098C335.311 162.354 323.454 157.037 304.142 158.79C303.409 158.854 302.675 158.67 302.055 158.268C301.435 157.866 300.963 157.268 300.713 156.566C300.611 156.315 300.481 156.05 300.379 155.785C300.19 178.953 291.413 199.455 277.231 211.252L282.768 209.779C285.363 209.105 287.896 208.203 290.338 207.084L339.859 184.55C341.401 183.928 342.756 182.908 343.79 181.592C344.823 180.276 345.499 178.708 345.75 177.045C346.001 175.382 345.819 173.682 345.222 172.112C344.624 170.543 343.632 169.159 342.344 168.098Z" fill="#56894C"/>
<path d="M231.678 177.14C231.678 177.14 243.303 159.275 236.198 151.94C232.972 148.597 219.124 154.724 210.391 152.897C181.329 161.734 136.386 175.579 128.815 178.584C122.567 181.603 122.102 189.262 122.204 192.458C133.552 190.985 162.715 187.303 180.516 184.976C202.98 182.03 230.429 180.071 231.678 177.14Z" fill="#273F39"/>
<path d="M135.512 245.303L192.691 231.503C195.349 230.859 197.709 229.31 199.375 227.114C201.042 224.919 201.914 222.21 201.845 219.44C201.584 208.718 197.486 193.43 175.69 194.711C147.195 196.39 130.645 213.416 126.155 236.187C125.893 237.473 125.958 238.806 126.342 240.061C126.727 241.315 127.418 242.451 128.353 243.361C129.287 244.272 130.434 244.927 131.686 245.267C132.938 245.606 134.254 245.619 135.512 245.303Z" fill="#56894C"/>
<path d="M145.757 229.678C145.459 229.676 145.17 229.571 144.938 229.381C144.706 229.191 144.544 228.928 144.478 228.633C144.409 228.289 144.475 227.932 144.662 227.637C144.85 227.343 145.143 227.134 145.481 227.057L167.364 222.299C167.532 222.263 167.705 222.26 167.874 222.291C168.043 222.322 168.205 222.387 168.349 222.481C168.494 222.575 168.618 222.698 168.716 222.841C168.814 222.984 168.883 223.145 168.919 223.316C168.955 223.487 168.957 223.664 168.926 223.836C168.894 224.008 168.829 224.172 168.734 224.319C168.64 224.465 168.518 224.591 168.375 224.69C168.232 224.788 168.071 224.857 167.902 224.892L146.033 229.649L145.757 229.678Z" fill="#5F9B54"/>
<path d="M145.524 234.375C145.226 234.373 144.937 234.268 144.705 234.078C144.473 233.888 144.311 233.625 144.245 233.33C144.209 233.159 144.206 232.984 144.237 232.812C144.268 232.641 144.331 232.477 144.425 232.331C144.518 232.185 144.638 232.058 144.78 231.959C144.921 231.86 145.08 231.79 145.248 231.754L167.131 226.996C167.298 226.958 167.472 226.953 167.64 226.984C167.809 227.014 167.97 227.079 168.114 227.174C168.258 227.268 168.381 227.392 168.477 227.536C168.573 227.68 168.639 227.842 168.672 228.013C168.708 228.183 168.711 228.359 168.68 228.53C168.649 228.701 168.586 228.865 168.492 229.011C168.399 229.158 168.279 229.284 168.137 229.383C167.996 229.482 167.837 229.552 167.669 229.589L145.8 234.346L145.524 234.375Z" fill="#5F9B54"/>
<path d="M145.292 239.252C144.991 239.248 144.701 239.141 144.469 238.949C144.236 238.756 144.076 238.489 144.013 238.191C143.944 237.85 144.01 237.494 144.198 237.202C144.386 236.91 144.679 236.704 145.016 236.63L166.899 231.873C167.067 231.834 167.241 231.829 167.411 231.86C167.58 231.89 167.743 231.954 167.887 232.049C168.032 232.144 168.157 232.267 168.254 232.411C168.351 232.555 168.419 232.718 168.454 232.889C168.523 233.231 168.456 233.586 168.269 233.878C168.081 234.17 167.787 234.376 167.451 234.45L145.568 239.222L145.292 239.252Z" fill="#5F9B54"/>
<path d="M124.339 206.598L84.9167 192.282L93.9985 189.925L122.886 200.058C123.114 200.144 123.355 200.188 123.598 200.191C124.05 200.195 124.493 200.055 124.863 199.791C125.233 199.527 125.512 199.151 125.661 198.718C125.755 198.443 125.794 198.153 125.777 197.863C125.76 197.572 125.687 197.289 125.561 197.027C125.436 196.766 125.261 196.532 125.046 196.34C124.831 196.147 124.581 195.999 124.31 195.905L101.656 187.952L117.131 183.931C117.693 183.785 118.175 183.419 118.472 182.914C118.769 182.409 118.856 181.806 118.715 181.236C118.568 180.669 118.206 180.184 117.708 179.886C117.211 179.588 116.617 179.501 116.056 179.645L94.1001 185.359C93.5508 185.287 92.995 185.429 92.5454 185.757L77.5932 189.645L75.5443 188.894C74.9989 188.7 74.3999 188.732 73.8775 188.983C73.3551 189.234 72.9515 189.684 72.7544 190.235C72.6807 190.458 72.6415 190.691 72.6382 190.927L53.6029 195.861C53.0437 196.01 52.5652 196.377 52.2713 196.881C51.9775 197.386 51.892 197.988 52.0336 198.556C52.1506 199.032 52.4217 199.455 52.8036 199.757C53.1856 200.059 53.6563 200.222 54.1405 200.22C54.322 200.218 54.5025 200.193 54.6782 200.147L77.3752 194.255L122.871 210.781C123.104 210.867 123.35 210.912 123.598 210.913C124.05 210.915 124.491 210.774 124.861 210.51C125.231 210.246 125.51 209.872 125.661 209.44C125.762 209.166 125.808 208.874 125.796 208.581C125.784 208.289 125.714 208.001 125.591 207.736C125.468 207.472 125.294 207.234 125.078 207.039C124.863 206.843 124.612 206.693 124.339 206.598Z" fill="#273F39"/>
<path d="M181.005 69.3365C185.771 68.0384 187.96 60.6688 185.895 52.876C183.829 45.0832 178.29 39.8182 173.524 41.1163C168.757 42.4145 166.568 49.7842 168.634 57.5769C170.7 65.3697 176.238 70.6346 181.005 69.3365Z" fill="#EAAC98"/>
<path opacity="0.37" d="M182.127 48.5764C182.36 48.3282 182.641 48.1306 182.952 47.9956C183.263 47.8606 183.598 47.791 183.936 47.791C184.274 47.791 184.609 47.8606 184.92 47.9956C185.231 48.1306 185.512 48.3282 185.745 48.5764C186.632 49.4869 187.264 50.6206 187.576 51.8608C187.774 52.6341 187.843 53.4357 187.779 54.2321C187.734 54.9549 187.427 55.6354 186.918 56.1434C186.408 56.6515 185.732 56.9516 185.019 56.9864C182.737 57.1189 180.529 57.3104 178.654 57.5018C178.241 57.5482 177.823 57.464 177.459 57.2609C177.094 57.0578 176.801 56.7456 176.618 56.3669C176.435 55.9882 176.372 55.5615 176.437 55.1451C176.503 54.7288 176.693 54.3431 176.983 54.0407L182.127 48.5764Z" fill="white"/>
<path d="M177.972 71.5385L167.945 72.9229L167.829 62.834H177.972V71.5385Z" fill="#EAAC98"/>
<path d="M211.508 94.9561L217.451 99.8311C219.021 101.113 220.987 101.791 223.002 101.746L253.386 100.995C253.386 100.995 256.931 98.3878 259.823 98.3878C262.715 98.3878 266.115 100.023 266.115 101.82C266.115 103.616 265.941 106.238 263.528 106.547C261.116 106.857 257.571 106.223 255.798 106.547C254.025 106.871 226.17 116.68 219.718 116.68C214.414 116.68 202.281 108.182 202.281 108.182L211.508 94.9561Z" fill="#EAAC98"/>
<path d="M228.945 154.062C222.057 157.244 224.949 168.511 228.218 181.487C231.487 194.462 240.162 212.652 240.162 212.652C240.162 212.652 243.78 212.313 243.969 210.016C244.74 200.118 242.516 171.825 243.432 164.962C244.652 156.507 243.432 145.255 235.701 149.408C233.565 150.557 230.804 153.208 228.945 154.062Z" fill="#16231F"/>
<path d="M170.109 141.572C170.109 141.572 172.769 170.351 193.911 170.351C215.053 170.351 236.428 149.732 235.948 155.402C235.469 161.072 233.812 167.406 234.219 176.228C234.626 185.05 239.45 206.465 239.45 206.465L247.704 204.639C247.704 204.639 255.725 160.91 255.725 152.103C255.725 143.295 251.264 134.709 239.174 134.709C229.889 134.709 215.925 137.036 209.996 138.111C209.177 138.253 208.335 138.12 207.598 137.732C206.861 137.344 206.269 136.722 205.913 135.961L203.661 131.159L170.109 141.572Z" fill="#3C635D"/>
<path d="M239.016 204.506L240.701 217.335C240.727 217.772 240.849 218.197 241.057 218.58C241.266 218.964 241.556 219.295 241.907 219.55C242.257 219.806 242.66 219.978 243.085 220.056C243.51 220.134 243.946 220.115 244.363 220.001L261.916 216.039C262.182 215.974 262.424 215.834 262.614 215.636C262.805 215.437 262.937 215.189 262.994 214.918C263.052 214.648 263.033 214.366 262.94 214.106C262.847 213.845 262.684 213.617 262.468 213.447C259.272 210.878 255.247 209.608 251.178 209.882C250.808 209.936 250.432 209.915 250.07 209.82C249.709 209.725 249.37 209.559 249.072 209.33C248.775 209.101 248.525 208.815 248.338 208.487C248.151 208.16 248.029 207.798 247.981 207.423C247.688 205.701 247.747 203.936 248.155 202.238L239.016 204.506Z" fill="#273F39"/>
<path d="M203.822 134.901L171.04 144.769C170.64 144.892 170.217 144.926 169.802 144.869C169.387 144.811 168.99 144.663 168.636 144.435C168.283 144.207 167.983 143.904 167.756 143.548C167.528 143.191 167.38 142.789 167.321 142.368C166.202 134.857 163.499 116.299 161.741 102.793C159.474 85.4874 164.008 75.6046 166.71 72.9241C167.656 71.942 168.786 71.1612 170.034 70.6275C171.281 70.0939 172.622 69.8181 173.976 69.8164C176.166 69.9278 178.307 70.5155 180.253 71.5396L214.415 93.8237L204.897 112.971L197.167 109.539C197.167 109.539 204.679 122.971 206.379 130.762C206.557 131.653 206.39 132.579 205.914 133.348C205.439 134.118 204.69 134.674 203.822 134.901Z" fill="#CDE298"/>
<path d="M103.022 116.475L117.916 178.776L51.7281 195.757L36.5289 132.013C36.1805 130.547 36.1231 129.026 36.3601 127.538C36.5971 126.049 37.1237 124.624 37.9094 123.344C38.695 122.064 39.7239 120.955 40.9363 120.081C42.1486 119.208 43.5202 118.588 44.9713 118.257L89.668 108.05C92.5391 107.399 95.5478 107.917 98.0457 109.493C100.544 111.068 102.331 113.576 103.022 116.475Z" fill="#FCC97E"/>
<path d="M62.0977 114.479L71.9307 112.211L74.3102 122.81C74.4812 123.572 74.3466 124.371 73.9361 125.032C73.5257 125.694 72.8728 126.162 72.1213 126.336L67.8707 127.316C67.1192 127.49 66.3305 127.353 65.6781 126.937C65.0258 126.521 64.5632 125.859 64.3922 125.098L62.0127 114.499L62.0977 114.479Z" fill="#D8AB6F"/>
<path d="M177.843 46.913C178.947 46.4122 182.449 45.4402 182.449 45.4402C183.05 45.1036 183.556 44.6155 183.917 44.023C184.278 43.4306 184.483 42.7536 184.51 42.0578C184.538 41.3619 184.388 40.6706 184.076 40.0505C183.763 39.4304 183.298 38.9025 182.725 38.5178C179.296 36.4769 175.261 35.7456 171.347 36.4559C163.835 37.6047 158.037 45.2929 158.037 53.2757C158.037 60.6399 166.421 64.6166 169.371 63.8949C173.236 62.9522 174.835 60.2716 173.832 55.5585C173.443 53.8703 173.627 52.0984 174.355 50.5295C175.083 48.9605 176.312 47.6864 177.843 46.913Z" fill="#FAC42D"/>
<path d="M168.367 61.0078C169.787 61.0078 170.939 59.8406 170.939 58.4009C170.939 56.9611 169.787 55.7939 168.367 55.7939C166.946 55.7939 165.795 56.9611 165.795 58.4009C165.795 59.8406 166.946 61.0078 168.367 61.0078Z" fill="#776945"/>
<path d="M260.826 108.669C262.832 108.669 264.459 107.02 264.459 104.987C264.459 102.953 262.832 101.305 260.826 101.305C258.82 101.305 257.193 102.953 257.193 104.987C257.193 107.02 258.82 108.669 260.826 108.669Z" fill="#776945"/>
<path d="M168.977 59.2119L180.078 68.535C180.552 68.9517 181.166 69.1686 181.793 69.1412C182.419 69.1138 183.012 68.8442 183.449 68.3878" stroke="#776945" stroke-miterlimit="10" stroke-linecap="round"/>
</svg>
