<svg width="456" height="267" viewBox="0 0 456 267" fill="none" xmlns="http://www.w3.org/2000/svg">
<g clip-path="url(#clip0_496_6980)">
<path d="M300.775 76.0049C385.765 -9.36915 121.654 -31.9599 42.2196 58.694C-15.088 124.088 -14.0204 197.173 45.3556 256.348L45.4557 256.448C51.7306 262.622 60.2015 266.068 69.0176 266.035H437.551C458.552 266.035 455.9 248.574 455.9 227.214C455.892 145.024 207.078 170.143 300.775 76.0049Z" fill="url(#paint0_linear_496_6980)"/>
<path d="M328.674 95.5522H223.15V223.322H328.674V95.5522Z" fill="#FCB666"/>
<path d="M393.663 161.845H310.566V223.323H393.663V161.845Z" fill="#FCB666"/>
<path d="M285.086 96.2676H266.737V110.66H285.086V96.2676Z" fill="#F4EDE6"/>
<path d="M361.06 142.197H280.641V223.314H361.06V142.197Z" fill="#F9C980"/>
<path d="M328.665 143.153H314.228V154.819H328.665V143.153Z" fill="#F4EDE6"/>
<path d="M265.061 120.006H155.567V223.315H265.061V120.006Z" fill="#F9C980"/>
<path d="M219.489 120.762H201.14V135.155H219.489V120.762Z" fill="#F4EDE6"/>
<path d="M111.137 115.075H99.3106H87.4755L84.4229 151.293H99.3106H114.19L111.137 115.075Z" fill="#CE978A"/>
<path d="M81.1863 98.022C80.7783 97.4329 80.2223 96.9608 79.5739 96.6529C78.9255 96.345 78.2074 96.2122 77.4914 96.2677C75.4563 96.2677 74.9893 99.0364 75.4564 101.897C75.9234 104.757 79.0595 111.874 82.6626 109.263" fill="#CE978A"/>
<path d="M117.426 98.0217C117.835 97.4312 118.392 96.9583 119.042 96.6504C119.692 96.3424 120.412 96.2104 121.129 96.2673C123.156 96.2673 123.631 99.036 123.156 101.896C122.681 104.756 119.553 111.874 115.95 109.263" fill="#CE978A"/>
<path d="M99.3103 69.8188C81.0946 69.8188 79.2931 85.7496 80.5358 101.614C82.0204 120.421 95.2401 127.239 99.3103 127.239C103.38 127.239 116.592 120.421 118.076 101.614C119.319 85.7496 117.518 69.8188 99.3103 69.8188Z" fill="#EAAC98"/>
<path d="M84.2308 82.7896C84.2308 82.7896 94.0559 87.7118 100.712 86.9469C97.2837 85.6748 94.3144 83.9786 96.3495 83.6211C98.3846 83.2635 101.454 87.6287 112.196 87.7784C109.319 85.9491 108.11 83.6211 110.236 84.6521C112.363 85.6831 115.332 86.6559 115.241 88.5017C115.151 90.4767 115.434 92.451 116.075 94.3219C116.634 95.5192 116.909 96.2592 116.909 96.2592H117.976C117.976 96.2592 119.411 87.1132 120.228 84.8184C121.046 82.5235 125.5 65.9027 102.58 67.4908C102.58 62.236 76.5576 58.2117 73.3882 78.2998C74.4288 77.0517 75.6721 75.9864 77.0663 75.1485C77.0663 75.1485 74.8894 79.3058 74.9061 82.8062C74.9228 86.3067 80.8029 97.1572 80.8029 97.1572L84.2808 94.2554L84.2308 82.7896Z" fill="#382B32"/>
<path d="M93.4805 115.533C95.4356 115.839 97.4357 115.683 99.3188 115.075C101.904 114.061 105.324 112.581 104.215 113.969C103.105 115.358 101.562 118.759 98.9601 119.033C96.3579 119.307 93.4805 115.533 93.4805 115.533Z" fill="white" stroke="#DDA292" stroke-linecap="round" stroke-linejoin="round"/>
<path d="M99.7856 143.686C94.5311 143.686 88.5927 139.794 86.6994 135.72C86.4156 135.077 85.8988 134.565 85.2523 134.286C84.6059 134.007 83.8774 133.982 83.213 134.215C63.2709 141.457 36.2311 153.646 32.0024 212.954C42.3864 212.48 59.0673 210.269 59.0673 210.269L60.8522 238.114L66.3986 266.5L143.131 208.622V191.245L143.74 163.732L151.505 156.407C151.505 156.407 124.715 137.832 114.807 133.849C114.273 133.63 113.675 133.623 113.137 133.83C112.598 134.038 112.16 134.443 111.913 134.964C109.919 139.254 107.501 143.686 99.7856 143.686Z" fill="#CDE298"/>
<path d="M62.3286 209.936V215.989L101.362 198.204H144.666V170.143C144.666 170.143 113.189 186.772 100.987 186.772C88.7846 186.772 76.9912 170.143 76.9912 170.143L68.3337 209.221L62.3286 209.936Z" fill="#B0BF82"/>
<path d="M169.879 170.65C169.879 170.65 193.091 190.231 213.767 246.961C214.468 248.837 214.936 250.792 215.16 252.781C215.212 253.356 215.079 253.933 214.779 254.427C214.478 254.92 214.027 255.305 213.492 255.525L209.105 257.396C207.099 258.255 204.846 258.35 202.774 257.662L199.221 256.49C198.871 256.372 198.548 256.185 198.273 255.939C197.997 255.693 197.775 255.394 197.62 255.06L162.498 179.505L169.879 170.65Z" fill="#EAAC98"/>
<path d="M173.733 190.555V260.505L137.401 249.721V202.17L173.733 190.555Z" fill="#F9C980"/>
<path d="M173.732 190.555V260.505L212.474 253.529V196.267L173.732 190.555Z" fill="#FDA545"/>
<path d="M137.401 202.17V249.722L167.711 258.718L143.056 200.358L137.401 202.17Z" fill="#FAA645"/>
<path d="M190.456 193.024V204.033H199.714V194.388L190.456 193.024Z" fill="#F7D9B0"/>
<path d="M138.828 196.824H84.0975C81.3201 172.77 68.701 140.526 68.701 140.526C68.701 140.526 63.9385 143.261 62.0286 144.683C63.5882 149.431 73.9387 178.282 75.6068 197.73C77.2749 217.178 61.3696 233.948 61.3696 233.948L65.6233 266.018H150.029C150.029 266.018 144.299 202.062 143.232 191.187L138.828 196.824Z" fill="#3C635D"/>
<path d="M123.022 138.04C124.098 144.816 124.966 152.175 125.466 160.057C126.245 172.308 126.061 184.601 124.916 196.824H132.681C132.681 196.824 131.621 154.935 129.345 141.665C125.892 139.819 125.483 139.528 123.022 138.04Z" fill="#3C635D"/>
<path d="M186.21 159.217L155.334 218.941H105.257L136.851 157.829L186.21 159.217Z" fill="#5F9B54"/>
<path d="M62.3285 215.989L105.257 196.267C105.257 196.267 114.281 185.392 121.104 185.575C121.104 186.788 118.385 190.006 121.104 190.414C123.823 190.821 143.248 191.935 143.148 193.781C143.048 195.627 138.903 205.621 134.415 206.253C129.928 206.885 113.798 206.211 111.529 207.866C109.26 209.52 66.1818 242.297 66.1818 242.297C66.1818 242.297 59.7178 245.888 54.4466 245.888C49.1754 245.888 37.2485 243.585 37.2485 219.714V212.647L62.27 209.969L62.3285 215.989Z" fill="#EAAC98"/>
<path d="M140.705 157.937C140.705 157.937 141.071 153.705 151.614 153.705C162.156 153.705 182.674 155.293 182.674 170.899C182.674 186.506 157.344 201.439 157.344 201.439C157.344 201.439 120.737 194.987 119.069 194.787C119.069 194.804 156.977 162.177 140.705 157.937Z" fill="#E5E9F2"/>
</g>
<defs>
<linearGradient id="paint0_linear_496_6980" x1="227.996" y1="266.035" x2="227.996" y2="0.500253" gradientUnits="userSpaceOnUse">
<stop stop-color="#FCFCED"/>
<stop offset="1" stop-color="#DBE2CB"/>
</linearGradient>
<clipPath id="clip0_496_6980">
<rect width="456" height="266" fill="white" transform="translate(0 0.5)"/>
</clipPath>
</defs>
</svg>
