<svg width="80" height="90" viewBox="0 0 80 90" fill="none" xmlns="http://www.w3.org/2000/svg">
<g clip-path="url(#clip0_505_6657)">
<path d="M40.0063 90.0124C17.9185 90.0124 0.0126801 86.7419 0.0126801 82.7076C0.0126801 78.6733 17.9185 75.4028 40.0063 75.4028C62.0942 75.4028 80 78.6733 80 82.7076C80 86.7419 62.0942 90.0124 40.0063 90.0124Z" fill="#DBDACA"/>
<path d="M42.3789 5.84385C43.1499 3.9437 43.7816 1.99064 44.2688 0H56.9531V42.141H13.4205V26.3979C23.8723 29.1435 36.4933 20.3275 42.3789 5.84385Z" fill="#E5943C"/>
<path d="M44.2686 0.000134066C43.7813 1.99078 43.1497 3.94383 42.3786 5.84398C36.4931 20.3402 23.8721 29.1059 13.4202 26.3981V-0.050293L44.2686 0.000134066Z" fill="#EFA962"/>
<path d="M33.0048 0H37.4316V42.1537H33.0048V0Z" fill="#F9F9F9"/>
<path d="M63.2314 34.7104C64.3921 41.6831 63.1496 48.8407 59.7051 55.0253C66.3505 53.185 73.3832 53.2374 80 55.1764C77.7532 62.8725 73.02 69.6213 66.5294 74.383C71.527 74.6349 75.5478 75.4283 77.1206 76.9019C74.7614 79.4208 66.9733 81.3225 58.5128 82.1915C49.0757 67.0781 46.6021 50.4031 45.9552 43.5014C50.6421 38.8436 56.6863 35.7681 63.2314 34.7104Z" fill="#9EC5A6"/>
<path d="M34.0319 80.1258C35.0171 76.7902 36.4733 73.61 38.3571 70.68C37.9005 70.7681 37.4314 70.8689 36.9621 70.9444C36.1411 65.9846 36.5278 60.9018 38.0902 56.1209C39.6526 51.3399 42.345 46.9997 45.9423 43.4634C46.5892 50.3651 49.0629 67.0276 58.5 82.1535C48.175 83.224 36.9366 82.7833 34.0573 80.151L34.0319 80.1258Z" fill="#5C8F64"/>
<path d="M32.4465 42.1411H47.3252V83.1614H4.42674V74.2822C6.14687 74.9228 7.96777 75.2554 9.80488 75.2646C22.134 75.2646 32.1294 60.5164 32.4465 42.1411Z" fill="#F9A141"/>
<path d="M32.4463 42.1411C32.1038 60.5164 22.1084 75.2646 9.80466 75.2646C7.96755 75.2554 6.14665 74.9228 4.42652 74.2822V42.1411H32.4463Z" fill="#FFBE7D"/>
<path d="M23.6943 42.1538H28.1211V83.174H23.6943V42.1538Z" fill="#F9F9F9"/>
</g>
<defs>
<clipPath id="clip0_505_6657">
<rect width="80" height="90" fill="white" transform="matrix(-1 0 0 1 80 0)"/>
</clipPath>
</defs>
</svg>
