<svg width="398" height="304" viewBox="0 0 398 304" fill="none" xmlns="http://www.w3.org/2000/svg">
<path d="M0.563599 168.514C-2.26419 231.1 89.5085 304 203.608 304C312.484 304 379.057 254.632 395.399 170.673C415.228 68.8727 289.759 -59.6892 226.969 30.5725C135.319 156.251 4.51572 80.9818 0.563599 168.514Z" fill="#F9F9E1"/>
<path d="M286.871 301.477C321.436 301.477 349.456 298.089 349.456 293.909C349.456 289.729 321.436 286.34 286.871 286.34C252.307 286.34 224.287 289.729 224.287 293.909C224.287 298.089 252.307 301.477 286.871 301.477Z" fill="#DBDACA"/>
<path d="M79.5209 295.17C114.085 295.17 142.105 291.782 142.105 287.602C142.105 283.422 114.085 280.033 79.5209 280.033C44.9565 280.033 16.9365 283.422 16.9365 287.602C16.9365 291.782 44.9565 295.17 79.5209 295.17Z" fill="#DBDACA"/>
<path d="M171.816 280.033C200.795 280.033 224.286 277.774 224.286 274.988C224.286 272.201 200.795 269.942 171.816 269.942C142.838 269.942 119.347 272.201 119.347 274.988C119.347 277.774 142.838 280.033 171.816 280.033Z" fill="#DBDACA"/>
<path d="M166.413 206.242C166.994 204.806 167.47 203.33 167.838 201.826H177.436V233.644H144.634V221.754C152.511 223.811 161.983 217.187 166.413 206.242Z" fill="#E5943C"/>
<path d="M167.846 201.83C167.478 203.334 167.002 204.81 166.421 206.246C161.991 217.19 152.512 223.815 144.642 221.761V201.833L167.846 201.83Z" fill="#EFA962"/>
<path d="M159.37 201.829H162.703V233.648H159.37V201.829Z" fill="#F9F9F9"/>
<path d="M164.361 233.361H179.531V275.372H135.784V266.255C137.538 266.91 139.395 267.248 141.268 267.254C153.809 267.254 164.011 252.18 164.361 233.361Z" fill="#F9A141"/>
<path d="M164.36 233.361C164.01 252.18 153.808 267.274 141.267 267.274C139.394 267.268 137.537 266.93 135.783 266.275V233.361H164.36Z" fill="#FFBE7D"/>
<path d="M155.395 233.361H159.918V275.367H155.395V233.361Z" fill="#F9F9F9"/>
<path d="M202.254 228.315C203.433 235.458 202.163 242.788 198.648 249.121C205.429 247.243 212.601 247.297 219.353 249.276C217.059 257.155 212.235 264.064 205.62 268.944C210.713 269.203 214.81 270.012 216.413 271.485C214.014 274.082 206.015 276.009 197.436 276.908C187.81 261.429 185.286 244.353 184.63 237.273C189.42 232.522 195.584 229.389 202.254 228.315Z" fill="#9EC5A6"/>
<path d="M172.455 274.816C173.46 271.399 174.945 268.141 176.867 265.139C176.396 265.239 175.925 265.334 175.445 265.409C174.609 260.329 175.005 255.124 176.599 250.228C178.192 245.332 180.937 240.886 184.605 237.263C185.261 244.343 187.785 261.4 197.411 276.898C186.894 277.996 175.47 277.537 172.475 274.846H172.45L172.455 274.816Z" fill="#5C8F64"/>
<path d="M72.8814 183.279C71.8363 180.697 70.9797 178.042 70.3184 175.336H53.0547V232.569H112.057V211.181C97.8872 214.882 80.8493 202.966 72.8814 183.279Z" fill="#E5943C"/>
<path d="M70.3047 175.343C70.966 178.049 71.8225 180.703 72.8676 183.286C80.8354 202.973 97.8866 214.888 112.043 211.195V175.349L70.3047 175.343Z" fill="#EFA962"/>
<path d="M85.5495 175.342H79.5537V232.576H85.5495V175.342Z" fill="#F9F9F9"/>
<path d="M44.6616 222.481C43.0986 231.95 44.7828 241.668 49.4423 250.065C40.4531 247.575 30.9439 247.646 21.9932 250.27C25.0334 260.715 31.4299 269.876 40.1996 276.345C33.4469 276.689 28.0154 277.761 25.8907 279.714C29.0712 283.156 39.6752 285.712 51.0493 286.903C63.8111 266.382 67.1575 243.743 68.0273 234.357C61.6769 228.058 53.5047 223.905 44.6616 222.481Z" fill="#9EC5A6"/>
<path d="M84.1686 284.129C82.8361 279.599 80.8666 275.28 78.3188 271.301C78.9429 271.433 79.5672 271.559 80.2046 271.658C81.3118 264.924 80.7871 258.023 78.6745 251.531C76.5618 245.04 72.9225 239.147 68.0602 234.343C67.1904 243.73 63.8439 266.342 51.082 286.89C65.0258 288.346 80.1713 287.737 84.142 284.169H84.1752L84.1686 284.129Z" fill="#5C8F64"/>
<path d="M86.2605 232.576H66.1484V288.273H124.148V276.186C121.822 277.055 119.36 277.503 116.877 277.51C100.251 277.51 86.7253 257.525 86.2605 232.576Z" fill="#F9A141"/>
<path d="M86.2607 232.576C86.7255 257.525 100.251 277.536 116.877 277.536C119.36 277.529 121.823 277.081 124.148 276.212V232.576H86.2607Z" fill="#FFBE7D"/>
<path d="M98.1462 232.576H92.1504V288.267H98.1462V232.576Z" fill="#F9F9F9"/>
<path d="M302.297 101.653C301.252 99.0697 300.396 96.4149 299.734 93.709H282.471V150.942H341.426V129.554C327.316 133.255 310.252 121.339 302.297 101.653Z" fill="#F19F3D"/>
<path d="M299.734 93.7153C300.396 96.4213 301.252 99.076 302.297 101.659C310.265 121.346 327.316 133.261 341.473 129.567V93.7153H299.734Z" fill="#FCB666"/>
<path d="M314.979 93.7153H308.983V150.949H314.979V93.7153Z" fill="#F9F9F9"/>
<path d="M241.987 157.853L270.984 157.39C270.984 157.39 271.98 185.331 269.994 212.299C268.613 231.013 252.551 286.088 252.551 286.088H246.655C246.655 286.088 248.587 257.386 248.574 252.255C248.561 247.125 247.359 204.078 248.242 192.017C243.461 183.094 242.943 180.744 241.987 157.853Z" fill="#273F39"/>
<path d="M269.948 294.992H283.34C283.546 294.991 283.745 294.921 283.905 294.794C284.066 294.666 284.178 294.488 284.224 294.289C284.271 294.089 284.248 293.88 284.16 293.695C284.071 293.51 283.923 293.361 283.739 293.27C281.277 292.104 278.709 291.178 276.07 290.503C275.544 290.369 275.078 290.065 274.744 289.639C274.41 289.212 274.227 288.688 274.224 288.147V285.903H268.042V293.092C268.042 293.341 268.091 293.588 268.187 293.819C268.283 294.049 268.423 294.259 268.6 294.435C268.777 294.612 268.987 294.751 269.218 294.847C269.45 294.942 269.697 294.992 269.948 294.992Z" fill="#596864"/>
<path d="M248.561 295.17H261.96C262.167 295.174 262.368 295.106 262.53 294.979C262.693 294.852 262.807 294.674 262.853 294.473C262.9 294.273 262.876 294.063 262.786 293.878C262.696 293.693 262.545 293.544 262.359 293.456C259.896 292.291 257.328 291.362 254.689 290.682C254.163 290.551 253.695 290.249 253.359 289.824C253.024 289.398 252.84 288.874 252.837 288.332V286.088H246.655V293.271C246.655 293.775 246.856 294.258 247.213 294.614C247.571 294.97 248.055 295.17 248.561 295.17Z" fill="#39423F"/>
<path d="M245.075 157.853L281.88 157.264C281.88 157.264 283.274 195.571 281.88 214.278C280.485 232.985 274.224 285.903 274.224 285.903H268.042C268.042 285.903 263.806 259.424 263.786 254.268C263.766 249.111 255.38 208.043 256.263 196.015C251.263 187.939 244.929 178.102 245.075 157.853Z" fill="#3C635D"/>
<path d="M271.979 84.8451L271.787 76.0608C271.788 75.9393 271.82 75.8201 271.879 75.7138C271.939 75.6075 272.023 75.5175 272.126 75.4519C272.229 75.3863 272.346 75.3471 272.468 75.3379C272.589 75.3286 272.711 75.3496 272.823 75.3989C273.756 75.81 274.771 76.0024 275.791 75.9615C278.493 75.8159 282.112 72.6517 282.796 68.5873C283.679 63.3776 281.86 49.2183 281.86 49.2183L257.956 55.3812C257.956 55.3812 256.708 63.9866 259.171 68.4747C260.725 71.3211 260.167 76.127 257.624 80.1451C261.734 81.5418 271.979 84.8451 271.979 84.8451Z" fill="#EAAC98"/>
<path d="M286.182 155.146C286.236 155.445 286.228 155.751 286.158 156.047C286.088 156.342 285.959 156.621 285.777 156.864C285.595 157.108 285.366 157.312 285.102 157.464C284.838 157.616 284.546 157.712 284.243 157.747C276.69 158.616 269.092 159.058 261.489 159.071C247.359 159.071 241.987 157.899 241.987 157.899C241.987 157.899 246.038 141.35 247.804 135.519C249.57 129.687 251.516 121.2 251.004 117.083C250.387 112.138 249.995 107.266 250.227 98.0978C250.486 87.9367 254.045 80.2249 257.312 79.3511C257.465 79.3195 257.623 79.3306 257.769 79.3832C257.916 79.4357 258.045 79.5277 258.142 79.6489C259.052 80.6551 263.115 82.9124 268.168 82.9124C269.425 82.9621 270.685 82.909 271.933 82.7536C272.14 82.7064 272.356 82.7094 272.561 82.7624C272.767 82.8154 272.957 82.9168 273.115 83.0581C275.539 85.2161 283.792 93.3648 283.792 99.6932C283.792 106.902 283.792 110.424 283.792 114.005C283.832 123.563 284.748 147.123 286.182 155.146Z" fill="#CDE298"/>
<path d="M247.977 140.827C248.148 137.77 249.282 134.845 251.217 132.467C254.132 128.978 256.828 129.356 260.513 130.19C265.34 131.289 267.04 130.925 264.397 129.945C259.005 127.959 256.535 126.165 253.528 118.744C252.089 115.399 251.012 111.911 250.314 108.338C250.453 111.648 250.719 114.349 251.051 117.037C251.562 121.154 249.617 129.614 247.851 135.472C247.704 135.958 247.545 136.507 247.373 137.12C247.04 138.258 247.094 139.472 247.525 140.576C247.744 141.165 247.937 141.344 247.977 140.827Z" fill="#B0BF82"/>
<path d="M283.799 99.6466C283.744 98.1145 283.376 96.6097 282.717 95.2246C282.717 97.376 283.022 100.745 281.747 102.566C280.605 104.201 278.494 105.313 275.625 105.214C272.757 105.114 281.601 114.031 281.216 114.395L279.676 115.964L283.998 124.53C283.879 120.644 283.806 116.467 283.799 113.938C283.779 110.377 283.799 106.855 283.799 99.6466Z" fill="#B0BF82"/>
<path d="M267.345 128.76L279.668 115.958C279.668 115.958 286.773 129.753 289.861 132.394C291.853 134.089 308.299 142.078 315.809 145.713C323.319 149.347 326.958 150.346 325.304 151.101C323.006 152.259 320.481 152.898 317.907 152.974C314.813 152.974 307.284 150.221 304.628 149.34C301.972 148.46 285.91 144.117 283.433 142.846C279.814 140.98 267.345 128.76 267.345 128.76Z" fill="#EAAC98"/>
<path d="M272.75 52.0449C272.75 52.0449 272.896 59.0882 272.385 60.5577C271.873 62.0273 271.196 61.7095 270.028 60.0414C268.388 57.6914 266.568 58.0555 265.619 59.3066C264.324 61.0145 265.831 65.2643 267.896 65.3239C269.961 65.3835 270.997 66.5419 268.925 67.0119C266.349 67.601 266.13 70.3879 264.437 70.8314C262.744 71.2749 258.912 72.0031 257.943 64.4898C256.808 55.7188 259.125 52.5745 259.125 52.5745L272.75 52.0449Z" fill="#413A5C"/>
<path d="M257.956 55.348C257.956 55.348 257.073 42.5788 268.228 40.487C279.383 38.3952 282.464 46.1004 282.464 46.1004L293.532 45.081C293.708 45.038 293.895 45.0665 294.05 45.1602C294.205 45.2539 294.316 45.4052 294.359 45.5808C294.402 45.7563 294.374 45.9418 294.28 46.0964C294.186 46.251 294.034 46.3619 293.858 46.4049C289.177 48.3908 281.74 51.4226 278.586 52.5082C273.858 54.1366 264.031 55.7849 257.956 55.348Z" fill="#F9DE7A"/>
<path d="M268.575 41.4476C269.719 41.2079 270.534 40.4742 270.394 39.8087C270.254 39.1432 269.212 38.798 268.067 39.0377C266.922 39.2774 266.108 40.0112 266.248 40.6766C266.388 41.3421 267.43 41.6873 268.575 41.4476Z" fill="#E5AC2E"/>
<path d="M270.466 73.4394C267.551 68.3092 268.055 71.149 269.297 74.2404C269.881 75.7033 270.877 78.2518 271.84 78.6755C271.84 78.6755 271.794 76.7889 271.787 76.0277C271.787 74.7037 273.321 75.5246 273.321 75.5246C273.321 75.5246 271.249 74.8096 270.466 73.4394Z" fill="#CE9789"/>
</svg>
