<svg width="544" height="337" viewBox="0 0 544 337" fill="none" xmlns="http://www.w3.org/2000/svg">
<g clip-path="url(#clip0_496_6502)">
<path d="M352.484 298C410.039 298 456.697 296.107 456.697 293.772C456.697 291.438 410.039 289.545 352.484 289.545C294.93 289.545 248.271 291.438 248.271 293.772C248.271 296.107 294.93 298 352.484 298Z" fill="#DBDACA"/>
<path d="M228.254 243.705C285.105 243.705 331.192 197.881 331.192 141.354C331.192 84.8263 285.105 39.002 228.254 39.002C171.403 39.002 125.316 84.8263 125.316 141.354C125.316 197.881 171.403 243.705 228.254 243.705Z" fill="url(#paint0_linear_496_6502)"/>
<path d="M137.571 265.627C137.571 265.627 136.031 249.822 121.427 242.573C107.841 235.829 100.3 236.198 84.2332 237.296C74.2356 237.979 90.1862 237.807 94.7121 250.514C98.7174 261.757 104.142 277.896 123.607 278.487C143.072 279.076 137.571 265.625 137.571 265.625V265.627Z" fill="#9DC89E"/>
<path d="M127.618 266.876C125.989 255.582 115.151 248.461 106.345 244.477C96.7394 240.131 87.3959 238.466 87.3018 238.45L87.4507 237.604C87.5448 237.619 96.9825 239.298 106.687 243.688C112.401 246.272 117.094 249.278 120.635 252.621C125.09 256.828 127.728 261.583 128.473 266.756L127.617 266.878L127.618 266.876Z" fill="#599E85"/>
<path d="M96.2023 246.818L95.8525 246.031C96.0595 245.94 101.023 243.824 110.436 245.543L110.279 246.389C101.156 244.724 96.2493 246.798 96.2007 246.818H96.2023Z" fill="#599E85"/>
<path d="M101.057 259.913L100.773 259.099C100.913 259.051 114.797 254.364 125.552 258.808L125.219 259.603C114.765 255.285 101.192 259.867 101.056 259.913H101.057Z" fill="#599E85"/>
<path d="M114.698 249.042C111.176 246.454 111.03 239.643 111.025 239.353L111.891 239.339C111.891 239.406 112.034 246.014 115.213 248.349L114.698 249.041V249.042Z" fill="#599E85"/>
<path d="M125.733 260.774C124.08 255.972 124.447 246.954 124.871 246.065L125.653 246.433L125.656 246.427C125.351 247.207 124.949 255.836 126.553 260.495L125.735 260.774H125.733Z" fill="#599E85"/>
<path d="M406.428 265.627C406.428 265.627 407.968 249.822 422.572 242.573C436.158 235.829 443.699 236.198 459.766 237.296C469.763 237.979 453.813 237.807 449.287 250.514C445.282 261.757 439.857 277.896 420.392 278.487C400.927 279.076 406.428 265.625 406.428 265.625V265.627Z" fill="#9DC89E"/>
<path d="M416.38 266.876C418.01 255.582 428.848 248.461 437.653 244.477C447.259 240.131 456.602 238.466 456.696 238.45L456.547 237.604C456.453 237.619 447.016 239.298 437.311 243.688C431.597 246.272 426.905 249.278 423.363 252.621C418.908 256.828 416.27 261.583 415.525 266.756L416.382 266.878L416.38 266.876Z" fill="#599E85"/>
<path d="M447.797 246.818L448.147 246.031C447.94 245.94 442.976 243.824 433.563 245.543L433.72 246.389C442.843 244.724 447.75 246.798 447.798 246.818H447.797Z" fill="#599E85"/>
<path d="M442.942 259.913L443.225 259.099C443.086 259.051 429.202 254.364 418.447 258.808L418.78 259.603C429.234 255.285 442.807 259.867 442.942 259.913Z" fill="#599E85"/>
<path d="M429.301 249.042C432.824 246.454 432.97 239.643 432.974 239.353L432.109 239.339C432.109 239.406 431.966 246.014 428.787 248.349L429.301 249.041V249.042Z" fill="#599E85"/>
<path d="M418.265 260.774C419.918 255.972 419.551 246.954 419.128 246.065L418.345 246.433L418.342 246.427C418.648 247.207 419.05 255.836 417.445 260.495L418.264 260.774H418.265Z" fill="#599E85"/>
<path d="M386.264 275.314C386.264 275.314 381.048 266.217 386.142 256.791C390.881 248.022 395.084 245.369 404.159 239.884C409.805 236.472 401.148 242.41 403.57 250.967C405.712 258.538 408.964 269.283 398.705 276.961C388.445 284.639 386.264 275.314 386.264 275.314Z" fill="#9DC89E"/>
<path d="M392.103 272.222C388.66 265.521 391.775 257.588 394.995 252.111C398.506 246.137 402.903 241.707 402.947 241.664L402.542 241.265C402.499 241.308 398.057 245.782 394.508 251.817C392.419 255.37 391.041 258.763 390.412 261.904C389.622 265.855 390.02 269.413 391.596 272.482L392.104 272.223L392.103 272.222Z" fill="#599E85"/>
<path d="M401.354 249.539L401.241 248.982C401.095 249.012 397.612 249.75 393.199 254.234L393.607 254.63C397.884 250.284 401.32 249.545 401.354 249.538V249.539Z" fill="#599E85"/>
<path d="M403.747 258.429L403.589 257.883C403.496 257.909 394.223 260.635 390.13 267.095L390.613 267.398C394.593 261.118 403.656 258.454 403.747 258.427V258.429Z" fill="#599E85"/>
<path d="M392.241 257.729C393.149 255.004 390.621 251.279 390.512 251.121L390.042 251.441C390.067 251.477 392.518 255.091 391.7 257.55L392.241 257.728V257.729Z" fill="#599E85"/>
<path d="M390.783 268.222C389.838 265.01 386.19 260.292 385.622 259.974L385.342 260.468H385.337C385.8 260.77 389.317 265.266 390.235 268.383L390.782 268.224L390.783 268.222Z" fill="#599E85"/>
<path d="M157.483 275.314C157.483 275.314 162.699 266.217 157.605 256.791C152.866 248.022 148.663 245.369 139.587 239.884C133.942 236.472 142.598 242.41 140.177 250.967C138.035 258.538 134.782 269.283 145.042 276.961C155.301 284.639 157.483 275.314 157.483 275.314Z" fill="#9DC89E"/>
<path d="M151.644 272.222C155.086 265.521 151.972 257.588 148.752 252.111C145.241 246.137 140.844 241.707 140.8 241.664L141.204 241.265C141.248 241.308 145.69 245.782 149.239 251.817C151.327 255.37 152.706 258.763 153.335 261.904C154.125 265.855 153.727 269.413 152.151 272.482L151.643 272.223L151.644 272.222Z" fill="#599E85"/>
<path d="M142.393 249.539L142.505 248.982C142.651 249.012 146.134 249.75 150.547 254.234L150.14 254.63C145.863 250.284 142.427 249.545 142.393 249.538V249.539Z" fill="#599E85"/>
<path d="M140 258.429L140.158 257.883C140.251 257.909 149.524 260.635 153.617 267.095L153.134 267.398C149.154 261.118 140.091 258.454 140 258.427V258.429Z" fill="#599E85"/>
<path d="M151.506 257.729C150.598 255.004 153.126 251.279 153.234 251.121L153.705 251.441C153.68 251.477 151.228 255.091 152.047 257.55L151.506 257.728V257.729Z" fill="#599E85"/>
<path d="M152.963 268.222C153.909 265.01 157.556 260.292 158.124 259.974L158.405 260.468H158.409C157.947 260.77 154.429 265.266 153.512 268.383L152.964 268.224L152.963 268.222Z" fill="#599E85"/>
<path d="M463 280.267H81V284.021H463V280.267Z" fill="#599E85"/>
<path d="M378.342 280.682C378.342 280.682 384.639 262.317 404.579 268.995C404.579 268.995 409.616 253.343 423.469 253.865C437.321 254.388 441.729 267.268 441.729 267.268C441.729 267.268 460.339 265.03 462.998 280.682H378.341H378.342Z" fill="#599E85"/>
<path d="M420.516 280.592L419.686 280.46C421.476 269.423 414.59 261.481 414.521 261.402L415.151 260.85C415.223 260.932 422.368 269.156 420.514 280.592H420.516Z" fill="#9DC89E"/>
<path d="M420.728 273.837L420.085 273.299C420.149 273.224 426.454 265.726 427.528 261.032L428.346 261.218C427.228 266.109 420.993 273.524 420.728 273.837Z" fill="#9DC89E"/>
<path d="M420.375 277.809C415.41 277.54 411.016 272.457 410.832 272.24L411.472 271.699C411.514 271.749 415.819 276.725 420.422 276.974L420.376 277.807L420.375 277.809Z" fill="#9DC89E"/>
<path d="M435.993 280.999L435.444 280.368C435.802 280.06 444.253 272.842 448.666 272.721L448.69 273.555C444.576 273.669 436.079 280.926 435.995 280.999H435.993Z" fill="#9DC89E"/>
<path d="M452.432 279.605C452.364 279.602 445.638 279.195 440.191 277.796L440.402 276.988C445.768 278.367 452.414 278.767 452.482 278.772L452.433 279.605H452.432Z" fill="#9DC89E"/>
<path d="M402.307 280.586C397.879 276.925 388.527 273.997 388.435 273.969L388.684 273.172C389.074 273.294 398.289 276.18 402.844 279.946L402.307 280.586Z" fill="#9DC89E"/>
<path d="M398.976 277.695L398.137 277.67C398.247 273.957 396.626 271.058 396.608 271.03L397.339 270.62C397.41 270.746 399.091 273.753 398.976 277.695Z" fill="#9DC89E"/>
<path d="M81 280.682C81 280.682 82.6796 265.448 100.1 266.282C100.1 266.282 101.779 254.177 111.643 251.152C121.508 248.125 133.053 253.656 135.78 265.917C135.78 265.917 144.177 258.786 155.51 263.265C166.844 267.743 164.746 280.682 164.746 280.682H81Z" fill="#599E85"/>
<path d="M122.531 280.299C121.324 265.32 112.938 257.731 112.854 257.656L113.412 257.032C113.5 257.109 122.131 264.901 123.369 280.232L122.531 280.299Z" fill="#9DC89E"/>
<path d="M121.824 275.231C121.698 268.852 126.561 260.937 126.768 260.604L127.483 261.042C127.433 261.121 122.542 269.081 122.663 275.214L121.824 275.23V275.231Z" fill="#9DC89E"/>
<path d="M138.336 280.54L137.702 279.992C138.057 279.588 146.467 270.081 155.207 269.208L155.292 270.039C146.884 270.88 138.42 280.444 138.336 280.541V280.54Z" fill="#9DC89E"/>
<path d="M153.865 277.266C151.665 277.266 147.213 277.107 142.878 275.997L143.087 275.188C149.011 276.705 155.17 276.412 155.229 276.405L155.273 277.24C155.256 277.24 154.737 277.265 153.865 277.265V277.266Z" fill="#9DC89E"/>
<path d="M102.78 280.598C98.9538 277.728 90.3144 275.651 90.2266 275.629L90.421 274.816C90.7833 274.902 99.3177 276.954 103.285 279.931L102.779 280.597L102.78 280.598Z" fill="#9DC89E"/>
<path d="M100.662 279.206C98.3238 274.124 99.3965 270.884 99.442 270.748L100.237 271.018C100.226 271.049 99.2381 274.104 101.426 278.858L100.662 279.206Z" fill="#9DC89E"/>
<g opacity="0.8">
<path d="M251.749 101.412C251.749 103.048 251.117 104.532 250.09 105.644H158.447L157.603 105.084C156.758 104.523 156.008 103.81 155.479 102.94C155.13 102.365 154.89 101.783 154.742 101.183C153.789 97.3548 156.466 93.4425 160.39 93.2335C162.121 93.1415 163.697 93.77 164.872 94.8381C164.861 94.6603 164.845 94.4826 164.845 94.3017C164.845 89.0156 169.112 84.7322 174.377 84.7322C178.995 84.7322 182.847 88.0317 183.722 92.4134C183.843 93.0246 183.907 93.6546 183.907 94.3017C183.907 94.6057 183.891 94.9067 183.862 95.2014H183.907C185.69 95.2014 187.293 95.9577 188.427 97.1677L188.431 97.1724C188.478 96.123 188.784 95.1406 189.288 94.2908C190.362 92.4679 192.336 91.247 194.599 91.247C197.229 91.247 199.472 92.9014 200.364 95.2263C201.495 93.9992 203.107 93.2226 204.904 93.2226C206.397 93.2226 207.766 93.7559 208.834 94.64C209.352 90.2771 213.042 86.8918 217.527 86.8918C218.989 86.8918 220.365 87.2567 221.578 87.8929C223.761 82.978 228.864 79.6566 234.674 80.1681C242.087 80.8214 247.501 87.7713 246.408 95.1624C246.403 95.1952 246.4 95.2279 246.394 95.2591C248.749 95.5756 250.686 97.2254 251.423 99.4349C251.635 100.056 251.748 100.717 251.748 101.412H251.749Z" fill="white"/>
</g>
<path d="M221.398 106.083H198.888V126.744H221.398V106.083Z" fill="#B0BF82"/>
<path d="M237.415 114.034H198.888V280.236H237.415V114.034Z" fill="#B0BF82"/>
<path d="M216.73 123.343H209.945V130.088H216.73V123.343Z" fill="#F2F3F7"/>
<path d="M226.358 123.343H219.574V130.088H226.358V123.343Z" fill="#F2F3F7"/>
<path d="M216.73 132.698H209.945V139.444H216.73V132.698Z" fill="#F2F3F7"/>
<path d="M226.358 132.698H219.574V139.444H226.358V132.698Z" fill="#F2F3F7"/>
<path d="M216.73 145.94H209.945V152.686H216.73V145.94Z" fill="#F2F3F7"/>
<path d="M226.358 145.94H219.574V152.686H226.358V145.94Z" fill="#F2F3F7"/>
<path d="M216.73 155.296H209.945V162.041H216.73V155.296Z" fill="#F2F3F7"/>
<path d="M226.358 155.296H219.574V162.041H226.358V155.296Z" fill="#F2F3F7"/>
<path d="M216.73 168.538H209.945V175.284H216.73V168.538Z" fill="#F2F3F7"/>
<path d="M226.358 168.538H219.574V175.284H226.358V168.538Z" fill="#F2F3F7"/>
<path d="M216.73 177.894H209.945V184.639H216.73V177.894Z" fill="#F2F3F7"/>
<path d="M226.358 177.894H219.574V184.639H226.358V177.894Z" fill="#F2F3F7"/>
<path d="M216.73 191.136H209.945V197.881H216.73V191.136Z" fill="#F2F3F7"/>
<path d="M226.358 191.136H219.574V197.881H226.358V191.136Z" fill="#F2F3F7"/>
<path d="M216.73 200.491H209.945V207.237H216.73V200.491Z" fill="#F2F3F7"/>
<path d="M226.358 200.491H219.574V207.237H226.358V200.491Z" fill="#F2F3F7"/>
<path d="M216.73 213.732H209.945V220.478H216.73V213.732Z" fill="#F2F3F7"/>
<path d="M226.358 213.732H219.574V220.478H226.358V213.732Z" fill="#F2F3F7"/>
<path d="M216.73 223.088H209.945V229.833H216.73V223.088Z" fill="#F2F3F7"/>
<path d="M226.358 223.088H219.574V229.833H226.358V223.088Z" fill="#F2F3F7"/>
<path d="M414.163 262.05H236.547V268.072H414.163V262.05Z" fill="#CDE298"/>
<path d="M310.551 54.1504H274.826V75.1138H310.551V54.1504Z" fill="#CDE298"/>
<path d="M310.551 62.999H241.901V268.069H310.551V62.999Z" fill="#CDE298"/>
<path d="M280.078 85.0811H298.451V73.4096H280.078V85.0811Z" fill="#F2F3F7"/>
<path d="M253.999 85.0811H272.372V73.4096H253.999V85.0811Z" fill="#F2F3F7"/>
<path d="M280.078 101.27H298.451V89.5981H280.078V101.27Z" fill="#F2F3F7"/>
<path d="M253.999 101.27H272.372V89.5981H253.999V101.27Z" fill="#F2F3F7"/>
<path d="M280.078 124.178H298.451V112.506H280.078V124.178Z" fill="#F2F3F7"/>
<path d="M253.999 124.178H272.372V112.506H253.999V124.178Z" fill="#F2F3F7"/>
<path d="M280.078 140.368H298.451V128.697H280.078V140.368Z" fill="#F2F3F7"/>
<path d="M253.999 140.368H272.372V128.697H253.999V140.368Z" fill="#F2F3F7"/>
<path d="M280.078 163.275H298.451V151.604H280.078V163.275Z" fill="#F2F3F7"/>
<path d="M253.999 163.275H272.372V151.604H253.999V163.275Z" fill="#F2F3F7"/>
<path d="M280.078 179.464H298.451V167.792H280.078V179.464Z" fill="#F2F3F7"/>
<path d="M253.999 179.464H272.372V167.792H253.999V179.464Z" fill="#F2F3F7"/>
<path d="M280.078 202.374H298.451V190.703H280.078V202.374Z" fill="#F2F3F7"/>
<path d="M253.999 202.374H272.372V190.703H253.999V202.374Z" fill="#F2F3F7"/>
<path d="M280.078 218.562H298.451V206.89H280.078V218.562Z" fill="#F2F3F7"/>
<path d="M253.999 218.562H272.372V206.89H253.999V218.562Z" fill="#F2F3F7"/>
<path d="M280.078 241.469H298.451V229.797H280.078V241.469Z" fill="#F2F3F7"/>
<path d="M253.999 241.469H272.372V229.797H253.999V241.469Z" fill="#F2F3F7"/>
<path d="M280.078 257.659H298.451V245.988H280.078V257.659Z" fill="#F2F3F7"/>
<path d="M253.999 257.659H272.372V245.988H253.999V257.659Z" fill="#F2F3F7"/>
<path d="M414.23 274.209V274.237H195.868V267.97H414.163V274.209H414.23Z" fill="#5F9B54"/>
<path d="M414.23 274.208H191.628V280.236H414.23V274.208Z" fill="#B0BF82"/>
<path d="M379.275 137.734H352.303V148.846H379.275V137.734Z" fill="#B0BF82"/>
<path d="M390.829 146.837H340.749V265.062H390.829V146.837Z" fill="#B0BF82"/>
<path d="M367.866 170.621H377.771V160.772H367.866V170.621Z" fill="#F2F3F7"/>
<path d="M353.808 170.621H363.713V160.772H353.808V170.621Z" fill="#F2F3F7"/>
<path d="M367.866 184.282H377.771V174.434H367.866V184.282Z" fill="#F2F3F7"/>
<path d="M353.808 184.282H363.713V174.434H353.808V184.282Z" fill="#F2F3F7"/>
<path d="M367.866 204.043H377.771V194.194H367.866V204.043Z" fill="#F2F3F7"/>
<path d="M353.808 204.043H363.713V194.194H353.808V204.043Z" fill="#F2F3F7"/>
<path d="M367.866 217.704H377.771V207.855H367.866V217.704Z" fill="#F2F3F7"/>
<path d="M353.808 217.704H363.713V207.855H353.808V217.704Z" fill="#F2F3F7"/>
<path d="M367.866 237.466H377.771V227.617H367.866V237.466Z" fill="#F2F3F7"/>
<path d="M353.808 237.466H363.713V227.617H353.808V237.466Z" fill="#F2F3F7"/>
<path d="M367.866 251.127H377.771V241.278H367.866V251.127Z" fill="#F2F3F7"/>
<path d="M353.808 251.127H363.713V241.278H353.808V251.127Z" fill="#F2F3F7"/>
<path d="M374.904 118.438H373.313V139.165H374.904V118.438Z" fill="#B0BF82"/>
<path d="M365.717 124.879H364.127V145.607H365.717V124.879Z" fill="#B0BF82"/>
<path d="M414.162 227.473V275.54H373.84V227.473L374.381 226.979H413.625L414.162 227.473Z" fill="#BBDEFB"/>
<path d="M373.842 227.473L374.38 226.977L393.998 208.778L413.627 226.977L414.163 227.473V227.683H373.842V227.473Z" fill="#BBDEFB"/>
<path d="M395.63 249.763H403.402V242.035H395.63V249.763Z" fill="white"/>
<path d="M384.6 249.763H392.372V242.035H384.6V249.763Z" fill="white"/>
<path d="M395.63 260.479H403.402V252.752H395.63V260.479Z" fill="white"/>
<path d="M384.6 260.479H392.372V252.752H384.6V260.479Z" fill="white"/>
<path d="M347.64 105.004C346.983 98.1729 340.702 92.7122 333.719 91.8686C324.067 90.7054 315.805 98.1121 315.702 107.507C315.564 119.933 325.923 134.664 330.074 140.532C331.24 142.184 331.988 143.134 331.988 143.134C331.988 143.134 332.819 142.113 334.116 140.343C338.142 134.823 345.71 122.018 347.404 110.072C347.581 108.811 347.684 107.558 347.698 106.327C347.703 105.882 347.684 105.441 347.642 105.004H347.64ZM337.255 114.904C335.715 116.138 333.757 116.867 331.625 116.844C330.691 116.833 329.795 116.68 328.955 116.401C328.829 116.364 328.709 116.322 328.589 116.278C325.233 115.009 322.865 111.761 322.908 107.986C322.961 103.146 326.951 99.266 331.822 99.319C336.689 99.372 340.591 103.339 340.538 108.179C340.508 110.9 339.231 113.317 337.26 114.903L337.257 114.906L337.255 114.904Z" fill="#EF7B7B"/>
<path d="M331.698 118.181C337.338 118.181 341.91 113.634 341.91 108.026C341.91 102.418 337.338 97.8721 331.698 97.8721C326.058 97.8721 321.485 102.418 321.485 108.026C321.485 113.634 326.058 118.181 331.698 118.181Z" fill="#EEFAFF"/>
<path d="M331.697 119.233C325.482 119.233 320.425 114.206 320.425 108.025C320.425 101.844 325.481 96.8164 331.697 96.8164C337.914 96.8164 342.97 101.844 342.97 108.025C342.97 114.206 337.914 119.233 331.697 119.233ZM331.697 98.9246C326.651 98.9246 322.545 103.007 322.545 108.025C322.545 113.043 326.651 117.125 331.697 117.125C336.744 117.125 340.85 113.043 340.85 108.025C340.85 103.007 336.744 98.9246 331.697 98.9246Z" fill="#DD6666"/>
<path d="M156.262 135.802C155.827 131.28 151.669 127.665 147.047 127.107C140.658 126.337 135.19 131.239 135.121 137.458C135.03 145.683 141.886 155.435 144.636 159.318C145.407 160.413 145.903 161.041 145.903 161.041C145.903 161.041 146.453 160.366 147.311 159.193C149.975 155.54 154.986 147.063 156.106 139.156C156.223 138.322 156.292 137.492 156.3 136.677C156.303 136.382 156.291 136.09 156.262 135.802ZM149.387 142.356C148.368 143.173 147.071 143.655 145.661 143.639C145.043 143.633 144.45 143.53 143.894 143.346C143.811 143.321 143.731 143.293 143.652 143.265C141.432 142.424 139.863 140.276 139.892 137.776C139.928 134.573 142.569 132.003 145.791 132.039C149.012 132.075 151.595 134.701 151.561 137.904C151.54 139.705 150.697 141.305 149.39 142.354H149.389L149.387 142.356Z" fill="#EF7B7B"/>
<path d="M145.709 144.522C149.442 144.522 152.468 141.513 152.468 137.802C152.468 134.09 149.442 131.081 145.709 131.081C141.976 131.081 138.95 134.09 138.95 137.802C138.95 141.513 141.976 144.522 145.709 144.522Z" fill="#EEFAFF"/>
<path d="M145.71 144.977C141.731 144.977 138.494 141.758 138.494 137.804C138.494 133.849 141.731 130.631 145.71 130.631C149.688 130.631 152.924 133.849 152.924 137.804C152.924 141.758 149.687 144.977 145.71 144.977ZM145.71 131.534C142.233 131.534 139.405 134.347 139.405 137.802C139.405 141.258 142.234 144.071 145.71 144.071C149.185 144.071 152.014 141.258 152.014 137.802C152.014 134.347 149.185 131.534 145.71 131.534Z" fill="#DD6666"/>
<path d="M231.769 79.7342C231.473 76.6608 228.647 74.2034 225.504 73.8229C221.16 73.299 217.443 76.6328 217.396 80.8601C217.333 86.4517 221.996 93.0804 223.864 95.7219C224.387 96.4656 224.725 96.8929 224.725 96.8929C224.725 96.8929 225.099 96.4329 225.681 95.6376C227.492 93.1537 230.899 87.3905 231.661 82.0155C231.741 81.4479 231.788 80.885 231.793 80.3299C231.794 80.1303 231.786 79.9307 231.767 79.7358L231.769 79.7342ZM227.096 84.1892C226.403 84.7443 225.521 85.0733 224.563 85.0624C224.143 85.0577 223.74 84.9891 223.362 84.8628C223.305 84.8457 223.25 84.8269 223.197 84.8067C221.687 84.236 220.62 82.7733 220.641 81.0752C220.664 78.8969 222.46 77.152 224.652 77.1754C226.843 77.1988 228.598 78.9842 228.575 81.1626C228.56 82.3866 227.986 83.475 227.099 84.1876L227.096 84.1892Z" fill="#EF7B7B"/>
<path d="M227.843 84.3253C229.637 82.5411 229.637 79.6483 227.843 77.8641C226.049 76.0799 223.139 76.0799 221.345 77.8641C219.55 79.6483 219.55 82.5411 221.345 84.3253C223.139 86.1096 226.049 86.1096 227.843 84.3253Z" fill="#EEFAFF"/>
<path d="M224.594 86.0152C221.865 86.0152 219.645 83.8072 219.645 81.094C219.645 78.3808 221.865 76.1729 224.594 76.1729C227.323 76.1729 229.543 78.3808 229.543 81.094C229.543 83.8072 227.323 86.0152 224.594 86.0152ZM224.594 76.8761C222.254 76.8761 220.352 78.7691 220.352 81.094C220.352 83.419 222.254 85.312 224.594 85.312C226.934 85.312 228.836 83.419 228.836 81.094C228.836 78.7691 226.934 76.8761 224.594 76.8761Z" fill="#DD6666"/>
<path d="M235.455 247.69H192.419V280.236H235.455V247.69Z" fill="#FB9D7E"/>
<path d="M235.453 247.692H224.21V280.237H235.453V247.692Z" fill="#EA876C"/>
<g opacity="0.4">
<path d="M224.21 280.236H192.419V247.69L211.769 267.5L217.26 273.12L218.555 274.448L218.927 274.827L219.421 275.334L224.21 280.236Z" fill="#CC6D56"/>
</g>
<path d="M209.784 247.692H206.849V249.785H209.784V247.692Z" fill="#F8CD9E"/>
<path d="M199.766 227.302H129.771V280.239H199.766V227.302Z" fill="#F8CD9E"/>
<path d="M199.764 227.302H181.477V280.239H199.764V227.302Z" fill="#FB9D7E"/>
<g opacity="0.5">
<path d="M129.771 227.302L181.477 280.237H129.771V227.302Z" fill="#FB9D7E"/>
</g>
<path d="M158.012 227.302H153.236V230.706H158.012V227.302Z" fill="#FB9D7E"/>
<path d="M203.794 183.358H145.721V227.278H203.794V183.358Z" fill="#F8CD9E"/>
<path d="M160.893 183.358H145.721V227.278H160.893V183.358Z" fill="#FB9D7E"/>
<g opacity="0.5">
<path d="M203.794 183.358L160.894 227.278H203.794V183.358Z" fill="#FB9D7E"/>
</g>
<path d="M184.325 183.358H180.363V186.182H184.325V183.358Z" fill="#FB9D7E"/>
<path d="M162.986 188.933H171.058V185.886H162.986V188.933Z" fill="#FB9D7E"/>
<path d="M180.124 218.781H197.849V195.033H180.124V218.781Z" fill="white"/>
<path d="M196.617 196.325L197.767 196.923L200.147 192.399L198.998 191.802L196.617 196.325Z" fill="#FB9D7E"/>
<path d="M178.983 191.807L177.834 192.405L180.214 196.929L181.363 196.331L178.983 191.807Z" fill="#FB9D7E"/>
<path d="M181.375 217.329L180.226 216.731L177.845 221.255L178.994 221.853L181.375 217.329Z" fill="#FB9D7E"/>
<path d="M199.009 221.844L200.158 221.246L197.778 216.723L196.629 217.321L199.009 221.844Z" fill="#FB9D7E"/>
<path d="M182.286 201.282H195.688V199.849H182.286V201.282Z" fill="#70617F"/>
<path d="M182.286 205.512H195.688V204.079H182.286V205.512Z" fill="#70617F"/>
<path d="M182.286 209.737H195.688V208.304H182.286V209.737Z" fill="#70617F"/>
<path d="M182.286 213.963H195.688V212.53H182.286V213.963Z" fill="#70617F"/>
<path d="M447.481 278.154L448.414 237.8L424.405 226.737L398.795 196.034H358.206V278.201L447.481 278.154Z" fill="#3C635D"/>
<path d="M392.58 200.986H364.294C363.878 200.986 363.541 201.321 363.541 201.735V225.956C363.541 226.369 363.878 226.704 364.294 226.704H392.58C392.996 226.704 393.333 226.369 393.333 225.956V201.735C393.333 201.321 392.996 200.986 392.58 200.986Z" fill="white"/>
<path d="M397.652 203.245L414.73 225.502C415.108 225.995 414.755 226.703 414.132 226.703H397.053C396.637 226.703 396.3 226.368 396.3 225.954V203.697C396.3 202.981 397.213 202.674 397.65 203.243L397.652 203.245Z" fill="white"/>
<mask id="mask0_496_6502" style="mask-type:alpha" maskUnits="userSpaceOnUse" x="365" y="201" width="52" height="26">
<path d="M394.517 201.013H366.23C365.815 201.013 365.478 201.348 365.478 201.761V225.982C365.478 226.395 365.815 226.73 366.23 226.73H394.517C394.932 226.73 395.269 226.395 395.269 225.982V201.761C395.269 201.348 394.932 201.013 394.517 201.013Z" fill="white"/>
<path d="M399.588 203.271L416.666 225.529C417.044 226.021 416.691 226.729 416.069 226.729H398.989C398.573 226.729 398.236 226.394 398.236 225.981V203.723C398.236 203.007 399.149 202.7 399.587 203.269L399.588 203.271Z" fill="white"/>
</mask>
<g mask="url(#mask0_496_6502)">
<path d="M377.105 218.296C377.105 218.296 378.654 216.209 379.147 215.197C379.147 215.197 383 215.154 383.32 214.764C383.64 214.374 384.88 211.042 384.221 209.484C383.563 207.926 381.946 204.808 381.946 204.808C381.946 204.808 377.182 205.905 373.962 209.344C373.962 209.344 375.924 211.803 374.235 215.904L377.109 218.297L377.105 218.296Z" fill="#F9AD8C"/>
<path d="M383.246 208.402L379.379 210.599L374.846 211.695L374.892 212.079L379.336 211.308C379.336 211.308 379.642 212.426 379.375 213.398L374.854 213.624L374.813 213.905L379.463 213.942C379.463 213.942 379.741 215.274 380.723 215.611C380.723 215.611 382.89 215.795 383.701 214.925C384.449 214.121 385.633 210.92 384.237 208.637C384.033 208.304 383.588 208.209 383.247 208.402H383.246Z" fill="#C0F9FA"/>
<path d="M378.432 208.48C378.432 208.48 387.145 204.421 386.894 203.71C386.698 203.155 384.197 203.921 383.108 204.284C382.813 204.382 382.493 204.295 382.286 204.066C381.471 203.164 379.159 201.136 375.959 202.726C371.516 204.934 372.811 208.528 373.575 209.974C373.768 210.339 374.218 210.481 374.593 210.304L378.435 208.481L378.432 208.48Z" fill="#FF6663"/>
<path d="M377.122 225.09L380.169 230.298L389.589 231.09C389.589 231.09 389.745 230.661 390.162 230.401C390.579 230.14 392.066 229.549 392.952 229.701C393.41 229.779 394.311 232.013 394.001 232.269C393.69 232.525 393.184 231.369 393.184 231.369C393.184 231.369 393.673 232.383 392.999 232.698C392.324 233.013 391.448 233.268 390.83 233.081C390.83 233.081 382.394 235.766 378.966 234.477C375.538 233.187 373.636 227.136 373.636 227.136L377.122 225.09Z" fill="#E69478"/>
<path d="M377.884 239.63C377.884 239.63 370.562 241.467 363.147 240.918C363.147 240.918 365.991 225.078 367.09 222.688C368.189 220.298 371.983 215.938 374.773 215.815C377.563 215.691 379.294 218.389 379.606 219.686C379.918 220.984 377.884 239.63 377.884 239.63Z" fill="#CDE298"/>
<path d="M380.818 223.616L383.865 228.824L393.287 229.616C393.287 229.616 393.442 229.188 393.859 228.927C394.276 228.667 395.763 228.076 396.649 228.227C397.107 228.305 398.009 230.54 397.698 230.795C397.388 231.051 396.881 229.896 396.881 229.896C396.881 229.896 397.37 230.909 396.696 231.224C396.022 231.539 395.145 231.795 394.527 231.608C394.527 231.608 386.092 234.293 382.663 233.003C379.235 231.714 377.333 225.662 377.333 225.662L380.819 223.616H380.818Z" fill="#F9AD8C"/>
<path d="M378.683 217.87C378.683 217.87 380.511 220.331 381.719 224.804C381.719 224.804 379.809 226.635 377.43 227.242L373.94 220.565L378.681 217.872L378.683 217.87Z" fill="#CDE298"/>
</g>
<path d="M448.346 240.832H445.865C444.814 240.832 443.961 241.68 443.961 242.725V254.195C443.961 255.24 444.814 256.088 445.865 256.088H447.991L448.344 240.832H448.346Z" fill="white"/>
<path d="M364.06 234.337H375.419C375.765 234.337 376.046 234.058 376.046 233.714C376.046 233.369 375.765 233.09 375.419 233.09H364.06C363.713 233.09 363.433 233.369 363.433 233.714C363.433 234.058 363.713 234.337 364.06 234.337Z" fill="white"/>
<path d="M358.206 278.2H251.782V201.139C251.782 198.321 254.083 196.034 256.917 196.034H358.206V278.2Z" fill="#273F39"/>
<path d="M258.611 208.991H277C277.346 208.991 277.627 208.711 277.627 208.367C277.627 208.022 277.346 207.743 277 207.743H258.611C258.264 207.743 257.983 208.022 257.983 208.367C257.983 208.711 258.264 208.991 258.611 208.991Z" fill="#CDE298"/>
<path d="M258.611 216.992H277C277.346 216.992 277.627 216.712 277.627 216.368C277.627 216.023 277.346 215.744 277 215.744H258.611C258.264 215.744 257.983 216.023 257.983 216.368C257.983 216.712 258.264 216.992 258.611 216.992Z" fill="#CDE298"/>
<path d="M258.611 224.993H277C277.346 224.993 277.627 224.713 277.627 224.369C277.627 224.024 277.346 223.745 277 223.745H258.611C258.264 223.745 257.983 224.024 257.983 224.369C257.983 224.713 258.264 224.993 258.611 224.993Z" fill="#CDE298"/>
<path d="M258.611 232.994H277C277.346 232.994 277.627 232.714 277.627 232.37C277.627 232.025 277.346 231.746 277 231.746H258.611C258.264 231.746 257.983 232.025 257.983 232.37C257.983 232.714 258.264 232.994 258.611 232.994Z" fill="#CDE298"/>
<path d="M258.611 240.995H277C277.346 240.995 277.627 240.716 277.627 240.372C277.627 240.027 277.346 239.748 277 239.748H258.611C258.264 239.748 257.983 240.027 257.983 240.372C257.983 240.716 258.264 240.995 258.611 240.995Z" fill="#CDE298"/>
<path d="M258.611 248.996H277C277.346 248.996 277.627 248.717 277.627 248.373C277.627 248.028 277.346 247.749 277 247.749H258.611C258.264 247.749 257.983 248.028 257.983 248.373C257.983 248.717 258.264 248.996 258.611 248.996Z" fill="#CDE298"/>
<path d="M454.131 278.2H433.893V270.393H454.131C455.646 270.393 456.877 271.617 456.877 273.123V275.47C456.877 276.976 455.646 278.2 454.131 278.2Z" fill="#0D2128"/>
<path d="M249.864 270.393H270.102V278.2H249.864C248.349 278.2 247.118 276.976 247.118 275.47V273.123C247.118 271.617 248.349 270.393 249.864 270.393Z" fill="#0D2128"/>
<path d="M382.975 278.2H385.481C385.481 267.053 394.602 257.982 405.814 257.982C417.027 257.982 426.148 267.051 426.148 278.2H428.654C428.654 265.677 418.407 255.49 405.814 255.49C393.221 255.49 382.975 265.677 382.975 278.2Z" fill="white"/>
<path d="M274.081 278.2H276.587C276.587 267.053 285.708 257.982 296.921 257.982C308.134 257.982 317.255 267.051 317.255 278.2H319.761C319.761 265.677 309.514 255.49 296.921 255.49C284.328 255.49 274.081 265.677 274.081 278.2Z" fill="white"/>
<path d="M410.125 295.05C419.466 292.676 425.103 283.222 422.715 273.934C420.327 264.646 410.818 259.041 401.477 261.416C392.136 263.79 386.499 273.244 388.887 282.532C391.275 291.82 400.784 297.425 410.125 295.05Z" fill="#0D2128"/>
<path d="M405.815 286.184C410.249 286.184 413.844 282.61 413.844 278.2C413.844 273.791 410.249 270.217 405.815 270.217C401.38 270.217 397.785 273.791 397.785 278.2C397.785 282.61 401.38 286.184 405.815 286.184Z" fill="white"/>
<path d="M309.266 290.475C316.083 283.696 316.083 272.706 309.266 265.927C302.448 259.148 291.394 259.148 284.577 265.927C277.759 272.706 277.759 283.696 284.577 290.475C291.394 297.254 302.448 297.254 309.266 290.475Z" fill="#0D2128"/>
<path d="M296.921 286.184C301.355 286.184 304.95 282.61 304.95 278.2C304.95 273.791 301.355 270.217 296.921 270.217C292.486 270.217 288.892 273.791 288.892 278.2C288.892 282.61 292.486 286.184 296.921 286.184Z" fill="white"/>
</g>
<defs>
<linearGradient id="paint0_linear_496_6502" x1="125.315" y1="141.354" x2="331.194" y2="141.354" gradientUnits="userSpaceOnUse">
<stop stop-color="#FCFCED"/>
<stop offset="1" stop-color="#DBE2CB"/>
</linearGradient>
<clipPath id="clip0_496_6502">
<rect width="382" height="259" fill="white" transform="translate(81 39)"/>
</clipPath>
</defs>
</svg>
