<svg width="258" height="151" viewBox="0 0 258 151" fill="none" xmlns="http://www.w3.org/2000/svg">
<g clip-path="url(#clip0_505_11010)">
<path d="M257.01 98.5554C256.308 93.7527 255.208 89.0165 253.721 84.3956C243.863 53.7224 217.637 47.2622 190.961 46.9429C161.172 46.5861 163.226 29.2464 137.891 14.3292C83.4983 -17.6962 49.4249 9.84712 44.4704 39.4186C41.6832 56.026 36.0398 63.9635 22.4104 72.0324C14.6687 76.6146 8.48657 82.4739 4.59693 89.7728C1.49218 95.6823 -0.0880037 102.273 -0.000456851 108.947C-0.000456851 125.792 9.08162 151 9.08162 151H250.139C250.139 151 261.319 127.726 257.01 98.5554Z" fill="url(#paint0_linear_505_11010)"/>
<path d="M89.3902 132.404C138.507 132.404 178.324 130.739 178.324 128.685C178.324 126.631 138.507 124.966 89.3902 124.966C40.2732 124.966 0.456055 126.631 0.456055 128.685C0.456055 130.739 40.2732 132.404 89.3902 132.404Z" fill="#DBDACA"/>
<path d="M191.777 147.281C228.512 147.281 258.291 145.616 258.291 143.562C258.291 141.508 228.512 139.843 191.777 139.843C155.043 139.843 125.264 141.508 125.264 143.562C125.264 145.616 155.043 147.281 191.777 147.281Z" fill="#DBDACA"/>
<path d="M6.83757 15.7676H11.8992C12.3421 15.7676 12.7007 16.1244 12.7007 16.5652V128.491C12.7007 128.932 12.3421 129.289 11.8992 129.289H6.83757C6.39468 129.289 6.03613 128.932 6.03613 128.491V16.5652C6.03613 16.1244 6.39468 15.7676 6.83757 15.7676Z" fill="#20354A"/>
<path d="M93.2654 15.6211H88.2038C87.7612 15.6211 87.4023 15.9782 87.4023 16.4188V128.345C87.4023 128.785 87.7612 129.142 88.2038 129.142H93.2654C93.708 129.142 94.0669 128.785 94.0669 128.345V16.4188C94.0669 15.9782 93.708 15.6211 93.2654 15.6211Z" fill="#20354A"/>
<path d="M169.654 15.6211H174.716C175.159 15.6211 175.517 15.9779 175.517 16.4188V128.345C175.517 128.786 175.159 129.142 174.716 129.142H169.654C169.211 129.142 168.853 128.786 168.853 128.345V16.4188C168.853 15.9779 169.211 15.6211 169.654 15.6211Z" fill="#20354A"/>
<path d="M118.89 96.626H96.5977V116.505H118.89V96.626Z" fill="#F9C980"/>
<path fill-rule="evenodd" clip-rule="evenodd" d="M110.622 96.626C110.622 98.2213 109.336 99.5018 107.733 99.5018C106.13 99.5018 104.844 98.2213 104.844 96.626H110.622Z" fill="#FCB666"/>
<path d="M120.05 96.626H118.89V116.505H120.05V96.626Z" fill="#FCB666"/>
<path d="M142.322 96.626H120.029V116.505H142.322V96.626Z" fill="#F9C980"/>
<path fill-rule="evenodd" clip-rule="evenodd" d="M134.075 96.626C134.075 98.2213 132.788 99.5018 131.185 99.5018C129.582 99.5018 128.296 98.2213 128.296 96.626H134.075Z" fill="#FCB666"/>
<path d="M143.481 96.626H142.321V116.505H143.481V96.626Z" fill="#FCB666"/>
<path d="M165.774 96.626H143.481V116.505H165.774V96.626Z" fill="#F9C980"/>
<path fill-rule="evenodd" clip-rule="evenodd" d="M157.506 96.626C157.506 98.2213 156.22 99.5018 154.617 99.5018C153.014 99.5018 151.728 98.2213 151.728 96.626H157.506Z" fill="#FCB666"/>
<path d="M38.0932 67.0713H15.8008V86.9501H38.0932V67.0713Z" fill="#AAD3EF"/>
<path fill-rule="evenodd" clip-rule="evenodd" d="M29.8256 67.0713C29.8256 68.6666 28.5391 69.9471 26.9362 69.9471C25.3334 69.9471 24.0469 68.6666 24.0469 67.0713H29.8256Z" fill="#85BFE9"/>
<path d="M39.2537 67.0713H38.0938V86.9501H39.2537V67.0713Z" fill="#85BFE9"/>
<path d="M61.5453 67.0713H39.2529V86.9501H61.5453V67.0713Z" fill="#F9C980"/>
<path fill-rule="evenodd" clip-rule="evenodd" d="M53.2777 67.0713C53.2777 68.6666 51.9912 69.9471 50.3884 69.9471C48.7855 69.9471 47.499 68.6666 47.499 67.0713H53.2777Z" fill="#FCB666"/>
<path d="M62.6844 67.0713H61.5244V86.9501H62.6844V67.0713Z" fill="#FCB666"/>
<path d="M84.9769 67.0713H62.6846V86.9501H84.9769V67.0713Z" fill="#F9C980"/>
<path fill-rule="evenodd" clip-rule="evenodd" d="M76.7094 67.0713C76.7094 68.6666 75.4229 69.9471 73.82 69.9471C72.2172 69.9471 70.9307 68.6666 70.9307 67.0713H76.7094Z" fill="#FCB666"/>
<path d="M156.135 66.9238H155.038V86.8026H156.135V66.9238Z" fill="#FFA146"/>
<path d="M167.25 66.9238H156.136V86.8026H167.25V66.9238Z" fill="#FCB666"/>
<path d="M143.924 66.9238H142.827V86.8026H143.924V66.9238Z" fill="#FFA146"/>
<path d="M155.06 66.9238H143.945V86.8026H155.06V66.9238Z" fill="#FCB666"/>
<path d="M131.734 66.9238H130.638V86.8026H131.734V66.9238Z" fill="#FFA146"/>
<path d="M142.849 66.9238H131.734V86.8026H142.849V66.9238Z" fill="#FCB666"/>
<path d="M130.616 78.1328H107.312V86.8022H130.616V78.1328Z" fill="#FCB666"/>
<path d="M107.312 66.9238H106.215V86.8026H107.312V66.9238Z" fill="#FFA146"/>
<path d="M106.236 66.9238H95.1211V86.8026H106.236V66.9238Z" fill="#FCB666"/>
<path d="M87.4233 27.5439H12.7217V33.8414H87.4233V27.5439Z" fill="#1A2A3A"/>
<path d="M87.4233 57.248H12.7217V63.5455H87.4233V57.248Z" fill="#1A2A3A"/>
<path d="M87.4233 86.9502H12.7217V93.2476H87.4233V86.9502Z" fill="#1A2A3A"/>
<path d="M88.0564 116.653H12.7432V122.951H88.0564V116.653Z" fill="#1A2A3A"/>
<path fill-rule="evenodd" clip-rule="evenodd" d="M11.4775 94.4853H19.0278V93.2678H12.7007V86.9704H14.4934V85.7529H11.4775V94.5063V94.4853Z" fill="#435D76"/>
<path fill-rule="evenodd" clip-rule="evenodd" d="M11.4986 124.188H19.0489V122.971H12.7219V116.674H14.4934V115.456H11.4775V124.209L11.4986 124.188Z" fill="#435D76"/>
<path fill-rule="evenodd" clip-rule="evenodd" d="M11.4775 64.7832H19.0278V63.5657H12.7007V57.2683H14.4934V56.0508H11.4775V64.8042V64.7832Z" fill="#435D76"/>
<path fill-rule="evenodd" clip-rule="evenodd" d="M11.4775 35.0801H19.0278V33.8626H12.7007V27.5652H14.4934V26.3477H11.4775V35.1011V35.0801Z" fill="#435D76"/>
<path fill-rule="evenodd" clip-rule="evenodd" d="M88.647 94.4853H81.0967V93.2678H87.4238V86.9704H85.6311V85.7529H88.647V94.5063V94.4853Z" fill="#435D76"/>
<path fill-rule="evenodd" clip-rule="evenodd" d="M88.6255 124.188H81.0752V122.971H87.4023V116.674H85.6096V115.456H88.6255V124.209V124.188Z" fill="#435D76"/>
<path fill-rule="evenodd" clip-rule="evenodd" d="M88.647 64.7832H81.0967V63.5657H87.4238V57.2683H85.6311V56.0508H88.647V64.8042V64.7832Z" fill="#435D76"/>
<path fill-rule="evenodd" clip-rule="evenodd" d="M88.647 35.0801H81.0967V33.8626H87.4238V27.5652H85.6311V26.3477H88.647V35.1011V35.0801Z" fill="#435D76"/>
<path d="M168.768 27.418H94.0664V33.7154H168.768V27.418Z" fill="#1A2A3A"/>
<path d="M168.768 57.0996H94.0664V63.397H168.768V57.0996Z" fill="#1A2A3A"/>
<path d="M168.768 86.8027H94.0664V93.1001H168.768V86.8027Z" fill="#1A2A3A"/>
<path d="M169.38 116.505H94.0664V122.802H169.38V116.505Z" fill="#1A2A3A"/>
<path fill-rule="evenodd" clip-rule="evenodd" d="M92.8223 94.3374H100.373V93.1199H94.0455V86.8225H95.8382V85.584H92.8223V94.3374Z" fill="#435D76"/>
<path fill-rule="evenodd" clip-rule="evenodd" d="M92.8438 124.041H100.394V122.823H94.067V116.526H95.8596V115.309H92.8438V124.062V124.041Z" fill="#435D76"/>
<path fill-rule="evenodd" clip-rule="evenodd" d="M92.8223 64.6357H100.373V63.4182H94.0455V57.1208H95.8382V55.9033H92.8223V64.6567V64.6357Z" fill="#435D76"/>
<path fill-rule="evenodd" clip-rule="evenodd" d="M92.8223 34.9331H100.373V33.6946H94.0455V27.3972H95.8382V26.1797H92.8223V34.9331Z" fill="#435D76"/>
<path fill-rule="evenodd" clip-rule="evenodd" d="M169.992 94.3374H162.441V93.1199H168.768V86.8225H166.976V85.584H169.992V94.3374Z" fill="#435D76"/>
<path fill-rule="evenodd" clip-rule="evenodd" d="M169.97 124.041H162.42V122.823H168.747V116.526H166.954V115.309H169.97V124.062V124.041Z" fill="#435D76"/>
<path fill-rule="evenodd" clip-rule="evenodd" d="M169.992 64.6357H162.441V63.4182H168.768V57.1208H166.976V55.9033H169.992V64.6567V64.6357Z" fill="#435D76"/>
<path fill-rule="evenodd" clip-rule="evenodd" d="M169.992 34.9331H162.441V33.6946H168.768V27.3972H166.976V26.1797H169.992V34.9331Z" fill="#435D76"/>
<path d="M83.247 97.4453H61.7139V116.652H83.247V97.4453Z" fill="#F9C980"/>
<path d="M83.5004 97.4453H61.4189V100.636H83.5004V97.4453Z" fill="#FFA146"/>
<path fill-rule="evenodd" clip-rule="evenodd" d="M83.2259 116.653H75.1484L61.7139 100.657H83.2259V116.653Z" fill="#FCB666"/>
<path fill-rule="evenodd" clip-rule="evenodd" d="M81.3699 97.4453H79.0078V101.874L79.5351 101.644L79.9779 101.854L80.6317 101.476L81.3699 101.874V97.4453Z" fill="#DD3E13"/>
<path fill-rule="evenodd" clip-rule="evenodd" d="M65.9109 97.4453H63.5488V101.874L64.0761 101.644L64.519 101.854L65.1728 101.476L65.9109 101.874V97.4453Z" fill="#DD3E13"/>
<path d="M60.7865 97.4453H39.2744V116.652H60.7865V97.4453Z" fill="#F9C980"/>
<path d="M61.061 97.4453H38.9795V100.636H61.061V97.4453Z" fill="#FFA146"/>
<path fill-rule="evenodd" clip-rule="evenodd" d="M60.7865 116.653H52.7089L39.2744 100.657H60.7865V116.653Z" fill="#FCB666"/>
<path fill-rule="evenodd" clip-rule="evenodd" d="M58.9305 97.4453H56.5684V101.874L57.0745 101.644L57.5385 101.854L58.1923 101.476L58.9305 101.874V97.4453Z" fill="#DD3E13"/>
<path fill-rule="evenodd" clip-rule="evenodd" d="M43.4715 97.4453H41.1094V101.874L41.6155 101.644L42.0795 101.854L42.7333 101.476L43.4715 101.874V97.4453Z" fill="#DD3E13"/>
<path d="M38.4306 97.4453H16.8975V116.652H38.4306V97.4453Z" fill="#F9C980"/>
<path d="M38.684 97.4453H16.6025V100.636H38.684V97.4453Z" fill="#FFA146"/>
<path fill-rule="evenodd" clip-rule="evenodd" d="M38.4095 116.653H30.332L16.8975 100.657H38.4095V116.653Z" fill="#FCB666"/>
<path fill-rule="evenodd" clip-rule="evenodd" d="M36.5746 97.4453H34.1914V101.874L34.7187 101.644L35.1827 101.854L35.8153 101.476L36.5746 101.874V97.4453Z" fill="#DD3E13"/>
<path fill-rule="evenodd" clip-rule="evenodd" d="M21.1156 97.4453H18.7324V101.874L19.2597 101.644L19.7026 101.854L20.3563 101.476L21.1156 101.874V97.4453Z" fill="#DD3E13"/>
<path d="M130.616 77.0205H107.312V78.1121H130.616V77.0205Z" fill="#FFA146"/>
<path d="M130.616 68.3525H107.312V77.022H130.616V68.3525Z" fill="#FCB666"/>
<path d="M72.0273 38.04H50.4941V57.2471H72.0273V38.04Z" fill="#F9C980"/>
<path d="M72.2807 38.04H50.1992V41.2307H72.2807V38.04Z" fill="#FFA146"/>
<path fill-rule="evenodd" clip-rule="evenodd" d="M72.0061 57.2474H63.9286L50.4941 41.252H72.0061V57.2474Z" fill="#FCB666"/>
<path fill-rule="evenodd" clip-rule="evenodd" d="M70.1502 38.04H67.7881V42.4692L68.2943 42.2383L68.7583 42.4482L69.4121 42.0704L70.1502 42.4692V38.04Z" fill="#DD3E13"/>
<path fill-rule="evenodd" clip-rule="evenodd" d="M54.6912 38.04H52.3291V42.4692L52.8352 42.2383L53.2992 42.4482L53.953 42.0704L54.6912 42.4692V38.04Z" fill="#DD3E13"/>
<path d="M49.6503 38.04H28.1172V57.2471H49.6503V38.04Z" fill="#F9C980"/>
<path d="M49.9037 38.04H27.8223V41.2307H49.9037V38.04Z" fill="#FFA146"/>
<path fill-rule="evenodd" clip-rule="evenodd" d="M49.6293 57.2474H41.5517L28.1172 41.252H49.6293V57.2474Z" fill="#FCB666"/>
<path fill-rule="evenodd" clip-rule="evenodd" d="M47.7943 38.04H45.4111V42.4692L45.9384 42.2383L46.4024 42.4482L47.0351 42.0704L47.7943 42.4692V38.04Z" fill="#DD3E13"/>
<path fill-rule="evenodd" clip-rule="evenodd" d="M32.3354 38.04H29.9521V42.4692L30.4794 42.2383L30.9434 42.4482L31.5761 42.0704L32.3354 42.4692V38.04Z" fill="#DD3E13"/>
<path d="M159.488 42.3213H142.911V57.0992H159.488V42.3213Z" fill="#F9C980"/>
<path d="M159.699 42.3213H142.7V44.7773H159.699V42.3213Z" fill="#FFA146"/>
<path fill-rule="evenodd" clip-rule="evenodd" d="M159.488 57.0993H153.266L142.911 44.7773H159.488V57.0993Z" fill="#FCB666"/>
<path fill-rule="evenodd" clip-rule="evenodd" d="M158.054 42.3213H156.24V45.7219L156.641 45.533L156.978 45.7009L157.485 45.428L158.054 45.7219V42.3213Z" fill="#DD3E13"/>
<path fill-rule="evenodd" clip-rule="evenodd" d="M146.159 42.3213H144.346V45.7219L144.725 45.533L145.084 45.7009L145.569 45.428L146.159 45.7219V42.3213Z" fill="#DD3E13"/>
<path d="M142.258 42.3213H125.681V57.0992H142.258V42.3213Z" fill="#F9C980"/>
<path d="M142.468 42.3213H125.47V44.7773H142.468V42.3213Z" fill="#FFA146"/>
<path fill-rule="evenodd" clip-rule="evenodd" d="M142.258 57.0993H136.036L125.681 44.7773H142.258V57.0993Z" fill="#FCB666"/>
<path fill-rule="evenodd" clip-rule="evenodd" d="M140.845 42.3213H139.01V45.7219L139.41 45.533L139.769 45.7009L140.254 45.428L140.845 45.7219V42.3213Z" fill="#DD3E13"/>
<path fill-rule="evenodd" clip-rule="evenodd" d="M128.929 42.3213H127.115V45.7219L127.516 45.533L127.853 45.7009L128.36 45.428L128.929 45.7219V42.3213Z" fill="#DD3E13"/>
<path d="M124.922 37.8926H103.389V57.0997H124.922V37.8926Z" fill="#F9C980"/>
<path d="M125.196 37.8926H103.114V41.0833H125.196V37.8926Z" fill="#FFA146"/>
<path fill-rule="evenodd" clip-rule="evenodd" d="M124.922 57.098H116.823L103.389 41.1025H124.922V57.098Z" fill="#FCB666"/>
<path fill-rule="evenodd" clip-rule="evenodd" d="M123.065 37.8926H120.703V42.3218L121.209 42.0909L121.673 42.3008L122.306 41.9229L123.065 42.3218V37.8926Z" fill="#DD3E13"/>
<path fill-rule="evenodd" clip-rule="evenodd" d="M107.606 37.8926H105.244V42.3218L105.75 42.0909L106.214 42.3008L106.847 41.9229L107.606 42.3218V37.8926Z" fill="#DD3E13"/>
<path fill-rule="evenodd" clip-rule="evenodd" d="M202.162 138.714H188.44V133.74C188.44 133.74 188.44 133.653 188.44 133.609V130.933H202.162C202.688 130.933 203.127 131.369 203.127 131.893V137.754C203.127 138.278 202.688 138.714 202.162 138.714Z" fill="#20354A"/>
<path d="M192.327 84.4766H194.066C194.256 84.4766 194.417 84.6366 194.417 84.8256V138.322C194.417 138.511 194.256 138.671 194.066 138.671H192.327C192.137 138.671 191.977 138.511 191.977 138.322V84.8256C191.977 84.6366 192.137 84.4766 192.327 84.4766Z" fill="#20354A"/>
<path d="M190.545 84.4766H188.791C188.597 84.4766 188.44 84.6329 188.44 84.8256V138.336C188.44 138.529 188.597 138.685 188.791 138.685H190.545C190.738 138.685 190.895 138.529 190.895 138.336V84.8256C190.895 84.6329 190.738 84.4766 190.545 84.4766Z" fill="#20354A"/>
<path fill-rule="evenodd" clip-rule="evenodd" d="M240.449 105.843H239.251C238.593 105.843 238.184 106.395 238.052 107.035L236.226 116.039C236.094 116.679 236.766 117.231 237.424 117.231H240.434C241.092 117.231 241.633 116.693 241.633 116.039V107.035C241.633 106.381 241.092 105.843 240.434 105.843H240.449Z" fill="#F9C980"/>
<path fill-rule="evenodd" clip-rule="evenodd" d="M221.657 119.951H208.636L215.197 111.879L212.772 110.512L208.329 115.69H207.189L203.448 123.049H220.268L221.657 119.951Z" fill="#20354A"/>
<path fill-rule="evenodd" clip-rule="evenodd" d="M245.286 115.326H225.5C224.068 115.326 223.045 116.635 222.446 117.915L217.536 128.271C216.922 129.551 218.705 130.86 220.137 130.86H245.301C246.733 130.86 247.902 129.697 247.902 128.271V117.915C247.902 116.49 246.733 115.326 245.301 115.326H245.286Z" fill="#F9C980"/>
<path fill-rule="evenodd" clip-rule="evenodd" d="M239.704 129.086H206.648C203.287 129.086 199.035 126.003 200.525 122.992L214.306 95.2984C215.796 92.3022 218.587 89.2041 221.963 89.2041H239.718C243.08 89.2041 245.841 91.9531 245.841 95.2984V122.992C245.841 126.337 243.08 129.086 239.718 129.086H239.704ZM203.287 124.286C203.477 124.795 204.559 125.45 204.982 125.639C205.479 125.857 206.093 126.046 206.648 126.046H239.704C241.384 126.046 242.758 124.664 242.758 123.006V95.313C242.758 93.6403 241.37 92.2731 239.704 92.2731H221.949C219.83 92.2731 217.871 95.0075 217.038 96.6656L203.287 124.315V124.286Z" fill="#20354A"/>
<path fill-rule="evenodd" clip-rule="evenodd" d="M245.33 139.849H204.895C203.214 139.849 201.841 138.482 201.841 136.809V123.05H234.531C236.212 123.05 237.074 121.595 237.585 120.01L239.12 115.239H245.33C247.011 115.239 248.384 116.606 248.384 118.279V136.809C248.384 138.482 247.011 139.849 245.33 139.849Z" fill="#9EB134"/>
<path d="M211.465 109.545L211.847 108.891C211.936 108.74 212.116 108.693 212.267 108.781L219.806 113.151C219.957 113.239 220.005 113.418 219.916 113.569L219.534 114.223C219.446 114.373 219.266 114.421 219.114 114.333L211.576 109.962C211.424 109.874 211.377 109.695 211.465 109.545Z" fill="#435D76"/>
<path d="M185.196 82.9346H197.661C197.91 82.9346 198.114 83.1382 198.114 83.3855V85.0581C198.114 85.3054 197.91 85.509 197.661 85.509H185.196C184.948 85.509 184.743 85.3054 184.743 85.0581V83.3855C184.743 83.1382 184.948 82.9346 185.196 82.9346Z" fill="#AAD3EF"/>
<path fill-rule="evenodd" clip-rule="evenodd" d="M188.44 86.4979L187.052 85.5234H185.927L188.44 87.2834V86.4979Z" fill="#85BFE9"/>
<path fill-rule="evenodd" clip-rule="evenodd" d="M194.417 86.4111L195.805 85.4512H196.93L194.417 87.1966V86.4111Z" fill="#85BFE9"/>
<path d="M185.196 90.833H197.661C197.91 90.833 198.114 91.0366 198.114 91.2839V92.9565C198.114 93.2038 197.91 93.422 197.647 93.422H185.182C184.933 93.422 184.729 93.2184 184.729 92.9711V91.2984C184.729 91.0512 184.933 90.8475 185.182 90.8475L185.196 90.833Z" fill="#AAD3EF"/>
<path fill-rule="evenodd" clip-rule="evenodd" d="M188.44 94.3817L187.052 93.4072H185.927L188.44 95.1672V94.3817Z" fill="#85BFE9"/>
<path fill-rule="evenodd" clip-rule="evenodd" d="M194.417 94.2939L195.805 93.334H196.93L194.417 95.0794V94.2939Z" fill="#85BFE9"/>
<path d="M237.307 133.217H211.982V139.849H237.307V133.217Z" fill="#85972D"/>
<path fill-rule="evenodd" clip-rule="evenodd" d="M244.746 122.715H245.023H245.14C245.213 122.715 245.286 122.715 245.359 122.715H245.418L245.593 122.729H245.71L245.842 122.758H245.988L246.134 122.788L246.28 122.802H246.397L246.558 122.846L246.689 122.875H246.762C246.835 122.904 246.908 122.918 246.996 122.933H247.025C249.13 123.369 251.132 124.373 252.798 125.958C255.165 128.213 256.393 131.195 256.466 134.22H244.892L244.614 134.496V139.834H234.049C233.23 138.234 232.763 136.416 232.763 134.496C232.763 128.358 237.468 123.326 243.489 122.758H243.518C243.606 122.758 243.694 122.744 243.767 122.729H243.825H244.03C244.088 122.729 244.147 122.729 244.205 122.729H244.307C244.439 122.729 244.57 122.729 244.702 122.729L244.746 122.715Z" fill="#D0DF6A"/>
<path fill-rule="evenodd" clip-rule="evenodd" d="M237.775 127.675C234.443 130.991 234.034 136.097 236.533 139.849H237.878V134.235H254.361C254.288 131.849 253.353 129.493 251.512 127.675C247.712 123.893 241.56 123.893 237.761 127.675H237.775Z" fill="#85972D"/>
<path fill-rule="evenodd" clip-rule="evenodd" d="M238.213 128.111C234.662 131.645 234.662 137.376 238.213 140.91C241.764 144.445 247.522 144.445 251.073 140.91C254.624 137.376 254.624 131.645 251.073 128.111C247.522 124.576 241.764 124.576 238.213 128.111Z" fill="#344453"/>
<path fill-rule="evenodd" clip-rule="evenodd" d="M247.624 137.478C249.276 135.834 249.276 133.187 247.624 131.543C245.973 129.9 243.313 129.9 241.662 131.543L247.624 137.478Z" fill="#1A2A3A"/>
<path fill-rule="evenodd" clip-rule="evenodd" d="M238.213 128.111C234.662 131.646 234.662 137.376 238.213 140.911C241.764 144.445 247.522 144.445 251.073 140.911L238.213 128.111Z" fill="#1A2A3A"/>
<path fill-rule="evenodd" clip-rule="evenodd" d="M241.662 131.544C240.011 133.188 240.011 135.835 241.662 137.478C243.314 139.122 245.973 139.122 247.625 137.478L241.662 131.544Z" fill="#344453"/>
<path fill-rule="evenodd" clip-rule="evenodd" d="M204.807 122.715H204.529H204.412C204.339 122.715 204.266 122.715 204.193 122.715H204.135L203.959 122.729H203.842L203.711 122.758H203.565L203.419 122.788L203.272 122.802H203.156L202.995 122.846L202.863 122.875H202.79C202.717 122.904 202.644 122.918 202.571 122.933H202.542C200.437 123.369 198.435 124.373 196.77 125.958C194.402 128.213 193.175 131.195 193.102 134.22H204.675L204.953 134.496V139.834H215.519C216.337 138.234 216.804 136.416 216.804 134.496C216.804 128.358 212.099 123.326 206.078 122.758H206.049C205.961 122.758 205.874 122.744 205.801 122.729H205.742H205.538C205.479 122.729 205.421 122.729 205.362 122.729H205.26C205.128 122.729 204.997 122.729 204.865 122.729L204.807 122.715Z" fill="#D0DF6A"/>
<path fill-rule="evenodd" clip-rule="evenodd" d="M242.744 132.635C241.692 133.682 241.692 135.369 242.744 136.416C243.796 137.464 245.492 137.464 246.544 136.416L242.744 132.635Z" fill="#AAD3EF"/>
<path fill-rule="evenodd" clip-rule="evenodd" d="M246.544 136.417C247.596 135.369 247.596 133.682 246.544 132.635C245.491 131.588 243.796 131.588 242.744 132.635L246.544 136.417Z" fill="#E1EFFA"/>
<path fill-rule="evenodd" clip-rule="evenodd" d="M198.026 127.675C196.2 129.493 195.25 131.849 195.177 134.235H212.231V139.849H213.005C215.504 136.097 215.095 130.991 211.763 127.675C207.963 123.893 201.811 123.893 198.012 127.675H198.026Z" fill="#85972D"/>
<path fill-rule="evenodd" clip-rule="evenodd" d="M211.325 140.91C207.774 144.445 202.016 144.445 198.465 140.91C194.914 137.376 194.914 131.645 198.465 128.111C202.016 124.576 207.774 124.576 211.325 128.111C214.876 131.645 214.876 137.376 211.325 140.91Z" fill="#344453"/>
<path fill-rule="evenodd" clip-rule="evenodd" d="M211.325 140.911C207.774 144.445 202.016 144.445 198.465 140.911C194.914 137.376 194.914 131.646 198.465 128.111L211.325 140.911Z" fill="#1A2A3A"/>
<path fill-rule="evenodd" clip-rule="evenodd" d="M201.929 131.543C203.58 129.9 206.24 129.9 207.891 131.543C209.542 133.187 209.542 135.834 207.891 137.478L201.929 131.543Z" fill="#1A2A3A"/>
<path fill-rule="evenodd" clip-rule="evenodd" d="M207.877 137.478C206.225 139.122 203.566 139.122 201.914 137.478C200.263 135.835 200.263 133.188 201.914 131.544L207.877 137.478Z" fill="#344453"/>
<path fill-rule="evenodd" clip-rule="evenodd" d="M203.01 132.635C201.958 133.682 201.958 135.369 203.01 136.416C204.062 137.464 205.757 137.464 206.809 136.416L203.01 132.635Z" fill="#AAD3EF"/>
<path fill-rule="evenodd" clip-rule="evenodd" d="M206.795 136.417C207.847 135.369 207.847 133.682 206.795 132.635C205.742 131.588 204.047 131.588 202.995 132.635L206.795 136.417Z" fill="#E1EFFA"/>
<path fill-rule="evenodd" clip-rule="evenodd" d="M243.533 133.42C242.919 134.031 242.919 135.005 243.533 135.616C244.146 136.227 245.14 136.227 245.739 135.616L243.533 133.42Z" fill="#1A2A3A"/>
<path fill-rule="evenodd" clip-rule="evenodd" d="M245.754 135.616C246.368 135.005 246.368 134.031 245.754 133.42C245.141 132.809 244.147 132.809 243.548 133.42L245.754 135.616Z" fill="#344453"/>
<path fill-rule="evenodd" clip-rule="evenodd" d="M203.799 133.42C203.185 134.031 203.185 135.005 203.799 135.616C204.413 136.227 205.407 136.227 206.006 135.616L203.799 133.42Z" fill="#1A2A3A"/>
<path fill-rule="evenodd" clip-rule="evenodd" d="M206.005 135.616C206.619 135.005 206.619 134.031 206.005 133.42C205.392 132.809 204.398 132.809 203.799 133.42L206.005 135.616Z" fill="#344453"/>
<path fill-rule="evenodd" clip-rule="evenodd" d="M184.743 92.1123V92.9414C184.743 93.1886 184.948 93.4068 185.196 93.4068H197.661C197.91 93.4068 198.114 93.2032 198.114 92.9414V92.1123H184.729H184.743Z" fill="#85BFE9"/>
<path fill-rule="evenodd" clip-rule="evenodd" d="M184.743 84.2295V85.0586C184.743 85.3058 184.948 85.5094 185.196 85.5094H197.661C197.91 85.5094 198.114 85.3058 198.114 85.0586V84.2295H184.729H184.743Z" fill="#85BFE9"/>
<path fill-rule="evenodd" clip-rule="evenodd" d="M236.386 115.326C235.992 116.941 234.764 117.93 233.435 117.944H222.445V117.915C223.059 116.635 224.082 115.341 225.5 115.341H236.401L236.386 115.326Z" fill="#FFA146"/>
<path fill-rule="evenodd" clip-rule="evenodd" d="M195.338 104.214H172.687C172.161 104.214 171.723 103.778 171.723 103.254V101.581L185.605 100.054C186.131 99.996 186.57 99.6178 186.57 99.0942V96.418H195.323C195.849 96.418 196.288 96.8543 196.288 97.3779V103.24C196.288 103.763 195.849 104.199 195.323 104.199L195.338 104.214Z" fill="#1A2A3A"/>
<path d="M158.439 99.4727H184.656C185.153 99.4727 185.562 99.8799 185.562 100.374V103.792C185.562 104.287 185.153 104.694 184.656 104.694H158.439C157.942 104.694 157.533 104.287 157.533 103.792V100.374C157.533 99.8799 157.942 99.4727 158.439 99.4727Z" fill="#20354A"/>
<path fill-rule="evenodd" clip-rule="evenodd" d="M184.656 104.694H158.439C157.942 104.694 157.533 104.287 157.533 103.793V102.091H185.576V103.793C185.576 104.287 185.167 104.694 184.67 104.694H184.656Z" fill="#1A2A3A"/>
<path d="M171.84 138.045H127.327V138.99H171.84V138.045Z" fill="#1A2A3A"/>
<path d="M132.749 138.991H127.518V139.937H132.749V138.991Z" fill="#20354A"/>
<path d="M132.939 139.95H127.327V142.277H132.939V139.95Z" fill="#435D76"/>
<path d="M171.84 142.277H127.327V143.223H171.84V142.277Z" fill="#1A2A3A"/>
<path d="M171.65 138.991H166.418V139.937H171.65V138.991Z" fill="#20354A"/>
<path d="M171.839 139.95H166.228V142.277H171.839V139.95Z" fill="#435D76"/>
<path d="M152.199 138.991H146.968V139.937H152.199V138.991Z" fill="#20354A"/>
<path d="M152.389 139.95H146.777V142.277H152.389V139.95Z" fill="#435D76"/>
<path d="M169.443 121.173H150.548V138.045H169.443V121.173Z" fill="#F9C980"/>
<path d="M169.692 121.173H150.3V123.98H169.692V121.173Z" fill="#FFA146"/>
<path fill-rule="evenodd" clip-rule="evenodd" d="M169.458 138.045H162.355L150.548 123.98H169.458V138.045Z" fill="#FCB666"/>
<path fill-rule="evenodd" clip-rule="evenodd" d="M167.836 121.173H165.761V125.056L166.199 124.853L166.608 125.042L167.164 124.707L167.836 125.056V121.173Z" fill="#DD3E13"/>
<path fill-rule="evenodd" clip-rule="evenodd" d="M154.26 121.173H152.185V125.056L152.623 124.853L153.032 125.042L153.587 124.707L154.26 125.056V121.173Z" fill="#DD3E13"/>
<path d="M149.802 121.173H130.907V138.045H149.802V121.173Z" fill="#F9C980"/>
<path d="M150.051 121.173H130.659V123.98H150.051V121.173Z" fill="#FFA146"/>
<path fill-rule="evenodd" clip-rule="evenodd" d="M149.802 138.045H142.715L130.907 123.98H149.802V138.045Z" fill="#FCB666"/>
<path fill-rule="evenodd" clip-rule="evenodd" d="M148.181 121.173H146.105V125.056L146.558 124.853L146.968 125.042L147.523 124.707L148.181 125.056V121.173Z" fill="#DD3E13"/>
<path fill-rule="evenodd" clip-rule="evenodd" d="M134.604 121.173H132.529V125.056L132.982 124.853L133.391 125.042L133.947 124.707L134.604 125.056V121.173Z" fill="#DD3E13"/>
<path d="M178.137 82.5273H159.228V99.3994H178.137V82.5273Z" fill="#F9C980"/>
<path d="M178.371 82.5273H158.979V85.3345H178.371V82.5273Z" fill="#FFA146"/>
<path fill-rule="evenodd" clip-rule="evenodd" d="M178.123 99.3853H171.035L159.228 85.335H178.123V99.3853Z" fill="#FCB666"/>
<path fill-rule="evenodd" clip-rule="evenodd" d="M176.501 82.5273H174.426V86.4108L174.879 86.1927L175.273 86.3963L175.843 86.0618L176.501 86.4108V82.5273Z" fill="#DD3E13"/>
<path fill-rule="evenodd" clip-rule="evenodd" d="M162.925 82.5273H160.85V86.4108L161.303 86.1927L161.697 86.3963L162.267 86.0618L162.925 86.4108V82.5273Z" fill="#DD3E13"/>
<path d="M149.802 104.301H130.907V121.173H149.802V104.301Z" fill="#F9C980"/>
<path d="M150.051 104.301H130.659V107.108H150.051V104.301Z" fill="#FFA146"/>
<path fill-rule="evenodd" clip-rule="evenodd" d="M149.802 121.173H142.715L130.907 107.123H149.802V121.173Z" fill="#FCB666"/>
<path fill-rule="evenodd" clip-rule="evenodd" d="M148.181 104.301H146.105V108.184L146.558 107.981L146.968 108.17L147.523 107.85L148.181 108.184V104.301Z" fill="#DD3E13"/>
<path fill-rule="evenodd" clip-rule="evenodd" d="M134.604 104.301H132.529V108.184L132.982 107.981L133.391 108.17L133.947 107.85L134.604 108.184V104.301Z" fill="#DD3E13"/>
</g>
<defs>
<linearGradient id="paint0_linear_505_11010" x1="128.996" y1="136.878" x2="128.996" y2="34.6987" gradientUnits="userSpaceOnUse">
<stop stop-color="white"/>
<stop offset="1" stop-color="#F9F9E1"/>
</linearGradient>
<clipPath id="clip0_505_11010">
<rect width="258" height="151" fill="white"/>
</clipPath>
</defs>
</svg>
