<svg width="104" height="131" viewBox="0 0 104 131" fill="none" xmlns="http://www.w3.org/2000/svg">
<g clip-path="url(#clip0_505_7194)">
<path d="M103.983 52.7628C104.663 73.2508 82.5951 97.1151 55.158 97.1151C28.9771 97.1151 12.9687 80.9542 9.03892 53.4696C4.27081 20.1444 27.7072 -16.108 49.5406 7.60663C79.6594 40.3414 103.033 24.1085 103.983 52.7628Z" fill="#F9F9E1"/>
<path d="M20.9298 86.9583C20.5 85.8767 20.1477 84.765 19.8757 83.6318H12.7754V107.599H37.042V98.6423C31.2143 100.192 24.2069 95.2022 20.9298 86.9583Z" fill="#E5943C"/>
<path d="M19.8701 83.6348C20.1421 84.7679 20.4944 85.8796 20.9242 86.9612C24.2013 95.2052 31.2141 100.195 37.0364 98.648V83.6375L19.8701 83.6348Z" fill="#EFA962"/>
<path d="M26.1398 83.6348H23.6738V107.602H26.1398V83.6348Z" fill="#F9F9F9"/>
<path d="M63.5558 49.9627C63.126 48.8811 62.7736 47.7694 62.5016 46.6362H55.4014V70.6031H79.6488V61.6467C73.8457 63.1963 66.8274 58.2066 63.5558 49.9627Z" fill="#F19F3D"/>
<path d="M62.502 46.6392C62.7739 47.7723 63.1263 48.884 63.5561 49.9656C66.8332 58.2096 73.846 63.1992 79.6683 61.6524V46.6392H62.502Z" fill="#FCB666"/>
<path d="M68.7716 46.6392H66.3057V70.606H68.7716V46.6392Z" fill="#F9F9F9"/>
<path d="M9.32319 103.374C8.68034 107.339 9.37303 111.409 11.2894 114.925C7.59227 113.882 3.68132 113.912 0 115.011C1.25041 119.385 3.88117 123.221 7.48804 125.93C4.71074 126.074 2.47687 126.523 1.60299 127.341C2.91108 128.782 7.27233 129.852 11.9503 130.351C17.1991 121.758 18.5754 112.278 18.9331 108.347C16.3213 105.71 12.9602 103.97 9.32319 103.374Z" fill="#9EC5A6"/>
<path d="M25.5719 129.19C25.0238 127.293 24.2138 125.484 23.1659 123.817C23.4226 123.873 23.6794 123.926 23.9415 123.967C24.3969 121.147 24.1811 118.257 23.3122 115.539C22.4433 112.821 20.9465 110.353 18.9467 108.341C18.589 112.272 17.2126 121.741 11.9639 130.346C17.6987 130.955 23.9279 130.7 25.5609 129.206H25.5746L25.5719 129.19Z" fill="#5C8F64"/>
<path d="M26.4319 107.602H18.1602V130.925H42.0143V125.864C41.058 126.227 40.0453 126.415 39.024 126.418C32.1859 126.418 26.6231 118.049 26.4319 107.602Z" fill="#F9A141"/>
<path d="M26.4326 107.602C26.6238 118.049 32.1866 126.429 39.0247 126.429C40.046 126.426 41.0587 126.239 42.015 125.875V107.602H26.4326Z" fill="#FFBE7D"/>
<path d="M31.3205 107.602H28.8545V130.923H31.3205V107.602Z" fill="#F9F9F9"/>
<path d="M38.751 73.4973L50.6767 73.3032C50.6767 73.3032 51.0863 85.0039 50.2698 96.2971C49.7018 104.134 43.0958 127.197 43.0958 127.197H40.6708C40.6708 127.197 41.4654 115.177 41.46 113.029C41.4545 110.881 40.9602 92.8542 41.3234 87.8036C39.3572 84.0669 39.1442 83.0829 38.751 73.4973Z" fill="#273F39"/>
<path d="M50.2506 130.925H55.7587C55.8432 130.925 55.9251 130.896 55.9911 130.842C56.0571 130.789 56.1034 130.714 56.1224 130.631C56.1414 130.547 56.132 130.46 56.0957 130.382C56.0594 130.305 55.9984 130.242 55.9226 130.204C54.9104 129.716 53.8541 129.328 52.7685 129.046C52.5523 128.989 52.3606 128.862 52.2233 128.684C52.0859 128.505 52.0107 128.285 52.0093 128.059V127.119H49.4668V130.13C49.4668 130.234 49.4871 130.337 49.5265 130.434C49.5659 130.531 49.6236 130.618 49.6963 130.692C49.7691 130.766 49.8555 130.825 49.9506 130.865C50.0457 130.905 50.1477 130.925 50.2506 130.925Z" fill="#596864"/>
<path d="M41.4546 131H46.9656C47.0504 131.001 47.1332 130.973 47.2 130.92C47.2668 130.867 47.3137 130.792 47.3329 130.708C47.352 130.624 47.3423 130.536 47.3053 130.459C47.2683 130.381 47.2062 130.319 47.1294 130.282C46.1167 129.794 45.0605 129.405 43.9752 129.121C43.7586 129.066 43.5661 128.939 43.4281 128.761C43.2901 128.583 43.2146 128.363 43.2134 128.136V127.197H40.6709V130.204C40.6709 130.415 40.7535 130.618 40.9004 130.767C41.0474 130.916 41.2468 131 41.4546 131Z" fill="#39423F"/>
<path d="M40.0206 73.4972L55.1578 73.2505C55.1578 73.2505 55.7313 89.2922 55.1578 97.1259C54.5844 104.96 52.0091 127.119 52.0091 127.119H49.4667C49.4667 127.119 47.7244 116.031 47.7162 113.872C47.708 111.712 44.2589 94.5146 44.6221 89.4779C42.5658 86.096 39.9605 81.9768 40.0206 73.4972Z" fill="#3C635D"/>
<path d="M51.0867 42.9249L51.0075 39.2464C51.0082 39.1955 51.0213 39.1456 51.0457 39.1011C51.07 39.0566 51.1049 39.0189 51.1471 38.9914C51.1893 38.9639 51.2376 38.9475 51.2876 38.9437C51.3376 38.9398 51.3877 38.9486 51.4336 38.9692C51.8174 39.1413 52.235 39.2219 52.6543 39.2048C53.7657 39.1438 55.2541 37.8188 55.5353 36.1168C55.8986 33.9352 55.1503 28.0059 55.1503 28.0059L45.3192 30.5866C45.3192 30.5866 44.8057 34.1902 45.8189 36.0696C46.4579 37.2616 46.2285 39.2741 45.1826 40.9567C46.873 41.5416 51.0867 42.9249 51.0867 42.9249Z" fill="#EAAC98"/>
<path d="M56.9277 72.3637C56.9498 72.4888 56.9464 72.6173 56.9177 72.741C56.889 72.8648 56.8357 72.9813 56.761 73.0834C56.6863 73.1854 56.5918 73.2709 56.4833 73.3344C56.3749 73.398 56.2547 73.4384 56.1303 73.4531C53.0235 73.8167 49.8989 74.0018 46.7715 74.0075C40.9602 74.0075 38.751 73.5168 38.751 73.5168C38.751 73.5168 40.4168 66.5868 41.1432 64.1446C41.8696 61.7025 42.6698 58.1488 42.4595 56.4246C42.2056 54.3539 42.0444 52.3137 42.14 48.4744C42.2465 44.2194 43.7103 40.99 45.0539 40.6241C45.1166 40.6108 45.1816 40.6155 45.2419 40.6375C45.3021 40.6595 45.3552 40.698 45.3952 40.7488C45.7694 41.1701 47.4406 42.1154 49.5188 42.1154C50.0359 42.1362 50.5538 42.114 51.0673 42.0489C51.1524 42.0291 51.241 42.0304 51.3255 42.0526C51.4101 42.0748 51.4882 42.1172 51.5533 42.1764C52.5501 43.0801 55.9446 46.4924 55.9446 49.1425C55.9446 52.1612 55.9446 53.6359 55.9446 55.1356C55.961 59.1384 56.3378 69.004 56.9277 72.3637Z" fill="#CDE298"/>
<path d="M41.214 66.3677C41.2846 65.0875 41.7508 63.8625 42.5466 62.8667C43.7455 61.4058 44.8542 61.5639 46.3698 61.9131C48.3552 62.3733 49.0543 62.2208 47.9674 61.8106C45.75 60.979 44.734 60.2277 43.497 57.1203C42.9053 55.7195 42.4623 54.2587 42.1753 52.7627C42.2326 54.1487 42.3418 55.2797 42.4783 56.4051C42.6886 58.1293 41.8885 61.672 41.1621 64.1252C41.102 64.3285 41.0365 64.5585 40.9655 64.8154C40.8288 65.2916 40.8509 65.8003 41.0283 66.2624C41.1184 66.5091 41.1976 66.584 41.214 66.3677Z" fill="#B0BF82"/>
<path d="M55.9472 49.1227C55.9246 48.4811 55.7732 47.851 55.5021 47.271C55.5021 48.1719 55.6277 49.5828 55.1033 50.3452C54.6336 51.0298 53.7652 51.4955 52.5855 51.454C51.4057 51.4124 55.0433 55.1463 54.8849 55.2987L54.2513 55.9557L56.0291 59.5427C55.98 57.9155 55.9499 56.1664 55.9472 55.1075C55.939 53.6161 55.9472 52.1414 55.9472 49.1227Z" fill="#B0BF82"/>
<path d="M49.1807 61.3142L54.2492 55.9531C54.2492 55.9531 57.1713 61.73 58.4411 62.836C59.2604 63.5457 66.0247 66.8915 69.1133 68.4133C72.202 69.9352 73.6985 70.3537 73.0185 70.6698C72.0734 71.1546 71.0348 71.4224 69.9763 71.4542C68.7037 71.4542 65.6069 70.3011 64.5146 69.9324C63.4222 69.5637 56.8162 67.7453 55.7976 67.2131C54.3092 66.4313 49.1807 61.3142 49.1807 61.3142Z" fill="#EAAC98"/>
<path d="M51.4032 29.1895C51.4032 29.1895 51.4633 32.1389 51.253 32.7543C51.0427 33.3697 50.7642 33.2366 50.2835 32.538C49.609 31.554 48.8608 31.7064 48.4703 32.2303C47.9378 32.9455 48.5576 34.7252 49.4069 34.7501C50.2563 34.7751 50.6823 35.2602 49.8302 35.457C48.7707 35.7037 48.6805 36.8707 47.9842 37.0564C47.2878 37.2422 45.7121 37.5471 45.3134 34.4009C44.8464 30.7279 45.7995 29.4112 45.7995 29.4112L51.4032 29.1895Z" fill="#413A5C"/>
<path d="M45.3193 30.5727C45.3193 30.5727 44.9561 25.2255 49.5439 24.3495C54.1318 23.4736 55.3989 26.7002 55.3989 26.7002L59.9513 26.2733C60.0237 26.2553 60.1003 26.2672 60.164 26.3064C60.2278 26.3457 60.2736 26.409 60.2913 26.4826C60.3091 26.5561 60.2973 26.6338 60.2586 26.6985C60.22 26.7632 60.1575 26.8097 60.0851 26.8277C58.1598 27.6593 55.1012 28.9289 53.8041 29.3835C51.8597 30.0654 47.818 30.7556 45.3193 30.5727Z" fill="#F9DE7A"/>
<path d="M49.6863 24.7518C50.1572 24.6514 50.4921 24.3441 50.4345 24.0654C50.3768 23.7868 49.9484 23.6422 49.4775 23.7426C49.0067 23.843 48.6717 24.1502 48.7294 24.4289C48.787 24.7076 49.2155 24.8521 49.6863 24.7518Z" fill="#E5AC2E"/>
<path d="M50.4637 38.1487C49.2648 36.0003 49.4724 37.1896 49.983 38.4841C50.2234 39.0967 50.633 40.1639 51.029 40.3413C51.029 40.3413 51.0099 39.5513 51.0071 39.2325C51.0071 38.6781 51.638 39.0218 51.638 39.0218C51.638 39.0218 50.7859 38.7225 50.4637 38.1487Z" fill="#CE9789"/>
</g>
<defs>
<clipPath id="clip0_505_7194">
<rect width="104" height="131" fill="white"/>
</clipPath>
</defs>
</svg>
