<svg width="346" height="203" viewBox="0 0 346 203" fill="none" xmlns="http://www.w3.org/2000/svg">
<g clip-path="url(#clip0_496_7465)">
<path d="M344.287 132.495C343.347 126.038 341.875 119.671 339.887 113.459C326.695 72.2225 291.604 63.5376 255.909 63.1084C216.049 62.6287 218.798 39.3177 184.897 19.2634C112.116 -23.7906 66.5238 13.2379 59.8944 52.993C56.1649 75.3194 48.6137 85.9903 30.3766 96.838C20.0177 102.998 11.7456 110.875 6.541 120.688C2.38663 128.632 0.272237 137.492 0.389381 146.464C0.389381 169.111 12.5418 203 12.5418 203H335.093C335.093 203 350.053 171.711 344.287 132.495Z" fill="url(#paint0_linear_496_7465)"/>
<path d="M108.445 182.154C129.835 182.154 147.174 180.365 147.174 178.157C147.174 175.949 129.835 174.16 108.445 174.16C87.0562 174.16 69.7168 175.949 69.7168 178.157C69.7168 180.365 87.0562 182.154 108.445 182.154Z" fill="#DBDACA"/>
<path d="M232.618 184.864C271.805 184.864 303.572 181.843 303.572 178.115C303.572 174.387 271.805 171.366 232.618 171.366C193.432 171.366 161.665 174.387 161.665 178.115C161.665 181.843 193.432 184.864 232.618 184.864Z" fill="#DBDACA"/>
<path d="M171.202 154.695L124.126 105.076L125.283 102.695L172.996 152.978L171.202 154.695Z" fill="#273F39"/>
<path d="M296.238 160.039H170.524C169.163 160.039 168.06 161.146 168.06 162.513V165.526C168.06 166.892 169.163 168 170.524 168H296.238C297.599 168 298.703 166.892 298.703 165.526V162.513C298.703 161.146 297.599 160.039 296.238 160.039Z" fill="#5F9B54"/>
<path d="M179.969 179.63C184.514 179.63 188.199 175.93 188.199 171.366C188.199 166.802 184.514 163.102 179.969 163.102C175.424 163.102 171.739 166.802 171.739 171.366C171.739 175.93 175.424 179.63 179.969 179.63Z" fill="#273F39"/>
<path d="M179.969 175.86C182.44 175.86 184.444 173.848 184.444 171.366C184.444 168.884 182.44 166.872 179.969 166.872C177.497 166.872 175.493 168.884 175.493 171.366C175.493 173.848 177.497 175.86 179.969 175.86Z" fill="#596864"/>
<path d="M286.734 179.63C291.279 179.63 294.964 175.93 294.964 171.366C294.964 166.802 291.279 163.102 286.734 163.102C282.189 163.102 278.504 166.802 278.504 171.366C278.504 175.93 282.189 179.63 286.734 179.63Z" fill="#273F39"/>
<path d="M286.734 175.86C289.206 175.86 291.21 173.848 291.21 171.366C291.21 168.884 289.206 166.872 286.734 166.872C284.263 166.872 282.259 168.884 282.259 171.366C282.259 173.848 284.263 175.86 286.734 175.86Z" fill="#596864"/>
<path d="M226.123 126.94H200.008V159.046H226.123V126.94Z" fill="#FCB669"/>
<path d="M221.14 129.236L204.207 156.142L205.121 156.722L222.054 129.816L221.14 129.236Z" fill="#FCC97E"/>
<path d="M205.109 129.26L204.195 129.84L221.132 156.743L222.046 156.163L205.109 129.26Z" fill="#FCC97E"/>
<path d="M228.427 155.612H197.694V160.038H228.427V155.612Z" fill="#FCC97E"/>
<path d="M202.472 130.357H198.885V155.612H202.472V130.357Z" fill="#FCC97E"/>
<path d="M227.296 130.357H223.709V155.612H227.296V130.357Z" fill="#FCC97E"/>
<path d="M228.427 125.939H197.694V130.366H228.427V125.939Z" fill="#FCC97E"/>
<path d="M227.296 130.357H198.885V131.459H227.296V130.357Z" fill="#EDBC7A"/>
<path d="M223.709 154.518V131.459H222.611V154.518H223.709Z" fill="#EDBC7A"/>
<path d="M227.296 154.518H198.885V155.621H227.296V154.518Z" fill="#EDBC7A"/>
<path d="M174.597 144.916V160.064H185.492L182.047 144.849C181.966 144.486 181.77 144.159 181.489 143.917C181.209 143.674 180.858 143.529 180.489 143.502L176.432 143.208C176.198 143.193 175.964 143.226 175.744 143.305C175.523 143.383 175.321 143.507 175.149 143.666C174.978 143.826 174.84 144.019 174.745 144.234C174.65 144.449 174.6 144.681 174.597 144.916Z" fill="#5F9B54"/>
<path d="M172.317 147.819H174.613V158.381H172.317C171.761 158.381 171.228 158.159 170.835 157.765C170.442 157.37 170.222 156.835 170.222 156.277V149.915C170.224 149.358 170.446 148.825 170.838 148.433C171.231 148.04 171.763 147.819 172.317 147.819Z" fill="#273F39"/>
<path d="M253.051 126.94H226.936V159.046H253.051V126.94Z" fill="#FDA641"/>
<path d="M248.063 129.235L231.13 156.141L232.044 156.721L248.977 129.815L248.063 129.235Z" fill="#FFB764"/>
<path d="M232.035 129.261L231.122 129.841L248.059 156.744L248.973 156.164L232.035 129.261Z" fill="#FFB764"/>
<path d="M255.356 155.612H224.623V160.038H255.356V155.612Z" fill="#FFB764"/>
<path d="M229.4 130.357H225.813V155.612H229.4V130.357Z" fill="#FFB764"/>
<path d="M254.224 130.357H250.637V155.612H254.224V130.357Z" fill="#FFB764"/>
<path d="M255.356 125.939H224.623V130.366H255.356V125.939Z" fill="#FFB764"/>
<path d="M254.225 130.357H225.813V131.459H254.225V130.357Z" fill="#F7AC63"/>
<path d="M250.637 154.518V131.459H249.539V154.518H250.637Z" fill="#F7AC63"/>
<path d="M254.225 154.518H225.813V155.621H254.225V154.518Z" fill="#F7AC63"/>
<path d="M279.946 126.94H253.831V159.046H279.946V126.94Z" fill="#FCB669"/>
<path d="M274.96 129.237L258.027 156.143L258.941 156.723L275.874 129.817L274.96 129.237Z" fill="#FCC97E"/>
<path d="M258.933 129.264L258.02 129.844L274.957 156.746L275.871 156.166L258.933 129.264Z" fill="#FCC97E"/>
<path d="M282.25 155.612H251.517V160.038H282.25V155.612Z" fill="#FCC97E"/>
<path d="M256.295 130.357H252.708V155.612H256.295V130.357Z" fill="#FCC97E"/>
<path d="M281.119 130.357H277.532V155.612H281.119V130.357Z" fill="#FCC97E"/>
<path d="M282.25 125.939H251.517V130.366H282.25V125.939Z" fill="#FCC97E"/>
<path d="M281.119 130.357H252.708V131.459H281.119V130.357Z" fill="#EDBC7A"/>
<path d="M277.532 154.518V131.459H276.434V154.518H277.532Z" fill="#EDBC7A"/>
<path d="M281.119 154.518H252.708V155.621H281.119V154.518Z" fill="#EDBC7A"/>
<path d="M253.076 93.1011H226.961V125.206H253.076V93.1011Z" fill="#FCB669"/>
<path d="M248.09 95.404L231.158 122.31L232.072 122.89L249.004 95.9839L248.09 95.404Z" fill="#FCC97E"/>
<path d="M232.06 95.4273L231.146 96.0073L248.083 122.91L248.997 122.33L232.06 95.4273Z" fill="#FCC97E"/>
<path d="M255.381 121.782H224.648V126.208H255.381V121.782Z" fill="#FCC97E"/>
<path d="M229.425 96.5264H225.838V121.781H229.425V96.5264Z" fill="#FCC97E"/>
<path d="M254.25 96.5264H250.663V121.781H254.25V96.5264Z" fill="#FCC97E"/>
<path d="M255.381 92.1084H224.648V96.535H255.381V92.1084Z" fill="#FCC97E"/>
<path d="M254.249 96.5264H225.838V97.6288H254.249V96.5264Z" fill="#EDBC7A"/>
<path d="M250.663 120.688V97.6289H249.565V120.688H250.663Z" fill="#EDBC7A"/>
<path d="M254.249 120.688H225.838V121.79H254.249V120.688Z" fill="#EDBC7A"/>
<path d="M92.1611 67.3244C92.1611 67.3244 91.5996 71.4144 92.1611 72.4916C93.259 74.5871 94.382 75.7905 93.1752 77.7934C92.379 79.1062 91.0967 79.4765 89.5211 79.3503C88.4399 79.2913 88.683 79.9057 89.0014 80.4864C89.5091 81.6373 90.2614 82.6628 91.2057 83.4907C92.4041 84.4501 90.8788 88.6579 88.8925 87.9678C86.9062 87.2778 82.9336 84.6016 82.9336 84.1808C82.9336 83.7601 83.6208 79.9731 83.5119 79.1315C83.4029 78.2899 82.1374 76.6068 81.4921 75.7653C80.7462 74.7386 80.1176 73.7035 80.3941 72.702C80.6707 71.7006 90.3424 66.668 92.1611 67.3244Z" fill="#EAAC98"/>
<path d="M81.4839 74.3177C84.9834 74.3438 88.3709 73.0803 91.0047 70.7664C91.9853 69.8491 91.9685 68.1323 90.8706 67.7957C89.7727 67.4591 81.4839 74.3177 81.4839 74.3177Z" fill="#CE9789"/>
<path d="M83.7884 73.3415C83.9058 73.7202 83.7884 74.6796 84.1404 74.6628C84.7438 74.6628 84.3919 72.9123 84.2913 72.2559C84.1907 71.5995 84.0482 71.3217 83.3274 71.4143C82.6067 71.5069 80.3439 72.096 80.3439 74.0568C80.3279 74.7457 80.4873 75.4273 80.807 76.037C81.1267 76.6467 81.5962 77.1643 82.1709 77.5409C82.3205 77.6867 82.5132 77.7798 82.72 77.8063C82.9269 77.8328 83.1366 77.7913 83.3179 77.688C83.4992 77.5846 83.6423 77.425 83.7256 77.2331C83.8089 77.0412 83.828 76.8273 83.7801 76.6235C83.6711 75.782 82.5397 74.8984 82.7492 73.9643" fill="#413A5C"/>
<path d="M102.889 90.8037C102.889 90.8037 106.937 94.961 108.99 95.5164C111.043 96.0718 122.785 100.338 122.785 100.338L115.686 104.025L103.366 105.161L100.55 96.6188L100.961 90.8037H102.889Z" fill="#EAAC98"/>
<path d="M77.7793 96.7622C77.7793 96.7622 79.1035 99.7497 80.2936 101.879C81.3663 103.929 82.2743 106.062 83.009 108.258C83.4029 109.293 89.5714 109.259 91.6583 108.998C93.7451 108.738 94.8095 107.046 94.6084 106.305C94.4073 105.565 89.7306 103.427 89.7306 103.427L84.6182 97.8478L77.7793 96.7622Z" fill="#B0BF82"/>
<path d="M100.073 141.583C100.073 141.583 110.021 150.681 113.801 155.629C116.256 158.852 124.352 170.306 127.437 175.22H130.219C130.219 175.22 124.864 155.217 122.031 148.602C119.198 141.987 112.099 129.936 111.278 128.026C110.457 126.116 109.216 120.788 108.345 118.053C107.473 115.318 105.562 106.835 105.562 106.835H95.0608C95.0608 106.835 92.5465 108.434 90.7865 108.519C89.0265 108.603 84.551 108.283 82.3217 106.474C84.7218 115.773 85.991 125.329 86.1015 134.935C86.1015 147.441 86.2104 153.34 83.8386 161.091L80.1343 173.184L82.6486 173.512C82.6486 173.512 94.1054 163.253 96.8963 154.855C99.7961 146.203 100.073 141.583 100.073 141.583Z" fill="#3C635D"/>
<path d="M130.093 179.512H136.521C136.593 179.51 136.662 179.485 136.718 179.44C136.773 179.395 136.813 179.332 136.83 179.263C136.847 179.193 136.841 179.119 136.812 179.054C136.784 178.988 136.735 178.933 136.672 178.898C135.598 178.3 134.455 177.833 133.27 177.509C132.247 177.265 131.35 177.4 131.208 177.122L130.219 175.22H127.437L130.093 179.512Z" fill="#596864"/>
<path d="M80.2432 172.805L82.6485 173.478L82.5898 174.909C82.5874 175.083 82.6525 175.252 82.7713 175.379C82.8901 175.506 83.0534 175.582 83.2268 175.591C83.9643 175.591 85.1628 175.978 86.0596 177.821C86.0877 177.877 86.0993 177.941 86.0932 178.004C86.0871 178.067 86.0635 178.127 86.025 178.177C85.9865 178.227 85.9347 178.265 85.8756 178.287C85.8165 178.309 85.7525 178.313 85.6908 178.301C83.4447 177.871 78.8184 176.281 78.8184 176.281L80.2432 172.805Z" fill="#596864"/>
<path d="M100.073 141.583C100.073 141.583 110.021 150.68 113.801 155.629C113.801 155.629 106.459 138.672 100.442 133.042C100.696 135.893 100.572 138.765 100.073 141.583Z" fill="#273F39"/>
<path d="M121.21 106.431C122.691 106.431 123.892 105.226 123.892 103.738C123.892 102.251 122.691 101.045 121.21 101.045C119.729 101.045 118.528 102.251 118.528 103.738C118.528 105.226 119.729 106.431 121.21 106.431Z" fill="#273F39"/>
<path d="M82.3218 106.44C84.5511 108.249 89.0266 108.544 90.7866 108.485C92.5466 108.426 95.0608 106.802 95.0608 106.802C95.0608 106.802 98.5054 109.815 97.5751 110.168C87.6856 113.871 83.9309 113.315 83.9309 113.315C83.9309 113.315 82.5313 106.995 82.3218 106.44Z" fill="#273F39"/>
<path d="M114.538 101.752C105.545 101.752 103.5 100.069 103.5 100.069L104.146 102.165L97.5332 102.4L98.5053 102.981C98.5053 102.981 108.931 102.981 110.985 102.813C115.51 102.535 117.505 102.468 118.259 101.845C118.259 101.82 115.008 101.752 114.538 101.752Z" fill="#CE9789"/>
<path d="M95.1781 99.2192L86.6798 105.278C86.5485 105.379 86.3881 105.433 86.2231 105.433C86.0581 105.433 85.8976 105.379 85.7663 105.278C84.2158 103.932 78.9693 99.3118 78.039 97.3846C76.9411 95.1124 75.8432 90.6521 77.7289 87.9087C79.2208 85.729 82.7575 83.5999 82.7575 83.5999C82.7575 83.5999 85.8501 85.5944 88.5571 85.5944C91.2642 85.5944 90.7027 83.1875 90.0154 82.2871C90.3511 81.9125 90.7964 81.6545 91.2874 81.5502C91.7783 81.4458 92.2896 81.5005 92.7476 81.7064C93.8288 82.144 95.9827 84.5088 97.7762 86.3518C99.3183 87.9339 101.129 89.718 102.461 90.3491C102.646 90.4451 102.789 90.6069 102.862 90.803C102.935 90.999 102.933 91.2152 102.855 91.4095L100.894 96.5514C100.894 96.5514 102.352 101.331 101.497 102.055C100.643 102.779 95.1781 99.2192 95.1781 99.2192Z" fill="#CDE298"/>
<path d="M81.2155 84.5932C81.2155 84.5932 87.3756 88.2792 90.6023 91.8643C93.829 95.4493 93.9547 96.072 94.6839 95.7522L99.0587 93.6484C97.827 91.3636 96.3727 89.2071 94.7173 87.2104C92.203 84.0462 90.443 81.9339 90.443 81.9339C90.6903 81.7386 90.9759 81.598 91.2811 81.5215C91.46 81.4796 91.6424 81.4542 91.8259 81.4458C92.2952 81.8918 92.949 82.5482 93.7032 83.3645C94.7838 84.5951 95.7886 85.8907 96.712 87.2441C99.0168 90.4841 102.503 95.6596 104.255 102.493C101.196 103.107 98.581 103.747 96.712 103.335L93.8038 100.246C93.8038 100.246 95.2202 99.4046 95.1531 99.0343C95.0861 98.664 91.5661 95.121 87.9203 91.8306C85.3797 89.6067 82.6885 87.5625 79.8662 85.7125L81.2155 84.5932Z" fill="#3C635D"/>
<path d="M94.6165 99.6147L97.5332 102.375C97.5332 102.375 106.526 102.644 111.052 102.375C115.578 102.106 117.505 102.442 118.259 101.82C118.789 101.214 119.445 100.733 120.181 100.411C120.917 100.09 121.715 99.9357 122.517 99.9598C123.316 100.108 124.044 100.519 124.584 101.129C125.124 101.738 125.447 102.512 125.501 103.326C125.501 104.79 124.662 105.186 124.16 105.186C123.321 105.186 124.076 103.393 123.732 103.048C123.389 102.703 120.095 103.292 118.947 104.588C118.435 105.129 117.786 105.519 117.069 105.716C112.518 107.088 102.822 108.948 99.3184 109.739C95.3374 110.631 94.801 111.843 90.7865 108.476C86.772 105.11 87.1324 104.917 87.1324 104.917L94.6165 99.6147Z" fill="#EAAC98"/>
<path d="M94.6166 99.6147L95.7732 100.709C95.2209 102.052 94.515 103.325 93.6696 104.504C92.7149 105.848 91.5877 107.059 90.3172 108.106L88.7249 106.717C87.9454 106.036 87.6353 105.741 86.9146 105.034L94.6166 99.6147Z" fill="#CE9789"/>
<path d="M91.8174 68.0144C90.8117 68.797 89.4288 69.8153 87.7359 70.9093C83.713 73.5097 81.7016 74.8141 80.5618 74.1998C78.7515 73.2236 77.134 64.9427 84.9367 63.1418C88.2891 62.376 91.4235 65.0521 91.8342 66.8614C93.8456 66.6006 95.1279 65.8768 95.1866 66.3397C95.2453 66.8025 91.9515 69.1 91.9348 70.1098L91.8174 68.0144Z" fill="#FAC42D"/>
<path d="M91.9347 70.0762C91.7419 70.0762 91.5408 68.1658 90.9038 68.6792C91.4653 68.2247 92.1861 67.6777 92.1861 67.6777C92.2932 68.0774 92.2932 68.4984 92.1861 68.898C92.0645 69.2816 91.9802 69.6762 91.9347 70.0762Z" fill="#413A5C"/>
<path d="M85.4062 63.3357C86.6374 63.0741 87.92 63.2218 89.0603 63.7565C87.8114 63.0402 86.344 62.8096 84.9369 63.1085C77.4862 64.7916 78.5925 72.3656 80.3441 74.0487L80.7632 73.8467C79.2462 71.7428 78.3745 64.9431 85.4062 63.3357Z" fill="#E5AC2E"/>
<path d="M91.8509 66.8278C89.7054 68.8728 84.308 72.2558 80.3354 74.0062C80.4068 74.0651 80.4825 74.1185 80.5618 74.1661C81.7016 74.7805 83.713 73.4761 87.7358 70.8757C89.412 69.7816 90.8117 68.7634 91.8174 67.9807L91.9347 70.0762C91.9347 69.0663 95.2368 66.7772 95.1865 66.306C95.1363 65.8347 93.854 66.5669 91.8509 66.8278Z" fill="#F9DE7A"/>
<path d="M89.521 79.3501C89.521 79.3501 86.8727 79.3501 85.8921 78.2056C86.9565 79.9728 88.926 80.4021 89.2445 80.9659C88.6662 79.8466 88.4147 79.308 89.521 79.3501Z" fill="#CE9789"/>
</g>
<defs>
<linearGradient id="paint0_linear_496_7465" x1="172.996" y1="184.015" x2="172.996" y2="46.6476" gradientUnits="userSpaceOnUse">
<stop stop-color="white"/>
<stop offset="1" stop-color="#F9F9E1"/>
</linearGradient>
<clipPath id="clip0_496_7465">
<rect width="345.222" height="203" fill="white" transform="translate(0.38916)"/>
</clipPath>
</defs>
</svg>
