<svg width="272" height="178" viewBox="0 0 272 178" fill="none" xmlns="http://www.w3.org/2000/svg">
<g clip-path="url(#clip0_496_6929)">
<path d="M135.992 177.5C211.098 177.5 271.984 171.734 271.984 164.621C271.984 157.508 211.098 151.742 135.992 151.742C60.8857 151.742 0 157.508 0 164.621C0 171.734 60.8857 177.5 135.992 177.5Z" fill="#DBDACA"/>
<path d="M257.929 130.143H16.979C14.3707 130.143 12.2563 132.256 12.2563 134.864V140.613C12.2563 143.22 14.3707 145.334 16.979 145.334H257.929C260.537 145.334 262.651 143.22 262.651 140.613V134.864C262.651 132.256 260.537 130.143 257.929 130.143Z" fill="#5F9B54"/>
<path d="M35.0823 167.528C43.7941 167.528 50.8564 160.467 50.8564 151.758C50.8564 143.049 43.7941 135.988 35.0823 135.988C26.3704 135.988 19.3081 143.049 19.3081 151.758C19.3081 160.467 26.3704 167.528 35.0823 167.528Z" fill="#273F39"/>
<path d="M35.0822 160.333C39.8196 160.333 43.66 156.494 43.66 151.758C43.66 147.021 39.8196 143.182 35.0822 143.182C30.3448 143.182 26.5044 147.021 26.5044 151.758C26.5044 156.494 30.3448 160.333 35.0822 160.333Z" fill="#596864"/>
<path d="M239.713 167.528C248.424 167.528 255.487 160.467 255.487 151.758C255.487 143.049 248.424 135.988 239.713 135.988C231.001 135.988 223.938 143.049 223.938 151.758C223.938 160.467 231.001 167.528 239.713 167.528Z" fill="#273F39"/>
<path d="M239.713 160.333C244.45 160.333 248.29 156.494 248.29 151.758C248.29 147.021 244.45 143.182 239.713 143.182C234.975 143.182 231.135 147.021 231.135 151.758C231.135 156.494 234.975 160.333 239.713 160.333Z" fill="#596864"/>
<path d="M123.543 66.9673H73.4897V128.232H123.543V66.9673Z" fill="#FCB669"/>
<path d="M114.211 71.4054L81.7568 122.748L83.5086 123.854L115.962 72.5121L114.211 71.4054Z" fill="#FCC97E"/>
<path d="M83.4108 71.5463L81.6592 72.6533L114.122 123.99L115.873 122.883L83.4108 71.5463Z" fill="#FCC97E"/>
<path d="M127.96 121.696H69.0562V130.143H127.96V121.696Z" fill="#FCC97E"/>
<path d="M78.212 73.5034H71.3369V121.696H78.212V73.5034Z" fill="#FCC97E"/>
<path d="M125.792 73.5034H118.917V121.696H125.792V73.5034Z" fill="#FCC97E"/>
<path d="M127.96 65.0562H69.0562V73.5031H127.96V65.0562Z" fill="#FCC97E"/>
<path d="M125.792 73.5034H71.3369V75.6071H125.792V73.5034Z" fill="#EDBC7A"/>
<path d="M118.901 119.592V75.5908H116.796V119.592H118.901Z" fill="#EDBC7A"/>
<path d="M125.792 119.592H71.3369V121.695H125.792V119.592Z" fill="#EDBC7A"/>
<path d="M24.8018 101.285V130.191H45.6841L39.0823 101.173C38.928 100.479 38.5536 99.8549 38.0152 99.3919C37.4767 98.9288 36.8029 98.6521 36.0943 98.6032L28.3199 98.0251C27.8727 97.9991 27.4247 98.0638 27.003 98.2151C26.5814 98.3664 26.1947 98.6012 25.8661 98.9057C25.5376 99.2102 25.274 99.578 25.0912 99.9868C24.9083 100.396 24.8097 100.837 24.8018 101.285Z" fill="#5F9B54"/>
<path d="M20.4167 106.809H24.8181V126.979H20.4167C19.3516 126.979 18.3302 126.556 17.5771 125.803C16.824 125.05 16.4009 124.029 16.4009 122.964V110.824C16.4009 109.759 16.824 108.738 17.5771 107.985C18.3302 107.232 19.3516 106.809 20.4167 106.809Z" fill="#273F39"/>
<path d="M175.154 66.9673H125.101V128.232H175.154V66.9673Z" fill="#FDA641"/>
<path d="M165.829 71.4034L133.375 122.746L135.127 123.852L167.581 72.5101L165.829 71.4034Z" fill="#FFB764"/>
<path d="M135.02 71.5322L133.268 72.6392L165.731 123.976L167.482 122.869L135.02 71.5322Z" fill="#FFB764"/>
<path d="M179.572 121.696H120.667V130.143H179.572V121.696Z" fill="#FFB764"/>
<path d="M129.824 73.5034H122.949V121.696H129.824V73.5034Z" fill="#FFB764"/>
<path d="M177.403 73.5034H170.528V121.696H177.403V73.5034Z" fill="#FFB764"/>
<path d="M179.572 65.0562H120.667V73.5031H179.572V65.0562Z" fill="#FFB764"/>
<path d="M177.403 73.5034H122.949V75.6071H177.403V73.5034Z" fill="#F7AC63"/>
<path d="M170.512 119.592V75.5908H168.408V119.592H170.512Z" fill="#F7AC63"/>
<path d="M177.403 119.592H122.949V121.695H177.403V119.592Z" fill="#F7AC63"/>
<path d="M226.702 66.9673H176.648V128.232H226.702V66.9673Z" fill="#FCB669"/>
<path d="M217.364 71.4077L184.91 122.75L186.662 123.856L219.115 72.5143L217.364 71.4077Z" fill="#FCC97E"/>
<path d="M186.574 71.5363L184.823 72.6431L217.285 123.98L219.037 122.873L186.574 71.5363Z" fill="#FCC97E"/>
<path d="M231.135 121.696H172.231V130.143H231.135V121.696Z" fill="#FCC97E"/>
<path d="M181.371 73.5034H174.496V121.696H181.371V73.5034Z" fill="#FCC97E"/>
<path d="M228.95 73.5034H222.075V121.696H228.95V73.5034Z" fill="#FCC97E"/>
<path d="M231.135 65.0562H172.231V73.5031H231.135V65.0562Z" fill="#FCC97E"/>
<path d="M228.95 73.5034H174.496V75.6071H228.95V73.5034Z" fill="#EDBC7A"/>
<path d="M222.059 119.592V75.5913H219.955V119.592H222.059Z" fill="#EDBC7A"/>
<path d="M228.95 119.592H174.496V121.695H228.95V119.592Z" fill="#EDBC7A"/>
<path d="M175.203 2.41113H125.149V63.6754H175.203V2.41113Z" fill="#FCB669"/>
<path d="M165.882 6.84629L133.428 58.1885L135.18 59.2952L167.633 7.95297L165.882 6.84629Z" fill="#FCC97E"/>
<path d="M135.067 6.96918L133.315 8.07617L165.778 59.4127L167.529 58.3057L135.067 6.96918Z" fill="#FCC97E"/>
<path d="M179.636 57.1392H120.732V65.5861H179.636V57.1392Z" fill="#FCC97E"/>
<path d="M129.872 8.94678H122.997V57.1392H129.872V8.94678Z" fill="#FCC97E"/>
<path d="M177.451 8.94678H170.576V57.1392H177.451V8.94678Z" fill="#FCC97E"/>
<path d="M179.636 0.5H120.732V8.94692H179.636V0.5Z" fill="#FCC97E"/>
<path d="M177.451 8.94678H122.997V11.0505H177.451V8.94678Z" fill="#EDBC7A"/>
<path d="M170.576 55.0356V11.0347H168.472V55.0356H170.576Z" fill="#EDBC7A"/>
<path d="M177.451 55.0356H122.997V57.1393H177.451V55.0356Z" fill="#EDBC7A"/>
</g>
<defs>
<clipPath id="clip0_496_6929">
<rect width="272" height="177" fill="white" transform="translate(0 0.5)"/>
</clipPath>
</defs>
</svg>
