<svg width="174" height="176" viewBox="0 0 174 176" fill="none" xmlns="http://www.w3.org/2000/svg">
<rect width="174" height="176" rx="20" fill="#FCFCED"/>
<g clip-path="url(#clip0_496_9789)">
<path d="M130.986 60.3045C131.561 77.5082 112.888 97.5469 89.6724 97.5469C67.5193 97.5469 53.9737 83.9767 50.6485 60.8981C46.614 32.9151 66.4448 2.47411 84.9191 22.3871C110.404 49.8743 130.182 36.2436 130.986 60.3045Z" fill="white"/>
<path d="M60.7095 89.0183C60.3458 88.1101 60.0476 87.1766 59.8175 86.2251H53.8096V106.35H74.3429V98.8293C69.4117 100.13 63.4824 95.9407 60.7095 89.0183Z" fill="#E5943C"/>
<path d="M59.813 86.2275C60.0431 87.179 60.3412 88.1125 60.7049 89.0207C63.4778 95.9431 69.4118 100.133 74.3383 98.8341V86.2299L59.813 86.2275Z" fill="#EFA962"/>
<path d="M65.1183 86.2275H63.0317V106.352H65.1183V86.2275Z" fill="#F9F9F9"/>
<path d="M96.7778 57.9533C96.4141 57.0451 96.116 56.1116 95.8859 55.1602H89.8779V75.285H110.395V67.7644C105.485 69.0655 99.5461 64.8758 96.7778 57.9533Z" fill="#F19F3D"/>
<path d="M95.886 55.1626C96.1161 56.1141 96.4143 57.0476 96.778 57.9558C99.5508 64.8782 105.485 69.068 110.411 67.7691V55.1626H95.886Z" fill="#FCB666"/>
<path d="M101.191 55.1626H99.1047V75.2874H101.191V55.1626Z" fill="#F9F9F9"/>
<path d="M50.8888 102.803C50.3449 106.132 50.931 109.549 52.5526 112.502C49.4242 111.627 46.115 111.652 43 112.574C44.058 116.247 46.2841 119.468 49.336 121.743C46.986 121.864 45.0958 122.241 44.3564 122.928C45.4632 124.138 49.1535 125.036 53.1118 125.455C57.5531 118.24 58.7176 110.279 59.0203 106.979C56.8103 104.764 53.9663 103.303 50.8888 102.803Z" fill="#9EC5A6"/>
<path d="M64.6377 124.48C64.174 122.887 63.4886 121.368 62.602 119.969C62.8192 120.015 63.0364 120.06 63.2582 120.095C63.6435 117.727 63.4609 115.3 62.7257 113.017C61.9905 110.735 60.724 108.663 59.0319 106.974C58.7292 110.274 57.5645 118.225 53.1233 125.451C57.9759 125.963 63.2467 125.748 64.6285 124.494H64.6401L64.6377 124.48Z" fill="#5C8F64"/>
<path d="M65.3656 106.353H58.3665V125.937H78.5508V121.687C77.7415 121.993 76.8847 122.15 76.0205 122.153C70.2344 122.153 65.5274 115.125 65.3656 106.353Z" fill="#F9A141"/>
<path d="M65.3657 106.353C65.5275 115.125 70.2345 122.162 76.0206 122.162C76.8848 122.16 77.7416 122.002 78.5508 121.696V106.353H65.3657Z" fill="#FFBE7D"/>
<path d="M69.5019 106.353H67.4153V125.935H69.5019V106.353Z" fill="#F9F9F9"/>
<path d="M75.7896 77.7152L85.8805 77.5522C85.8805 77.5522 86.2272 87.3772 85.5362 96.8601C85.0556 103.44 79.4659 122.806 79.4659 122.806H77.414C77.414 122.806 78.0864 112.714 78.0818 110.91C78.0772 109.106 77.6589 93.9691 77.9663 89.7282C76.3025 86.5905 76.1223 85.7642 75.7896 77.7152Z" fill="#273F39"/>
<path d="M85.5199 125.937H90.1806C90.2521 125.937 90.3214 125.912 90.3773 125.867C90.4331 125.823 90.4723 125.76 90.4883 125.69C90.5044 125.62 90.4965 125.546 90.4658 125.481C90.4351 125.416 90.3834 125.364 90.3193 125.332C89.4628 124.922 88.569 124.596 87.6504 124.359C87.4675 124.312 87.3053 124.205 87.1891 124.055C87.0729 123.905 87.0092 123.72 87.008 123.53V122.741H84.8567V125.269C84.8567 125.357 84.8739 125.444 84.9072 125.525C84.9405 125.606 84.9893 125.679 85.0509 125.741C85.1125 125.803 85.1856 125.853 85.2661 125.886C85.3466 125.92 85.4328 125.937 85.5199 125.937Z" fill="#596864"/>
<path d="M78.077 126H82.7401C82.8119 126.001 82.8819 125.977 82.9384 125.933C82.995 125.888 83.0347 125.826 83.0509 125.755C83.0671 125.685 83.0588 125.611 83.0275 125.546C82.9962 125.48 82.9437 125.428 82.8787 125.397C82.0218 124.988 81.1281 124.661 80.2098 124.422C80.0265 124.376 79.8636 124.27 79.7468 124.12C79.6301 123.971 79.5662 123.786 79.5651 123.596V122.807H77.4138V125.332C77.4138 125.509 77.4837 125.679 77.6081 125.805C77.7324 125.93 77.9011 126 78.077 126Z" fill="#39423F"/>
<path d="M76.8639 77.7155L89.6724 77.5083C89.6724 77.5083 90.1576 90.9784 89.6724 97.5563C89.1871 104.134 87.0081 122.742 87.0081 122.742H84.8568C84.8568 122.742 83.3825 113.431 83.3756 111.618C83.3687 109.804 80.4502 95.3637 80.7575 91.1344C79.0175 88.2946 76.8131 84.8357 76.8639 77.7155Z" fill="#3C635D"/>
<path d="M86.227 52.0435L86.16 48.9547C86.1605 48.912 86.1716 48.8701 86.1922 48.8327C86.2128 48.7953 86.2423 48.7637 86.2781 48.7406C86.3138 48.7175 86.3546 48.7038 86.3969 48.7005C86.4392 48.6973 86.4817 48.7046 86.5205 48.722C86.8452 48.8665 87.1986 48.9342 87.5534 48.9198C88.4938 48.8686 89.7532 47.756 89.9912 46.3268C90.2985 44.495 89.6654 39.5161 89.6654 39.5161L81.3467 41.6832C81.3467 41.6832 80.9123 44.7091 81.7696 46.2872C82.3103 47.2881 82.1162 48.978 81.2312 50.3909C82.6616 50.882 86.227 52.0435 86.227 52.0435Z" fill="#EAAC98"/>
<path d="M91.1699 76.7632C91.1886 76.8683 91.1857 76.9762 91.1614 77.0801C91.1371 77.184 91.092 77.2819 91.0288 77.3676C90.9656 77.4533 90.8857 77.525 90.7939 77.5784C90.7021 77.6318 90.6004 77.6657 90.4951 77.678C87.8663 77.9834 85.2224 78.1388 82.5762 78.1435C77.6589 78.1435 75.7896 77.7315 75.7896 77.7315C75.7896 77.7315 77.1991 71.9124 77.8138 69.8617C78.4284 67.8111 79.1055 64.827 78.9276 63.3792C78.7127 61.6405 78.5763 59.9273 78.6572 56.7035C78.7473 53.1306 79.9859 50.4189 81.1228 50.1117C81.1758 50.1006 81.2309 50.1044 81.2819 50.1229C81.3328 50.1414 81.3778 50.1738 81.4116 50.2164C81.7282 50.5702 83.1423 51.3639 84.9008 51.3639C85.3383 51.3814 85.7765 51.3627 86.211 51.3081C86.2831 51.2915 86.358 51.2925 86.4296 51.3112C86.5011 51.3298 86.5672 51.3655 86.6223 51.4151C87.4657 52.1739 90.338 55.0393 90.338 57.2645C90.338 59.7993 90.338 61.0376 90.338 62.2969C90.3518 65.658 90.6707 73.9421 91.1699 76.7632Z" fill="#CDE298"/>
<path d="M77.8738 71.7288C77.9335 70.6538 78.3281 69.6251 79.0014 68.789C80.0158 67.5623 80.954 67.695 82.2365 67.9883C83.9164 68.3746 84.5079 68.2466 83.5883 67.9021C81.7119 67.2038 80.8523 66.573 79.8055 63.9637C79.3049 62.7875 78.93 61.5609 78.6872 60.3047C78.7357 61.4685 78.8281 62.4182 78.9436 63.3632C79.1216 64.811 78.4446 67.7857 77.8299 69.8457C77.7791 70.0164 77.7236 70.2096 77.6635 70.4253C77.5479 70.8251 77.5666 71.2523 77.7167 71.6403C77.7929 71.8475 77.8599 71.9103 77.8738 71.7288Z" fill="#B0BF82"/>
<path d="M90.3403 57.2482C90.3212 56.7095 90.193 56.1804 89.9636 55.6934C89.9636 56.4498 90.0699 57.6346 89.6262 58.2747C89.2288 58.8496 88.494 59.2407 87.4957 59.2058C86.4975 59.1709 89.5754 62.3062 89.4414 62.4342L88.9053 62.9859L90.4096 65.9979C90.368 64.6315 90.3426 63.1628 90.3403 62.2736C90.3333 61.0214 90.3403 59.7831 90.3403 57.2482Z" fill="#B0BF82"/>
<path d="M84.6143 67.4851L88.903 62.9834C88.903 62.9834 91.3755 67.8342 92.45 68.7629C93.1432 69.3588 98.8669 72.1683 101.48 73.4462C104.094 74.724 105.36 75.0755 104.785 75.3409C103.985 75.748 103.106 75.9729 102.211 75.9996C101.134 75.9996 98.5134 75.0313 97.5891 74.7217C96.6648 74.4121 91.0751 72.8852 90.2132 72.4383C88.9538 71.7819 84.6143 67.4851 84.6143 67.4851Z" fill="#EAAC98"/>
<path d="M86.4951 40.5103C86.4951 40.5103 86.5459 42.9869 86.368 43.5036C86.1901 44.0203 85.9544 43.9086 85.5477 43.322C84.9769 42.4957 84.3438 42.6238 84.0134 43.0637C83.5628 43.6642 84.0873 45.1586 84.8059 45.1795C85.5246 45.2005 85.8851 45.6078 85.1641 45.7731C84.2675 45.9802 84.1913 46.9602 83.602 47.1161C83.0128 47.2721 81.6795 47.5281 81.3421 44.8862C80.947 41.8021 81.7535 40.6965 81.7535 40.6965L86.4951 40.5103Z" fill="#413A5C"/>
<path d="M81.3468 41.6715C81.3468 41.6715 81.0395 37.1815 84.9215 36.4459C88.8036 35.7104 89.8757 38.4198 89.8757 38.4198L93.7277 38.0613C93.789 38.0462 93.8538 38.0562 93.9077 38.0892C93.9617 38.1221 94.0004 38.1753 94.0154 38.2371C94.0305 38.2988 94.0205 38.364 93.9878 38.4184C93.9551 38.4727 93.9022 38.5117 93.841 38.5268C92.2119 39.2251 89.6238 40.2912 88.5262 40.6729C86.881 41.2455 83.4611 41.8251 81.3468 41.6715Z" fill="#F9DE7A"/>
<path d="M85.0421 36.7837C85.4405 36.6994 85.7239 36.4414 85.6751 36.2074C85.6263 35.9734 85.2638 35.852 84.8654 35.9363C84.467 36.0205 84.1836 36.2786 84.2324 36.5126C84.2812 36.7466 84.6437 36.8679 85.0421 36.7837Z" fill="#E5AC2E"/>
<path d="M85.7002 48.0333C84.6858 46.2293 84.8614 47.2279 85.2936 48.3149C85.4969 48.8293 85.8435 49.7255 86.1786 49.8744C86.1786 49.8744 86.1624 49.2111 86.1601 48.9434C86.1601 48.4778 86.6939 48.7665 86.6939 48.7665C86.6939 48.7665 85.9729 48.5151 85.7002 48.0333Z" fill="#CE9789"/>
</g>
<path d="M52.6489 157C52.7143 156.468 52.7796 155.938 52.8449 155.411C52.9103 154.884 52.9803 154.312 53.0549 153.696L53.4749 150.385C53.5496 149.774 53.6196 149.204 53.6849 148.677C53.7503 148.145 53.8203 147.592 53.8949 147.018H55.5469C55.8176 147.676 56.0743 148.311 56.3169 148.922C56.5643 149.529 56.8093 150.135 57.0519 150.742L58.4939 154.312H58.6129L60.0269 150.742C60.2649 150.135 60.5029 149.531 60.7409 148.929C60.9836 148.327 61.2356 147.69 61.4969 147.018H63.1419C63.2119 147.587 63.2796 148.138 63.3449 148.67C63.4103 149.197 63.4826 149.769 63.5619 150.385L63.9749 153.724C64.0496 154.326 64.1196 154.886 64.1849 155.404C64.2503 155.922 64.3156 156.454 64.3809 157H62.8129C62.7149 156.183 62.6216 155.406 62.5329 154.669C62.4443 153.932 62.3603 153.243 62.2809 152.604L61.9449 149.846H61.8259L60.7059 152.814C60.4306 153.537 60.1553 154.258 59.8799 154.977C59.6093 155.696 59.3573 156.37 59.1239 157H58.0179C57.8639 156.599 57.6936 156.165 57.5069 155.698C57.3203 155.231 57.1289 154.753 56.9329 154.263C56.7416 153.773 56.5526 153.295 56.3659 152.828L55.1829 149.846H55.0639L54.7349 152.59C54.6556 153.234 54.5716 153.927 54.4829 154.669C54.3943 155.406 54.2986 156.183 54.1959 157H52.6489ZM69.5267 157.161C68.6727 157.161 67.9704 157.002 67.4197 156.685C66.869 156.368 66.4607 155.934 66.1947 155.383C65.9334 154.832 65.8027 154.2 65.8027 153.486C65.8027 152.781 65.9287 152.156 66.1807 151.61C66.4374 151.064 66.8107 150.639 67.3007 150.336C67.7907 150.028 68.3834 149.874 69.0787 149.874C69.6807 149.874 70.1987 149.988 70.6327 150.217C71.0667 150.441 71.4004 150.777 71.6337 151.225C71.867 151.673 71.9837 152.228 71.9837 152.891C71.9837 153.068 71.979 153.229 71.9697 153.374C71.965 153.514 71.951 153.654 71.9277 153.794L70.6187 153.22C70.628 153.15 70.635 153.082 70.6397 153.017C70.6444 152.947 70.6467 152.882 70.6467 152.821C70.6467 152.247 70.502 151.804 70.2127 151.491C69.928 151.174 69.5547 151.015 69.0927 151.015C68.7334 151.015 68.4207 151.113 68.1547 151.309C67.8887 151.505 67.681 151.773 67.5317 152.114C67.387 152.455 67.3147 152.847 67.3147 153.29V153.514C67.3147 154.009 67.3987 154.433 67.5667 154.788C67.7394 155.143 68.0007 155.416 68.3507 155.607C68.7054 155.798 69.151 155.894 69.6877 155.894C69.893 155.894 70.117 155.878 70.3597 155.845C70.607 155.808 70.8544 155.752 71.1017 155.677C71.349 155.602 71.5824 155.507 71.8017 155.39L71.8577 156.692C71.6804 156.785 71.4727 156.867 71.2347 156.937C70.9967 157.007 70.733 157.061 70.4437 157.098C70.159 157.14 69.8534 157.161 69.5267 157.161ZM66.4047 153.794V152.772L71.0317 152.716L71.9277 153.087V153.794H66.4047ZM73.6405 157C73.6405 156.491 73.6405 155.999 73.6405 155.523C73.6405 155.047 73.6405 154.522 73.6405 153.948V153.248C73.6405 152.73 73.6405 152.203 73.6405 151.666C73.6405 151.125 73.6405 150.583 73.6405 150.042L74.9215 149.958L74.9775 151.218H75.1245C75.2738 151.003 75.4628 150.793 75.6915 150.588C75.9248 150.378 76.1955 150.205 76.5035 150.07C76.8115 149.935 77.1638 149.867 77.5605 149.867C78.2838 149.867 78.8182 150.077 79.1635 150.497C79.5135 150.917 79.6885 151.533 79.6885 152.345C79.6885 152.648 79.6885 152.924 79.6885 153.171C79.6885 153.414 79.6885 153.673 79.6885 153.948C79.6885 154.508 79.6885 155.031 79.6885 155.516C79.6885 155.997 79.6885 156.491 79.6885 157H78.1905C78.1905 156.491 78.1905 155.999 78.1905 155.523C78.1905 155.042 78.1905 154.543 78.1905 154.025V152.779C78.1905 152.275 78.1042 151.895 77.9315 151.638C77.7588 151.381 77.4415 151.253 76.9795 151.253C76.7088 151.253 76.4615 151.309 76.2375 151.421C76.0135 151.528 75.8105 151.675 75.6285 151.862C75.4465 152.044 75.2832 152.247 75.1385 152.471V154.025C75.1385 154.562 75.1385 155.066 75.1385 155.537C75.1385 156.004 75.1385 156.491 75.1385 157H73.6405ZM83.7582 157.161C83.4549 157.161 83.1539 157.14 82.8552 157.098C82.5612 157.056 82.2836 156.998 82.0222 156.923C81.7656 156.844 81.5392 156.757 81.3432 156.664L81.4552 155.306C81.6652 155.427 81.8939 155.535 82.1412 155.628C82.3886 155.717 82.6452 155.787 82.9112 155.838C83.1819 155.885 83.4526 155.908 83.7232 155.908C83.9472 155.908 84.1526 155.887 84.3392 155.845C84.5306 155.798 84.6822 155.712 84.7942 155.586C84.9109 155.46 84.9692 155.273 84.9692 155.026C84.9692 154.863 84.9156 154.727 84.8082 154.62C84.7009 154.513 84.5259 154.417 84.2832 154.333C84.0406 154.244 83.7092 154.142 83.2892 154.025C82.9019 153.922 82.5636 153.794 82.2742 153.64C81.9896 153.486 81.7679 153.281 81.6092 153.024C81.4506 152.767 81.3712 152.429 81.3712 152.009C81.3712 151.332 81.5882 150.807 82.0222 150.434C82.4562 150.061 83.0372 149.874 83.7652 149.874C84.0732 149.874 84.3719 149.9 84.6612 149.951C84.9506 149.998 85.2142 150.061 85.4522 150.14C85.6949 150.215 85.9002 150.294 86.0682 150.378L85.9492 151.736C85.7346 151.601 85.5012 151.489 85.2492 151.4C85.0019 151.307 84.7639 151.239 84.5352 151.197C84.3066 151.15 84.1129 151.127 83.9542 151.127C83.7722 151.127 83.5996 151.153 83.4362 151.204C83.2776 151.251 83.1492 151.335 83.0512 151.456C82.9532 151.573 82.9042 151.731 82.9042 151.932C82.9042 152.091 82.9416 152.226 83.0162 152.338C83.0909 152.45 83.2262 152.553 83.4222 152.646C83.6229 152.739 83.9122 152.837 84.2902 152.94C84.7616 153.075 85.1606 153.218 85.4872 153.367C85.8186 153.516 86.0682 153.712 86.2362 153.955C86.4042 154.198 86.4882 154.534 86.4882 154.963C86.4882 155.392 86.3949 155.773 86.2082 156.104C86.0216 156.435 85.7276 156.694 85.3262 156.881C84.9249 157.068 84.4022 157.161 83.7582 157.161ZM89.771 157.147C89.3743 157.147 89.0197 157.068 88.707 156.909C88.3943 156.746 88.147 156.512 87.965 156.209C87.7877 155.901 87.699 155.528 87.699 155.089C87.699 154.702 87.7643 154.377 87.895 154.116C88.0303 153.85 88.2077 153.633 88.427 153.465C88.6463 153.297 88.8913 153.166 89.162 153.073C89.4327 152.98 89.7057 152.912 89.981 152.87L92.046 152.548C92.0647 152.161 92.0063 151.864 91.871 151.659C91.7403 151.454 91.5537 151.314 91.311 151.239C91.073 151.164 90.8023 151.127 90.499 151.127C90.3403 151.127 90.1677 151.139 89.981 151.162C89.799 151.185 89.6053 151.225 89.4 151.281C89.1993 151.332 88.987 151.398 88.763 151.477C88.5437 151.552 88.3173 151.643 88.084 151.75L88 150.42C88.1727 150.35 88.3663 150.282 88.581 150.217C88.7957 150.152 89.0267 150.093 89.274 150.042C89.526 149.986 89.785 149.944 90.051 149.916C90.317 149.888 90.5877 149.874 90.863 149.874C91.4137 149.874 91.885 149.956 92.277 150.119C92.669 150.282 92.97 150.544 93.18 150.903C93.39 151.258 93.495 151.72 93.495 152.289C93.495 152.513 93.495 152.791 93.495 153.122C93.495 153.453 93.495 153.761 93.495 154.046V154.886C93.495 155.217 93.495 155.553 93.495 155.894C93.495 156.235 93.495 156.603 93.495 157H92.144L92.06 156.076H91.927C91.7917 156.249 91.6213 156.417 91.416 156.58C91.2153 156.743 90.975 156.879 90.695 156.986C90.4197 157.093 90.1117 157.147 89.771 157.147ZM90.261 155.957C90.485 155.957 90.7043 155.908 90.919 155.81C91.1383 155.707 91.3413 155.563 91.528 155.376C91.7147 155.189 91.8757 154.963 92.011 154.697V153.465C91.941 153.507 91.85 153.547 91.738 153.584C91.6307 153.621 91.4673 153.663 91.248 153.71C91.0287 153.757 90.7207 153.815 90.324 153.885C90.0953 153.922 89.8993 153.99 89.736 154.088C89.5727 154.186 89.4443 154.314 89.351 154.473C89.2623 154.627 89.218 154.811 89.218 155.026C89.218 155.367 89.3207 155.607 89.526 155.747C89.736 155.887 89.981 155.957 90.261 155.957ZM94.4102 159.737C94.6715 159.438 94.8838 159.13 95.0472 158.813C95.2105 158.5 95.3295 158.157 95.4042 157.784C95.4788 157.415 95.5162 157 95.5162 156.538V153.948V153.248C95.5162 152.819 95.5162 152.424 95.5162 152.065C95.5162 151.706 95.5162 151.363 95.5162 151.036C95.5162 150.709 95.5162 150.378 95.5162 150.042L97.0142 149.993C97.0142 150.334 97.0142 150.67 97.0142 151.001C97.0142 151.332 97.0142 151.68 97.0142 152.044C97.0142 152.408 97.0142 152.809 97.0142 153.248C97.0142 153.761 97.0142 154.219 97.0142 154.62C97.0142 155.017 97.0142 155.383 97.0142 155.719C97.0142 156.055 97.0142 156.389 97.0142 156.72C97.0142 157.07 96.9885 157.392 96.9372 157.686C96.8905 157.98 96.8205 158.248 96.7272 158.491C96.6338 158.738 96.5195 158.96 96.3842 159.156C96.2535 159.357 96.1042 159.534 95.9362 159.688L94.4102 159.737ZM96.2512 148.628C95.9525 148.628 95.7098 148.551 95.5232 148.397C95.3412 148.238 95.2502 147.991 95.2502 147.655C95.2502 147.342 95.3412 147.104 95.5232 146.941C95.7098 146.778 95.9572 146.696 96.2652 146.696C96.5778 146.696 96.8228 146.78 97.0002 146.948C97.1822 147.116 97.2732 147.352 97.2732 147.655C97.2732 147.991 97.1822 148.238 97.0002 148.397C96.8182 148.551 96.5685 148.628 96.2512 148.628ZM102.435 157.161C101.581 157.161 100.879 157.002 100.328 156.685C99.7772 156.368 99.3689 155.934 99.1029 155.383C98.8416 154.832 98.7109 154.2 98.7109 153.486C98.7109 152.781 98.8369 152.156 99.0889 151.61C99.3456 151.064 99.7189 150.639 100.209 150.336C100.699 150.028 101.292 149.874 101.987 149.874C102.589 149.874 103.107 149.988 103.541 150.217C103.975 150.441 104.309 150.777 104.542 151.225C104.775 151.673 104.892 152.228 104.892 152.891C104.892 153.068 104.887 153.229 104.878 153.374C104.873 153.514 104.859 153.654 104.836 153.794L103.527 153.22C103.536 153.15 103.543 153.082 103.548 153.017C103.553 152.947 103.555 152.882 103.555 152.821C103.555 152.247 103.41 151.804 103.121 151.491C102.836 151.174 102.463 151.015 102.001 151.015C101.642 151.015 101.329 151.113 101.063 151.309C100.797 151.505 100.589 151.773 100.44 152.114C100.295 152.455 100.223 152.847 100.223 153.29V153.514C100.223 154.009 100.307 154.433 100.475 154.788C100.648 155.143 100.909 155.416 101.259 155.607C101.614 155.798 102.059 155.894 102.596 155.894C102.801 155.894 103.025 155.878 103.268 155.845C103.515 155.808 103.763 155.752 104.01 155.677C104.257 155.602 104.491 155.507 104.71 155.39L104.766 156.692C104.589 156.785 104.381 156.867 104.143 156.937C103.905 157.007 103.641 157.061 103.352 157.098C103.067 157.14 102.762 157.161 102.435 157.161ZM99.3129 153.794V152.772L103.94 152.716L104.836 153.087V153.794H99.3129ZM106.549 157C106.549 156.491 106.549 155.999 106.549 155.523C106.549 155.047 106.549 154.522 106.549 153.948V153.248C106.549 152.73 106.549 152.203 106.549 151.666C106.549 151.125 106.549 150.583 106.549 150.042L107.83 149.958L107.886 151.33H108.026C108.212 150.919 108.425 150.609 108.663 150.399C108.901 150.189 109.143 150.049 109.391 149.979C109.638 149.904 109.869 149.867 110.084 149.867C110.205 149.867 110.331 149.876 110.462 149.895C110.592 149.914 110.716 149.944 110.833 149.986L110.7 151.47C110.536 151.442 110.389 151.421 110.259 151.407C110.128 151.393 109.979 151.386 109.811 151.386C109.68 151.386 109.535 151.405 109.377 151.442C109.218 151.475 109.057 151.545 108.894 151.652C108.735 151.759 108.581 151.92 108.432 152.135C108.287 152.345 108.159 152.623 108.047 152.968V154.025C108.047 154.562 108.047 155.066 108.047 155.537C108.047 156.004 108.047 156.491 108.047 157H106.549ZM112.237 157C112.237 156.491 112.237 155.999 112.237 155.523C112.237 155.047 112.237 154.522 112.237 153.948V153.248C112.237 152.819 112.237 152.424 112.237 152.065C112.237 151.706 112.237 151.363 112.237 151.036C112.237 150.709 112.237 150.378 112.237 150.042L113.735 149.993C113.735 150.334 113.735 150.67 113.735 151.001C113.735 151.332 113.735 151.68 113.735 152.044C113.735 152.408 113.735 152.809 113.735 153.248V153.948C113.735 154.522 113.735 155.047 113.735 155.523C113.735 155.999 113.735 156.491 113.735 157H112.237ZM112.965 148.628C112.666 148.628 112.424 148.551 112.237 148.397C112.055 148.238 111.964 147.991 111.964 147.655C111.964 147.342 112.055 147.104 112.237 146.941C112.424 146.778 112.671 146.696 112.979 146.696C113.292 146.696 113.537 146.78 113.714 146.948C113.896 147.116 113.987 147.352 113.987 147.655C113.987 147.991 113.896 148.238 113.714 148.397C113.532 148.551 113.282 148.628 112.965 148.628ZM117.566 157.147C117.169 157.147 116.815 157.068 116.502 156.909C116.189 156.746 115.942 156.512 115.76 156.209C115.583 155.901 115.494 155.528 115.494 155.089C115.494 154.702 115.559 154.377 115.69 154.116C115.825 153.85 116.003 153.633 116.222 153.465C116.441 153.297 116.686 153.166 116.957 153.073C117.228 152.98 117.501 152.912 117.776 152.87L119.841 152.548C119.86 152.161 119.801 151.864 119.666 151.659C119.535 151.454 119.349 151.314 119.106 151.239C118.868 151.164 118.597 151.127 118.294 151.127C118.135 151.127 117.963 151.139 117.776 151.162C117.594 151.185 117.4 151.225 117.195 151.281C116.994 151.332 116.782 151.398 116.558 151.477C116.339 151.552 116.112 151.643 115.879 151.75L115.795 150.42C115.968 150.35 116.161 150.282 116.376 150.217C116.591 150.152 116.822 150.093 117.069 150.042C117.321 149.986 117.58 149.944 117.846 149.916C118.112 149.888 118.383 149.874 118.658 149.874C119.209 149.874 119.68 149.956 120.072 150.119C120.464 150.282 120.765 150.544 120.975 150.903C121.185 151.258 121.29 151.72 121.29 152.289C121.29 152.513 121.29 152.791 121.29 153.122C121.29 153.453 121.29 153.761 121.29 154.046V154.886C121.29 155.217 121.29 155.553 121.29 155.894C121.29 156.235 121.29 156.603 121.29 157H119.939L119.855 156.076H119.722C119.587 156.249 119.416 156.417 119.211 156.58C119.01 156.743 118.77 156.879 118.49 156.986C118.215 157.093 117.907 157.147 117.566 157.147ZM118.056 155.957C118.28 155.957 118.499 155.908 118.714 155.81C118.933 155.707 119.136 155.563 119.323 155.376C119.51 155.189 119.671 154.963 119.806 154.697V153.465C119.736 153.507 119.645 153.547 119.533 153.584C119.426 153.621 119.262 153.663 119.043 153.71C118.824 153.757 118.516 153.815 118.119 153.885C117.89 153.922 117.694 153.99 117.531 154.088C117.368 154.186 117.239 154.314 117.146 154.473C117.057 154.627 117.013 154.811 117.013 155.026C117.013 155.367 117.116 155.607 117.321 155.747C117.531 155.887 117.776 155.957 118.056 155.957Z" fill="#3C3C3B"/>
<defs>
<clipPath id="clip0_496_9789">
<rect width="88" height="110" fill="white" transform="translate(43 16)"/>
</clipPath>
</defs>
</svg>
