<svg width="109" height="142" viewBox="0 0 109 142" fill="none" xmlns="http://www.w3.org/2000/svg">
<g clip-path="url(#clip0_505_7500)">
<path d="M98.4866 44.3045C99.0619 61.5082 80.3889 81.5469 57.1728 81.5469C35.0198 81.5469 21.4742 67.9767 18.149 44.8981C14.1144 16.9151 33.9452 -13.5259 52.4196 6.38715C77.9048 33.8743 97.6824 20.2436 98.4866 44.3045Z" fill="#F9F9E1"/>
<path d="M28.2095 73.0183C27.8458 72.1101 27.5476 71.1766 27.3175 70.2251H21.3096V90.3499H41.8429V82.8293C36.9117 84.1305 30.9824 79.9407 28.2095 73.0183Z" fill="#E5943C"/>
<path d="M27.3125 70.2275C27.5426 71.179 27.8407 72.1125 28.2044 73.0207C30.9773 79.9431 36.9113 84.1329 41.8378 82.8341V70.2299L27.3125 70.2275Z" fill="#EFA962"/>
<path d="M32.6188 70.2275H30.5322V90.3524H32.6188V70.2275Z" fill="#F9F9F9"/>
<path d="M64.2778 41.9533C63.9141 41.0451 63.616 40.1116 63.3859 39.1602H57.3779V59.285H77.895V51.7644C72.9847 53.0655 67.0461 48.8758 64.2778 41.9533Z" fill="#F19F3D"/>
<path d="M63.3857 39.1626C63.6159 40.1141 63.914 41.0476 64.2777 41.9558C67.0506 48.8782 72.9846 53.068 77.9111 51.7691V39.1626H63.3857Z" fill="#FCB666"/>
<path d="M68.6911 39.1626H66.6045V59.2874H68.6911V39.1626Z" fill="#F9F9F9"/>
<path d="M18.3888 86.8027C17.8449 90.1323 18.431 93.5494 20.0526 96.5021C16.9242 95.6265 13.615 95.6515 10.5 96.5742C11.558 100.247 13.7841 103.468 16.836 105.743C14.486 105.864 12.5958 106.241 11.8564 106.928C12.9632 108.138 16.6535 109.036 20.6118 109.455C25.0531 102.24 26.2176 94.2792 26.5203 90.9785C24.3103 88.7639 21.4663 87.3034 18.3888 86.8027Z" fill="#9EC5A6"/>
<path d="M32.1375 108.48C31.6738 106.887 30.9884 105.368 30.1017 103.969C30.3189 104.015 30.5362 104.06 30.758 104.095C31.1433 101.727 30.9607 99.3 30.2255 97.0175C29.4903 94.735 28.2238 92.6627 26.5316 90.9736C26.2289 94.2742 25.0643 102.225 20.623 109.451C25.4756 109.963 30.7464 109.748 32.1282 108.494H32.1398L32.1375 108.48Z" fill="#5C8F64"/>
<path d="M32.8654 90.3525H25.8662V109.937H46.0505V105.687C45.2413 105.993 44.3845 106.15 43.5203 106.153C37.7342 106.153 33.0272 99.1254 32.8654 90.3525Z" fill="#F9A141"/>
<path d="M32.8652 90.3525C33.027 99.1254 37.734 106.162 43.5201 106.162C44.3843 106.16 45.2411 106.002 46.0503 105.696V90.3525H32.8652Z" fill="#FFBE7D"/>
<path d="M37.0016 90.3525H34.915V109.935H37.0016V90.3525Z" fill="#F9F9F9"/>
<path d="M43.2891 61.7152L53.3801 61.5522C53.3801 61.5522 53.7267 71.3772 53.0358 80.8601C52.5551 87.4403 46.9654 106.806 46.9654 106.806H44.9135C44.9135 106.806 45.5859 96.7137 45.5813 94.9098C45.5767 93.1058 45.1584 77.9691 45.4658 73.7282C43.802 70.5905 43.6218 69.7642 43.2891 61.7152Z" fill="#273F39"/>
<path d="M53.0197 109.937H57.6804C57.7519 109.937 57.8211 109.912 57.877 109.867C57.9329 109.823 57.972 109.76 57.9881 109.69C58.0042 109.62 57.9962 109.546 57.9655 109.481C57.9348 109.416 57.8832 109.364 57.819 109.332C56.9625 108.922 56.0688 108.596 55.1502 108.359C54.9673 108.312 54.8051 108.205 54.6889 108.055C54.5726 107.905 54.509 107.72 54.5078 107.53V106.741H52.3564V109.269C52.3564 109.357 52.3736 109.444 52.4069 109.525C52.4403 109.606 52.4891 109.679 52.5507 109.741C52.6123 109.803 52.6854 109.853 52.7658 109.886C52.8463 109.92 52.9326 109.937 53.0197 109.937Z" fill="#596864"/>
<path d="M45.5772 110H50.2403C50.3121 110.001 50.3821 109.977 50.4387 109.933C50.4952 109.888 50.5349 109.826 50.5511 109.755C50.5673 109.685 50.5591 109.611 50.5278 109.546C50.4964 109.48 50.4439 109.428 50.3789 109.397C49.522 108.988 48.6283 108.661 47.71 108.422C47.5267 108.376 47.3638 108.27 47.2471 108.12C47.1303 107.971 47.0664 107.786 47.0654 107.596V106.807H44.9141V109.332C44.9141 109.509 44.9839 109.679 45.1083 109.805C45.2327 109.93 45.4013 110 45.5772 110Z" fill="#39423F"/>
<path d="M44.3641 61.7155L57.1726 61.5083C57.1726 61.5083 57.6579 74.9784 57.1726 81.5563C56.6874 88.1343 54.5083 106.742 54.5083 106.742H52.357C52.357 106.742 50.8828 97.4309 50.8759 95.6177C50.8689 93.8044 47.9504 79.3637 48.2578 75.1344C46.5178 72.2946 44.3133 68.8357 44.3641 61.7155Z" fill="#3C635D"/>
<path d="M53.7272 36.0435L53.6602 32.9547C53.6608 32.912 53.6719 32.8701 53.6925 32.8327C53.7131 32.7953 53.7426 32.7637 53.7783 32.7406C53.814 32.7175 53.8549 32.7038 53.8972 32.7005C53.9395 32.6973 53.9819 32.7046 54.0207 32.722C54.3455 32.8665 54.6988 32.9342 55.0536 32.9198C55.9941 32.8686 57.2534 31.756 57.4914 30.3268C57.7988 28.495 57.1657 23.5161 57.1657 23.5161L48.847 25.6832C48.847 25.6832 48.4125 28.7091 49.2698 30.2872C49.8105 31.2881 49.6165 32.978 48.7314 34.3909C50.1618 34.882 53.7272 36.0435 53.7272 36.0435Z" fill="#EAAC98"/>
<path d="M58.6694 60.7632C58.6881 60.8683 58.6852 60.9762 58.6609 61.0801C58.6367 61.184 58.5916 61.2819 58.5283 61.3676C58.4651 61.4533 58.3852 61.525 58.2934 61.5784C58.2016 61.6318 58.0999 61.6657 57.9946 61.678C55.3658 61.9834 52.7219 62.1388 50.0757 62.1435C45.1584 62.1435 43.2891 61.7315 43.2891 61.7315C43.2891 61.7315 44.6986 55.9124 45.3133 53.8617C45.9279 51.8111 46.605 48.827 46.4271 47.3792C46.2122 45.6405 46.0758 43.9273 46.1567 40.7035C46.2468 37.1306 47.4854 34.4189 48.6223 34.1117C48.6753 34.1006 48.7304 34.1044 48.7814 34.1229C48.8323 34.1414 48.8773 34.1738 48.9111 34.2164C49.2277 34.5702 50.6418 35.3639 52.4003 35.3639C52.8378 35.3814 53.2761 35.3627 53.7105 35.3081C53.7826 35.2915 53.8575 35.2925 53.9291 35.3112C54.0007 35.3298 54.0667 35.3655 54.1218 35.4151C54.9652 36.1739 57.8375 39.0393 57.8375 41.2645C57.8375 43.7993 57.8375 45.0376 57.8375 46.2969C57.8514 49.658 58.1703 57.9421 58.6694 60.7632Z" fill="#CDE298"/>
<path d="M45.374 55.7288C45.4338 54.6538 45.8283 53.6251 46.5017 52.789C47.5161 51.5623 48.4542 51.695 49.7367 51.9883C51.4166 52.3746 52.0082 52.2466 51.0885 51.9021C49.2122 51.2038 48.3526 50.573 47.3058 47.9637C46.8052 46.7875 46.4303 45.5609 46.1874 44.3047C46.236 45.4685 46.3284 46.4182 46.4439 47.3632C46.6218 48.811 45.9448 51.7857 45.3302 53.8457C45.2793 54.0164 45.2239 54.2096 45.1638 54.4253C45.0481 54.8251 45.0668 55.2523 45.2169 55.6403C45.2932 55.8475 45.3602 55.9103 45.374 55.7288Z" fill="#B0BF82"/>
<path d="M57.84 41.2482C57.8209 40.7095 57.6928 40.1804 57.4634 39.6934C57.4634 40.4498 57.5696 41.6346 57.126 42.2747C56.7285 42.8496 55.9937 43.2407 54.9955 43.2058C53.9972 43.1709 57.0752 46.3062 56.9412 46.4342L56.4051 46.9859L57.9093 49.9979C57.8678 48.6315 57.8423 47.1628 57.84 46.2736C57.8331 45.0214 57.84 43.7831 57.84 41.2482Z" fill="#B0BF82"/>
<path d="M52.1143 51.4851L56.403 46.9834C56.403 46.9834 58.8755 51.8342 59.95 52.7629C60.6432 53.3588 66.3669 56.1683 68.9804 57.4462C71.5938 58.724 72.8601 59.0755 72.2847 59.3409C71.485 59.748 70.6062 59.9729 69.7106 59.9996C68.6338 59.9996 66.0134 59.0313 65.0891 58.7217C64.1648 58.4121 58.5751 56.8852 57.7132 56.4383C56.4538 55.7819 52.1143 51.4851 52.1143 51.4851Z" fill="#EAAC98"/>
<path d="M53.9953 24.5103C53.9953 24.5103 54.0462 26.9869 53.8682 27.5036C53.6903 28.0203 53.4546 27.9086 53.0479 27.322C52.4772 26.4957 51.844 26.6238 51.5136 27.0637C51.063 27.6642 51.5875 29.1586 52.3062 29.1795C53.0248 29.2005 53.3853 29.6078 52.6644 29.7731C51.7678 29.9802 51.6915 30.9602 51.1023 31.1161C50.5131 31.2721 49.1797 31.5281 48.8424 28.8862C48.4472 25.8021 49.2537 24.6965 49.2537 24.6965L53.9953 24.5103Z" fill="#413A5C"/>
<path d="M48.8466 25.6715C48.8466 25.6715 48.5392 21.1815 52.4213 20.4459C56.3033 19.7104 57.3755 22.4198 57.3755 22.4198L61.2275 22.0613C61.2888 22.0462 61.3535 22.0562 61.4075 22.0892C61.4615 22.1221 61.5002 22.1753 61.5152 22.2371C61.5302 22.2988 61.5203 22.364 61.4876 22.4184C61.4548 22.4727 61.402 22.5117 61.3407 22.5268C59.7116 23.2251 57.1236 24.2912 56.026 24.6729C54.3808 25.2455 50.9609 25.8251 48.8466 25.6715Z" fill="#F9DE7A"/>
<path d="M52.5416 20.7837C52.94 20.6994 53.2234 20.4414 53.1746 20.2074C53.1259 19.9734 52.7633 19.852 52.3649 19.9363C51.9665 20.0205 51.6831 20.2786 51.7319 20.5126C51.7807 20.7466 52.1432 20.8679 52.5416 20.7837Z" fill="#E5AC2E"/>
<path d="M53.2005 32.0333C52.1861 30.2293 52.3617 31.2279 52.7938 32.3149C52.9971 32.8293 53.3438 33.7255 53.6788 33.8744C53.6788 33.8744 53.6626 33.2111 53.6603 32.9434C53.6603 32.4778 54.1941 32.7665 54.1941 32.7665C54.1941 32.7665 53.4732 32.5151 53.2005 32.0333Z" fill="#CE9789"/>
</g>
<path d="M25.0562 139C25.1122 138.544 25.1682 138.09 25.2242 137.638C25.2802 137.186 25.3402 136.696 25.4042 136.168L25.7642 133.33C25.8282 132.806 25.8882 132.318 25.9442 131.866C26.0002 131.41 26.0602 130.936 26.1242 130.444H27.5402C27.7722 131.008 27.9922 131.552 28.2002 132.076C28.4122 132.596 28.6222 133.116 28.8302 133.636L30.0662 136.696H30.1682L31.3802 133.636C31.5842 133.116 31.7882 132.598 31.9922 132.082C32.2002 131.566 32.4162 131.02 32.6402 130.444H34.0502C34.1102 130.932 34.1682 131.404 34.2242 131.86C34.2802 132.312 34.3422 132.802 34.4102 133.33L34.7642 136.192C34.8282 136.708 34.8882 137.188 34.9442 137.632C35.0002 138.076 35.0562 138.532 35.1122 139H33.7682C33.6842 138.3 33.6042 137.634 33.5282 137.002C33.4522 136.37 33.3802 135.78 33.3122 135.232L33.0242 132.868H32.9222L31.9622 135.412C31.7262 136.032 31.4902 136.65 31.2542 137.266C31.0222 137.882 30.8062 138.46 30.6062 139H29.6582C29.5262 138.656 29.3802 138.284 29.2202 137.884C29.0602 137.484 28.8962 137.074 28.7282 136.654C28.5642 136.234 28.4022 135.824 28.2422 135.424L27.2282 132.868H27.1262L26.8442 135.22C26.7762 135.772 26.7042 136.366 26.6282 137.002C26.5522 137.634 26.4702 138.3 26.3822 139H25.0562ZM39.5229 139.138C38.7909 139.138 38.1889 139.002 37.7169 138.73C37.2449 138.458 36.8949 138.086 36.6669 137.614C36.4429 137.142 36.3309 136.6 36.3309 135.988C36.3309 135.384 36.4389 134.848 36.6549 134.38C36.8749 133.912 37.1949 133.548 37.6149 133.288C38.0349 133.024 38.5429 132.892 39.1389 132.892C39.6549 132.892 40.0989 132.99 40.4709 133.186C40.8429 133.378 41.1289 133.666 41.3289 134.05C41.5289 134.434 41.6289 134.91 41.6289 135.478C41.6289 135.63 41.6249 135.768 41.6169 135.892C41.6129 136.012 41.6009 136.132 41.5809 136.252L40.4589 135.76C40.4669 135.7 40.4729 135.642 40.4769 135.586C40.4809 135.526 40.4829 135.47 40.4829 135.418C40.4829 134.926 40.3589 134.546 40.1109 134.278C39.8669 134.006 39.5469 133.87 39.1509 133.87C38.8429 133.87 38.5749 133.954 38.3469 134.122C38.1189 134.29 37.9409 134.52 37.8129 134.812C37.6889 135.104 37.6269 135.44 37.6269 135.82V136.012C37.6269 136.436 37.6989 136.8 37.8429 137.104C37.9909 137.408 38.2149 137.642 38.5149 137.806C38.8189 137.97 39.2009 138.052 39.6609 138.052C39.8369 138.052 40.0289 138.038 40.2369 138.01C40.4489 137.978 40.6609 137.93 40.8729 137.866C41.0849 137.802 41.2849 137.72 41.4729 137.62L41.5209 138.736C41.3689 138.816 41.1909 138.886 40.9869 138.946C40.7829 139.006 40.5569 139.052 40.3089 139.084C40.0649 139.12 39.8029 139.138 39.5229 139.138ZM36.8469 136.252V135.376L40.8129 135.328L41.5809 135.646V136.252H36.8469ZM43.049 139C43.049 138.564 43.049 138.142 43.049 137.734C43.049 137.326 43.049 136.876 43.049 136.384V135.784C43.049 135.34 43.049 134.888 43.049 134.428C43.049 133.964 43.049 133.5 43.049 133.036L44.147 132.964L44.195 134.044H44.321C44.449 133.86 44.611 133.68 44.807 133.504C45.007 133.324 45.239 133.176 45.503 133.06C45.767 132.944 46.069 132.886 46.409 132.886C47.029 132.886 47.487 133.066 47.783 133.426C48.083 133.786 48.233 134.314 48.233 135.01C48.233 135.27 48.233 135.506 48.233 135.718C48.233 135.926 48.233 136.148 48.233 136.384C48.233 136.864 48.233 137.312 48.233 137.728C48.233 138.14 48.233 138.564 48.233 139H46.949C46.949 138.564 46.949 138.142 46.949 137.734C46.949 137.322 46.949 136.894 46.949 136.45V135.382C46.949 134.95 46.875 134.624 46.727 134.404C46.579 134.184 46.307 134.074 45.911 134.074C45.679 134.074 45.467 134.122 45.275 134.218C45.083 134.31 44.909 134.436 44.753 134.596C44.597 134.752 44.457 134.926 44.333 135.118V136.45C44.333 136.91 44.333 137.342 44.333 137.746C44.333 138.146 44.333 138.564 44.333 139H43.049ZM51.7213 139.138C51.4613 139.138 51.2033 139.12 50.9473 139.084C50.6953 139.048 50.4573 138.998 50.2333 138.934C50.0133 138.866 49.8193 138.792 49.6513 138.712L49.7473 137.548C49.9273 137.652 50.1233 137.744 50.3353 137.824C50.5473 137.9 50.7673 137.96 50.9953 138.004C51.2273 138.044 51.4593 138.064 51.6913 138.064C51.8833 138.064 52.0593 138.046 52.2193 138.01C52.3833 137.97 52.5133 137.896 52.6093 137.788C52.7093 137.68 52.7593 137.52 52.7593 137.308C52.7593 137.168 52.7133 137.052 52.6213 136.96C52.5293 136.868 52.3793 136.786 52.1713 136.714C51.9633 136.638 51.6793 136.55 51.3193 136.45C50.9873 136.362 50.6973 136.252 50.4493 136.12C50.2053 135.988 50.0153 135.812 49.8793 135.592C49.7433 135.372 49.6753 135.082 49.6753 134.722C49.6753 134.142 49.8613 133.692 50.2333 133.372C50.6053 133.052 51.1033 132.892 51.7273 132.892C51.9913 132.892 52.2473 132.914 52.4953 132.958C52.7433 132.998 52.9693 133.052 53.1733 133.12C53.3813 133.184 53.5573 133.252 53.7013 133.324L53.5993 134.488C53.4153 134.372 53.2153 134.276 52.9993 134.2C52.7873 134.12 52.5833 134.062 52.3873 134.026C52.1913 133.986 52.0253 133.966 51.8893 133.966C51.7333 133.966 51.5853 133.988 51.4453 134.032C51.3093 134.072 51.1993 134.144 51.1153 134.248C51.0313 134.348 50.9893 134.484 50.9893 134.656C50.9893 134.792 51.0213 134.908 51.0853 135.004C51.1493 135.1 51.2653 135.188 51.4333 135.268C51.6053 135.348 51.8533 135.432 52.1773 135.52C52.5813 135.636 52.9233 135.758 53.2033 135.886C53.4873 136.014 53.7013 136.182 53.8453 136.39C53.9893 136.598 54.0613 136.886 54.0613 137.254C54.0613 137.622 53.9813 137.948 53.8213 138.232C53.6613 138.516 53.4093 138.738 53.0653 138.898C52.7213 139.058 52.2733 139.138 51.7213 139.138ZM56.8752 139.126C56.5352 139.126 56.2312 139.058 55.9632 138.922C55.6952 138.782 55.4832 138.582 55.3272 138.322C55.1752 138.058 55.0992 137.738 55.0992 137.362C55.0992 137.03 55.1552 136.752 55.2672 136.528C55.3832 136.3 55.5352 136.114 55.7232 135.97C55.9112 135.826 56.1212 135.714 56.3532 135.634C56.5852 135.554 56.8192 135.496 57.0552 135.46L58.8252 135.184C58.8412 134.852 58.7912 134.598 58.6752 134.422C58.5632 134.246 58.4032 134.126 58.1952 134.062C57.9912 133.998 57.7592 133.966 57.4992 133.966C57.3632 133.966 57.2152 133.976 57.0552 133.996C56.8992 134.016 56.7332 134.05 56.5572 134.098C56.3852 134.142 56.2032 134.198 56.0112 134.266C55.8232 134.33 55.6292 134.408 55.4292 134.5L55.3572 133.36C55.5052 133.3 55.6712 133.242 55.8552 133.186C56.0392 133.13 56.2372 133.08 56.4492 133.036C56.6652 132.988 56.8872 132.952 57.1152 132.928C57.3432 132.904 57.5752 132.892 57.8112 132.892C58.2832 132.892 58.6872 132.962 59.0232 133.102C59.3592 133.242 59.6172 133.466 59.7972 133.774C59.9772 134.078 60.0672 134.474 60.0672 134.962C60.0672 135.154 60.0672 135.392 60.0672 135.676C60.0672 135.96 60.0672 136.224 60.0672 136.468V137.188C60.0672 137.472 60.0672 137.76 60.0672 138.052C60.0672 138.344 60.0672 138.66 60.0672 139H58.9092L58.8372 138.208H58.7232C58.6072 138.356 58.4612 138.5 58.2852 138.64C58.1132 138.78 57.9072 138.896 57.6672 138.988C57.4312 139.08 57.1672 139.126 56.8752 139.126ZM57.2952 138.106C57.4872 138.106 57.6752 138.064 57.8592 137.98C58.0472 137.892 58.2212 137.768 58.3812 137.608C58.5412 137.448 58.6792 137.254 58.7952 137.026V135.97C58.7352 136.006 58.6572 136.04 58.5612 136.072C58.4692 136.104 58.3292 136.14 58.1412 136.18C57.9532 136.22 57.6892 136.27 57.3492 136.33C57.1532 136.362 56.9852 136.42 56.8452 136.504C56.7052 136.588 56.5952 136.698 56.5152 136.834C56.4392 136.966 56.4012 137.124 56.4012 137.308C56.4012 137.6 56.4892 137.806 56.6652 137.926C56.8452 138.046 57.0552 138.106 57.2952 138.106ZM60.8516 141.346C61.0756 141.09 61.2576 140.826 61.3976 140.554C61.5376 140.286 61.6396 139.992 61.7036 139.672C61.7676 139.356 61.7996 139 61.7996 138.604V136.384V135.784C61.7996 135.416 61.7996 135.078 61.7996 134.77C61.7996 134.462 61.7996 134.168 61.7996 133.888C61.7996 133.608 61.7996 133.324 61.7996 133.036L63.0836 132.994C63.0836 133.286 63.0836 133.574 63.0836 133.858C63.0836 134.142 63.0836 134.44 63.0836 134.752C63.0836 135.064 63.0836 135.408 63.0836 135.784C63.0836 136.224 63.0836 136.616 63.0836 136.96C63.0836 137.3 63.0836 137.614 63.0836 137.902C63.0836 138.19 63.0836 138.476 63.0836 138.76C63.0836 139.06 63.0616 139.336 63.0176 139.588C62.9776 139.84 62.9176 140.07 62.8376 140.278C62.7576 140.49 62.6596 140.68 62.5436 140.848C62.4316 141.02 62.3036 141.172 62.1596 141.304L60.8516 141.346ZM62.4296 131.824C62.1736 131.824 61.9656 131.758 61.8056 131.626C61.6496 131.49 61.5716 131.278 61.5716 130.99C61.5716 130.722 61.6496 130.518 61.8056 130.378C61.9656 130.238 62.1776 130.168 62.4416 130.168C62.7096 130.168 62.9196 130.24 63.0716 130.384C63.2276 130.528 63.3056 130.73 63.3056 130.99C63.3056 131.278 63.2276 131.49 63.0716 131.626C62.9156 131.758 62.7016 131.824 62.4296 131.824ZM67.7299 139.138C66.9979 139.138 66.3959 139.002 65.9239 138.73C65.4519 138.458 65.1019 138.086 64.8739 137.614C64.6499 137.142 64.5379 136.6 64.5379 135.988C64.5379 135.384 64.6459 134.848 64.8619 134.38C65.0819 133.912 65.4019 133.548 65.8219 133.288C66.2419 133.024 66.7499 132.892 67.3459 132.892C67.8619 132.892 68.3059 132.99 68.6779 133.186C69.0499 133.378 69.3359 133.666 69.5359 134.05C69.7359 134.434 69.8359 134.91 69.8359 135.478C69.8359 135.63 69.8319 135.768 69.8239 135.892C69.8199 136.012 69.8079 136.132 69.7879 136.252L68.6659 135.76C68.6739 135.7 68.6799 135.642 68.6839 135.586C68.6879 135.526 68.6899 135.47 68.6899 135.418C68.6899 134.926 68.5659 134.546 68.3179 134.278C68.0739 134.006 67.7539 133.87 67.3579 133.87C67.0499 133.87 66.7819 133.954 66.5539 134.122C66.3259 134.29 66.1479 134.52 66.0199 134.812C65.8959 135.104 65.8339 135.44 65.8339 135.82V136.012C65.8339 136.436 65.9059 136.8 66.0499 137.104C66.1979 137.408 66.4219 137.642 66.7219 137.806C67.0259 137.97 67.4079 138.052 67.8679 138.052C68.0439 138.052 68.2359 138.038 68.4439 138.01C68.6559 137.978 68.8679 137.93 69.0799 137.866C69.2919 137.802 69.4919 137.72 69.6799 137.62L69.7279 138.736C69.5759 138.816 69.3979 138.886 69.1939 138.946C68.9899 139.006 68.7639 139.052 68.5159 139.084C68.2719 139.12 68.0099 139.138 67.7299 139.138ZM65.0539 136.252V135.376L69.0199 135.328L69.7879 135.646V136.252H65.0539ZM71.256 139C71.256 138.564 71.256 138.142 71.256 137.734C71.256 137.326 71.256 136.876 71.256 136.384V135.784C71.256 135.34 71.256 134.888 71.256 134.428C71.256 133.964 71.256 133.5 71.256 133.036L72.354 132.964L72.402 134.14H72.522C72.682 133.788 72.864 133.522 73.068 133.342C73.272 133.162 73.48 133.042 73.692 132.982C73.904 132.918 74.102 132.886 74.286 132.886C74.39 132.886 74.498 132.894 74.61 132.91C74.722 132.926 74.828 132.952 74.928 132.988L74.814 134.26C74.674 134.236 74.548 134.218 74.436 134.206C74.324 134.194 74.196 134.188 74.052 134.188C73.94 134.188 73.816 134.204 73.68 134.236C73.544 134.264 73.406 134.324 73.266 134.416C73.13 134.508 72.998 134.646 72.87 134.83C72.746 135.01 72.636 135.248 72.54 135.544V136.45C72.54 136.91 72.54 137.342 72.54 137.746C72.54 138.146 72.54 138.564 72.54 139H71.256ZM76.1316 139C76.1316 138.564 76.1316 138.142 76.1316 137.734C76.1316 137.326 76.1316 136.876 76.1316 136.384V135.784C76.1316 135.416 76.1316 135.078 76.1316 134.77C76.1316 134.462 76.1316 134.168 76.1316 133.888C76.1316 133.608 76.1316 133.324 76.1316 133.036L77.4156 132.994C77.4156 133.286 77.4156 133.574 77.4156 133.858C77.4156 134.142 77.4156 134.44 77.4156 134.752C77.4156 135.064 77.4156 135.408 77.4156 135.784V136.384C77.4156 136.876 77.4156 137.326 77.4156 137.734C77.4156 138.142 77.4156 138.564 77.4156 139H76.1316ZM76.7556 131.824C76.4996 131.824 76.2916 131.758 76.1316 131.626C75.9756 131.49 75.8976 131.278 75.8976 130.99C75.8976 130.722 75.9756 130.518 76.1316 130.378C76.2916 130.238 76.5036 130.168 76.7676 130.168C77.0356 130.168 77.2456 130.24 77.3976 130.384C77.5536 130.528 77.6316 130.73 77.6316 130.99C77.6316 131.278 77.5536 131.49 77.3976 131.626C77.2416 131.758 77.0276 131.824 76.7556 131.824ZM80.6994 139.126C80.3594 139.126 80.0554 139.058 79.7874 138.922C79.5194 138.782 79.3074 138.582 79.1514 138.322C78.9994 138.058 78.9234 137.738 78.9234 137.362C78.9234 137.03 78.9794 136.752 79.0914 136.528C79.2074 136.3 79.3594 136.114 79.5474 135.97C79.7354 135.826 79.9454 135.714 80.1774 135.634C80.4094 135.554 80.6434 135.496 80.8794 135.46L82.6494 135.184C82.6654 134.852 82.6154 134.598 82.4994 134.422C82.3874 134.246 82.2274 134.126 82.0194 134.062C81.8154 133.998 81.5834 133.966 81.3234 133.966C81.1874 133.966 81.0394 133.976 80.8794 133.996C80.7234 134.016 80.5574 134.05 80.3814 134.098C80.2094 134.142 80.0274 134.198 79.8354 134.266C79.6474 134.33 79.4534 134.408 79.2534 134.5L79.1814 133.36C79.3294 133.3 79.4954 133.242 79.6794 133.186C79.8634 133.13 80.0614 133.08 80.2734 133.036C80.4894 132.988 80.7114 132.952 80.9394 132.928C81.1674 132.904 81.3994 132.892 81.6354 132.892C82.1074 132.892 82.5114 132.962 82.8474 133.102C83.1834 133.242 83.4414 133.466 83.6214 133.774C83.8014 134.078 83.8914 134.474 83.8914 134.962C83.8914 135.154 83.8914 135.392 83.8914 135.676C83.8914 135.96 83.8914 136.224 83.8914 136.468V137.188C83.8914 137.472 83.8914 137.76 83.8914 138.052C83.8914 138.344 83.8914 138.66 83.8914 139H82.7334L82.6614 138.208H82.5474C82.4314 138.356 82.2854 138.5 82.1094 138.64C81.9374 138.78 81.7314 138.896 81.4914 138.988C81.2554 139.08 80.9914 139.126 80.6994 139.126ZM81.1194 138.106C81.3114 138.106 81.4994 138.064 81.6834 137.98C81.8714 137.892 82.0454 137.768 82.2054 137.608C82.3654 137.448 82.5034 137.254 82.6194 137.026V135.97C82.5594 136.006 82.4814 136.04 82.3854 136.072C82.2934 136.104 82.1534 136.14 81.9654 136.18C81.7774 136.22 81.5134 136.27 81.1734 136.33C80.9774 136.362 80.8094 136.42 80.6694 136.504C80.5294 136.588 80.4194 136.698 80.3394 136.834C80.2634 136.966 80.2254 137.124 80.2254 137.308C80.2254 137.6 80.3134 137.806 80.4894 137.926C80.6694 138.046 80.8794 138.106 81.1194 138.106Z" fill="#3C3C3B"/>
<defs>
<clipPath id="clip0_505_7500">
<rect width="88" height="110" fill="white" transform="translate(10.5)"/>
</clipPath>
</defs>
</svg>
