<svg width="52" height="48" viewBox="0 0 52 48" fill="none" xmlns="http://www.w3.org/2000/svg">
<circle opacity="0.4" cx="35.4668" cy="25.9434" r="16" fill="#CDE298"/>
<path d="M31.0432 23.6631C30.8269 23.647 30.61 23.647 30.3937 23.6631L29.7276 21.6839C30.2648 21.588 30.807 21.523 31.3516 21.4892C31.8713 22.5924 34.1937 23.1115 34.2911 21.4892V19.3153C34.1937 17.693 31.8067 18.1959 31.3195 19.3153C30.5842 19.3672 29.8522 19.4593 29.127 19.5911H29.1107L28.5422 17.9688C28.255 17.1032 27.7017 16.3502 26.961 15.8171C26.2204 15.2841 25.3305 14.9981 24.4176 15H22.436C22.1474 15 21.8709 15.1145 21.6668 15.3183C21.4628 15.5222 21.3481 15.7987 21.3481 16.0869C21.348 16.2289 21.3764 16.3695 21.4313 16.5005C21.4862 16.6314 21.5664 16.7502 21.6676 16.8498C21.7689 16.9495 21.889 17.028 22.0209 17.0809C22.1528 17.1337 22.2939 17.1598 22.436 17.1577H24.4176C24.8753 17.156 25.3216 17.2997 25.6923 17.5679C26.063 17.8362 26.3386 18.2152 26.4797 18.6502L27.0808 20.4509C26.5916 20.7412 26.1436 21.0959 25.749 21.5054H20.0651C19.8435 20.8723 19.4311 20.3233 18.8843 19.934C18.3376 19.5447 17.6836 19.3342 17.0122 19.3315H13.7642C13.6221 19.3315 13.4814 19.3597 13.3503 19.4146C13.2192 19.4694 13.1003 19.5497 13.0006 19.6508C12.9009 19.752 12.8219 19.872 12.7691 20.0037C12.7162 20.1355 12.69 20.2765 12.6921 20.4185C12.69 20.5604 12.7162 20.7014 12.7691 20.8332C12.8219 20.965 12.9009 21.0849 13.0006 21.1861C13.1003 21.2872 13.2192 21.3676 13.3503 21.4224C13.4814 21.4772 13.6221 21.5054 13.7642 21.5054H17.0122C17.2148 21.5032 17.4138 21.5585 17.5863 21.6647C17.7587 21.7709 17.8973 21.9238 17.9863 22.1057C18.0487 22.2385 18.0873 22.3813 18.1001 22.5275C18.074 22.7733 17.9967 23.0109 17.8729 23.225L17.4019 23.874C16.712 23.6819 15.9909 23.6277 15.28 23.7146C14.569 23.8016 13.8822 24.0279 13.2591 24.3806C12.636 24.7333 12.0887 25.2055 11.6486 25.77C11.2086 26.3345 10.8843 26.9802 10.6947 27.6701C10.5651 28.1294 10.4997 28.6044 10.5 29.0815C10.5101 30.4426 11.0324 31.75 11.9634 32.7438C12.8944 33.7376 14.1658 34.345 15.5246 34.4451C16.8834 34.5453 18.2301 34.1309 19.2971 33.2844C20.364 32.4379 21.073 31.2213 21.283 29.8765C22.0405 29.5846 22.6996 29.0839 23.1834 28.4326L26.9345 23.4522C27.2047 23.1443 27.4921 22.8518 27.7952 22.5761L28.3963 24.3931C27.1566 25.1294 26.2591 26.3259 25.9 27.7213C25.541 29.1166 25.7492 30.5972 26.4797 31.8394C26.9571 32.643 27.6339 33.31 28.4446 33.776C29.2554 34.2421 30.1728 34.4914 31.1082 34.5C32.5467 34.4914 33.9231 33.9123 34.9342 32.89C35.9453 31.8678 36.5085 30.4861 36.4999 29.0491C36.4913 27.612 35.9115 26.2372 34.8882 25.2272C33.8649 24.2171 32.4817 23.6545 31.0432 23.6631V23.6631ZM15.8592 32.3423C14.9978 32.3423 14.1715 32.0005 13.5624 31.392C12.9533 30.7835 12.6113 29.9583 12.6113 29.0977C12.6113 28.2372 12.9533 27.412 13.5624 26.8035C14.1715 26.195 14.9978 25.8532 15.8592 25.8532L15.2094 26.713C14.8665 27.174 14.7204 27.7518 14.8026 28.3202C14.8847 28.8886 15.1885 29.4014 15.6479 29.7467C16.0195 30.0341 16.4772 30.1884 16.9471 30.1847H18.9284C18.7032 30.8174 18.2871 31.3648 17.7373 31.7512C17.1876 32.1377 16.5314 32.3442 15.8592 32.3423V32.3423ZM21.3968 27.1348C21.1918 27.4007 20.9288 27.6164 20.6277 27.7654C20.3265 27.9144 19.9951 27.9928 19.6591 27.9946H16.9471L19.5457 24.5391C19.7403 24.2689 19.8983 23.9744 20.0163 23.6631H23.9954L21.3968 27.1348ZM31.0432 32.3423C30.1818 32.3423 29.3559 32.0005 28.7468 31.392C28.1376 30.7835 27.7952 29.9583 27.7952 29.0977C27.7979 28.6145 27.9088 28.1379 28.1195 27.7028C28.3303 27.2678 28.6355 26.8853 29.0132 26.5832L29.9877 29.4871C30.077 29.7596 30.2702 29.9859 30.5258 30.1165C30.7813 30.2472 31.0781 30.2717 31.3516 30.1847C31.6256 30.092 31.8526 29.8957 31.9832 29.6378C32.1138 29.3799 32.1378 29.0812 32.0502 28.8057L31.0757 25.9018C31.9371 25.9018 32.7634 26.2437 33.3725 26.8522C33.9816 27.4606 34.3236 28.2859 34.3236 29.1464C34.3236 30.007 33.9816 30.8322 33.3725 31.4407C32.7634 32.0492 31.9371 32.391 31.0757 32.391L31.0432 32.3423Z" fill="#3C635D"/>
</svg>
