<svg width="52" height="49" viewBox="0 0 52 49" fill="none" xmlns="http://www.w3.org/2000/svg">
<circle opacity="0.4" cx="35.4668" cy="26.4434" r="16" fill="#CDE298"/>
<path d="M32.0259 12.5004H15.9902C14.9306 12.5044 13.9153 12.929 13.1675 13.6796C12.4196 14.4303 12 15.4457 12 16.5053V28.5053C12 29.5649 12.4196 30.5818 13.1675 31.3325C13.9153 32.0831 14.9306 32.5077 15.9902 32.5117H18.9009L23.4009 36.2763C23.5841 36.4288 23.8143 36.5122 24.0527 36.5122C24.2911 36.5122 24.5214 36.4288 24.7046 36.2763L29.2046 32.5117H32.1006C33.1616 32.5077 34.1775 32.0842 34.9277 31.3339C35.678 30.5837 36.1015 29.5663 36.1055 28.5053V16.5053C36.1035 15.9736 35.9957 15.4484 35.7891 14.9585C35.5824 14.4685 35.2808 14.0243 34.9014 13.6518C34.5219 13.2793 34.0723 12.9851 33.5786 12.7876C33.0849 12.59 32.5576 12.4925 32.0259 12.5004ZM34.0195 28.5053C34.0215 28.7679 33.9726 29.0285 33.873 29.2714C33.7735 29.5144 33.6266 29.7362 33.4409 29.9218C33.2553 30.1075 33.0335 30.2544 32.7905 30.354C32.5476 30.4535 32.2884 30.5024 32.0259 30.5005H29.1299C28.6568 30.5036 28.2009 30.6741 27.8408 30.9809L24.0308 34.1904L20.2207 30.9809C19.8626 30.6706 19.404 30.4997 18.9302 30.5005H16.0195C15.4904 30.5005 14.983 30.2916 14.6089 29.9174C14.2348 29.5433 14.0259 29.0344 14.0259 28.5053V16.5053C14.0259 15.9762 14.2348 15.4688 14.6089 15.0947C14.983 14.7206 15.4904 14.5117 16.0195 14.5117H32.0259C32.2884 14.5097 32.5476 14.5586 32.7905 14.6582C33.0335 14.7577 33.2553 14.9046 33.4409 15.0903C33.6266 15.2759 33.7735 15.4977 33.873 15.7407C33.9726 15.9836 34.0215 16.2428 34.0195 16.5053V28.5053Z" fill="#3C635D"/>
<path d="M18.9903 19.5054H24.0001C24.264 19.5014 24.5165 19.3946 24.7018 19.2065C24.887 19.0185 24.9904 18.7645 24.9903 18.5005C24.9865 18.2391 24.8807 17.9895 24.6959 17.8047C24.5111 17.6199 24.2615 17.5156 24.0001 17.5117H18.9903C18.7278 17.5117 18.4758 17.6161 18.2901 17.8018C18.1045 17.9874 18.0001 18.2379 18.0001 18.5005C17.9981 18.6318 18.023 18.7624 18.0719 18.8843C18.1207 19.0061 18.1922 19.1174 18.2843 19.2109C18.3764 19.3045 18.4869 19.3785 18.608 19.4292C18.7291 19.4799 18.8591 19.5054 18.9903 19.5054Z" fill="#3C635D"/>
<path d="M29.0265 21.5H19.0201C18.8889 21.5 18.7589 21.5269 18.6378 21.5776C18.5167 21.6283 18.4077 21.7024 18.3155 21.7959C18.2234 21.8894 18.1505 22.0007 18.1017 22.1226C18.0528 22.2444 18.0294 22.3736 18.0314 22.5049C18.0294 22.6361 18.0528 22.7668 18.1017 22.8887C18.1505 23.0105 18.2234 23.1218 18.3155 23.2153C18.4077 23.3089 18.5167 23.3829 18.6378 23.4336C18.7589 23.4843 18.8889 23.5112 19.0201 23.5112H29.0265C29.293 23.5112 29.5485 23.4053 29.7369 23.2168C29.9254 23.0283 30.0314 22.7714 30.0314 22.5049C30.0314 22.2383 29.9254 21.9829 29.7369 21.7944C29.5485 21.606 29.293 21.5 29.0265 21.5Z" fill="#3C635D"/>
<path d="M29.0265 25.5049H19.0201C18.8889 25.5049 18.7589 25.5318 18.6378 25.5825C18.5167 25.6332 18.4077 25.7073 18.3155 25.8008C18.2234 25.8943 18.1505 26.0056 18.1017 26.1274C18.0528 26.2493 18.0294 26.38 18.0314 26.5112C18.0314 26.7738 18.1357 27.0243 18.3214 27.21C18.5071 27.3956 18.7576 27.5 19.0201 27.5H29.0265C29.2904 27.5 29.543 27.3967 29.7311 27.2114C29.9191 27.0262 30.0274 26.7752 30.0314 26.5112C30.0314 26.2447 29.9254 25.9878 29.7369 25.7993C29.5485 25.6108 29.293 25.5049 29.0265 25.5049Z" fill="#3C635D"/>
</svg>
