<svg width="22" height="22" viewBox="0 0 22 22" fill="none" xmlns="http://www.w3.org/2000/svg">
<path d="M18.2967 18.2981H15.1152V13.3149C15.1152 12.1244 15.0939 10.5971 13.46 10.5971C11.8028 10.5971 11.5488 11.8913 11.5488 13.2291V18.2981H8.36785V8.0499H11.4228V9.45023H11.4655C11.7713 8.92776 12.213 8.49794 12.7436 8.20648C13.2742 7.91501 13.8738 7.77279 14.4788 7.79494C17.7029 7.79494 18.2982 9.91701 18.2982 12.6755L18.2967 18.2981ZM4.77766 6.64908C4.41242 6.64908 4.05539 6.54077 3.7517 6.33784C3.44801 6.13492 3.21132 5.84649 3.07155 5.50904C2.93178 5.17158 2.89521 4.80026 2.96647 4.44202C3.03772 4.08379 3.2136 3.75472 3.47186 3.49645C3.73012 3.23817 4.05917 3.06229 4.41739 2.99103C4.77561 2.91977 5.14692 2.95634 5.48435 3.09612C5.82179 3.2359 6.11021 3.4726 6.31312 3.7763C6.51604 4.08 6.62435 4.43705 6.62435 4.80231C6.62441 5.04485 6.57669 5.28503 6.48391 5.50911C6.39113 5.7332 6.2551 5.93682 6.08361 6.10832C5.91212 6.27982 5.70851 6.41585 5.48443 6.50863C5.26035 6.60142 5.02019 6.64914 4.77766 6.64908ZM6.3679 18.2981H3.18296V8.0499H6.3679V18.2981ZM19.8829 0.00111347H1.58428C1.169 -0.00338663 0.7689 0.157122 0.471854 0.447392C0.174809 0.737662 0.00510132 1.13396 0 1.54926V19.9247C0.00207338 20.1306 0.0447036 20.3341 0.125458 20.5236C0.206213 20.713 0.323507 20.8847 0.470637 21.0288C0.617767 21.1729 0.791853 21.2866 0.982939 21.3634C1.17402 21.4401 1.37836 21.4785 1.58428 21.4763H19.8829C20.2992 21.4815 20.7005 21.3212 20.9988 21.0308C21.297 20.7403 21.4678 20.3434 21.4737 19.9271V1.54827C21.4675 1.13217 21.2966 0.735504 20.9984 0.445274C20.7002 0.155043 20.299 -0.00504691 19.8829 0.000121359" fill="white"/>
</svg>
