<svg width="52" height="48" viewBox="0 0 52 48" fill="none" xmlns="http://www.w3.org/2000/svg">
<circle opacity="0.4" cx="35.4668" cy="25.9434" r="16" fill="#CDE298"/>
<path d="M23.9702 23.9563C24.4962 23.9563 25.0173 23.8527 25.5032 23.6515C25.9891 23.4502 26.4306 23.1553 26.8025 22.7834C27.1744 22.4115 27.4691 21.97 27.6704 21.4841C27.8717 20.9981 27.9755 20.4774 27.9755 19.9515C27.9715 18.8919 27.5477 17.8769 26.797 17.1291C26.0464 16.3812 25.0298 15.9614 23.9702 15.9614C22.9106 15.9614 21.8945 16.3812 21.1438 17.1291C20.3932 17.8769 19.9693 18.8919 19.9653 19.9515C19.9653 20.4774 20.0691 20.9981 20.2704 21.4841C20.4717 21.97 20.7664 22.4115 21.1383 22.7834C21.5102 23.1553 21.9517 23.4502 22.4376 23.6515C22.9235 23.8527 23.4443 23.9563 23.9702 23.9563ZM23.9702 17.9563C24.4981 17.9603 25.0036 18.1717 25.3768 18.545C25.7501 18.9183 25.9614 19.4236 25.9653 19.9515C25.9654 20.482 25.7557 20.9909 25.382 21.3674C25.0083 21.7439 24.5007 21.9574 23.9702 21.9614C23.707 21.9614 23.4464 21.9093 23.2034 21.8081C22.9604 21.707 22.7399 21.5587 22.5545 21.3718C22.369 21.185 22.2224 20.9632 22.1231 20.7194C22.0237 20.4756 21.9735 20.2147 21.9755 19.9515C21.9755 19.4224 22.1854 18.9149 22.5596 18.5408C22.9337 18.1667 23.4411 17.9563 23.9702 17.9563ZM32.6253 21.1215L31.9053 20.8815C32.0286 19.8381 31.9448 18.7806 31.6585 17.7698C31.3721 16.7589 30.8887 15.8146 30.2365 14.9909C29.5842 14.1673 28.7758 13.4805 27.8576 12.97C26.9393 12.4596 25.9292 12.1355 24.8854 12.0164C24.5808 11.9945 24.2748 11.9945 23.9702 12.0164C21.8498 12.0164 19.8164 12.8588 18.317 14.3581C16.8177 15.8575 15.9755 17.8909 15.9755 20.0113C15.9776 20.3775 16.0027 20.7434 16.0505 21.1065C15.0917 21.284 14.2051 21.7376 13.5003 22.4115C13.0195 22.8787 12.6386 23.4386 12.3807 24.0574C12.1229 24.6762 11.9935 25.341 12.0003 26.0113V30.0915C12.0019 31.1729 12.3533 32.2248 13.0022 33.09C13.6511 33.9552 14.5627 34.587 15.6005 34.8914L18.4653 35.7914C18.9511 35.9418 19.4568 36.0177 19.9653 36.0164C20.4263 36.0166 20.8851 35.9561 21.3302 35.8364L27.1054 34.1264C27.6197 33.9768 28.1661 33.9768 28.6804 34.1264L31.0656 34.9214C31.5798 35.0437 32.1131 35.063 32.6348 34.9782C33.1565 34.8934 33.6561 34.7061 34.1051 34.4272C34.5541 34.1483 34.9434 33.7834 35.2506 33.3533C35.5579 32.9232 35.7772 32.4366 35.8955 31.9214C35.9723 31.6122 36.0123 31.295 36.0153 30.9764V25.8313C36.0109 24.7955 35.6877 23.7861 35.0891 22.9407C34.4906 22.0952 33.6458 21.4549 32.6703 21.1065L32.6253 21.1215ZM19.7255 15.7214C20.8503 14.5993 22.3741 13.9692 23.9629 13.9692C25.5517 13.9692 27.0755 14.5993 28.2003 15.7214C28.7604 16.2789 29.2048 16.9417 29.5081 17.6714C29.8113 18.4012 29.9677 19.1837 29.9677 19.974C29.9677 20.7643 29.8113 21.5468 29.5081 22.2765C29.2048 23.0063 28.7604 23.6689 28.2003 24.2264L24.6605 27.6765C24.4732 27.8571 24.2231 27.9579 23.9629 27.9579C23.7027 27.9579 23.4526 27.8571 23.2653 27.6765L19.7105 24.2414C19.1491 23.6827 18.7038 23.0183 18.4005 22.2866C18.0972 21.5549 17.9417 20.7704 17.9431 19.9784C17.9445 19.1863 18.1027 18.4022 18.4086 17.6716C18.7145 16.941 19.1621 16.2781 19.7255 15.7214ZM33.9755 30.9764C33.964 31.2669 33.8896 31.5515 33.7576 31.8105C33.6255 32.0694 33.4389 32.2966 33.2105 32.4764C32.9822 32.6556 32.7178 32.7832 32.4356 32.8505C32.1533 32.9178 31.8599 32.9233 31.5753 32.8664L29.2352 32.0864C28.3482 31.8318 27.4076 31.8318 26.5205 32.0864L20.7304 33.7964C20.1763 33.9536 19.5896 33.9536 19.0355 33.7964L16.1403 32.8965C15.5119 32.7167 14.9596 32.3367 14.567 31.8141C14.1744 31.2916 13.963 30.655 13.9653 30.0014V25.9214C13.9669 25.5173 14.0502 25.1176 14.21 24.7464C14.3698 24.3753 14.603 24.0402 14.8955 23.7613C15.3512 23.3225 15.9338 23.0391 16.5603 22.9515C16.9604 23.9501 17.5575 24.8581 18.3156 25.6215L21.8854 29.0864C22.4455 29.6316 23.1963 29.9368 23.9779 29.9368C24.7595 29.9368 25.5103 29.6316 26.0704 29.0864L29.6253 25.6215C30.4163 24.8151 31.0342 23.8555 31.4406 22.8015L31.9804 22.9815C32.563 23.1886 33.0672 23.5707 33.4243 24.0755C33.7814 24.5803 33.9741 25.1832 33.9755 25.8015V30.9764Z" fill="#3C635D"/>
</svg>
