<svg width="52" height="48" viewBox="0 0 52 48" fill="none" xmlns="http://www.w3.org/2000/svg">
<circle opacity="0.4" cx="36" cy="24" r="16" fill="#CDE298"/>
<path d="M18.9902 12H15.9902C14.9306 12.004 13.9153 12.4285 13.1675 13.1792C12.4196 13.9299 12 14.9453 12 16.0049V19.0049C12 20.0645 12.4196 21.0814 13.1675 21.832C13.9153 22.5827 14.9306 23.0073 15.9902 23.0112H18.9902C20.0512 23.0073 21.0672 22.5837 21.8174 21.8335C22.5676 21.0833 22.9912 20.0659 22.9951 19.0049V16.0049C22.9912 14.9439 22.5676 13.928 21.8174 13.1777C21.0672 12.4275 20.0512 12.004 18.9902 12ZM21 19.0049C21 19.2681 20.9489 19.5294 20.8477 19.7725C20.7465 20.0155 20.598 20.2359 20.4111 20.4214C20.2243 20.6068 20.0016 20.7541 19.7578 20.8535C19.514 20.9529 19.2535 21.002 18.9902 21H15.9902C15.4611 21 14.9537 20.7911 14.5796 20.417C14.2055 20.0429 13.9951 19.534 13.9951 19.0049V16.0049C13.9951 15.4758 14.2055 14.9684 14.5796 14.5942C14.9537 14.2201 15.4611 14.0112 15.9902 14.0112H18.9902C19.2535 14.0093 19.514 14.0583 19.7578 14.1577C20.0016 14.2571 20.2243 14.4044 20.4111 14.5898C20.598 14.7753 20.7465 14.9957 20.8477 15.2388C20.9489 15.4818 21 15.7416 21 16.0049V19.0049Z" fill="#3C635D"/>
<path d="M31.9951 12H28.9951C27.9341 12.004 26.9182 12.4275 26.168 13.1777C25.4177 13.928 24.9942 14.9439 24.9902 16.0049V19.0049C24.9942 20.0659 25.4177 21.0833 26.168 21.8335C26.9182 22.5837 27.9341 23.0073 28.9951 23.0112H31.9951C33.0561 23.0073 34.0735 22.5837 34.8237 21.8335C35.574 21.0833 35.996 20.0659 36 19.0049V16.0049C35.996 14.9439 35.574 13.928 34.8237 13.1777C34.0735 12.4275 33.0561 12.004 31.9951 12ZM33.9902 19.0049C33.9902 19.534 33.7799 20.0429 33.4058 20.417C33.0316 20.7911 32.5242 21 31.9951 21H28.9951C28.7326 21.002 28.472 20.9531 28.229 20.8535C27.9861 20.754 27.7657 20.607 27.5801 20.4214C27.3944 20.2357 27.2475 20.0139 27.1479 19.771C27.0484 19.528 26.998 19.2674 27 19.0049V16.0049C26.998 15.7423 27.0484 15.4832 27.1479 15.2402C27.2475 14.9973 27.3944 14.7755 27.5801 14.5898C27.7657 14.4042 27.9861 14.2573 28.229 14.1577C28.472 14.0582 28.7326 14.0092 28.9951 14.0112H31.9951C32.5242 14.0112 33.0316 14.2201 33.4058 14.5942C33.7799 14.9684 33.9902 15.4758 33.9902 16.0049V19.0049Z" fill="#3C635D"/>
<path d="M18.9903 25.0049H15.9903C15.465 25.0049 14.9446 25.1096 14.4595 25.311C13.9744 25.5125 13.5338 25.8076 13.1631 26.1797C12.7924 26.5518 12.5 26.9932 12.3003 27.479C12.1007 27.9648 11.9981 28.486 12 29.0112V32.0112C12 33.0694 12.4207 34.0842 13.169 34.8325C13.9172 35.5808 14.932 36 15.9903 36H18.9903C20.0499 36 21.0668 35.5804 21.8174 34.8325C22.5681 34.0847 22.9912 33.0708 22.9951 32.0112V29.0112C22.9951 27.949 22.5729 26.9293 21.8218 26.1782C21.0707 25.4271 20.0525 25.0049 18.9903 25.0049ZM21 32.0112C20.9961 32.5417 20.7833 33.0482 20.4068 33.4219C20.0302 33.7956 19.5208 34.0049 18.9903 34.0049H15.9903C15.4624 34.001 14.9573 33.7908 14.584 33.4175C14.2107 33.0442 13.9991 32.5391 13.9951 32.0112V29.0112C13.9951 28.4807 14.2059 27.9712 14.5796 27.5947C14.9533 27.2182 15.4598 27.004 15.9903 27H18.9903C19.5233 27 20.0342 27.2119 20.4112 27.5889C20.7881 27.9658 21 28.4781 21 29.0112V32.0112Z" fill="#3C635D"/>
<path d="M31.9951 25.0049H28.9951C27.9329 25.0049 26.9147 25.4271 26.1636 26.1782C25.4125 26.9293 24.9902 27.949 24.9902 29.0112V32.0112C24.9942 33.0708 25.4188 34.0847 26.1694 34.8325C26.9201 35.5804 27.9355 36 28.9951 36H31.9951C33.0547 36 34.0716 35.5804 34.8223 34.8325C35.5729 34.0847 35.996 33.0708 36 32.0112V29.0112C36 27.949 35.5792 26.9293 34.8281 26.1782C34.077 25.4271 33.0573 25.0049 31.9951 25.0049ZM33.9902 32.0112C33.9863 32.5391 33.7747 33.0442 33.4014 33.4175C33.0281 33.7908 32.523 34.001 31.9951 34.0049H28.9951C28.466 34.0049 27.9586 33.796 27.5845 33.4219C27.2103 33.0477 27 32.5403 27 32.0112V29.0112C26.998 28.748 27.0486 28.486 27.1479 28.2422C27.2473 27.9984 27.3946 27.7772 27.5801 27.5903C27.7655 27.4035 27.986 27.255 28.229 27.1538C28.472 27.0526 28.7319 27 28.9951 27H31.9951C32.5256 27.004 33.0335 27.2182 33.4072 27.5947C33.7809 27.9712 33.9902 28.4807 33.9902 29.0112V32.0112Z" fill="#3C635D"/>
</svg>
