<svg width="52" height="48" viewBox="0 0 52 48" fill="none" xmlns="http://www.w3.org/2000/svg">
<circle opacity="0.4" cx="36" cy="24" r="16" fill="#CDE298"/>
<path d="M24 12C20.8174 12 17.7661 13.2652 15.5156 15.5156C13.2652 17.7661 12 20.8174 12 24C12 27.1826 13.2652 30.2354 15.5156 32.4858C17.7661 34.7363 20.8174 36 24 36C27.1826 36 30.2354 34.7363 32.4858 32.4858C34.7363 30.2354 36 27.1826 36 24C36 20.8174 34.7363 17.7661 32.4858 15.5156C30.2354 13.2652 27.1826 12 24 12ZM24 34.0049C21.3465 34.0049 18.8026 32.9515 16.9263 31.0752C15.05 29.1989 13.9951 26.6535 13.9951 24C13.9951 22.6868 14.2553 21.3868 14.7583 20.1738C15.2613 18.9608 15.9985 17.8585 16.9277 16.9307C17.857 16.0028 18.9586 15.2683 20.1724 14.7671C21.3861 14.2659 22.6868 14.0078 24 14.0098C26.6495 14.0098 29.1915 15.063 31.0649 16.9365C32.9384 18.81 33.9902 21.3505 33.9902 24C33.9902 26.6509 32.938 29.1935 31.0649 31.0693C29.1919 32.9452 26.6509 34.0009 24 34.0049Z" fill="#3C635D"/>
<path d="M24.0004 18C23.7339 18 23.4785 18.106 23.29 18.2944C23.1015 18.4829 22.9956 18.7383 22.9956 19.0049V23.3247L19.6206 25.4399C19.3966 25.5819 19.2386 25.807 19.1796 26.0654C19.1206 26.3239 19.1655 26.5948 19.3056 26.8198C19.3745 26.9322 19.4651 27.03 19.5722 27.1069C19.6793 27.1838 19.8011 27.2387 19.9296 27.2681C20.0582 27.2974 20.1909 27.3011 20.3208 27.2783C20.4506 27.2555 20.5746 27.2061 20.6855 27.1348L24.5263 24.7354C24.6709 24.6449 24.7891 24.5189 24.8706 24.3691C24.952 24.2193 24.9934 24.0504 24.9907 23.8799V19.0049C24.9907 18.7409 24.8873 18.4883 24.7021 18.3003C24.5169 18.1122 24.2644 18.0039 24.0004 18Z" fill="#3C635D"/>
</svg>
