<svg width="122" height="165" viewBox="0 0 122 165" fill="none" xmlns="http://www.w3.org/2000/svg">
<path d="M44.0339 67.3324C33.4431 57.2951 30.4117 36.2989 41.5795 25.1311C52.2359 14.4747 66.8876 16.0945 82.3234 28.3313C101.041 43.1671 109.752 70.9567 88.9264 67.9051C60.1877 63.685 58.846 81.3708 44.0339 67.3324Z" fill="#FCFCED"/>
<path d="M34.8164 42H82.7879C83.3327 42 83.7762 42.4435 83.7762 42.9883V73.6895C83.7762 74.2344 83.3327 74.6778 82.7879 74.6778H34.8164C34.2716 74.6778 33.8281 74.2344 33.8281 73.6895V42.9883C33.8281 42.4435 34.2716 42 34.8164 42Z" fill="#5F9B54"/>
<path fill-rule="evenodd" clip-rule="evenodd" d="M40.4043 42H44.9658L64.8335 65.1495C65.1249 65.4916 65.6444 65.5296 65.9865 65.2382C66.3286 64.9467 66.3667 64.4272 66.0752 64.0851L47.1198 42H82.7753C83.2441 42 83.6495 42.3294 83.7382 42.7856V73.8923H67.0509L40.4043 42Z" fill="#3C635D"/>
<path fill-rule="evenodd" clip-rule="evenodd" d="M71.7129 70.0283H71.8016H71.9283H72.017C72.017 70.0283 72.1311 70.0283 72.1817 70.0283H72.2324H72.3718H72.4605L72.5619 70.041H72.6759L72.7899 70.0663H72.904L72.9927 70.0917H73.1067L73.2081 70.1297H73.2714C73.2714 70.1297 73.3855 70.1677 73.4488 70.1804H73.4741C75.0833 70.5098 76.6292 71.2954 77.9089 72.5118C78.3524 72.9299 78.7325 73.3861 79.0619 73.8549H67.0501L65.6816 72.2203C67.0754 71.0166 68.824 70.231 70.7626 70.041H70.7879C70.8513 70.041 70.9147 70.0283 70.978 70.0283H71.0287H71.1934C71.2441 70.0283 71.2821 70.0283 71.3328 70.0283H71.4088C71.5102 70.0283 71.6115 70.0283 71.7129 70.0283Z" fill="#DD3E13"/>
<path fill-rule="evenodd" clip-rule="evenodd" d="M76.908 73.842L76.946 73.88H67.0629L66.7461 73.4999C69.673 70.9404 74.1205 71.0544 76.908 73.842Z" fill="#DD3E13"/>
<path fill-rule="evenodd" clip-rule="evenodd" d="M76.237 73.8793C73.6142 71.5606 69.6736 71.5606 67.0381 73.8667L76.2244 73.8793H76.237Z" fill="#DD3E13"/>
<path d="M106.429 66.7974L102.557 79.4463L116.672 83.767L120.544 71.1181L106.429 66.7974Z" fill="#FFA146"/>
<path d="M106.235 66.7346L105.59 68.8428L120.068 73.2748L120.714 71.1666L106.235 66.7346Z" fill="#FFA146"/>
<path fill-rule="evenodd" clip-rule="evenodd" d="M116.669 83.7758L111.36 82.154L105.785 68.9131L119.888 73.2338L116.669 83.7758Z" fill="#ED7425"/>
<path fill-rule="evenodd" clip-rule="evenodd" d="M119.33 70.7491L117.772 70.2803L116.885 73.1819L117.265 73.1312L117.518 73.3719L118.025 73.2579L118.431 73.6634L119.33 70.7491Z" fill="#DD3E13"/>
<path fill-rule="evenodd" clip-rule="evenodd" d="M109.194 67.6456L107.635 67.1768L106.748 70.0783L107.128 70.0277L107.394 70.2684L107.888 70.1544L108.294 70.5598L109.194 67.6456Z" fill="#DD3E13"/>
<path d="M91.7509 62.3033L87.8789 74.9521L101.994 79.2729L105.866 66.624L91.7509 62.3033Z" fill="#FFA146"/>
<path d="M91.5731 62.2327L90.9277 64.3408L105.406 68.7728L106.051 66.6647L91.5731 62.2327Z" fill="#FFA146"/>
<path fill-rule="evenodd" clip-rule="evenodd" d="M101.996 79.2778L96.7001 77.656L91.1123 64.415L105.228 68.7358L101.996 79.2778Z" fill="#ED7425"/>
<path fill-rule="evenodd" clip-rule="evenodd" d="M104.657 66.2647L103.112 65.7832L102.212 68.6975L102.605 68.6468L102.858 68.8749L103.352 68.7608L103.77 69.1663L104.657 66.2647Z" fill="#DD3E13"/>
<path fill-rule="evenodd" clip-rule="evenodd" d="M94.5206 63.1602L92.9748 62.6787L92.0752 65.593L92.468 65.5423L92.7214 65.7831L93.2156 65.6563L93.6337 66.0745L94.5206 63.1602Z" fill="#DD3E13"/>
<path d="M86.2082 75.0703H84.8145V77.9466H86.2082V75.0703Z" fill="#344453"/>
<path d="M84.562 73.8799H26.796C26.5581 73.8799 26.3652 74.0728 26.3652 74.3107V78.4667C26.3652 78.7047 26.5581 78.8975 26.796 78.8975H84.562C84.7999 78.8975 84.9928 78.7047 84.9928 78.4667V74.3107C84.9928 74.0728 84.7999 73.8799 84.562 73.8799Z" fill="#20354A"/>
<path fill-rule="evenodd" clip-rule="evenodd" d="M85.8155 78.9101L109.104 85.993H121.281C121.56 85.917 121.585 85.2708 121.281 85.1441L87.0953 74.716C86.6518 74.5767 86.1703 74.8301 86.0436 75.2736L85.258 77.8457C85.1187 78.2892 85.3721 78.7707 85.8155 78.8974V78.9101Z" fill="#20354A"/>
<path fill-rule="evenodd" clip-rule="evenodd" d="M30.8248 50.0709L17.964 49.8936L10.9951 62.3869L11.3372 70.9903H29.6465L30.8248 50.0709Z" fill="#AAD3EF"/>
<path fill-rule="evenodd" clip-rule="evenodd" d="M29.8872 66.8597L29.7605 66.9484L18.04 49.8936L30.8248 50.0709L29.8872 66.8597Z" fill="#85BFE9"/>
<path fill-rule="evenodd" clip-rule="evenodd" d="M26.796 78.8975H84.5746C84.8027 78.8975 85.0054 78.7074 85.0054 78.4667V76.3887H26.3652V78.4667C26.3652 78.7074 26.5553 78.8975 26.796 78.8975Z" fill="#1A2A3A"/>
<path d="M33.8403 52.5039H32.041V75.3366H33.8403V52.5039Z" fill="#1A2A3A"/>
<path fill-rule="evenodd" clip-rule="evenodd" d="M32.0159 49.4636C31.9145 48.716 31.4331 48.3359 30.5841 48.3105H18.775C17.3812 48.3612 17.3178 48.6907 16.9504 49.3115L9.5 63.0973V78.4669H9.5C9.5 78.7077 9.67739 78.8851 9.90546 78.8851H32.1426L32.0159 49.4509V49.4636ZM15.81 69.1286L11.654 69.1539V62.9706L18.0654 51.0348C18.4836 50.2238 18.699 50.1731 19.3198 50.1731H29.3551C29.6465 50.1985 29.7225 50.4392 29.7225 50.8194L29.6211 65.0866C24.6669 63.8449 19.3325 65.3781 15.81 69.1159V69.1286Z" fill="#CDE298"/>
<path fill-rule="evenodd" clip-rule="evenodd" d="M9.5 72.5752V78.4798C9.5 78.7205 9.67739 78.8979 9.90546 78.8979H9.91813H19.3452H32.1299L32.1046 72.5752H9.5Z" fill="#B0BF82"/>
<path fill-rule="evenodd" clip-rule="evenodd" d="M26.2384 70.0283H26.1497H26.023H25.9343C25.9343 70.0283 25.8203 70.0283 25.7696 70.0283H25.7189H25.5795H25.4908L25.3895 70.041H25.2754L25.1614 70.0663H25.0473L24.9586 70.0917H24.8446L24.7432 70.1297H24.6799C24.6799 70.1297 24.5659 70.1677 24.5025 70.1804H24.4772C22.868 70.5098 21.3221 71.2954 20.0424 72.5118C18.2305 74.2477 17.2928 76.5411 17.2295 78.8725H26.099H35.3867C35.2853 74.2477 31.7122 70.4718 27.176 70.041H27.1507C27.0873 70.041 27.024 70.0283 26.9606 70.0283H26.9099H26.7452C26.6945 70.0283 26.6565 70.0283 26.6058 70.0283H26.5298C26.4285 70.0283 26.3271 70.0283 26.2257 70.0283H26.2384Z" fill="#B0BF82"/>
<path fill-rule="evenodd" clip-rule="evenodd" d="M31.5847 73.842C32.9912 75.2484 33.7134 77.0603 33.7641 78.8976H18.876C18.9267 77.0603 19.6489 75.2484 21.0553 73.842C23.9696 70.9277 28.6831 70.9277 31.5974 73.842H31.5847Z" fill="#85972D"/>
<path fill-rule="evenodd" clip-rule="evenodd" d="M31.2555 74.1838C33.9797 76.908 33.9797 81.3174 31.2555 84.0416C28.5313 86.7658 24.1219 86.7658 21.3977 84.0416C18.6734 81.3174 18.6734 76.908 21.3977 74.1838C24.1219 71.4596 28.5313 71.4596 31.2555 74.1838Z" fill="#344453"/>
<path fill-rule="evenodd" clip-rule="evenodd" d="M24.0333 81.3936C22.7662 80.1265 22.7662 78.0865 24.0333 76.8194C25.3004 75.5524 27.3404 75.5524 28.6075 76.8194L24.0333 81.3936Z" fill="#1A2A3A"/>
<path fill-rule="evenodd" clip-rule="evenodd" d="M31.2553 74.1836C33.9795 76.9078 33.9795 81.3172 31.2553 84.0414C28.5311 86.7656 24.1217 86.7656 21.3975 84.0414L31.2553 74.1836Z" fill="#1A2A3A"/>
<path fill-rule="evenodd" clip-rule="evenodd" d="M28.6073 76.8193C29.8744 78.0864 29.8744 80.1264 28.6073 81.3935C27.3403 82.6606 25.3003 82.6606 24.0332 81.3935L28.6073 76.8193Z" fill="#344453"/>
<path fill-rule="evenodd" clip-rule="evenodd" d="M27.7717 77.6562C28.57 78.4545 28.57 79.7596 27.7717 80.5705C26.9735 81.3688 25.6684 81.3688 24.8701 80.5705L27.7717 77.6562Z" fill="#AAD3EF"/>
<path fill-rule="evenodd" clip-rule="evenodd" d="M24.8692 80.5696C24.0709 79.7713 24.0709 78.4663 24.8692 77.6553C25.6675 76.8571 26.9725 76.8571 27.7708 77.6553L24.8692 80.5696Z" fill="#E1EFFA"/>
<path fill-rule="evenodd" clip-rule="evenodd" d="M27.1754 78.2637C27.6442 78.7325 27.6442 79.4927 27.1754 79.9615C26.7066 80.4304 25.9464 80.4304 25.4775 79.9615L27.1754 78.2637Z" fill="#1A2A3A"/>
<path fill-rule="evenodd" clip-rule="evenodd" d="M25.4776 79.9616C25.0088 79.4928 25.0088 78.7325 25.4776 78.2637C25.9464 77.7949 26.7067 77.7949 27.1755 78.2637L25.4776 79.9616Z" fill="#344453"/>
<path fill-rule="evenodd" clip-rule="evenodd" d="M71.7137 70.0283H71.8024H71.9291H72.0178C72.0178 70.0283 72.1318 70.0283 72.1825 70.0283H72.2332H72.3726H72.4613L72.5626 70.041H72.6767L72.7907 70.0663H72.9048L72.9935 70.0917H73.1075L73.2089 70.1297H73.2722C73.2722 70.1297 73.3862 70.1677 73.4496 70.1804H73.4749C75.0841 70.5098 76.63 71.2954 77.9097 72.5118C79.7216 74.2477 80.6592 76.5411 80.7226 78.8725H71.8531H62.5654C62.6668 74.2477 66.2399 70.4718 70.7761 70.041H70.8014C70.8648 70.041 70.9281 70.0283 70.9915 70.0283H71.0422H71.2069C71.2576 70.0283 71.2956 70.0283 71.3463 70.0283H71.4223C71.5236 70.0283 71.625 70.0283 71.7264 70.0283H71.7137Z" fill="#B0BF82"/>
<path fill-rule="evenodd" clip-rule="evenodd" d="M76.908 73.842C78.3017 75.2484 79.0366 77.0603 79.0873 78.8976H64.1865C64.2372 77.0603 64.9721 75.2484 66.3659 73.842C69.2802 70.9277 73.9937 70.9277 76.908 73.842Z" fill="#85972D"/>
<path fill-rule="evenodd" clip-rule="evenodd" d="M66.7082 84.0416C69.4324 86.7658 73.8418 86.7658 76.566 84.0416C79.2902 81.3174 79.2902 76.908 76.566 74.1838C73.8418 71.4596 69.4324 71.4596 66.7082 74.1838C63.984 76.908 63.984 81.3174 66.7082 84.0416Z" fill="#344453"/>
<path fill-rule="evenodd" clip-rule="evenodd" d="M66.708 84.0414C69.4322 86.7656 73.8416 86.7656 76.5658 84.0414C79.2901 81.3172 79.2901 76.9078 76.5658 74.1836L66.708 84.0414Z" fill="#1A2A3A"/>
<path fill-rule="evenodd" clip-rule="evenodd" d="M73.918 76.8194C72.6509 75.5524 70.6109 75.5524 69.3439 76.8194C68.0768 78.0865 68.0768 80.1265 69.3439 81.3936L73.918 76.8194Z" fill="#1A2A3A"/>
<path fill-rule="evenodd" clip-rule="evenodd" d="M69.3564 81.3935C70.6235 82.6606 72.6635 82.6606 73.9306 81.3935C75.1977 80.1264 75.1977 78.0864 73.9306 76.8193L69.3564 81.3935Z" fill="#344453"/>
<path fill-rule="evenodd" clip-rule="evenodd" d="M73.0949 77.6562C73.8932 78.4545 73.8932 79.7596 73.0949 80.5705C72.2967 81.3688 70.9916 81.3688 70.1807 80.5705L73.0949 77.6562Z" fill="#AAD3EF"/>
<path fill-rule="evenodd" clip-rule="evenodd" d="M70.1807 80.5696C69.3825 79.7713 69.3825 78.4663 70.1807 77.6553C70.979 76.8571 72.2841 76.8571 73.095 77.6553L70.1807 80.5696Z" fill="#E1EFFA"/>
<path fill-rule="evenodd" clip-rule="evenodd" d="M72.486 78.2637C72.9548 78.7325 72.9548 79.4927 72.486 79.9615C72.0171 80.4304 71.2569 80.4304 70.7881 79.9615L72.486 78.2637Z" fill="#1A2A3A"/>
<path fill-rule="evenodd" clip-rule="evenodd" d="M70.7881 79.9616C70.3193 79.4928 70.3193 78.7325 70.7881 78.2637C71.257 77.7949 72.0172 77.7949 72.486 78.2637L70.7881 79.9616Z" fill="#344453"/>
<path fill-rule="evenodd" clip-rule="evenodd" d="M85.8155 78.9094L109.104 85.9924H115.541L85.6635 76.5273L85.258 77.8578C85.1187 78.3012 85.3721 78.7827 85.8155 78.9094Z" fill="#1A2A3A"/>
<path d="M33.4563 128C33.4563 127.449 33.4563 126.92 33.4563 126.411C33.4563 125.902 33.4563 125.338 33.4563 124.717V121.35C33.4563 120.725 33.4563 120.151 33.4563 119.628C33.4563 119.105 33.4563 118.569 33.4563 118.018H39.8123V119.404C39.3596 119.404 38.8743 119.404 38.3563 119.404C37.8383 119.404 37.2269 119.404 36.5223 119.404H34.1493L35.0663 118.27C35.0663 118.821 35.0663 119.357 35.0663 119.88C35.0663 120.398 35.0663 120.972 35.0663 121.602V124.465C35.0663 125.081 35.0663 125.646 35.0663 126.159C35.0663 126.668 35.0663 127.197 35.0663 127.748L34.2473 126.614H36.6553C37.2433 126.614 37.8009 126.614 38.3283 126.614C38.8556 126.614 39.3619 126.614 39.8473 126.614V128H33.4563ZM34.7023 123.618V122.281H36.5993C37.2339 122.281 37.7776 122.281 38.2303 122.281C38.6876 122.281 39.1286 122.281 39.5533 122.281V123.618C39.1099 123.618 38.6596 123.618 38.2023 123.618C37.7496 123.618 37.2129 123.618 36.5923 123.618H34.7023ZM41.6844 128C41.6844 127.491 41.6844 126.999 41.6844 126.523C41.6844 126.047 41.6844 125.522 41.6844 124.948V124.248C41.6844 123.73 41.6844 123.203 41.6844 122.666C41.6844 122.125 41.6844 121.583 41.6844 121.042L42.9654 120.958L43.0214 122.211H43.1684C43.3178 121.996 43.5021 121.786 43.7214 121.581C43.9408 121.376 44.1974 121.205 44.4914 121.07C44.7901 120.935 45.1284 120.867 45.5064 120.867C46.0664 120.867 46.4958 121.007 46.7944 121.287C47.0978 121.562 47.2961 121.959 47.3894 122.477L47.4874 122.512C47.5108 122.638 47.5271 122.771 47.5364 122.911C47.5504 123.046 47.5574 123.191 47.5574 123.345C47.5574 123.648 47.5574 123.924 47.5574 124.171C47.5574 124.414 47.5574 124.673 47.5574 124.948C47.5574 125.508 47.5574 126.031 47.5574 126.516C47.5574 126.997 47.5574 127.491 47.5574 128H46.0664C46.0664 127.491 46.0664 126.999 46.0664 126.523C46.0664 126.042 46.0664 125.543 46.0664 125.025V123.779C46.0664 123.275 45.9824 122.895 45.8144 122.638C45.6511 122.381 45.3524 122.253 44.9184 122.253C44.6618 122.253 44.4284 122.309 44.2184 122.421C44.0084 122.533 43.8171 122.682 43.6444 122.869C43.4718 123.051 43.3178 123.252 43.1824 123.471V125.025C43.1824 125.562 43.1824 126.066 43.1824 126.537C43.1824 127.004 43.1824 127.491 43.1824 128H41.6844ZM50.3994 128C50.3994 127.491 50.3994 126.999 50.3994 126.523C50.3994 126.042 50.3994 125.543 50.3994 125.025V123.779C50.3994 123.275 50.3154 122.895 50.1474 122.638C49.9841 122.381 49.6878 122.253 49.2584 122.253C49.0018 122.253 48.7661 122.309 48.5514 122.421C48.3414 122.528 48.1501 122.675 47.9774 122.862C47.8048 123.044 47.6484 123.247 47.5084 123.471L47.2914 122.232H47.4384C47.6018 122.013 47.7954 121.798 48.0194 121.588C48.2481 121.378 48.5141 121.205 48.8174 121.07C49.1208 120.935 49.4638 120.867 49.8464 120.867C50.5604 120.867 51.0808 121.082 51.4074 121.511C51.7341 121.94 51.8974 122.552 51.8974 123.345C51.8974 123.648 51.8974 123.924 51.8974 124.171C51.8974 124.414 51.8974 124.673 51.8974 124.948C51.8974 125.508 51.8974 126.031 51.8974 126.516C51.8974 126.997 51.8974 127.491 51.8974 128H50.3994ZM53.8934 130.737C53.8934 130.228 53.8934 129.727 53.8934 129.232C53.8934 128.742 53.8934 128.21 53.8934 127.636V124.248C53.8934 123.73 53.8934 123.203 53.8934 122.666C53.8934 122.125 53.8934 121.583 53.8934 121.042L55.2374 120.958L55.2794 121.882H55.4194C55.5548 121.686 55.7274 121.511 55.9374 121.357C56.1474 121.203 56.3854 121.084 56.6514 121C56.9221 120.911 57.2161 120.867 57.5334 120.867C58.1634 120.867 58.6954 121.026 59.1294 121.343C59.5681 121.66 59.8994 122.094 60.1234 122.645C60.3521 123.196 60.4664 123.814 60.4664 124.5C60.4664 125.149 60.3591 125.753 60.1444 126.313C59.9344 126.868 59.6148 127.316 59.1854 127.657C58.7561 127.998 58.2148 128.168 57.5614 128.168C57.2581 128.168 56.9804 128.128 56.7284 128.049C56.4811 127.97 56.2548 127.855 56.0494 127.706C55.8488 127.557 55.6668 127.377 55.5034 127.167H55.3914V127.713C55.3914 128.25 55.3914 128.751 55.3914 129.218C55.3914 129.689 55.3914 130.179 55.3914 130.688L53.8934 130.737ZM57.0504 126.859C57.4844 126.859 57.8414 126.749 58.1214 126.53C58.4014 126.306 58.6068 126.017 58.7374 125.662C58.8681 125.303 58.9334 124.92 58.9334 124.514C58.9334 124.089 58.8634 123.702 58.7234 123.352C58.5881 122.997 58.3804 122.715 58.1004 122.505C57.8204 122.295 57.4634 122.19 57.0294 122.19C56.8148 122.19 56.6048 122.223 56.3994 122.288C56.1988 122.349 56.0121 122.442 55.8394 122.568C55.6668 122.689 55.5174 122.843 55.3914 123.03V125.858C55.5128 126.063 55.6528 126.241 55.8114 126.39C55.9701 126.539 56.1521 126.656 56.3574 126.74C56.5628 126.819 56.7938 126.859 57.0504 126.859ZM62.1786 128C62.1786 127.491 62.1786 126.999 62.1786 126.523C62.1786 126.047 62.1786 125.522 62.1786 124.948V124.248C62.1786 123.73 62.1786 123.203 62.1786 122.666C62.1786 122.125 62.1786 121.583 62.1786 121.042L63.4596 120.958L63.5156 122.33H63.6556C63.8423 121.919 64.0546 121.609 64.2926 121.399C64.5306 121.189 64.7733 121.049 65.0206 120.979C65.2679 120.904 65.4989 120.867 65.7136 120.867C65.8349 120.867 65.9609 120.876 66.0916 120.895C66.2223 120.914 66.3459 120.944 66.4626 120.986L66.3296 122.47C66.1663 122.442 66.0193 122.421 65.8886 122.407C65.7579 122.393 65.6086 122.386 65.4406 122.386C65.3099 122.386 65.1653 122.405 65.0066 122.442C64.8479 122.475 64.6869 122.545 64.5236 122.652C64.3649 122.759 64.2109 122.92 64.0616 123.135C63.9169 123.345 63.7886 123.623 63.6766 123.968V125.025C63.6766 125.562 63.6766 126.066 63.6766 126.537C63.6766 127.004 63.6766 127.491 63.6766 128H62.1786ZM70.889 128.161C70.035 128.161 69.3327 128.002 68.782 127.685C68.2313 127.368 67.823 126.934 67.557 126.383C67.2957 125.832 67.165 125.2 67.165 124.486C67.165 123.781 67.291 123.156 67.543 122.61C67.7997 122.064 68.173 121.639 68.663 121.336C69.153 121.028 69.7457 120.874 70.441 120.874C71.043 120.874 71.561 120.988 71.995 121.217C72.429 121.441 72.7627 121.777 72.996 122.225C73.2293 122.673 73.346 123.228 73.346 123.891C73.346 124.068 73.3413 124.229 73.332 124.374C73.3273 124.514 73.3133 124.654 73.29 124.794L71.981 124.22C71.9903 124.15 71.9973 124.082 72.002 124.017C72.0067 123.947 72.009 123.882 72.009 123.821C72.009 123.247 71.8643 122.804 71.575 122.491C71.2903 122.174 70.917 122.015 70.455 122.015C70.0957 122.015 69.783 122.113 69.517 122.309C69.251 122.505 69.0433 122.773 68.894 123.114C68.7493 123.455 68.677 123.847 68.677 124.29V124.514C68.677 125.009 68.761 125.433 68.929 125.788C69.1017 126.143 69.363 126.416 69.713 126.607C70.0677 126.798 70.5133 126.894 71.05 126.894C71.2553 126.894 71.4793 126.878 71.722 126.845C71.9693 126.808 72.2167 126.752 72.464 126.677C72.7113 126.602 72.9447 126.507 73.164 126.39L73.22 127.692C73.0427 127.785 72.835 127.867 72.597 127.937C72.359 128.007 72.0953 128.061 71.806 128.098C71.5213 128.14 71.2157 128.161 70.889 128.161ZM67.767 124.794V123.772L72.394 123.716L73.29 124.087V124.794H67.767ZM77.0678 128.161C76.7645 128.161 76.4635 128.14 76.1648 128.098C75.8708 128.056 75.5931 127.998 75.3318 127.923C75.0751 127.844 74.8488 127.757 74.6528 127.664L74.7648 126.306C74.9748 126.427 75.2035 126.535 75.4508 126.628C75.6981 126.717 75.9548 126.787 76.2208 126.838C76.4915 126.885 76.7621 126.908 77.0328 126.908C77.2568 126.908 77.4621 126.887 77.6488 126.845C77.8401 126.798 77.9918 126.712 78.1038 126.586C78.2205 126.46 78.2788 126.273 78.2788 126.026C78.2788 125.863 78.2251 125.727 78.1178 125.62C78.0105 125.513 77.8355 125.417 77.5928 125.333C77.3501 125.244 77.0188 125.142 76.5988 125.025C76.2115 124.922 75.8731 124.794 75.5838 124.64C75.2991 124.486 75.0775 124.281 74.9188 124.024C74.7601 123.767 74.6808 123.429 74.6808 123.009C74.6808 122.332 74.8978 121.807 75.3318 121.434C75.7658 121.061 76.3468 120.874 77.0748 120.874C77.3828 120.874 77.6815 120.9 77.9708 120.951C78.2601 120.998 78.5238 121.061 78.7618 121.14C79.0045 121.215 79.2098 121.294 79.3778 121.378L79.2588 122.736C79.0441 122.601 78.8108 122.489 78.5588 122.4C78.3115 122.307 78.0735 122.239 77.8448 122.197C77.6161 122.15 77.4225 122.127 77.2638 122.127C77.0818 122.127 76.9091 122.153 76.7458 122.204C76.5871 122.251 76.4588 122.335 76.3608 122.456C76.2628 122.573 76.2138 122.731 76.2138 122.932C76.2138 123.091 76.2511 123.226 76.3258 123.338C76.4005 123.45 76.5358 123.553 76.7318 123.646C76.9325 123.739 77.2218 123.837 77.5998 123.94C78.0711 124.075 78.4701 124.218 78.7968 124.367C79.1281 124.516 79.3778 124.712 79.5458 124.955C79.7138 125.198 79.7978 125.534 79.7978 125.963C79.7978 126.392 79.7045 126.773 79.5178 127.104C79.3311 127.435 79.0371 127.694 78.6358 127.881C78.2345 128.068 77.7118 128.161 77.0678 128.161ZM83.0806 128.147C82.6839 128.147 82.3293 128.068 82.0166 127.909C81.7039 127.746 81.4566 127.512 81.2746 127.209C81.0973 126.901 81.0086 126.528 81.0086 126.089C81.0086 125.702 81.0739 125.377 81.2046 125.116C81.3399 124.85 81.5173 124.633 81.7366 124.465C81.9559 124.297 82.2009 124.166 82.4716 124.073C82.7423 123.98 83.0153 123.912 83.2906 123.87L85.3556 123.548C85.3743 123.161 85.3159 122.864 85.1806 122.659C85.0499 122.454 84.8633 122.314 84.6206 122.239C84.3826 122.164 84.1119 122.127 83.8086 122.127C83.6499 122.127 83.4773 122.139 83.2906 122.162C83.1086 122.185 82.9149 122.225 82.7096 122.281C82.5089 122.332 82.2966 122.398 82.0726 122.477C81.8533 122.552 81.6269 122.643 81.3936 122.75L81.3096 121.42C81.4823 121.35 81.6759 121.282 81.8906 121.217C82.1053 121.152 82.3363 121.093 82.5836 121.042C82.8356 120.986 83.0946 120.944 83.3606 120.916C83.6266 120.888 83.8973 120.874 84.1726 120.874C84.7233 120.874 85.1946 120.956 85.5866 121.119C85.9786 121.282 86.2796 121.544 86.4896 121.903C86.6996 122.258 86.8046 122.72 86.8046 123.289C86.8046 123.513 86.8046 123.791 86.8046 124.122C86.8046 124.453 86.8046 124.761 86.8046 125.046V125.886C86.8046 126.217 86.8046 126.553 86.8046 126.894C86.8046 127.235 86.8046 127.603 86.8046 128H85.4536L85.3696 127.076H85.2366C85.1013 127.249 84.9309 127.417 84.7256 127.58C84.5249 127.743 84.2846 127.879 84.0046 127.986C83.7293 128.093 83.4213 128.147 83.0806 128.147ZM83.5706 126.957C83.7946 126.957 84.0139 126.908 84.2286 126.81C84.4479 126.707 84.6509 126.563 84.8376 126.376C85.0243 126.189 85.1853 125.963 85.3206 125.697V124.465C85.2506 124.507 85.1596 124.547 85.0476 124.584C84.9403 124.621 84.7769 124.663 84.5576 124.71C84.3383 124.757 84.0303 124.815 83.6336 124.885C83.4049 124.922 83.2089 124.99 83.0456 125.088C82.8823 125.186 82.7539 125.314 82.6606 125.473C82.5719 125.627 82.5276 125.811 82.5276 126.026C82.5276 126.367 82.6303 126.607 82.8356 126.747C83.0456 126.887 83.2906 126.957 83.5706 126.957ZM14.8223 146.168C14.3417 146.168 13.931 146.089 13.5903 145.93C13.2543 145.771 12.9977 145.524 12.8203 145.188C12.6477 144.852 12.5613 144.418 12.5613 143.886C12.5613 143.517 12.5613 143.149 12.5613 142.78C12.5613 142.407 12.5613 142.036 12.5613 141.667C12.5613 141.294 12.5613 140.923 12.5613 140.554C12.5613 140.185 12.5613 139.817 12.5613 139.448C12.5613 138.953 12.5613 138.496 12.5613 138.076C12.5613 137.656 12.5613 137.224 12.5613 136.781L14.0383 136.487C14.0383 136.842 14.0383 137.171 14.0383 137.474C14.0383 137.777 14.0383 138.088 14.0383 138.405C14.0383 138.718 14.0383 139.065 14.0383 139.448V143.473C14.0383 143.949 14.134 144.308 14.3253 144.551C14.5167 144.789 14.8153 144.908 15.2213 144.908C15.3893 144.908 15.569 144.88 15.7603 144.824C15.9563 144.763 16.136 144.672 16.2993 144.551L16.4043 145.811C16.297 145.881 16.1593 145.944 15.9913 146C15.828 146.051 15.6437 146.091 15.4383 146.119C15.2377 146.152 15.0323 146.168 14.8223 146.168ZM11.2943 140.197V139.042H16.3483V140.197C15.891 140.197 15.4313 140.197 14.9693 140.197C14.5073 140.197 14.057 140.197 13.6183 140.197H12.9813H11.2943ZM17.8612 146C17.8612 145.491 17.8612 144.999 17.8612 144.523C17.8612 144.047 17.8612 143.522 17.8612 142.948V142.248C17.8612 141.73 17.8612 141.203 17.8612 140.666C17.8612 140.125 17.8612 139.583 17.8612 139.042L19.1422 138.958L19.1982 140.33H19.3382C19.5249 139.919 19.7372 139.609 19.9752 139.399C20.2132 139.189 20.4559 139.049 20.7032 138.979C20.9505 138.904 21.1815 138.867 21.3962 138.867C21.5175 138.867 21.6435 138.876 21.7742 138.895C21.9049 138.914 22.0285 138.944 22.1452 138.986L22.0122 140.47C21.8489 140.442 21.7019 140.421 21.5712 140.407C21.4405 140.393 21.2912 140.386 21.1232 140.386C20.9925 140.386 20.8479 140.405 20.6892 140.442C20.5305 140.475 20.3695 140.545 20.2062 140.652C20.0475 140.759 19.8935 140.92 19.7442 141.135C19.5995 141.345 19.4712 141.623 19.3592 141.968V143.025C19.3592 143.562 19.3592 144.066 19.3592 144.537C19.3592 145.004 19.3592 145.491 19.3592 146H17.8612ZM25.0366 146.147C24.64 146.147 24.2853 146.068 23.9726 145.909C23.66 145.746 23.4126 145.512 23.2306 145.209C23.0533 144.901 22.9646 144.528 22.9646 144.089C22.9646 143.702 23.03 143.377 23.1606 143.116C23.296 142.85 23.4733 142.633 23.6926 142.465C23.912 142.297 24.157 142.166 24.4276 142.073C24.6983 141.98 24.9713 141.912 25.2466 141.87L27.3116 141.548C27.3303 141.161 27.272 140.864 27.1366 140.659C27.006 140.454 26.8193 140.314 26.5766 140.239C26.3386 140.164 26.068 140.127 25.7646 140.127C25.606 140.127 25.4333 140.139 25.2466 140.162C25.0646 140.185 24.871 140.225 24.6656 140.281C24.465 140.332 24.2526 140.398 24.0286 140.477C23.8093 140.552 23.583 140.643 23.3496 140.75L23.2656 139.42C23.4383 139.35 23.632 139.282 23.8466 139.217C24.0613 139.152 24.2923 139.093 24.5396 139.042C24.7916 138.986 25.0506 138.944 25.3166 138.916C25.5826 138.888 25.8533 138.874 26.1286 138.874C26.6793 138.874 27.1506 138.956 27.5426 139.119C27.9346 139.282 28.2356 139.544 28.4456 139.903C28.6556 140.258 28.7606 140.72 28.7606 141.289C28.7606 141.513 28.7606 141.791 28.7606 142.122C28.7606 142.453 28.7606 142.761 28.7606 143.046V143.886C28.7606 144.217 28.7606 144.553 28.7606 144.894C28.7606 145.235 28.7606 145.603 28.7606 146H27.4096L27.3256 145.076H27.1926C27.0573 145.249 26.887 145.417 26.6816 145.58C26.481 145.743 26.2406 145.879 25.9606 145.986C25.6853 146.093 25.3773 146.147 25.0366 146.147ZM25.5266 144.957C25.7506 144.957 25.97 144.908 26.1846 144.81C26.404 144.707 26.607 144.563 26.7936 144.376C26.9803 144.189 27.1413 143.963 27.2766 143.697V142.465C27.2066 142.507 27.1156 142.547 27.0036 142.584C26.8963 142.621 26.733 142.663 26.5136 142.71C26.2943 142.757 25.9863 142.815 25.5896 142.885C25.361 142.922 25.165 142.99 25.0016 143.088C24.8383 143.186 24.71 143.314 24.6166 143.473C24.528 143.627 24.4836 143.811 24.4836 144.026C24.4836 144.367 24.5863 144.607 24.7916 144.747C25.0016 144.887 25.2466 144.957 25.5266 144.957ZM30.7538 146C30.7538 145.491 30.7538 144.999 30.7538 144.523C30.7538 144.047 30.7538 143.522 30.7538 142.948V142.248C30.7538 141.73 30.7538 141.203 30.7538 140.666C30.7538 140.125 30.7538 139.583 30.7538 139.042L32.0348 138.958L32.0908 140.218H32.2378C32.3871 140.003 32.5761 139.793 32.8048 139.588C33.0381 139.378 33.3088 139.205 33.6168 139.07C33.9248 138.935 34.2771 138.867 34.6738 138.867C35.3971 138.867 35.9314 139.077 36.2768 139.497C36.6268 139.917 36.8018 140.533 36.8018 141.345C36.8018 141.648 36.8018 141.924 36.8018 142.171C36.8018 142.414 36.8018 142.673 36.8018 142.948C36.8018 143.508 36.8018 144.031 36.8018 144.516C36.8018 144.997 36.8018 145.491 36.8018 146H35.3038C35.3038 145.491 35.3038 144.999 35.3038 144.523C35.3038 144.042 35.3038 143.543 35.3038 143.025V141.779C35.3038 141.275 35.2174 140.895 35.0448 140.638C34.8721 140.381 34.5548 140.253 34.0928 140.253C33.8221 140.253 33.5748 140.309 33.3508 140.421C33.1268 140.528 32.9238 140.675 32.7418 140.862C32.5598 141.044 32.3964 141.247 32.2518 141.471V143.025C32.2518 143.562 32.2518 144.066 32.2518 144.537C32.2518 145.004 32.2518 145.491 32.2518 146H30.7538ZM40.8715 146.161C40.5682 146.161 40.2672 146.14 39.9685 146.098C39.6745 146.056 39.3968 145.998 39.1355 145.923C38.8788 145.844 38.6525 145.757 38.4565 145.664L38.5685 144.306C38.7785 144.427 39.0072 144.535 39.2545 144.628C39.5018 144.717 39.7585 144.787 40.0245 144.838C40.2952 144.885 40.5658 144.908 40.8365 144.908C41.0605 144.908 41.2658 144.887 41.4525 144.845C41.6438 144.798 41.7955 144.712 41.9075 144.586C42.0242 144.46 42.0825 144.273 42.0825 144.026C42.0825 143.863 42.0288 143.727 41.9215 143.62C41.8142 143.513 41.6392 143.417 41.3965 143.333C41.1538 143.244 40.8225 143.142 40.4025 143.025C40.0152 142.922 39.6768 142.794 39.3875 142.64C39.1028 142.486 38.8812 142.281 38.7225 142.024C38.5638 141.767 38.4845 141.429 38.4845 141.009C38.4845 140.332 38.7015 139.807 39.1355 139.434C39.5695 139.061 40.1505 138.874 40.8785 138.874C41.1865 138.874 41.4852 138.9 41.7745 138.951C42.0638 138.998 42.3275 139.061 42.5655 139.14C42.8082 139.215 43.0135 139.294 43.1815 139.378L43.0625 140.736C42.8478 140.601 42.6145 140.489 42.3625 140.4C42.1152 140.307 41.8772 140.239 41.6485 140.197C41.4198 140.15 41.2262 140.127 41.0675 140.127C40.8855 140.127 40.7128 140.153 40.5495 140.204C40.3908 140.251 40.2625 140.335 40.1645 140.456C40.0665 140.573 40.0175 140.731 40.0175 140.932C40.0175 141.091 40.0548 141.226 40.1295 141.338C40.2042 141.45 40.3395 141.553 40.5355 141.646C40.7362 141.739 41.0255 141.837 41.4035 141.94C41.8748 142.075 42.2738 142.218 42.6005 142.367C42.9318 142.516 43.1815 142.712 43.3495 142.955C43.5175 143.198 43.6015 143.534 43.6015 143.963C43.6015 144.392 43.5082 144.773 43.3215 145.104C43.1348 145.435 42.8408 145.694 42.4395 145.881C42.0382 146.068 41.5155 146.161 40.8715 146.161ZM45.2323 148.737C45.2323 148.228 45.2323 147.727 45.2323 147.232C45.2323 146.742 45.2323 146.21 45.2323 145.636V142.248C45.2323 141.73 45.2323 141.203 45.2323 140.666C45.2323 140.125 45.2323 139.583 45.2323 139.042L46.5763 138.958L46.6183 139.882H46.7583C46.8936 139.686 47.0663 139.511 47.2763 139.357C47.4863 139.203 47.7243 139.084 47.9903 139C48.261 138.911 48.555 138.867 48.8723 138.867C49.5023 138.867 50.0343 139.026 50.4683 139.343C50.907 139.66 51.2383 140.094 51.4623 140.645C51.691 141.196 51.8053 141.814 51.8053 142.5C51.8053 143.149 51.698 143.753 51.4833 144.313C51.2733 144.868 50.9536 145.316 50.5243 145.657C50.095 145.998 49.5536 146.168 48.9003 146.168C48.597 146.168 48.3193 146.128 48.0673 146.049C47.82 145.97 47.5936 145.855 47.3883 145.706C47.1876 145.557 47.0056 145.377 46.8423 145.167H46.7303V145.713C46.7303 146.25 46.7303 146.751 46.7303 147.218C46.7303 147.689 46.7303 148.179 46.7303 148.688L45.2323 148.737ZM48.3893 144.859C48.8233 144.859 49.1803 144.749 49.4603 144.53C49.7403 144.306 49.9456 144.017 50.0763 143.662C50.207 143.303 50.2723 142.92 50.2723 142.514C50.2723 142.089 50.2023 141.702 50.0623 141.352C49.927 140.997 49.7193 140.715 49.4393 140.505C49.1593 140.295 48.8023 140.19 48.3683 140.19C48.1536 140.19 47.9436 140.223 47.7383 140.288C47.5376 140.349 47.351 140.442 47.1783 140.568C47.0056 140.689 46.8563 140.843 46.7303 141.03V143.858C46.8516 144.063 46.9916 144.241 47.1503 144.39C47.309 144.539 47.491 144.656 47.6963 144.74C47.9016 144.819 48.1326 144.859 48.3893 144.859ZM56.6535 146.168C56.0561 146.168 55.5335 146.068 55.0855 145.867C54.6375 145.666 54.2618 145.396 53.9585 145.055C53.6598 144.71 53.4358 144.318 53.2865 143.879C53.1371 143.436 53.0625 142.971 53.0625 142.486C53.0625 141.791 53.2025 141.172 53.4825 140.631C53.7625 140.085 54.1685 139.656 54.7005 139.343C55.2325 139.026 55.8741 138.867 56.6255 138.867C57.1995 138.867 57.7081 138.958 58.1515 139.14C58.5948 139.322 58.9658 139.579 59.2645 139.91C59.5678 140.237 59.7965 140.619 59.9505 141.058C60.1045 141.497 60.1815 141.973 60.1815 142.486C60.1815 143.181 60.0415 143.807 59.7615 144.362C59.4815 144.917 59.0755 145.358 58.5435 145.685C58.0161 146.007 57.3861 146.168 56.6535 146.168ZM56.6465 144.908C57.0945 144.908 57.4678 144.794 57.7665 144.565C58.0651 144.332 58.2868 144.031 58.4315 143.662C58.5808 143.293 58.6555 142.901 58.6555 142.486C58.6555 142.005 58.5715 141.59 58.4035 141.24C58.2401 140.885 58.0068 140.612 57.7035 140.421C57.4048 140.225 57.0501 140.127 56.6395 140.127C56.1961 140.127 55.8205 140.232 55.5125 140.442C55.2091 140.647 54.9781 140.93 54.8195 141.289C54.6655 141.644 54.5885 142.043 54.5885 142.486C54.5885 142.901 54.6631 143.293 54.8125 143.662C54.9665 144.031 55.1951 144.332 55.4985 144.565C55.8065 144.794 56.1891 144.908 56.6465 144.908ZM61.8846 146C61.8846 145.491 61.8846 144.999 61.8846 144.523C61.8846 144.047 61.8846 143.522 61.8846 142.948V142.248C61.8846 141.73 61.8846 141.203 61.8846 140.666C61.8846 140.125 61.8846 139.583 61.8846 139.042L63.1656 138.958L63.2216 140.33H63.3616C63.5483 139.919 63.7606 139.609 63.9986 139.399C64.2366 139.189 64.4793 139.049 64.7266 138.979C64.974 138.904 65.205 138.867 65.4196 138.867C65.541 138.867 65.667 138.876 65.7976 138.895C65.9283 138.914 66.052 138.944 66.1686 138.986L66.0356 140.47C65.8723 140.442 65.7253 140.421 65.5946 140.407C65.464 140.393 65.3146 140.386 65.1466 140.386C65.016 140.386 64.8713 140.405 64.7126 140.442C64.554 140.475 64.393 140.545 64.2296 140.652C64.071 140.759 63.917 140.92 63.7676 141.135C63.623 141.345 63.4946 141.623 63.3826 141.968V143.025C63.3826 143.562 63.3826 144.066 63.3826 144.537C63.3826 145.004 63.3826 145.491 63.3826 146H61.8846ZM70.3028 146.168C69.8221 146.168 69.4115 146.089 69.0708 145.93C68.7348 145.771 68.4781 145.524 68.3008 145.188C68.1281 144.852 68.0418 144.418 68.0418 143.886C68.0418 143.517 68.0418 143.149 68.0418 142.78C68.0418 142.407 68.0418 142.036 68.0418 141.667C68.0418 141.294 68.0418 140.923 68.0418 140.554C68.0418 140.185 68.0418 139.817 68.0418 139.448C68.0418 138.953 68.0418 138.496 68.0418 138.076C68.0418 137.656 68.0418 137.224 68.0418 136.781L69.5188 136.487C69.5188 136.842 69.5188 137.171 69.5188 137.474C69.5188 137.777 69.5188 138.088 69.5188 138.405C69.5188 138.718 69.5188 139.065 69.5188 139.448V143.473C69.5188 143.949 69.6145 144.308 69.8058 144.551C69.9971 144.789 70.2958 144.908 70.7018 144.908C70.8698 144.908 71.0495 144.88 71.2408 144.824C71.4368 144.763 71.6165 144.672 71.7798 144.551L71.8848 145.811C71.7775 145.881 71.6398 145.944 71.4718 146C71.3085 146.051 71.1241 146.091 70.9188 146.119C70.7181 146.152 70.5128 146.168 70.3028 146.168ZM66.7748 140.197V139.042H71.8288V140.197C71.3715 140.197 70.9118 140.197 70.4498 140.197C69.9878 140.197 69.5375 140.197 69.0988 140.197H68.4618H66.7748ZM74.9937 146.147C74.597 146.147 74.2423 146.068 73.9297 145.909C73.617 145.746 73.3697 145.512 73.1877 145.209C73.0103 144.901 72.9217 144.528 72.9217 144.089C72.9217 143.702 72.987 143.377 73.1177 143.116C73.253 142.85 73.4303 142.633 73.6497 142.465C73.869 142.297 74.114 142.166 74.3847 142.073C74.6553 141.98 74.9283 141.912 75.2037 141.87L77.2687 141.548C77.2873 141.161 77.229 140.864 77.0937 140.659C76.963 140.454 76.7763 140.314 76.5337 140.239C76.2957 140.164 76.025 140.127 75.7217 140.127C75.563 140.127 75.3903 140.139 75.2037 140.162C75.0217 140.185 74.828 140.225 74.6227 140.281C74.422 140.332 74.2097 140.398 73.9857 140.477C73.7663 140.552 73.54 140.643 73.3067 140.75L73.2227 139.42C73.3953 139.35 73.589 139.282 73.8037 139.217C74.0183 139.152 74.2493 139.093 74.4967 139.042C74.7487 138.986 75.0077 138.944 75.2737 138.916C75.5397 138.888 75.8103 138.874 76.0857 138.874C76.6363 138.874 77.1077 138.956 77.4997 139.119C77.8917 139.282 78.1927 139.544 78.4027 139.903C78.6127 140.258 78.7177 140.72 78.7177 141.289C78.7177 141.513 78.7177 141.791 78.7177 142.122C78.7177 142.453 78.7177 142.761 78.7177 143.046V143.886C78.7177 144.217 78.7177 144.553 78.7177 144.894C78.7177 145.235 78.7177 145.603 78.7177 146H77.3667L77.2827 145.076H77.1497C77.0143 145.249 76.844 145.417 76.6387 145.58C76.438 145.743 76.1977 145.879 75.9177 145.986C75.6423 146.093 75.3343 146.147 74.9937 146.147ZM75.4837 144.957C75.7077 144.957 75.927 144.908 76.1417 144.81C76.361 144.707 76.564 144.563 76.7507 144.376C76.9373 144.189 77.0983 143.963 77.2337 143.697V142.465C77.1637 142.507 77.0727 142.547 76.9607 142.584C76.8533 142.621 76.69 142.663 76.4707 142.71C76.2513 142.757 75.9433 142.815 75.5467 142.885C75.318 142.922 75.122 142.99 74.9587 143.088C74.7953 143.186 74.667 143.314 74.5737 143.473C74.485 143.627 74.4407 143.811 74.4407 144.026C74.4407 144.367 74.5433 144.607 74.7487 144.747C74.9587 144.887 75.2037 144.957 75.4837 144.957ZM83.1748 146.168C82.5215 146.168 81.9778 145.998 81.5438 145.657C81.1145 145.316 80.7925 144.868 80.5778 144.313C80.3678 143.753 80.2628 143.149 80.2628 142.5C80.2628 141.814 80.3748 141.196 80.5988 140.645C80.8275 140.094 81.1611 139.66 81.5998 139.343C82.0385 139.026 82.5705 138.867 83.1958 138.867C83.4991 138.867 83.7791 138.907 84.0358 138.986C84.2925 139.065 84.5188 139.175 84.7148 139.315C84.9108 139.455 85.0741 139.614 85.2048 139.791H85.3448V139.091C85.3448 138.508 85.3448 137.941 85.3448 137.39C85.3448 136.835 85.3448 136.289 85.3448 135.752L86.8428 135.591C86.8428 136.151 86.8428 136.718 86.8428 137.292C86.8428 137.861 86.8428 138.461 86.8428 139.091V142.948C86.8428 143.522 86.8428 144.047 86.8428 144.523C86.8428 144.999 86.8428 145.491 86.8428 146H85.5548L85.4708 145.062H85.3448C85.1675 145.3 84.9691 145.501 84.7498 145.664C84.5351 145.827 84.2971 145.951 84.0358 146.035C83.7745 146.124 83.4875 146.168 83.1748 146.168ZM83.6858 144.859C83.9378 144.859 84.1665 144.819 84.3718 144.74C84.5771 144.656 84.7591 144.539 84.9178 144.39C85.0811 144.241 85.2235 144.063 85.3448 143.858V141.03C85.2188 140.843 85.0695 140.689 84.8968 140.568C84.7241 140.442 84.5351 140.349 84.3298 140.288C84.1245 140.223 83.9145 140.19 83.6998 140.19C83.2705 140.19 82.9158 140.295 82.6358 140.505C82.3558 140.715 82.1458 140.997 82.0058 141.352C81.8658 141.702 81.7958 142.089 81.7958 142.514C81.7958 142.92 81.8611 143.303 81.9918 143.662C82.1271 144.017 82.3325 144.306 82.6078 144.53C82.8878 144.749 83.2471 144.859 83.6858 144.859ZM91.9679 146.168C91.3706 146.168 90.8479 146.068 90.3999 145.867C89.9519 145.666 89.5762 145.396 89.2729 145.055C88.9742 144.71 88.7502 144.318 88.6009 143.879C88.4516 143.436 88.3769 142.971 88.3769 142.486C88.3769 141.791 88.5169 141.172 88.7969 140.631C89.0769 140.085 89.4829 139.656 90.0149 139.343C90.5469 139.026 91.1886 138.867 91.9399 138.867C92.5139 138.867 93.0226 138.958 93.4659 139.14C93.9092 139.322 94.2802 139.579 94.5789 139.91C94.8822 140.237 95.1109 140.619 95.2649 141.058C95.4189 141.497 95.4959 141.973 95.4959 142.486C95.4959 143.181 95.3559 143.807 95.0759 144.362C94.7959 144.917 94.3899 145.358 93.8579 145.685C93.3306 146.007 92.7006 146.168 91.9679 146.168ZM91.9609 144.908C92.4089 144.908 92.7822 144.794 93.0809 144.565C93.3796 144.332 93.6012 144.031 93.7459 143.662C93.8952 143.293 93.9699 142.901 93.9699 142.486C93.9699 142.005 93.8859 141.59 93.7179 141.24C93.5546 140.885 93.3212 140.612 93.0179 140.421C92.7192 140.225 92.3646 140.127 91.9539 140.127C91.5106 140.127 91.1349 140.232 90.8269 140.442C90.5236 140.647 90.2926 140.93 90.1339 141.289C89.9799 141.644 89.9029 142.043 89.9029 142.486C89.9029 142.901 89.9776 143.293 90.1269 143.662C90.2809 144.031 90.5096 144.332 90.8129 144.565C91.1209 144.794 91.5036 144.908 91.9609 144.908ZM97.1991 146C97.1991 145.491 97.1991 144.999 97.1991 144.523C97.1991 144.047 97.1991 143.522 97.1991 142.948V142.248C97.1991 141.73 97.1991 141.203 97.1991 140.666C97.1991 140.125 97.1991 139.583 97.1991 139.042L98.4801 138.958L98.5361 140.33H98.6761C98.8628 139.919 99.0751 139.609 99.3131 139.399C99.5511 139.189 99.7938 139.049 100.041 138.979C100.288 138.904 100.519 138.867 100.734 138.867C100.855 138.867 100.981 138.876 101.112 138.895C101.243 138.914 101.366 138.944 101.483 138.986L101.35 140.47C101.187 140.442 101.04 140.421 100.909 140.407C100.778 140.393 100.629 140.386 100.461 140.386C100.33 140.386 100.186 140.405 100.027 140.442C99.8684 140.475 99.7074 140.545 99.5441 140.652C99.3854 140.759 99.2314 140.92 99.0821 141.135C98.9374 141.345 98.8091 141.623 98.6971 141.968V143.025C98.6971 143.562 98.6971 144.066 98.6971 144.537C98.6971 145.004 98.6971 145.491 98.6971 146H97.1991ZM104.375 146.147C103.978 146.147 103.623 146.068 103.311 145.909C102.998 145.746 102.751 145.512 102.569 145.209C102.391 144.901 102.303 144.528 102.303 144.089C102.303 143.702 102.368 143.377 102.499 143.116C102.634 142.85 102.811 142.633 103.031 142.465C103.25 142.297 103.495 142.166 103.766 142.073C104.036 141.98 104.309 141.912 104.585 141.87L106.65 141.548C106.668 141.161 106.61 140.864 106.475 140.659C106.344 140.454 106.157 140.314 105.915 140.239C105.677 140.164 105.406 140.127 105.103 140.127C104.944 140.127 104.771 140.139 104.585 140.162C104.403 140.185 104.209 140.225 104.004 140.281C103.803 140.332 103.591 140.398 103.367 140.477C103.147 140.552 102.921 140.643 102.688 140.75L102.604 139.42C102.776 139.35 102.97 139.282 103.185 139.217C103.399 139.152 103.63 139.093 103.878 139.042C104.13 138.986 104.389 138.944 104.655 138.916C104.921 138.888 105.191 138.874 105.467 138.874C106.017 138.874 106.489 138.956 106.881 139.119C107.273 139.282 107.574 139.544 107.784 139.903C107.994 140.258 108.099 140.72 108.099 141.289C108.099 141.513 108.099 141.791 108.099 142.122C108.099 142.453 108.099 142.761 108.099 143.046V143.886C108.099 144.217 108.099 144.553 108.099 144.894C108.099 145.235 108.099 145.603 108.099 146H106.748L106.664 145.076H106.531C106.395 145.249 106.225 145.417 106.02 145.58C105.819 145.743 105.579 145.879 105.299 145.986C105.023 146.093 104.715 146.147 104.375 146.147ZM104.865 144.957C105.089 144.957 105.308 144.908 105.523 144.81C105.742 144.707 105.945 144.563 106.132 144.376C106.318 144.189 106.479 143.963 106.615 143.697V142.465C106.545 142.507 106.454 142.547 106.342 142.584C106.234 142.621 106.071 142.663 105.852 142.71C105.632 142.757 105.324 142.815 104.928 142.885C104.699 142.922 104.503 142.99 104.34 143.088C104.176 143.186 104.048 143.314 103.955 143.473C103.866 143.627 103.822 143.811 103.822 144.026C103.822 144.367 103.924 144.607 104.13 144.747C104.34 144.887 104.585 144.957 104.865 144.957Z" fill="#3C3C3B"/>
</svg>
