<svg width="174" height="173" viewBox="0 0 174 173" fill="none" xmlns="http://www.w3.org/2000/svg">
<rect width="174" height="173" rx="20" fill="#FCFCED"/>
<path d="M58.9949 71.8042C44.7507 58.3046 40.6737 30.0657 55.6937 15.0456C70.0261 0.713253 89.7319 2.89181 110.492 19.3497C135.666 39.3031 147.382 76.6787 119.373 72.5745C80.7209 66.8987 78.9163 90.6852 58.9949 71.8042Z" fill="white"/>
<path d="M47.049 41H111.568C112.301 41 112.897 41.5965 112.897 42.3292V83.6208C112.897 84.3536 112.301 84.9501 111.568 84.9501H47.049C46.3162 84.9501 45.7197 84.3536 45.7197 83.6208V42.3292C45.7197 41.5965 46.3162 41 47.049 41Z" fill="#5F9B54"/>
<path fill-rule="evenodd" clip-rule="evenodd" d="M54.5645 41H60.6994L87.4205 72.1349C87.8125 72.595 88.5112 72.6461 88.9713 72.2542C89.4314 71.8622 89.4825 71.1635 89.0906 70.7034L63.5965 41H111.551C112.182 41 112.727 41.4431 112.846 42.0566V83.8935H90.4028L54.5645 41Z" fill="#3C635D"/>
<path fill-rule="evenodd" clip-rule="evenodd" d="M96.6738 78.6963H96.7931H96.9635H97.0828C97.0828 78.6963 97.2361 78.6963 97.3043 78.6963H97.3725H97.5599H97.6792L97.8156 78.7133H97.9689L98.1223 78.7474H98.2757L98.395 78.7815H98.5483L98.6847 78.8326H98.7699C98.7699 78.8326 98.9233 78.8837 99.0085 78.9008H99.0425C101.207 79.3439 103.286 80.4004 105.007 82.0364C105.604 82.5988 106.115 83.2123 106.558 83.8428H90.4025L88.562 81.6444C90.4366 80.0255 92.7883 78.9689 95.3957 78.7133H95.4297C95.5149 78.7133 95.6002 78.6963 95.6854 78.6963H95.7535H95.9751C96.0432 78.6963 96.0944 78.6963 96.1625 78.6963H96.2648C96.4011 78.6963 96.5374 78.6963 96.6738 78.6963Z" fill="#DD3E13"/>
<path fill-rule="evenodd" clip-rule="evenodd" d="M103.661 83.8253L103.712 83.8765H90.4197L89.9937 83.3652C93.9302 79.9228 99.9118 80.0762 103.661 83.8253Z" fill="#DD3E13"/>
<path fill-rule="evenodd" clip-rule="evenodd" d="M102.758 83.8762C99.2303 80.7576 93.9304 80.7577 90.3857 83.8592L102.741 83.8762H102.758Z" fill="#DD3E13"/>
<path d="M143.364 74.3511L138.156 91.3633L157.14 97.1745L162.348 80.1623L143.364 74.3511Z" fill="#FFA146"/>
<path d="M143.104 74.2662L142.236 77.1016L161.709 83.0624L162.577 80.2271L143.104 74.2662Z" fill="#FFA146"/>
<path fill-rule="evenodd" clip-rule="evenodd" d="M157.137 97.186L149.997 95.0046L142.499 77.1963L161.466 83.0075L157.137 97.186Z" fill="#ED7425"/>
<path fill-rule="evenodd" clip-rule="evenodd" d="M160.716 79.6667L158.62 79.0361L157.427 82.9387L157.938 82.8705L158.279 83.1943L158.96 83.0409L159.506 83.5862L160.716 79.6667Z" fill="#DD3E13"/>
<path fill-rule="evenodd" clip-rule="evenodd" d="M147.083 75.4919L144.987 74.8613L143.794 78.7638L144.305 78.6957L144.663 79.0195L145.328 78.866L145.873 79.4114L147.083 75.4919Z" fill="#DD3E13"/>
<path d="M123.623 68.3072L118.416 85.3193L137.399 91.1305L142.607 74.1184L123.623 68.3072Z" fill="#FFA146"/>
<path d="M123.385 68.2125L122.517 71.0479L141.989 77.0087L142.857 74.1733L123.385 68.2125Z" fill="#FFA146"/>
<path fill-rule="evenodd" clip-rule="evenodd" d="M137.403 91.1362L130.28 88.9549L122.765 71.1465L141.749 76.9576L137.403 91.1362Z" fill="#ED7425"/>
<path fill-rule="evenodd" clip-rule="evenodd" d="M140.982 73.6349L138.903 72.9873L137.693 76.9068L138.221 76.8387L138.562 77.1454L139.227 76.9921L139.789 77.5374L140.982 73.6349Z" fill="#DD3E13"/>
<path fill-rule="evenodd" clip-rule="evenodd" d="M127.349 69.4591L125.27 68.8115L124.06 72.7311L124.588 72.6629L124.929 72.9867L125.593 72.8163L126.156 73.3787L127.349 69.4591Z" fill="#DD3E13"/>
<path d="M116.169 85.4785H114.295V89.347H116.169V85.4785Z" fill="#344453"/>
<path d="M113.954 83.877H36.262C35.942 83.877 35.6826 84.1364 35.6826 84.4564V90.046C35.6826 90.366 35.942 90.6254 36.262 90.6254H113.954C114.274 90.6254 114.534 90.366 114.534 90.046V84.4564C114.534 84.1364 114.274 83.877 113.954 83.877Z" fill="#20354A"/>
<path fill-rule="evenodd" clip-rule="evenodd" d="M115.641 90.6425L146.964 100.169H163.34C163.715 100.066 163.749 99.1973 163.34 99.0269L117.362 85.0017C116.766 84.8143 116.118 85.1551 115.948 85.7516L114.891 89.211C114.704 89.8074 115.045 90.455 115.641 90.6255V90.6425Z" fill="#20354A"/>
<path fill-rule="evenodd" clip-rule="evenodd" d="M41.6812 51.8558L24.3841 51.6172L15.0112 68.4202L15.4714 79.9913H40.0963L41.6812 51.8558Z" fill="#AAD3EF"/>
<path fill-rule="evenodd" clip-rule="evenodd" d="M40.4197 74.4358L40.2492 74.5551L24.4858 51.6172L41.6807 51.8558L40.4197 74.4358Z" fill="#85BFE9"/>
<path fill-rule="evenodd" clip-rule="evenodd" d="M36.262 90.6252H113.971C114.278 90.6252 114.551 90.3696 114.551 90.0458V87.251H35.6826V90.0458C35.6826 90.3696 35.9382 90.6252 36.262 90.6252Z" fill="#1A2A3A"/>
<path d="M45.7368 55.1279H43.3169V85.8368H45.7368V55.1279Z" fill="#1A2A3A"/>
<path fill-rule="evenodd" clip-rule="evenodd" d="M43.2828 51.0381C43.1464 50.0326 42.4989 49.5214 41.3571 49.4873H25.4744C23.5998 49.5555 23.5146 49.9986 23.0204 50.8336L13 69.3748V90.0462H13C13 90.3699 13.2386 90.6085 13.5453 90.6085H43.4532L43.2828 51.0211V51.0381ZM21.4867 77.4865L15.8971 77.5206V69.2044L24.5201 53.1512C25.0824 52.0606 25.3721 51.9924 26.2072 51.9924H39.7041C40.096 52.0265 40.1983 52.3503 40.1983 52.8615L40.0619 72.0503C33.3987 70.3802 26.2242 72.4423 21.4867 77.4695V77.4865Z" fill="#CDE298"/>
<path fill-rule="evenodd" clip-rule="evenodd" d="M13 82.1211V90.0624C13 90.3862 13.2386 90.6248 13.5453 90.6248H13.5624H26.2413H43.4361L43.4021 82.1211H13Z" fill="#B0BF82"/>
<path fill-rule="evenodd" clip-rule="evenodd" d="M35.512 78.6963H35.3927H35.2223H35.103C35.103 78.6963 34.9497 78.6963 34.8815 78.6963H34.8133H34.6259H34.5066L34.3702 78.7133H34.2169L34.0635 78.7474H33.9101L33.7908 78.7815H33.6375L33.5011 78.8326H33.4159C33.4159 78.8326 33.2625 78.8837 33.1773 78.9008H33.1433C30.979 79.3439 28.8999 80.4004 27.1787 82.0364C24.7418 84.3711 23.4807 87.4556 23.3955 90.5912H35.3246H47.816C47.6797 84.3711 42.874 79.2927 36.7731 78.7133H36.739C36.6538 78.7133 36.5686 78.6963 36.4834 78.6963H36.4152H36.1937C36.1255 78.6963 36.0744 78.6963 36.0062 78.6963H35.904C35.7676 78.6963 35.6313 78.6963 35.495 78.6963H35.512Z" fill="#B0BF82"/>
<path fill-rule="evenodd" clip-rule="evenodd" d="M42.7035 83.8254C44.5951 85.717 45.5665 88.154 45.6346 90.625H25.6108C25.679 88.154 26.6504 85.717 28.542 83.8254C32.4615 79.9059 38.801 79.9059 42.7205 83.8254H42.7035Z" fill="#85972D"/>
<path fill-rule="evenodd" clip-rule="evenodd" d="M42.2602 84.286C45.9241 87.95 45.9241 93.8804 42.2602 97.5443C38.5962 101.208 32.6658 101.208 29.0019 97.5443C25.3379 93.8804 25.3379 87.95 29.0019 84.286C32.6658 80.6221 38.5962 80.6221 42.2602 84.286Z" fill="#344453"/>
<path fill-rule="evenodd" clip-rule="evenodd" d="M32.5467 93.9819C30.8425 92.2777 30.8425 89.534 32.5467 87.8299C34.2508 86.1257 36.9945 86.1257 38.6987 87.8299L32.5467 93.9819Z" fill="#1A2A3A"/>
<path fill-rule="evenodd" clip-rule="evenodd" d="M42.2603 84.2852C45.9242 87.9491 45.9242 93.8795 42.2603 97.5435C38.5963 101.207 32.6659 101.207 29.002 97.5435L42.2603 84.2852Z" fill="#1A2A3A"/>
<path fill-rule="evenodd" clip-rule="evenodd" d="M38.6984 87.8301C40.4025 89.5342 40.4025 92.2779 38.6984 93.9821C36.9942 95.6862 34.2505 95.6862 32.5464 93.9821L38.6984 87.8301Z" fill="#344453"/>
<path fill-rule="evenodd" clip-rule="evenodd" d="M37.5739 88.9551C38.6475 90.0287 38.6475 91.7839 37.5739 92.8746C36.5003 93.9482 34.745 93.9482 33.6714 92.8746L37.5739 88.9551Z" fill="#AAD3EF"/>
<path fill-rule="evenodd" clip-rule="evenodd" d="M33.6714 92.8742C32.5978 91.8005 32.5978 90.0453 33.6714 88.9546C34.745 87.881 36.5003 87.881 37.5739 88.9546L33.6714 92.8742Z" fill="#E1EFFA"/>
<path fill-rule="evenodd" clip-rule="evenodd" d="M36.7728 89.7725C37.4034 90.403 37.4034 91.4255 36.7728 92.056C36.1423 92.6866 35.1198 92.6866 34.4893 92.056L36.7728 89.7725Z" fill="#1A2A3A"/>
<path fill-rule="evenodd" clip-rule="evenodd" d="M34.4895 92.0563C33.859 91.4257 33.859 90.4032 34.4895 89.7727C35.12 89.1422 36.1425 89.1422 36.7731 89.7727L34.4895 92.0563Z" fill="#344453"/>
<path fill-rule="evenodd" clip-rule="evenodd" d="M96.6741 78.6963H96.7934H96.9638H97.0831C97.0831 78.6963 97.2365 78.6963 97.3046 78.6963H97.3728H97.5602H97.6795L97.8159 78.7133H97.9692L98.1226 78.7474H98.276L98.3953 78.7815H98.5487L98.685 78.8326H98.7702C98.7702 78.8326 98.9236 78.8837 99.0088 78.9008H99.0429C101.207 79.3439 103.286 80.4004 105.007 82.0364C107.444 84.3711 108.705 87.4556 108.791 90.5912H96.8615H84.3701C84.5064 84.3711 89.3122 79.2927 95.413 78.7133H95.4471C95.5323 78.7133 95.6175 78.6963 95.7027 78.6963H95.7709H95.9924C96.0606 78.6963 96.1117 78.6963 96.1799 78.6963H96.2821C96.4185 78.6963 96.5548 78.6963 96.6911 78.6963H96.6741Z" fill="#B0BF82"/>
<path fill-rule="evenodd" clip-rule="evenodd" d="M103.661 83.8254C105.536 85.717 106.524 88.154 106.592 90.625H86.5513C86.6194 88.154 87.6078 85.717 89.4824 83.8254C93.402 79.9059 99.7414 79.9059 103.661 83.8254Z" fill="#85972D"/>
<path fill-rule="evenodd" clip-rule="evenodd" d="M89.9423 97.5443C93.6062 101.208 99.5367 101.208 103.201 97.5443C106.865 93.8804 106.865 87.95 103.201 84.286C99.5367 80.6221 93.6062 80.6221 89.9423 84.286C86.2784 87.95 86.2784 93.8804 89.9423 97.5443Z" fill="#344453"/>
<path fill-rule="evenodd" clip-rule="evenodd" d="M89.9424 97.5435C93.6063 101.207 99.5368 101.207 103.201 97.5435C106.865 93.8795 106.865 87.9491 103.201 84.2852L89.9424 97.5435Z" fill="#1A2A3A"/>
<path fill-rule="evenodd" clip-rule="evenodd" d="M99.6391 87.8299C97.9349 86.1257 95.1912 86.1257 93.4871 87.8299C91.7829 89.534 91.7829 92.2777 93.4871 93.9819L99.6391 87.8299Z" fill="#1A2A3A"/>
<path fill-rule="evenodd" clip-rule="evenodd" d="M93.5044 93.9821C95.2085 95.6862 97.9522 95.6862 99.6564 93.9821C101.361 92.2779 101.361 89.5342 99.6564 87.8301L93.5044 93.9821Z" fill="#344453"/>
<path fill-rule="evenodd" clip-rule="evenodd" d="M98.5314 88.9551C99.605 90.0287 99.605 91.7839 98.5314 92.8746C97.4577 93.9482 95.7025 93.9482 94.6118 92.8746L98.5314 88.9551Z" fill="#AAD3EF"/>
<path fill-rule="evenodd" clip-rule="evenodd" d="M94.6119 92.8742C93.5382 91.8005 93.5382 90.0453 94.6119 88.9546C95.6855 87.881 97.4407 87.881 98.5314 88.9546L94.6119 92.8742Z" fill="#E1EFFA"/>
<path fill-rule="evenodd" clip-rule="evenodd" d="M97.7133 89.7725C98.3438 90.403 98.3438 91.4255 97.7133 92.056C97.0827 92.6866 96.0602 92.6866 95.4297 92.056L97.7133 89.7725Z" fill="#1A2A3A"/>
<path fill-rule="evenodd" clip-rule="evenodd" d="M95.4299 92.0563C94.7994 91.4257 94.7994 90.4032 95.4299 89.7727C96.0605 89.1422 97.083 89.1422 97.7135 89.7727L95.4299 92.0563Z" fill="#344453"/>
<path fill-rule="evenodd" clip-rule="evenodd" d="M115.641 90.6422L146.964 100.168H155.621L115.437 87.4385L114.891 89.2278C114.704 89.8243 115.045 90.4718 115.641 90.6422Z" fill="#1A2A3A"/>
<path d="M60.4563 136C60.4563 135.449 60.4563 134.92 60.4563 134.411C60.4563 133.902 60.4563 133.338 60.4563 132.717V129.35C60.4563 128.725 60.4563 128.151 60.4563 127.628C60.4563 127.105 60.4563 126.569 60.4563 126.018H66.8123V127.404C66.3596 127.404 65.8743 127.404 65.3563 127.404C64.8383 127.404 64.2269 127.404 63.5223 127.404H61.1493L62.0663 126.27C62.0663 126.821 62.0663 127.357 62.0663 127.88C62.0663 128.398 62.0663 128.972 62.0663 129.602V132.465C62.0663 133.081 62.0663 133.646 62.0663 134.159C62.0663 134.668 62.0663 135.197 62.0663 135.748L61.2473 134.614H63.6553C64.2433 134.614 64.8009 134.614 65.3283 134.614C65.8556 134.614 66.3619 134.614 66.8473 134.614V136H60.4563ZM61.7023 131.618V130.281H63.5993C64.2339 130.281 64.7776 130.281 65.2303 130.281C65.6876 130.281 66.1286 130.281 66.5533 130.281V131.618C66.1099 131.618 65.6596 131.618 65.2023 131.618C64.7496 131.618 64.2129 131.618 63.5923 131.618H61.7023ZM68.6844 136C68.6844 135.491 68.6844 134.999 68.6844 134.523C68.6844 134.047 68.6844 133.522 68.6844 132.948V132.248C68.6844 131.73 68.6844 131.203 68.6844 130.666C68.6844 130.125 68.6844 129.583 68.6844 129.042L69.9654 128.958L70.0214 130.211H70.1684C70.3178 129.996 70.5021 129.786 70.7214 129.581C70.9408 129.376 71.1974 129.205 71.4914 129.07C71.7901 128.935 72.1284 128.867 72.5064 128.867C73.0664 128.867 73.4958 129.007 73.7944 129.287C74.0978 129.562 74.2961 129.959 74.3894 130.477L74.4874 130.512C74.5108 130.638 74.5271 130.771 74.5364 130.911C74.5504 131.046 74.5574 131.191 74.5574 131.345C74.5574 131.648 74.5574 131.924 74.5574 132.171C74.5574 132.414 74.5574 132.673 74.5574 132.948C74.5574 133.508 74.5574 134.031 74.5574 134.516C74.5574 134.997 74.5574 135.491 74.5574 136H73.0664C73.0664 135.491 73.0664 134.999 73.0664 134.523C73.0664 134.042 73.0664 133.543 73.0664 133.025V131.779C73.0664 131.275 72.9824 130.895 72.8144 130.638C72.6511 130.381 72.3524 130.253 71.9184 130.253C71.6618 130.253 71.4284 130.309 71.2184 130.421C71.0084 130.533 70.8171 130.682 70.6444 130.869C70.4718 131.051 70.3178 131.252 70.1824 131.471V133.025C70.1824 133.562 70.1824 134.066 70.1824 134.537C70.1824 135.004 70.1824 135.491 70.1824 136H68.6844ZM77.3994 136C77.3994 135.491 77.3994 134.999 77.3994 134.523C77.3994 134.042 77.3994 133.543 77.3994 133.025V131.779C77.3994 131.275 77.3154 130.895 77.1474 130.638C76.9841 130.381 76.6878 130.253 76.2584 130.253C76.0018 130.253 75.7661 130.309 75.5514 130.421C75.3414 130.528 75.1501 130.675 74.9774 130.862C74.8048 131.044 74.6484 131.247 74.5084 131.471L74.2914 130.232H74.4384C74.6018 130.013 74.7954 129.798 75.0194 129.588C75.2481 129.378 75.5141 129.205 75.8174 129.07C76.1208 128.935 76.4638 128.867 76.8464 128.867C77.5604 128.867 78.0808 129.082 78.4074 129.511C78.7341 129.94 78.8974 130.552 78.8974 131.345C78.8974 131.648 78.8974 131.924 78.8974 132.171C78.8974 132.414 78.8974 132.673 78.8974 132.948C78.8974 133.508 78.8974 134.031 78.8974 134.516C78.8974 134.997 78.8974 135.491 78.8974 136H77.3994ZM80.8934 138.737C80.8934 138.228 80.8934 137.727 80.8934 137.232C80.8934 136.742 80.8934 136.21 80.8934 135.636V132.248C80.8934 131.73 80.8934 131.203 80.8934 130.666C80.8934 130.125 80.8934 129.583 80.8934 129.042L82.2374 128.958L82.2794 129.882H82.4194C82.5548 129.686 82.7274 129.511 82.9374 129.357C83.1474 129.203 83.3854 129.084 83.6514 129C83.9221 128.911 84.2161 128.867 84.5334 128.867C85.1634 128.867 85.6954 129.026 86.1294 129.343C86.5681 129.66 86.8994 130.094 87.1234 130.645C87.3521 131.196 87.4664 131.814 87.4664 132.5C87.4664 133.149 87.3591 133.753 87.1444 134.313C86.9344 134.868 86.6148 135.316 86.1854 135.657C85.7561 135.998 85.2148 136.168 84.5614 136.168C84.2581 136.168 83.9804 136.128 83.7284 136.049C83.4811 135.97 83.2548 135.855 83.0494 135.706C82.8488 135.557 82.6668 135.377 82.5034 135.167H82.3914V135.713C82.3914 136.25 82.3914 136.751 82.3914 137.218C82.3914 137.689 82.3914 138.179 82.3914 138.688L80.8934 138.737ZM84.0504 134.859C84.4844 134.859 84.8414 134.749 85.1214 134.53C85.4014 134.306 85.6068 134.017 85.7374 133.662C85.8681 133.303 85.9334 132.92 85.9334 132.514C85.9334 132.089 85.8634 131.702 85.7234 131.352C85.5881 130.997 85.3804 130.715 85.1004 130.505C84.8204 130.295 84.4634 130.19 84.0294 130.19C83.8148 130.19 83.6048 130.223 83.3994 130.288C83.1988 130.349 83.0121 130.442 82.8394 130.568C82.6668 130.689 82.5174 130.843 82.3914 131.03V133.858C82.5128 134.063 82.6528 134.241 82.8114 134.39C82.9701 134.539 83.1521 134.656 83.3574 134.74C83.5628 134.819 83.7938 134.859 84.0504 134.859ZM89.1786 136C89.1786 135.491 89.1786 134.999 89.1786 134.523C89.1786 134.047 89.1786 133.522 89.1786 132.948V132.248C89.1786 131.73 89.1786 131.203 89.1786 130.666C89.1786 130.125 89.1786 129.583 89.1786 129.042L90.4596 128.958L90.5156 130.33H90.6556C90.8423 129.919 91.0546 129.609 91.2926 129.399C91.5306 129.189 91.7733 129.049 92.0206 128.979C92.2679 128.904 92.4989 128.867 92.7136 128.867C92.8349 128.867 92.9609 128.876 93.0916 128.895C93.2223 128.914 93.3459 128.944 93.4626 128.986L93.3296 130.47C93.1663 130.442 93.0193 130.421 92.8886 130.407C92.7579 130.393 92.6086 130.386 92.4406 130.386C92.3099 130.386 92.1653 130.405 92.0066 130.442C91.8479 130.475 91.6869 130.545 91.5236 130.652C91.3649 130.759 91.2109 130.92 91.0616 131.135C90.9169 131.345 90.7886 131.623 90.6766 131.968V133.025C90.6766 133.562 90.6766 134.066 90.6766 134.537C90.6766 135.004 90.6766 135.491 90.6766 136H89.1786ZM97.889 136.161C97.035 136.161 96.3327 136.002 95.782 135.685C95.2313 135.368 94.823 134.934 94.557 134.383C94.2957 133.832 94.165 133.2 94.165 132.486C94.165 131.781 94.291 131.156 94.543 130.61C94.7997 130.064 95.173 129.639 95.663 129.336C96.153 129.028 96.7457 128.874 97.441 128.874C98.043 128.874 98.561 128.988 98.995 129.217C99.429 129.441 99.7627 129.777 99.996 130.225C100.229 130.673 100.346 131.228 100.346 131.891C100.346 132.068 100.341 132.229 100.332 132.374C100.327 132.514 100.313 132.654 100.29 132.794L98.981 132.22C98.9903 132.15 98.9973 132.082 99.002 132.017C99.0067 131.947 99.009 131.882 99.009 131.821C99.009 131.247 98.8643 130.804 98.575 130.491C98.2903 130.174 97.917 130.015 97.455 130.015C97.0957 130.015 96.783 130.113 96.517 130.309C96.251 130.505 96.0433 130.773 95.894 131.114C95.7493 131.455 95.677 131.847 95.677 132.29V132.514C95.677 133.009 95.761 133.433 95.929 133.788C96.1017 134.143 96.363 134.416 96.713 134.607C97.0677 134.798 97.5133 134.894 98.05 134.894C98.2553 134.894 98.4793 134.878 98.722 134.845C98.9693 134.808 99.2167 134.752 99.464 134.677C99.7113 134.602 99.9447 134.507 100.164 134.39L100.22 135.692C100.043 135.785 99.835 135.867 99.597 135.937C99.359 136.007 99.0953 136.061 98.806 136.098C98.5213 136.14 98.2157 136.161 97.889 136.161ZM94.767 132.794V131.772L99.394 131.716L100.29 132.087V132.794H94.767ZM104.068 136.161C103.764 136.161 103.463 136.14 103.165 136.098C102.871 136.056 102.593 135.998 102.332 135.923C102.075 135.844 101.849 135.757 101.653 135.664L101.765 134.306C101.975 134.427 102.203 134.535 102.451 134.628C102.698 134.717 102.955 134.787 103.221 134.838C103.491 134.885 103.762 134.908 104.033 134.908C104.257 134.908 104.462 134.887 104.649 134.845C104.84 134.798 104.992 134.712 105.104 134.586C105.22 134.46 105.279 134.273 105.279 134.026C105.279 133.863 105.225 133.727 105.118 133.62C105.01 133.513 104.835 133.417 104.593 133.333C104.35 133.244 104.019 133.142 103.599 133.025C103.211 132.922 102.873 132.794 102.584 132.64C102.299 132.486 102.077 132.281 101.919 132.024C101.76 131.767 101.681 131.429 101.681 131.009C101.681 130.332 101.898 129.807 102.332 129.434C102.766 129.061 103.347 128.874 104.075 128.874C104.383 128.874 104.681 128.9 104.971 128.951C105.26 128.998 105.524 129.061 105.762 129.14C106.004 129.215 106.21 129.294 106.378 129.378L106.259 130.736C106.044 130.601 105.811 130.489 105.559 130.4C105.311 130.307 105.073 130.239 104.845 130.197C104.616 130.15 104.422 130.127 104.264 130.127C104.082 130.127 103.909 130.153 103.746 130.204C103.587 130.251 103.459 130.335 103.361 130.456C103.263 130.573 103.214 130.731 103.214 130.932C103.214 131.091 103.251 131.226 103.326 131.338C103.4 131.45 103.536 131.553 103.732 131.646C103.932 131.739 104.222 131.837 104.6 131.94C105.071 132.075 105.47 132.218 105.797 132.367C106.128 132.516 106.378 132.712 106.546 132.955C106.714 133.198 106.798 133.534 106.798 133.963C106.798 134.392 106.704 134.773 106.518 135.104C106.331 135.435 106.037 135.694 105.636 135.881C105.234 136.068 104.712 136.161 104.068 136.161ZM110.081 136.147C109.684 136.147 109.329 136.068 109.017 135.909C108.704 135.746 108.457 135.512 108.275 135.209C108.097 134.901 108.009 134.528 108.009 134.089C108.009 133.702 108.074 133.377 108.205 133.116C108.34 132.85 108.517 132.633 108.737 132.465C108.956 132.297 109.201 132.166 109.472 132.073C109.742 131.98 110.015 131.912 110.291 131.87L112.356 131.548C112.374 131.161 112.316 130.864 112.181 130.659C112.05 130.454 111.863 130.314 111.621 130.239C111.383 130.164 111.112 130.127 110.809 130.127C110.65 130.127 110.477 130.139 110.291 130.162C110.109 130.185 109.915 130.225 109.71 130.281C109.509 130.332 109.297 130.398 109.073 130.477C108.853 130.552 108.627 130.643 108.394 130.75L108.31 129.42C108.482 129.35 108.676 129.282 108.891 129.217C109.105 129.152 109.336 129.093 109.584 129.042C109.836 128.986 110.095 128.944 110.361 128.916C110.627 128.888 110.897 128.874 111.173 128.874C111.723 128.874 112.195 128.956 112.587 129.119C112.979 129.282 113.28 129.544 113.49 129.903C113.7 130.258 113.805 130.72 113.805 131.289C113.805 131.513 113.805 131.791 113.805 132.122C113.805 132.453 113.805 132.761 113.805 133.046V133.886C113.805 134.217 113.805 134.553 113.805 134.894C113.805 135.235 113.805 135.603 113.805 136H112.454L112.37 135.076H112.237C112.101 135.249 111.931 135.417 111.726 135.58C111.525 135.743 111.285 135.879 111.005 135.986C110.729 136.093 110.421 136.147 110.081 136.147ZM110.571 134.957C110.795 134.957 111.014 134.908 111.229 134.81C111.448 134.707 111.651 134.563 111.838 134.376C112.024 134.189 112.185 133.963 112.321 133.697V132.465C112.251 132.507 112.16 132.547 112.048 132.584C111.94 132.621 111.777 132.663 111.558 132.71C111.338 132.757 111.03 132.815 110.634 132.885C110.405 132.922 110.209 132.99 110.046 133.088C109.882 133.186 109.754 133.314 109.661 133.473C109.572 133.627 109.528 133.811 109.528 134.026C109.528 134.367 109.63 134.607 109.836 134.747C110.046 134.887 110.291 134.957 110.571 134.957ZM41.8223 154.168C41.3417 154.168 40.931 154.089 40.5903 153.93C40.2543 153.771 39.9977 153.524 39.8203 153.188C39.6477 152.852 39.5613 152.418 39.5613 151.886C39.5613 151.517 39.5613 151.149 39.5613 150.78C39.5613 150.407 39.5613 150.036 39.5613 149.667C39.5613 149.294 39.5613 148.923 39.5613 148.554C39.5613 148.185 39.5613 147.817 39.5613 147.448C39.5613 146.953 39.5613 146.496 39.5613 146.076C39.5613 145.656 39.5613 145.224 39.5613 144.781L41.0383 144.487C41.0383 144.842 41.0383 145.171 41.0383 145.474C41.0383 145.777 41.0383 146.088 41.0383 146.405C41.0383 146.718 41.0383 147.065 41.0383 147.448V151.473C41.0383 151.949 41.134 152.308 41.3253 152.551C41.5167 152.789 41.8153 152.908 42.2213 152.908C42.3893 152.908 42.569 152.88 42.7603 152.824C42.9563 152.763 43.136 152.672 43.2993 152.551L43.4043 153.811C43.297 153.881 43.1593 153.944 42.9913 154C42.828 154.051 42.6437 154.091 42.4383 154.119C42.2377 154.152 42.0323 154.168 41.8223 154.168ZM38.2943 148.197V147.042H43.3483V148.197C42.891 148.197 42.4313 148.197 41.9693 148.197C41.5073 148.197 41.057 148.197 40.6183 148.197H39.9813H38.2943ZM44.8612 154C44.8612 153.491 44.8612 152.999 44.8612 152.523C44.8612 152.047 44.8612 151.522 44.8612 150.948V150.248C44.8612 149.73 44.8612 149.203 44.8612 148.666C44.8612 148.125 44.8612 147.583 44.8612 147.042L46.1422 146.958L46.1982 148.33H46.3382C46.5249 147.919 46.7372 147.609 46.9752 147.399C47.2132 147.189 47.4559 147.049 47.7032 146.979C47.9505 146.904 48.1815 146.867 48.3962 146.867C48.5175 146.867 48.6435 146.876 48.7742 146.895C48.9049 146.914 49.0285 146.944 49.1452 146.986L49.0122 148.47C48.8489 148.442 48.7019 148.421 48.5712 148.407C48.4405 148.393 48.2912 148.386 48.1232 148.386C47.9925 148.386 47.8479 148.405 47.6892 148.442C47.5305 148.475 47.3695 148.545 47.2062 148.652C47.0475 148.759 46.8935 148.92 46.7442 149.135C46.5995 149.345 46.4712 149.623 46.3592 149.968V151.025C46.3592 151.562 46.3592 152.066 46.3592 152.537C46.3592 153.004 46.3592 153.491 46.3592 154H44.8612ZM52.0366 154.147C51.64 154.147 51.2853 154.068 50.9726 153.909C50.66 153.746 50.4126 153.512 50.2306 153.209C50.0533 152.901 49.9646 152.528 49.9646 152.089C49.9646 151.702 50.03 151.377 50.1606 151.116C50.296 150.85 50.4733 150.633 50.6926 150.465C50.912 150.297 51.157 150.166 51.4276 150.073C51.6983 149.98 51.9713 149.912 52.2466 149.87L54.3116 149.548C54.3303 149.161 54.272 148.864 54.1366 148.659C54.006 148.454 53.8193 148.314 53.5766 148.239C53.3386 148.164 53.068 148.127 52.7646 148.127C52.606 148.127 52.4333 148.139 52.2466 148.162C52.0646 148.185 51.871 148.225 51.6656 148.281C51.465 148.332 51.2526 148.398 51.0286 148.477C50.8093 148.552 50.583 148.643 50.3496 148.75L50.2656 147.42C50.4383 147.35 50.632 147.282 50.8466 147.217C51.0613 147.152 51.2923 147.093 51.5396 147.042C51.7916 146.986 52.0506 146.944 52.3166 146.916C52.5826 146.888 52.8533 146.874 53.1286 146.874C53.6793 146.874 54.1506 146.956 54.5426 147.119C54.9346 147.282 55.2356 147.544 55.4456 147.903C55.6556 148.258 55.7606 148.72 55.7606 149.289C55.7606 149.513 55.7606 149.791 55.7606 150.122C55.7606 150.453 55.7606 150.761 55.7606 151.046V151.886C55.7606 152.217 55.7606 152.553 55.7606 152.894C55.7606 153.235 55.7606 153.603 55.7606 154H54.4096L54.3256 153.076H54.1926C54.0573 153.249 53.887 153.417 53.6816 153.58C53.481 153.743 53.2406 153.879 52.9606 153.986C52.6853 154.093 52.3773 154.147 52.0366 154.147ZM52.5266 152.957C52.7506 152.957 52.97 152.908 53.1846 152.81C53.404 152.707 53.607 152.563 53.7936 152.376C53.9803 152.189 54.1413 151.963 54.2766 151.697V150.465C54.2066 150.507 54.1156 150.547 54.0036 150.584C53.8963 150.621 53.733 150.663 53.5136 150.71C53.2943 150.757 52.9863 150.815 52.5896 150.885C52.361 150.922 52.165 150.99 52.0016 151.088C51.8383 151.186 51.71 151.314 51.6166 151.473C51.528 151.627 51.4836 151.811 51.4836 152.026C51.4836 152.367 51.5863 152.607 51.7916 152.747C52.0016 152.887 52.2466 152.957 52.5266 152.957ZM57.7538 154C57.7538 153.491 57.7538 152.999 57.7538 152.523C57.7538 152.047 57.7538 151.522 57.7538 150.948V150.248C57.7538 149.73 57.7538 149.203 57.7538 148.666C57.7538 148.125 57.7538 147.583 57.7538 147.042L59.0348 146.958L59.0908 148.218H59.2378C59.3871 148.003 59.5761 147.793 59.8048 147.588C60.0381 147.378 60.3088 147.205 60.6168 147.07C60.9248 146.935 61.2771 146.867 61.6738 146.867C62.3971 146.867 62.9314 147.077 63.2768 147.497C63.6268 147.917 63.8018 148.533 63.8018 149.345C63.8018 149.648 63.8018 149.924 63.8018 150.171C63.8018 150.414 63.8018 150.673 63.8018 150.948C63.8018 151.508 63.8018 152.031 63.8018 152.516C63.8018 152.997 63.8018 153.491 63.8018 154H62.3038C62.3038 153.491 62.3038 152.999 62.3038 152.523C62.3038 152.042 62.3038 151.543 62.3038 151.025V149.779C62.3038 149.275 62.2174 148.895 62.0448 148.638C61.8721 148.381 61.5548 148.253 61.0928 148.253C60.8221 148.253 60.5748 148.309 60.3508 148.421C60.1268 148.528 59.9238 148.675 59.7418 148.862C59.5598 149.044 59.3964 149.247 59.2518 149.471V151.025C59.2518 151.562 59.2518 152.066 59.2518 152.537C59.2518 153.004 59.2518 153.491 59.2518 154H57.7538ZM67.8715 154.161C67.5682 154.161 67.2672 154.14 66.9685 154.098C66.6745 154.056 66.3968 153.998 66.1355 153.923C65.8788 153.844 65.6525 153.757 65.4565 153.664L65.5685 152.306C65.7785 152.427 66.0072 152.535 66.2545 152.628C66.5018 152.717 66.7585 152.787 67.0245 152.838C67.2952 152.885 67.5658 152.908 67.8365 152.908C68.0605 152.908 68.2658 152.887 68.4525 152.845C68.6438 152.798 68.7955 152.712 68.9075 152.586C69.0242 152.46 69.0825 152.273 69.0825 152.026C69.0825 151.863 69.0288 151.727 68.9215 151.62C68.8142 151.513 68.6392 151.417 68.3965 151.333C68.1538 151.244 67.8225 151.142 67.4025 151.025C67.0152 150.922 66.6768 150.794 66.3875 150.64C66.1028 150.486 65.8812 150.281 65.7225 150.024C65.5638 149.767 65.4845 149.429 65.4845 149.009C65.4845 148.332 65.7015 147.807 66.1355 147.434C66.5695 147.061 67.1505 146.874 67.8785 146.874C68.1865 146.874 68.4852 146.9 68.7745 146.951C69.0638 146.998 69.3275 147.061 69.5655 147.14C69.8082 147.215 70.0135 147.294 70.1815 147.378L70.0625 148.736C69.8478 148.601 69.6145 148.489 69.3625 148.4C69.1152 148.307 68.8772 148.239 68.6485 148.197C68.4198 148.15 68.2262 148.127 68.0675 148.127C67.8855 148.127 67.7128 148.153 67.5495 148.204C67.3908 148.251 67.2625 148.335 67.1645 148.456C67.0665 148.573 67.0175 148.731 67.0175 148.932C67.0175 149.091 67.0548 149.226 67.1295 149.338C67.2042 149.45 67.3395 149.553 67.5355 149.646C67.7362 149.739 68.0255 149.837 68.4035 149.94C68.8748 150.075 69.2738 150.218 69.6005 150.367C69.9318 150.516 70.1815 150.712 70.3495 150.955C70.5175 151.198 70.6015 151.534 70.6015 151.963C70.6015 152.392 70.5082 152.773 70.3215 153.104C70.1348 153.435 69.8408 153.694 69.4395 153.881C69.0382 154.068 68.5155 154.161 67.8715 154.161ZM72.2323 156.737C72.2323 156.228 72.2323 155.727 72.2323 155.232C72.2323 154.742 72.2323 154.21 72.2323 153.636V150.248C72.2323 149.73 72.2323 149.203 72.2323 148.666C72.2323 148.125 72.2323 147.583 72.2323 147.042L73.5763 146.958L73.6183 147.882H73.7583C73.8936 147.686 74.0663 147.511 74.2763 147.357C74.4863 147.203 74.7243 147.084 74.9903 147C75.261 146.911 75.555 146.867 75.8723 146.867C76.5023 146.867 77.0343 147.026 77.4683 147.343C77.907 147.66 78.2383 148.094 78.4623 148.645C78.691 149.196 78.8053 149.814 78.8053 150.5C78.8053 151.149 78.698 151.753 78.4833 152.313C78.2733 152.868 77.9536 153.316 77.5243 153.657C77.095 153.998 76.5536 154.168 75.9003 154.168C75.597 154.168 75.3193 154.128 75.0673 154.049C74.82 153.97 74.5936 153.855 74.3883 153.706C74.1876 153.557 74.0056 153.377 73.8423 153.167H73.7303V153.713C73.7303 154.25 73.7303 154.751 73.7303 155.218C73.7303 155.689 73.7303 156.179 73.7303 156.688L72.2323 156.737ZM75.3893 152.859C75.8233 152.859 76.1803 152.749 76.4603 152.53C76.7403 152.306 76.9456 152.017 77.0763 151.662C77.207 151.303 77.2723 150.92 77.2723 150.514C77.2723 150.089 77.2023 149.702 77.0623 149.352C76.927 148.997 76.7193 148.715 76.4393 148.505C76.1593 148.295 75.8023 148.19 75.3683 148.19C75.1536 148.19 74.9436 148.223 74.7383 148.288C74.5376 148.349 74.351 148.442 74.1783 148.568C74.0056 148.689 73.8563 148.843 73.7303 149.03V151.858C73.8516 152.063 73.9916 152.241 74.1503 152.39C74.309 152.539 74.491 152.656 74.6963 152.74C74.9016 152.819 75.1326 152.859 75.3893 152.859ZM83.6535 154.168C83.0561 154.168 82.5335 154.068 82.0855 153.867C81.6375 153.666 81.2618 153.396 80.9585 153.055C80.6598 152.71 80.4358 152.318 80.2865 151.879C80.1371 151.436 80.0625 150.971 80.0625 150.486C80.0625 149.791 80.2025 149.172 80.4825 148.631C80.7625 148.085 81.1685 147.656 81.7005 147.343C82.2325 147.026 82.8741 146.867 83.6255 146.867C84.1995 146.867 84.7081 146.958 85.1515 147.14C85.5948 147.322 85.9658 147.579 86.2645 147.91C86.5678 148.237 86.7965 148.619 86.9505 149.058C87.1045 149.497 87.1815 149.973 87.1815 150.486C87.1815 151.181 87.0415 151.807 86.7615 152.362C86.4815 152.917 86.0755 153.358 85.5435 153.685C85.0161 154.007 84.3861 154.168 83.6535 154.168ZM83.6465 152.908C84.0945 152.908 84.4678 152.794 84.7665 152.565C85.0651 152.332 85.2868 152.031 85.4315 151.662C85.5808 151.293 85.6555 150.901 85.6555 150.486C85.6555 150.005 85.5715 149.59 85.4035 149.24C85.2401 148.885 85.0068 148.612 84.7035 148.421C84.4048 148.225 84.0501 148.127 83.6395 148.127C83.1961 148.127 82.8205 148.232 82.5125 148.442C82.2091 148.647 81.9781 148.93 81.8195 149.289C81.6655 149.644 81.5885 150.043 81.5885 150.486C81.5885 150.901 81.6631 151.293 81.8125 151.662C81.9665 152.031 82.1951 152.332 82.4985 152.565C82.8065 152.794 83.1891 152.908 83.6465 152.908ZM88.8846 154C88.8846 153.491 88.8846 152.999 88.8846 152.523C88.8846 152.047 88.8846 151.522 88.8846 150.948V150.248C88.8846 149.73 88.8846 149.203 88.8846 148.666C88.8846 148.125 88.8846 147.583 88.8846 147.042L90.1656 146.958L90.2216 148.33H90.3616C90.5483 147.919 90.7606 147.609 90.9986 147.399C91.2366 147.189 91.4793 147.049 91.7266 146.979C91.974 146.904 92.205 146.867 92.4196 146.867C92.541 146.867 92.667 146.876 92.7976 146.895C92.9283 146.914 93.052 146.944 93.1686 146.986L93.0356 148.47C92.8723 148.442 92.7253 148.421 92.5946 148.407C92.464 148.393 92.3146 148.386 92.1466 148.386C92.016 148.386 91.8713 148.405 91.7126 148.442C91.554 148.475 91.393 148.545 91.2296 148.652C91.071 148.759 90.917 148.92 90.7676 149.135C90.623 149.345 90.4946 149.623 90.3826 149.968V151.025C90.3826 151.562 90.3826 152.066 90.3826 152.537C90.3826 153.004 90.3826 153.491 90.3826 154H88.8846ZM97.3028 154.168C96.8221 154.168 96.4115 154.089 96.0708 153.93C95.7348 153.771 95.4781 153.524 95.3008 153.188C95.1281 152.852 95.0418 152.418 95.0418 151.886C95.0418 151.517 95.0418 151.149 95.0418 150.78C95.0418 150.407 95.0418 150.036 95.0418 149.667C95.0418 149.294 95.0418 148.923 95.0418 148.554C95.0418 148.185 95.0418 147.817 95.0418 147.448C95.0418 146.953 95.0418 146.496 95.0418 146.076C95.0418 145.656 95.0418 145.224 95.0418 144.781L96.5188 144.487C96.5188 144.842 96.5188 145.171 96.5188 145.474C96.5188 145.777 96.5188 146.088 96.5188 146.405C96.5188 146.718 96.5188 147.065 96.5188 147.448V151.473C96.5188 151.949 96.6145 152.308 96.8058 152.551C96.9971 152.789 97.2958 152.908 97.7018 152.908C97.8698 152.908 98.0495 152.88 98.2408 152.824C98.4368 152.763 98.6165 152.672 98.7798 152.551L98.8848 153.811C98.7775 153.881 98.6398 153.944 98.4718 154C98.3085 154.051 98.1241 154.091 97.9188 154.119C97.7181 154.152 97.5128 154.168 97.3028 154.168ZM93.7748 148.197V147.042H98.8288V148.197C98.3715 148.197 97.9118 148.197 97.4498 148.197C96.9878 148.197 96.5375 148.197 96.0988 148.197H95.4618H93.7748ZM101.994 154.147C101.597 154.147 101.242 154.068 100.93 153.909C100.617 153.746 100.37 153.512 100.188 153.209C100.01 152.901 99.9217 152.528 99.9217 152.089C99.9217 151.702 99.987 151.377 100.118 151.116C100.253 150.85 100.43 150.633 100.65 150.465C100.869 150.297 101.114 150.166 101.385 150.073C101.655 149.98 101.928 149.912 102.204 149.87L104.269 149.548C104.287 149.161 104.229 148.864 104.094 148.659C103.963 148.454 103.776 148.314 103.534 148.239C103.296 148.164 103.025 148.127 102.722 148.127C102.563 148.127 102.39 148.139 102.204 148.162C102.022 148.185 101.828 148.225 101.623 148.281C101.422 148.332 101.21 148.398 100.986 148.477C100.766 148.552 100.54 148.643 100.307 148.75L100.223 147.42C100.395 147.35 100.589 147.282 100.804 147.217C101.018 147.152 101.249 147.093 101.497 147.042C101.749 146.986 102.008 146.944 102.274 146.916C102.54 146.888 102.81 146.874 103.086 146.874C103.636 146.874 104.108 146.956 104.5 147.119C104.892 147.282 105.193 147.544 105.403 147.903C105.613 148.258 105.718 148.72 105.718 149.289C105.718 149.513 105.718 149.791 105.718 150.122C105.718 150.453 105.718 150.761 105.718 151.046V151.886C105.718 152.217 105.718 152.553 105.718 152.894C105.718 153.235 105.718 153.603 105.718 154H104.367L104.283 153.076H104.15C104.014 153.249 103.844 153.417 103.639 153.58C103.438 153.743 103.198 153.879 102.918 153.986C102.642 154.093 102.334 154.147 101.994 154.147ZM102.484 152.957C102.708 152.957 102.927 152.908 103.142 152.81C103.361 152.707 103.564 152.563 103.751 152.376C103.937 152.189 104.098 151.963 104.234 151.697V150.465C104.164 150.507 104.073 150.547 103.961 150.584C103.853 150.621 103.69 150.663 103.471 150.71C103.251 150.757 102.943 150.815 102.547 150.885C102.318 150.922 102.122 150.99 101.959 151.088C101.795 151.186 101.667 151.314 101.574 151.473C101.485 151.627 101.441 151.811 101.441 152.026C101.441 152.367 101.543 152.607 101.749 152.747C101.959 152.887 102.204 152.957 102.484 152.957ZM110.175 154.168C109.521 154.168 108.978 153.998 108.544 153.657C108.114 153.316 107.792 152.868 107.578 152.313C107.368 151.753 107.263 151.149 107.263 150.5C107.263 149.814 107.375 149.196 107.599 148.645C107.827 148.094 108.161 147.66 108.6 147.343C109.038 147.026 109.57 146.867 110.196 146.867C110.499 146.867 110.779 146.907 111.036 146.986C111.292 147.065 111.519 147.175 111.715 147.315C111.911 147.455 112.074 147.614 112.205 147.791H112.345V147.091C112.345 146.508 112.345 145.941 112.345 145.39C112.345 144.835 112.345 144.289 112.345 143.752L113.843 143.591C113.843 144.151 113.843 144.718 113.843 145.292C113.843 145.861 113.843 146.461 113.843 147.091V150.948C113.843 151.522 113.843 152.047 113.843 152.523C113.843 152.999 113.843 153.491 113.843 154H112.555L112.471 153.062H112.345C112.167 153.3 111.969 153.501 111.75 153.664C111.535 153.827 111.297 153.951 111.036 154.035C110.774 154.124 110.487 154.168 110.175 154.168ZM110.686 152.859C110.938 152.859 111.166 152.819 111.372 152.74C111.577 152.656 111.759 152.539 111.918 152.39C112.081 152.241 112.223 152.063 112.345 151.858V149.03C112.219 148.843 112.069 148.689 111.897 148.568C111.724 148.442 111.535 148.349 111.33 148.288C111.124 148.223 110.914 148.19 110.7 148.19C110.27 148.19 109.916 148.295 109.636 148.505C109.356 148.715 109.146 148.997 109.006 149.352C108.866 149.702 108.796 150.089 108.796 150.514C108.796 150.92 108.861 151.303 108.992 151.662C109.127 152.017 109.332 152.306 109.608 152.53C109.888 152.749 110.247 152.859 110.686 152.859ZM118.968 154.168C118.371 154.168 117.848 154.068 117.4 153.867C116.952 153.666 116.576 153.396 116.273 153.055C115.974 152.71 115.75 152.318 115.601 151.879C115.452 151.436 115.377 150.971 115.377 150.486C115.377 149.791 115.517 149.172 115.797 148.631C116.077 148.085 116.483 147.656 117.015 147.343C117.547 147.026 118.189 146.867 118.94 146.867C119.514 146.867 120.023 146.958 120.466 147.14C120.909 147.322 121.28 147.579 121.579 147.91C121.882 148.237 122.111 148.619 122.265 149.058C122.419 149.497 122.496 149.973 122.496 150.486C122.496 151.181 122.356 151.807 122.076 152.362C121.796 152.917 121.39 153.358 120.858 153.685C120.331 154.007 119.701 154.168 118.968 154.168ZM118.961 152.908C119.409 152.908 119.782 152.794 120.081 152.565C120.38 152.332 120.601 152.031 120.746 151.662C120.895 151.293 120.97 150.901 120.97 150.486C120.97 150.005 120.886 149.59 120.718 149.24C120.555 148.885 120.321 148.612 120.018 148.421C119.719 148.225 119.365 148.127 118.954 148.127C118.511 148.127 118.135 148.232 117.827 148.442C117.524 148.647 117.293 148.93 117.134 149.289C116.98 149.644 116.903 150.043 116.903 150.486C116.903 150.901 116.978 151.293 117.127 151.662C117.281 152.031 117.51 152.332 117.813 152.565C118.121 152.794 118.504 152.908 118.961 152.908ZM124.199 154C124.199 153.491 124.199 152.999 124.199 152.523C124.199 152.047 124.199 151.522 124.199 150.948V150.248C124.199 149.73 124.199 149.203 124.199 148.666C124.199 148.125 124.199 147.583 124.199 147.042L125.48 146.958L125.536 148.33H125.676C125.863 147.919 126.075 147.609 126.313 147.399C126.551 147.189 126.794 147.049 127.041 146.979C127.288 146.904 127.519 146.867 127.734 146.867C127.855 146.867 127.981 146.876 128.112 146.895C128.243 146.914 128.366 146.944 128.483 146.986L128.35 148.47C128.187 148.442 128.04 148.421 127.909 148.407C127.778 148.393 127.629 148.386 127.461 148.386C127.33 148.386 127.186 148.405 127.027 148.442C126.868 148.475 126.707 148.545 126.544 148.652C126.385 148.759 126.231 148.92 126.082 149.135C125.937 149.345 125.809 149.623 125.697 149.968V151.025C125.697 151.562 125.697 152.066 125.697 152.537C125.697 153.004 125.697 153.491 125.697 154H124.199ZM131.375 154.147C130.978 154.147 130.623 154.068 130.311 153.909C129.998 153.746 129.751 153.512 129.569 153.209C129.391 152.901 129.303 152.528 129.303 152.089C129.303 151.702 129.368 151.377 129.499 151.116C129.634 150.85 129.811 150.633 130.031 150.465C130.25 150.297 130.495 150.166 130.766 150.073C131.036 149.98 131.309 149.912 131.585 149.87L133.65 149.548C133.668 149.161 133.61 148.864 133.475 148.659C133.344 148.454 133.157 148.314 132.915 148.239C132.677 148.164 132.406 148.127 132.103 148.127C131.944 148.127 131.771 148.139 131.585 148.162C131.403 148.185 131.209 148.225 131.004 148.281C130.803 148.332 130.591 148.398 130.367 148.477C130.147 148.552 129.921 148.643 129.688 148.75L129.604 147.42C129.776 147.35 129.97 147.282 130.185 147.217C130.399 147.152 130.63 147.093 130.878 147.042C131.13 146.986 131.389 146.944 131.655 146.916C131.921 146.888 132.191 146.874 132.467 146.874C133.017 146.874 133.489 146.956 133.881 147.119C134.273 147.282 134.574 147.544 134.784 147.903C134.994 148.258 135.099 148.72 135.099 149.289C135.099 149.513 135.099 149.791 135.099 150.122C135.099 150.453 135.099 150.761 135.099 151.046V151.886C135.099 152.217 135.099 152.553 135.099 152.894C135.099 153.235 135.099 153.603 135.099 154H133.748L133.664 153.076H133.531C133.395 153.249 133.225 153.417 133.02 153.58C132.819 153.743 132.579 153.879 132.299 153.986C132.023 154.093 131.715 154.147 131.375 154.147ZM131.865 152.957C132.089 152.957 132.308 152.908 132.523 152.81C132.742 152.707 132.945 152.563 133.132 152.376C133.318 152.189 133.479 151.963 133.615 151.697V150.465C133.545 150.507 133.454 150.547 133.342 150.584C133.234 150.621 133.071 150.663 132.852 150.71C132.632 150.757 132.324 150.815 131.928 150.885C131.699 150.922 131.503 150.99 131.34 151.088C131.176 151.186 131.048 151.314 130.955 151.473C130.866 151.627 130.822 151.811 130.822 152.026C130.822 152.367 130.924 152.607 131.13 152.747C131.34 152.887 131.585 152.957 131.865 152.957Z" fill="#3C3C3B"/>
</svg>
