<svg width="24" height="24" viewBox="0 0 24 24" fill="none" xmlns="http://www.w3.org/2000/svg">
<g clip-path="url(#clip0_591_1663)">
<path d="M21.5428 7.03122C21.5569 7.24984 21.5569 7.46846 21.5569 7.68999C21.5569 14.4341 16.6031 22.2101 7.54688 22.2101V22.2062C4.87161 22.2101 2.25177 21.4161 0 19.919C0.3889 19.9672 0.7802 19.9917 1.17188 19.9924C3.38957 19.9945 5.5435 19.2235 7.28719 17.8033C6.25932 17.7831 5.26324 17.4304 4.43837 16.7945C3.61349 16.1586 3.00109 15.2713 2.68687 14.2568C3.42468 14.4038 4.18515 14.3741 4.91016 14.1698C3.79532 13.9371 2.79262 13.3115 2.0725 12.3993C1.35238 11.4871 0.959278 10.3445 0.96 9.16591V9.10129C1.64469 9.49711 2.41133 9.71608 3.195 9.73966C2.15313 9.01847 1.41552 7.91297 1.13225 6.64809C0.848974 5.38322 1.04132 4.05401 1.67016 2.93092C2.90646 4.50736 4.44881 5.79676 6.19708 6.7154C7.94535 7.63404 9.86046 8.16141 11.8181 8.26326C11.5731 7.1693 11.6828 6.02215 12.1302 4.99932C12.5777 3.97649 13.3379 3.13498 14.2932 2.60502C15.2485 2.07505 16.3458 1.88616 17.4151 2.06759C18.4845 2.24901 19.4663 2.79063 20.2087 3.60863C21.3114 3.3833 22.3687 2.9645 23.3353 2.37028C22.9674 3.55196 22.1983 4.5551 21.1706 5.19337C22.1471 5.07274 23.1007 4.80174 24 4.38934C23.339 5.41438 22.5069 6.30902 21.5428 7.03122Z" fill="white"/>
</g>
<defs>
<clipPath id="clip0_591_1663">
<rect width="24" height="24" fill="white"/>
</clipPath>
</defs>
</svg>
