<svg width="5" height="8" viewBox="0 0 5 8" fill="none" xmlns="http://www.w3.org/2000/svg">
<path d="M1.10132 0.954101C1.05461 1.00015 1.01751 1.05545 0.992188 1.11597C0.966869 1.17648 0.954102 1.24153 0.954102 1.30713C0.954102 1.37273 0.966869 1.43778 0.992188 1.49829C1.01751 1.5588 1.05461 1.61337 1.10132 1.65942L3.35132 3.94678C3.39803 3.99283 3.43513 4.04813 3.46045 4.10864C3.48577 4.16916 3.49927 4.23347 3.49927 4.29907C3.49927 4.36467 3.48577 4.42972 3.46045 4.49023C3.43513 4.55075 3.39803 4.60605 3.35132 4.6521L1.10132 6.93945C1.05461 6.98551 1.01751 7.04007 0.992188 7.10059C0.966869 7.1611 0.954102 7.22615 0.954102 7.29175C0.954102 7.35735 0.966869 7.4224 0.992188 7.48291C1.01751 7.54342 1.05461 7.59799 1.10132 7.64404C1.14737 7.69076 1.20267 7.72786 1.26318 7.75317C1.3237 7.77849 1.38802 7.79199 1.45361 7.79199C1.51921 7.79199 1.58426 7.77849 1.64478 7.75317C1.70529 7.72786 1.76059 7.69076 1.80664 7.64404L4.10132 5.34937C4.24078 5.21006 4.35176 5.0444 4.42725 4.8623C4.50273 4.68021 4.5415 4.48521 4.5415 4.28809C4.5415 4.09096 4.50273 3.89596 4.42725 3.71387C4.35176 3.53177 4.24078 3.36612 4.10132 3.22681L1.80664 0.932128C1.75911 0.886854 1.70317 0.851531 1.64185 0.828125C1.58052 0.804718 1.51483 0.793804 1.44922 0.795898C1.38361 0.797992 1.31923 0.812574 1.25952 0.839843C1.19981 0.867112 1.14586 0.905888 1.10132 0.954101Z" fill="#3C3C3B"/>
</svg>
